<?xml version="1.0" encoding="UTF-8" standalone="no"?>
<!-- Created with Inkscape (http://www.inkscape.org/) -->

<svg
   xmlns:dc="http://purl.org/dc/elements/1.1/"
   xmlns:cc="http://creativecommons.org/ns#"
   xmlns:rdf="http://www.w3.org/1999/02/22-rdf-syntax-ns#"
   xmlns:svg="http://www.w3.org/2000/svg"
   xmlns="http://www.w3.org/2000/svg"
   xmlns:sodipodi="http://sodipodi.sourceforge.net/DTD/sodipodi-0.dtd"
   xmlns:inkscape="http://www.inkscape.org/namespaces/inkscape"
   width="20.58427mm"
   height="15.65426mm"
   viewBox="0 0 20.58427 15.65426"
   version="1.1"
   id="svg954"
   inkscape:version="0.92.4 5da689c313, 2019-01-14"
   sodipodi:docname="client.svg">
  <defs
     id="defs948" />
  <sodipodi:namedview
     id="base"
     pagecolor="#ffffff"
     bordercolor="#666666"
     borderopacity="1.0"
     inkscape:pageopacity="0.0"
     inkscape:pageshadow="2"
     inkscape:zoom="5.6"
     inkscape:cx="13.847499"
     inkscape:cy="-10.706562"
     inkscape:document-units="mm"
     inkscape:current-layer="layer1"
     showgrid="false"
     fit-margin-top="0"
     fit-margin-left="0"
     fit-margin-right="0"
     fit-margin-bottom="0"
     inkscape:window-width="2560"
     inkscape:window-height="1381"
     inkscape:window-x="0"
     inkscape:window-y="0"
     inkscape:window-maximized="1" />
  <metadata
     id="metadata951">
    <rdf:RDF>
      <cc:Work
         rdf:about="">
        <dc:format>image/svg+xml</dc:format>
        <dc:type
           rdf:resource="http://purl.org/dc/dcmitype/StillImage" />
        <dc:title></dc:title>
      </cc:Work>
    </rdf:RDF>
  </metadata>
  <g
     inkscape:label="Layer 1"
     inkscape:groupmode="layer"
     id="layer1"
     transform="translate(-97.053106,-139.4943)">
    <g
       id="g4753"
       transform="translate(-15.178084,32.238923)">
      <path
         style="fill:#c3c3c3;fill-opacity:1;stroke-width:0.04020364"
         id="path2-2"
         d="m 131.09,120.71433 h -17.13335 c -0.44837,0 -0.81193,-0.36356 -0.81193,-0.81208 v -11.53044 c 0,-0.44836 0.36356,-0.81192 0.81193,-0.81192 H 131.09 c 0.44836,0 0.81192,0.36356 0.81192,0.81192 v 11.53044 c 0,0.44852 -0.36356,0.81208 -0.81192,0.81208 z m 0,0"
         inkscape:connector-curvature="0" />
      <path
         style="fill:#4d4d4d;fill-opacity:1;stroke-width:0.04020364"
         id="path6-2"
         d="m 114.36277,108.94032 h 16.32126 v 10.39358 h -16.32126 z m 0,0"
         inkscape:connector-curvature="0" />
      <path
         sodipodi:nodetypes="sssssssss"
         inkscape:connector-curvature="0"
         style="fill:#c3c3c3;fill-opacity:1;stroke-width:0.04020364"
         id="path12"
         d="m 131.69902,122.69236 h -18.3514 c -0.44836,0 -0.81192,0.0944 -0.81192,-0.35402 v -0.81192 c 0,-0.44853 0.36356,-0.81209 0.81192,-0.81209 h 18.3514 c 0.44836,0 0.81192,0.36356 0.81192,0.81209 v 0.81192 c 0,0.44837 -0.36356,0.35402 -0.81192,0.35402 z" />
      <path
         sodipodi:nodetypes="cssssssssssscccccc"
         inkscape:connector-curvature="0"
         id="path16"
         d="m 114.05826,110.17689 v 9.15701 c 0,0.1682 0.13631,0.30452 0.30451,0.30452 h 16.32126 c 0.16804,0 0.30452,-0.13632 0.30452,-0.30452 v -10.39358 c 0,-0.1682 -0.13648,-0.30451 -0.30452,-0.30451 h -16.32126 c -0.1682,0 -0.30451,0.13631 -0.30451,0.30451 v 1.23657 c 0,0.1682 0.13631,0.30452 0.30451,0.30452 0.16803,0 0.30451,-0.13632 0.30451,-0.30452 v -0.93206 h 15.71224 v 9.78456 h -15.71224 v -8.8525 c -0.0702,-0.44816 -0.59907,-0.32763 -0.60902,0 z"
         style="stroke-width:0.04020364" />
      <path
         sodipodi:nodetypes="csccsssssssssssssssscsssccssssssssssssssc"
         inkscape:connector-curvature="0"
         id="path22"
         d="m 132.05221,120.46746 c 0.0978,-0.16584 0.15422,-0.35901 0.15422,-0.56521 v -6.47561 c -0.0702,-0.4482 -0.59906,-0.32762 -0.60902,0 v 6.47561 c 0,0.27986 -0.22772,0.50757 -0.50741,0.50757 h -17.13335 c -0.27986,0 -0.50742,-0.22771 -0.50742,-0.50757 v -11.53044 c 0,-0.27985 0.22772,-0.50741 0.50742,-0.50741 H 131.09 c 0.27985,0 0.50741,0.22772 0.50741,0.50741 v 5.05483 c 0,0.16819 0.13632,0.30451 0.30451,0.30451 0.1682,0 0.30451,-0.13632 0.30451,-0.30451 v -5.05483 c 0,-0.61561 -0.50082,-1.11643 -1.11643,-1.11643 h -17.13335 c -0.61562,0 -1.11644,0.50097 -1.11644,1.11643 v 11.53044 c 0,0.2062 0.0564,0.39937 0.15422,0.56521 -0.44303,0.14809 -0.76324,0.56662 -0.76324,1.0588 v 0.26695 c 0,0.61562 0.50082,1.11643 1.11643,1.11643 h 5.66534 c 0.44812,-0.0702 0.32764,-0.59905 0,-0.60902 h -5.66534 c -0.27985,0 -0.50741,-0.22771 -0.50741,-0.50741 v -0.26695 c 0,-0.27986 0.22772,-0.50741 0.50741,-0.50741 h 18.3514 c 0.27986,0 0.50741,0.22771 0.50741,0.50741 v 0.26695 c 0,0.27985 -0.22771,0.50741 -0.50741,0.50741 h -12.92861 c -0.1682,0 -0.30452,0.13631 -0.30452,0.30451 0,0.1682 0.13632,0.30451 0.30452,0.30451 h 12.92861 c 0.61562,0 1.11644,-0.50081 1.11644,-1.11643 v -0.26695 c 0,-0.49218 -0.32022,-0.91071 -0.76325,-1.0588 z"
         style="stroke-width:0.04020364" />
      <path
         sodipodi:nodetypes="cccc"
         inkscape:connector-curvature="0"
         id="path840"
         d="m 120.49542,120.66772 0.71958,0.92673 h 2.59484 l 0.75228,-0.89402"
         style="fill:none;stroke:#000000;stroke-width:0.45229098;stroke-linecap:round;stroke-linejoin:round;stroke-miterlimit:4;stroke-dasharray:none;stroke-opacity:1" />
    </g>
  </g>
</svg>
