<?xml version="1.0" encoding="UTF-8" standalone="no"?>
<!-- Created with Inkscape (http://www.inkscape.org/) -->

<svg
   xmlns:dc="http://purl.org/dc/elements/1.1/"
   xmlns:cc="http://creativecommons.org/ns#"
   xmlns:rdf="http://www.w3.org/1999/02/22-rdf-syntax-ns#"
   xmlns:svg="http://www.w3.org/2000/svg"
   xmlns="http://www.w3.org/2000/svg"
   xmlns:sodipodi="http://sodipodi.sourceforge.net/DTD/sodipodi-0.dtd"
   xmlns:inkscape="http://www.inkscape.org/namespaces/inkscape"
   width="29.399336mm"
   height="28.917379mm"
   viewBox="0 0 29.399336 28.917379"
   version="1.1"
   id="svg2172"
   inkscape:version="0.92.4 5da689c313, 2019-01-14"
   sodipodi:docname="cloud.svg">
  <defs
     id="defs2166" />
  <sodipodi:namedview
     id="base"
     pagecolor="#ffffff"
     bordercolor="#666666"
     borderopacity="1.0"
     inkscape:pageopacity="0.0"
     inkscape:pageshadow="2"
     inkscape:zoom="1.979899"
     inkscape:cx="-75.947548"
     inkscape:cy="116.1664"
     inkscape:document-units="mm"
     inkscape:current-layer="layer1"
     showgrid="false"
     fit-margin-top="0"
     fit-margin-left="0"
     fit-margin-right="0"
     fit-margin-bottom="0"
     inkscape:window-width="2560"
     inkscape:window-height="1381"
     inkscape:window-x="0"
     inkscape:window-y="0"
     inkscape:window-maximized="1" />
  <metadata
     id="metadata2169">
    <rdf:RDF>
      <cc:Work
         rdf:about="">
        <dc:format>image/svg+xml</dc:format>
        <dc:type
           rdf:resource="http://purl.org/dc/dcmitype/StillImage" />
        <dc:title></dc:title>
      </cc:Work>
    </rdf:RDF>
  </metadata>
  <g
     inkscape:label="Layer 1"
     inkscape:groupmode="layer"
     id="layer1"
     transform="translate(-95.669376,-107.16036)">
    <g
       id="g4624"
       transform="matrix(0.48195632,0,0,0.48195632,95.669376,107.16036)">
      <path
         inkscape:connector-curvature="0"
         id="path2"
         d="M 55.892,20.5 H 5.108 C 3.116,20.5 1.5,18.884 1.5,16.892 V 5.108 C 1.5,3.116 3.116,1.5 5.108,1.5 h 50.783 c 1.993,0 3.609,1.616 3.609,3.608 v 11.783 c 0,1.993 -1.616,3.609 -3.608,3.609 z"
         style="fill:#de8720;fill-opacity:1;stroke:#000000;stroke-width:3;stroke-miterlimit:4;stroke-dasharray:none;stroke-opacity:1" />
      <path
         inkscape:connector-curvature="0"
         id="path4"
         d="M 55.892,39.5 H 5.108 C 3.116,39.5 1.5,37.884 1.5,35.892 V 24.108 C 1.5,22.116 3.116,20.5 5.108,20.5 h 50.783 c 1.993,0 3.608,1.616 3.608,3.608 V 35.891 C 59.5,37.884 57.884,39.5 55.892,39.5 Z"
         style="fill:#965014;fill-opacity:1;stroke:#000000;stroke-width:3;stroke-miterlimit:4;stroke-dasharray:none;stroke-opacity:1" />
      <path
         inkscape:connector-curvature="0"
         id="path6"
         d="M 55.892,58.5 H 5.108 C 3.116,58.5 1.5,56.884 1.5,54.892 V 43.108 C 1.5,41.116 3.116,39.5 5.108,39.5 h 50.783 c 1.993,0 3.608,1.616 3.608,3.608 V 54.891 C 59.5,56.884 57.884,58.5 55.892,58.5 Z"
         style="fill:#de8720;fill-opacity:1;stroke:#000000;stroke-width:3;stroke-miterlimit:4;stroke-dasharray:none;stroke-opacity:1" />
      <circle
         id="circle8"
         r="3.5"
         cy="11"
         cx="11"
         style="fill:#000000;fill-opacity:1;stroke:#000000;stroke-width:0;stroke-miterlimit:4;stroke-dasharray:none;stroke-opacity:1" />
      <circle
         id="circle10"
         r="1"
         cy="9.5"
         cx="50.5"
         style="fill:#070707;fill-opacity:1" />
      <circle
         id="circle12"
         r="1"
         cy="9.5"
         cx="46.5"
         style="fill:#070707;fill-opacity:1" />
      <circle
         id="circle14"
         r="1"
         cy="12.5"
         cx="52.5"
         style="fill:#070707;fill-opacity:1" />
      <circle
         id="circle16"
         r="1"
         cy="12.5"
         cx="48.5"
         style="fill:#070707;fill-opacity:1" />
      <circle
         id="circle18"
         r="1"
         cy="9.5"
         cx="42.5"
         style="fill:#070707;fill-opacity:1" />
      <circle
         id="circle20"
         r="1"
         cy="12.5"
         cx="44.5"
         style="fill:#070707;fill-opacity:1" />
      <circle
         id="circle22"
         r="1"
         cy="9.5"
         cx="38.5"
         style="fill:#070707;fill-opacity:1" />
      <circle
         id="circle24"
         r="1"
         cy="12.5"
         cx="40.5"
         style="fill:#070707;fill-opacity:1" />
      <circle
         id="circle26"
         r="1"
         cy="9.5"
         cx="34.5"
         style="fill:#070707;fill-opacity:1" />
      <circle
         id="circle28"
         r="1"
         cy="12.5"
         cx="36.5"
         style="fill:#070707;fill-opacity:1" />
      <circle
         id="circle30"
         r="3.5"
         cy="30"
         cx="11"
         style="fill:#000000;fill-opacity:1;stroke:#000000;stroke-width:0;stroke-miterlimit:4;stroke-dasharray:none;stroke-opacity:1" />
      <circle
         id="circle32"
         r="1"
         cy="28.5"
         cx="50.5"
         style="fill:#000000;fill-opacity:1" />
      <circle
         id="circle34"
         r="1"
         cy="28.5"
         cx="46.5"
         style="fill:#000000;fill-opacity:1" />
      <circle
         id="circle36"
         r="1"
         cy="31.5"
         cx="52.5"
         style="fill:#000000;fill-opacity:1" />
      <circle
         id="circle38"
         r="1"
         cy="31.5"
         cx="48.5"
         style="fill:#000000;fill-opacity:1" />
      <circle
         id="circle40"
         r="1"
         cy="28.5"
         cx="42.5"
         style="fill:#000000;fill-opacity:1" />
      <circle
         id="circle42"
         r="1"
         cy="31.5"
         cx="44.5"
         style="fill:#000000;fill-opacity:1" />
      <circle
         id="circle44"
         r="1"
         cy="28.5"
         cx="38.5"
         style="fill:#000000;fill-opacity:1" />
      <circle
         id="circle46"
         r="1"
         cy="31.5"
         cx="40.5"
         style="fill:#000000;fill-opacity:1" />
      <circle
         id="circle48"
         r="1"
         cy="28.5"
         cx="34.5"
         style="fill:#000000;fill-opacity:1" />
      <circle
         id="circle50"
         r="1"
         cy="31.5"
         cx="36.5"
         style="fill:#000000;fill-opacity:1" />
      <circle
         id="circle52"
         r="3.5"
         cy="49"
         cx="11"
         style="fill:#000102;fill-opacity:1;stroke:#000000;stroke-width:0;stroke-miterlimit:4;stroke-dasharray:none;stroke-opacity:1" />
      <circle
         id="circle54"
         r="1"
         cy="47.5"
         cx="50.5"
         style="fill:#000000;fill-opacity:1" />
      <circle
         id="circle56"
         r="1"
         cy="47.5"
         cx="46.5"
         style="fill:#000000;fill-opacity:1" />
      <circle
         id="circle58"
         r="1"
         cy="50.5"
         cx="52.5"
         style="fill:#000000;fill-opacity:1" />
      <circle
         id="circle60"
         r="1"
         cy="50.5"
         cx="48.5"
         style="fill:#000000;fill-opacity:1" />
      <circle
         id="circle62"
         r="1"
         cy="47.5"
         cx="42.5"
         style="fill:#000000;fill-opacity:1" />
      <circle
         id="circle64"
         r="1"
         cy="50.5"
         cx="44.5"
         style="fill:#000000;fill-opacity:1" />
      <circle
         id="circle66"
         r="1"
         cy="47.5"
         cx="38.5"
         style="fill:#000000;fill-opacity:1" />
      <circle
         id="circle68"
         r="1"
         cy="50.5"
         cx="40.5"
         style="fill:#000000;fill-opacity:1" />
      <circle
         id="circle70"
         r="1"
         cy="47.5"
         cx="34.5"
         style="fill:#000000;fill-opacity:1" />
      <circle
         id="circle72"
         r="1"
         cy="50.5"
         cx="36.5"
         style="fill:#000000;fill-opacity:1" />
      <g
         transform="translate(1.5,1)"
         id="g74" />
      <g
         transform="translate(1.5,1)"
         id="g76" />
      <g
         transform="translate(1.5,1)"
         id="g78" />
      <g
         transform="translate(1.5,1)"
         id="g80" />
      <g
         transform="translate(1.5,1)"
         id="g82" />
      <g
         transform="translate(1.5,1)"
         id="g84" />
      <g
         transform="translate(1.5,1)"
         id="g86" />
      <g
         transform="translate(1.5,1)"
         id="g88" />
      <g
         transform="translate(1.5,1)"
         id="g90" />
      <g
         transform="translate(1.5,1)"
         id="g92" />
      <g
         transform="translate(1.5,1)"
         id="g94" />
      <g
         transform="translate(1.5,1)"
         id="g96" />
      <g
         transform="translate(1.5,1)"
         id="g98" />
      <g
         transform="translate(1.5,1)"
         id="g100" />
      <g
         transform="translate(1.5,1)"
         id="g102" />
    </g>
  </g>
</svg>
