<?xml version="1.0" encoding="UTF-8" standalone="no"?>
<!-- Generator: Adobe Illustrator 19.0.0, SVG Export Plug-In . SVG Version: 6.00 Build 0)  -->

<svg
   xmlns:dc="http://purl.org/dc/elements/1.1/"
   xmlns:cc="http://creativecommons.org/ns#"
   xmlns:rdf="http://www.w3.org/1999/02/22-rdf-syntax-ns#"
   xmlns:svg="http://www.w3.org/2000/svg"
   xmlns="http://www.w3.org/2000/svg"
   xmlns:sodipodi="http://sodipodi.sourceforge.net/DTD/sodipodi-0.dtd"
   xmlns:inkscape="http://www.inkscape.org/namespaces/inkscape"
   version="1.1"
   id="Capa_1"
   x="0px"
   y="0px"
   viewBox="0 0 51.5 56.5"
   xml:space="preserve"
   sodipodi:docname="database.svg"
   inkscape:version="0.92.4 5da689c313, 2019-01-14"
   inkscape:export-filename="/home/daniele/Downloads/database.png"
   inkscape:export-xdpi="1002.6667"
   inkscape:export-ydpi="1002.6667"
   width="51.5"
   height="56.5"><metadata
   id="metadata65"><rdf:RDF><cc:Work
       rdf:about=""><dc:format>image/svg+xml</dc:format><dc:type
         rdf:resource="http://purl.org/dc/dcmitype/StillImage" /><dc:title></dc:title></cc:Work></rdf:RDF></metadata><defs
   id="defs63" /><sodipodi:namedview
   pagecolor="#ffffff"
   bordercolor="#666666"
   borderopacity="1"
   objecttolerance="10"
   gridtolerance="10"
   guidetolerance="10"
   inkscape:pageopacity="0"
   inkscape:pageshadow="2"
   inkscape:window-width="2560"
   inkscape:window-height="1381"
   id="namedview61"
   showgrid="false"
   inkscape:zoom="12.594506"
   inkscape:cx="-2.2468366"
   inkscape:cy="25.848351"
   inkscape:window-x="0"
   inkscape:window-y="0"
   inkscape:window-maximized="1"
   inkscape:current-layer="Capa_1"
   fit-margin-top="0"
   fit-margin-left="0"
   fit-margin-right="0"
   fit-margin-bottom="0" />
<path
   style="fill:#424a60"
   d="m 49.705,9.75 v 0 c -0.731,-4.462 -11.174,-8 -23.955,-8 -12.781,0 -23.224,3.538 -23.955,8 v 0 H 1.75 v 0.5 11.5 0.5 0.5 11 0.5 0.5 12 h 0.045 c 0.731,4.461 11.175,8 23.955,8 12.78,0 23.224,-3.539 23.955,-8 h 0.045 v -12 -0.5 -0.5 -11 -0.5 -0.5 -11.5 -0.5 z"
   id="path2"
   inkscape:connector-curvature="0" />
<g
   id="g10"
   style="stroke:#000000;stroke-width:3.5;stroke-linejoin:bevel;stroke-miterlimit:4;stroke-dasharray:none;stroke-opacity:1"
   transform="translate(-0.75,1.75)">
	<path
   style="fill:#424a60;stroke:#000000;stroke-width:3.5;stroke-linejoin:bevel;stroke-miterlimit:4;stroke-dasharray:none;stroke-opacity:1"
   d="M 26.5,41 C 13.245,41 2.5,37.194 2.5,32.5 V 45 h 0.045 c 0.731,4.461 11.175,8 23.955,8 12.78,0 23.224,-3.539 23.955,-8 H 50.5 V 32.5 c 0,4.694 -10.745,8.5 -24,8.5 z"
   id="path4"
   inkscape:connector-curvature="0" />
	<path
   style="fill:#424a60;stroke:#000000;stroke-width:3.5;stroke-linejoin:bevel;stroke-miterlimit:4;stroke-dasharray:none;stroke-opacity:1"
   d="m 2.5,32 v 0.5 c 0,-0.168 0.018,-0.334 0.045,-0.5 z"
   id="path6"
   inkscape:connector-curvature="0" />
	<path
   style="fill:#424a60;stroke:#000000;stroke-width:3.5;stroke-linejoin:bevel;stroke-miterlimit:4;stroke-dasharray:none;stroke-opacity:1"
   d="m 50.455,32 c 0.027,0.166 0.045,0.332 0.045,0.5 V 32 Z"
   id="path8"
   inkscape:connector-curvature="0" />
</g>
<g
   id="g18"
   style="stroke:#000000;stroke-width:3.5;stroke-miterlimit:4;stroke-dasharray:none;stroke-opacity:1"
   transform="translate(-0.75,1.75)">
	<path
   style="fill:#556080;stroke:#000000;stroke-width:3.5;stroke-miterlimit:4;stroke-dasharray:none;stroke-opacity:1"
   d="M 26.5,29 C 13.245,29 2.5,25.194 2.5,20.5 V 33 h 0.045 c 0.731,4.461 11.175,8 23.955,8 12.78,0 23.224,-3.539 23.955,-8 H 50.5 V 20.5 c 0,4.694 -10.745,8.5 -24,8.5 z"
   id="path12"
   inkscape:connector-curvature="0" />
	<path
   style="fill:#556080;stroke:#000000;stroke-width:3.5;stroke-miterlimit:4;stroke-dasharray:none;stroke-opacity:1"
   d="m 2.5,20 v 0.5 c 0,-0.168 0.018,-0.334 0.045,-0.5 z"
   id="path14"
   inkscape:connector-curvature="0" />
	<path
   style="fill:#556080;stroke:#000000;stroke-width:3.5;stroke-miterlimit:4;stroke-dasharray:none;stroke-opacity:1"
   d="m 50.455,20 c 0.027,0.166 0.045,0.332 0.045,0.5 V 20 Z"
   id="path16"
   inkscape:connector-curvature="0" />
</g>
<ellipse
   style="fill:#7fabda;stroke:#000000;stroke-width:3.5;stroke-linejoin:bevel;stroke-miterlimit:4;stroke-dasharray:none;stroke-opacity:1"
   cx="25.75"
   cy="10.25"
   rx="24"
   ry="8.5"
   id="ellipse20" />
<g
   id="g28"
   style="stroke:#000000;stroke-width:3.5;stroke-linejoin:bevel;stroke-miterlimit:4;stroke-dasharray:none;stroke-opacity:1"
   transform="translate(-0.75,1.75)">
	<path
   style="fill:#7383bf;stroke:#000000;stroke-width:3.5;stroke-linejoin:bevel;stroke-miterlimit:4;stroke-dasharray:none;stroke-opacity:1"
   d="M 26.5,17 C 13.245,17 2.5,13.194 2.5,8.5 V 21 h 0.045 c 0.731,4.461 11.175,8 23.955,8 12.78,0 23.224,-3.539 23.955,-8 H 50.5 V 8.5 c 0,4.694 -10.745,8.5 -24,8.5 z"
   id="path22"
   inkscape:connector-curvature="0" />
	<path
   style="fill:#7383bf;stroke:#000000;stroke-width:3.5;stroke-linejoin:bevel;stroke-miterlimit:4;stroke-dasharray:none;stroke-opacity:1"
   d="M 2.5,8 V 8.5 C 2.5,8.332 2.518,8.166 2.545,8 Z"
   id="path24"
   inkscape:connector-curvature="0" />
	<path
   style="fill:#7383bf;stroke:#000000;stroke-width:3.5;stroke-linejoin:bevel;stroke-miterlimit:4;stroke-dasharray:none;stroke-opacity:1"
   d="M 50.455,8 C 50.482,8.166 50.5,8.332 50.5,8.5 V 8 Z"
   id="path26"
   inkscape:connector-curvature="0" />
</g>
<g
   id="g30"
   transform="translate(-0.75,1.75)">
</g>
<g
   id="g32"
   transform="translate(-0.75,1.75)">
</g>
<g
   id="g34"
   transform="translate(-0.75,1.75)">
</g>
<g
   id="g36"
   transform="translate(-0.75,1.75)">
</g>
<g
   id="g38"
   transform="translate(-0.75,1.75)">
</g>
<g
   id="g40"
   transform="translate(-0.75,1.75)">
</g>
<g
   id="g42"
   transform="translate(-0.75,1.75)">
</g>
<g
   id="g44"
   transform="translate(-0.75,1.75)">
</g>
<g
   id="g46"
   transform="translate(-0.75,1.75)">
</g>
<g
   id="g48"
   transform="translate(-0.75,1.75)">
</g>
<g
   id="g50"
   transform="translate(-0.75,1.75)">
</g>
<g
   id="g52"
   transform="translate(-0.75,1.75)">
</g>
<g
   id="g54"
   transform="translate(-0.75,1.75)">
</g>
<g
   id="g56"
   transform="translate(-0.75,1.75)">
</g>
<g
   id="g58"
   transform="translate(-0.75,1.75)">
</g>
</svg>