<?xml version="1.0" encoding="UTF-8" standalone="no"?>
<!-- Created with Inkscape (http://www.inkscape.org/) -->

<svg
   xmlns:dc="http://purl.org/dc/elements/1.1/"
   xmlns:cc="http://creativecommons.org/ns#"
   xmlns:rdf="http://www.w3.org/1999/02/22-rdf-syntax-ns#"
   xmlns:svg="http://www.w3.org/2000/svg"
   xmlns="http://www.w3.org/2000/svg"
   xmlns:sodipodi="http://sodipodi.sourceforge.net/DTD/sodipodi-0.dtd"
   xmlns:inkscape="http://www.inkscape.org/namespaces/inkscape"
   width="10.347851mm"
   height="17.813042mm"
   viewBox="0 0 10.347851 17.813042"
   version="1.1"
   id="svg1588"
   inkscape:version="0.92.4 5da689c313, 2019-01-14"
   sodipodi:docname="device.svg">
  <defs
     id="defs1582" />
  <sodipodi:namedview
     id="base"
     pagecolor="#ffffff"
     bordercolor="#666666"
     borderopacity="1.0"
     inkscape:pageopacity="0.0"
     inkscape:pageshadow="2"
     inkscape:zoom="0.35"
     inkscape:cx="1489.3033"
     inkscape:cy="53.662443"
     inkscape:document-units="mm"
     inkscape:current-layer="layer1"
     showgrid="false"
     fit-margin-top="0"
     fit-margin-left="0"
     fit-margin-right="0"
     fit-margin-bottom="0"
     inkscape:window-width="2560"
     inkscape:window-height="1381"
     inkscape:window-x="0"
     inkscape:window-y="0"
     inkscape:window-maximized="1" />
  <metadata
     id="metadata1585">
    <rdf:RDF>
      <cc:Work
         rdf:about="">
        <dc:format>image/svg+xml</dc:format>
        <dc:type
           rdf:resource="http://purl.org/dc/dcmitype/StillImage" />
        <dc:title></dc:title>
      </cc:Work>
    </rdf:RDF>
  </metadata>
  <g
     inkscape:label="Layer 1"
     inkscape:groupmode="layer"
     id="layer1"
     transform="translate(-106.70704,-145.21848)">
    <g
       id="g4668"
       transform="matrix(0.50894403,0,0,0.50894403,102.97444,145.21848)">
      <rect
         y="3.6115143"
         x="8.4942703"
         height="26.669447"
         width="17.932348"
         id="rect1059"
         style="opacity:1;fill:#4398d1;fill-opacity:1;fill-rule:nonzero;stroke:#4398d1;stroke-width:1.56523097;stroke-linecap:butt;stroke-linejoin:miter;stroke-miterlimit:4;stroke-dasharray:none;stroke-opacity:1;paint-order:normal" />
      <g
         style="fill:#030303;fill-opacity:1;stroke:#000000;stroke-width:0;stroke-miterlimit:4;stroke-dasharray:none;stroke-opacity:1"
         id="g4">
        <path
           sodipodi:nodetypes="sssssssssssssssssssssccccc"
           inkscape:connector-curvature="0"
           style="fill:#030303;fill-opacity:1;stroke:#000000;stroke-width:0;stroke-miterlimit:4;stroke-dasharray:none;stroke-opacity:1"
           id="path2-0"
           d="M 25.302,0 H 9.698 C 8.398,0 7.334,1.063 7.334,2.364 V 32.635 C 7.334,33.936 8.398,35 9.698,35 h 15.604 c 1.3,0 2.364,-1.062 2.364,-2.364 V 2.364 C 27.666,1.063 26.602,0 25.302,0 Z m -10.298,1.564964 5.001269,0.00431 C 20.163269,1.5694052 20.282,1.832 20.282,1.991 c 0,0.158 -0.07239,0.6090551 -0.230386,0.60902 L 14.994731,2.5989 C 14.836731,2.5988603 14.718,2.149 14.718,1.991 c 0,-0.159 0.128,-0.426172 0.286,-0.426036 z M 17.5,33.818 c -0.653,0 -1.182,-0.529 -1.182,-1.183 0,-0.654 0.529,-1.182 1.182,-1.182 0.653,0 1.182,0.528 1.182,1.182 0,0.654 -0.529,1.183 -1.182,1.183 z M 26.595524,31 H 8.4486699 V 3.483835 H 26.595524 Z" />
      </g>
      <g
         id="g6" />
      <g
         id="g8" />
      <g
         id="g10" />
      <g
         id="g12" />
      <g
         id="g14" />
      <g
         id="g16" />
      <g
         id="g18" />
      <g
         id="g20" />
      <g
         id="g22" />
      <g
         id="g24" />
      <g
         id="g26" />
      <g
         id="g28" />
      <g
         id="g30" />
      <g
         id="g32" />
      <g
         id="g34" />
    </g>
  </g>
</svg>
