<svg height="512pt" viewBox="-127 0 512 512" width="512pt" xmlns="http://www.w3.org/2000/svg"><g fill-rule="evenodd"><path d="m128.878906 374.875c65.472656 0 118.875-53.398438 118.875-118.875 0-65.472656-53.402344-118.875-118.875-118.875-65.476562 0-118.878906 53.402344-118.878906 118.875 0 65.476562 53.402344 118.875 118.878906 118.875zm0 0" fill="#dcf09d"/><path d="m53.121094 232.351562c8.207031-8.203124 21.628906-8.203124 29.832031 0l5.433594 5.433594 5.433593-5.433594c8.203126-8.203124 21.628907-8.203124 29.832032 0 8.203125 8.203126 8.203125 21.628907 0 29.832032l-5.433594 5.433594c-9.945312 9.941406-19.890625 19.886718-29.832031 29.828124-11.753907-11.753906-23.507813-23.507812-35.265625-35.261718-8.199219-8.203125-8.199219-21.628906 0-29.832032zm0 0" fill="#ff6978"/><path d="m63.859375 49.785156v106.679688c18.683594-12.230469 41.019531-19.339844 65.019531-19.339844 23.996094 0 46.332032 7.109375 65.015625 19.339844v-106.679688c0-21.882812-17.902343-39.785156-39.785156-39.785156h-50.464844c-21.882812 0-39.785156 17.902344-39.785156 39.785156zm0 0" fill="#95a1b4"/><path d="m63.859375 462.214844v-106.679688c18.683594 12.230469 41.019531 19.339844 65.019531 19.339844 23.996094 0 46.332032-7.109375 65.015625-19.339844v106.679688c0 21.882812-17.902343 39.785156-39.785156 39.785156h-50.464844c-21.882812 0-39.785156-17.902344-39.785156-39.785156zm0 0" fill="#95a1b4"/></g><path d="m128.878906 384.875c-71.066406 0-128.878906-57.8125-128.878906-128.875s57.8125-128.875 128.878906-128.875c54.621094 0 103.488282 34.609375 121.601563 86.121094 1.832031 5.210937-.910157 10.917968-6.117188 12.75-5.214843 1.828125-10.921875-.90625-12.75-6.117188-15.300781-43.515625-56.585937-72.753906-102.734375-72.753906-60.035156 0-108.878906 48.839844-108.878906 108.875s48.84375 108.875 108.878906 108.875c46.148438 0 87.433594-29.238281 102.734375-72.753906 1.828125-5.210938 7.539063-7.945313 12.75-6.117188 5.207031 1.832032 7.949219 7.542969 6.117188 12.75-18.113281 51.511719-66.980469 86.121094-121.601563 86.121094zm0 0"/><path d="m88.386719 307.445312c-2.652344 0-5.195313-1.050781-7.070313-2.925781l-35.261718-35.265625c-12.125-12.121094-12.125-31.847656-.003907-43.972656 5.859375-5.855469 13.667969-9.082031 21.988281-9.082031 7.566407 0 14.710938 2.667969 20.347657 7.554687 5.636719-4.886718 12.777343-7.554687 20.347656-7.554687 8.324219 0 16.128906 3.226562 21.988281 9.082031 5.855469 5.855469 9.082032 13.664062 9.082032 21.984375 0 8.324219-3.226563 16.132813-9.082032 21.988281l-35.265625 35.261719c-1.875 1.878906-4.417969 2.929687-7.070312 2.929687zm-20.347657-71.246093c-2.980468 0-5.765624 1.144531-7.84375 3.226562-4.328124 4.324219-4.328124 11.359375 0 15.6875l28.191407 28.191407 28.191406-28.191407c2.082031-2.082031 3.226563-4.867187 3.226563-7.84375 0-2.980469-1.144532-5.765625-3.226563-7.84375-2.078125-2.082031-4.863281-3.226562-7.84375-3.226562-2.976563 0-5.761719 1.144531-7.84375 3.226562l-5.433594 5.433594c-3.902343 3.902344-10.234375 3.902344-14.140625-.003906l-5.433594-5.429688c-2.078124-2.082031-4.863281-3.226562-7.84375-3.226562zm0 0"/><path d="m205.835938 304.820312h-48.523438c-5.523438 0-10-4.476562-10-10 0-5.523437 4.476562-10 10-10h48.523438c5.519531 0 10 4.476563 10 10 0 5.523438-4.480469 10-10 10zm0-32.996093h-48.523438c-5.523438 0-10-4.476563-10-10 0-5.523438 4.476562-10 10-10h48.523438c5.519531 0 10 4.476562 10 10 0 5.523437-4.480469 10-10 10zm0-32.996094h-48.523438c-5.523438 0-10-4.476563-10-10s4.476562-10 10-10h48.523438c5.519531 0 10 4.476563 10 10s-4.480469 10-10 10zm0 0"/><path d="m193.894531 166.464844c-5.523437 0-10-4.476563-10-10v-106.679688c0-16.421875-13.363281-29.785156-29.785156-29.785156h-50.464844c-16.421875 0-29.785156 13.363281-29.785156 29.785156v106.679688c0 5.523437-4.476563 10-10 10s-10-4.476563-10-10v-106.679688c0-27.449218 22.332031-49.785156 49.785156-49.785156h50.464844c27.453125 0 49.785156 22.335938 49.785156 49.785156v106.679688c0 5.523437-4.476562 10-10 10zm0 0"/><path d="m154.109375 512h-50.464844c-27.449219 0-49.785156-22.335938-49.785156-49.785156v-106.679688c0-5.523437 4.476563-10 10-10s10 4.476563 10 10v106.679688c0 16.421875 13.363281 29.785156 29.785156 29.785156h50.464844c16.421875 0 29.785156-13.363281 29.785156-29.785156v-106.679688c0-5.523437 4.476563-10 10-10 5.523438 0 10 4.476563 10 10v106.679688c0 27.449218-22.335937 49.785156-49.785156 49.785156zm0 0"/><path d="m247.753906 266c5.507813 0 10-4.492188 10-10s-4.492187-10-10-10c-5.511718 0-10 4.492188-10 10s4.488282 10 10 10zm0 0" fill-rule="evenodd"/></svg>