<?xml version="1.0" encoding="UTF-8" standalone="no"?>
<!-- Generator: Adobe Illustrator 19.0.0, SVG Export Plug-In . SVG Version: 6.00 Build 0)  -->

<svg
   xmlns:dc="http://purl.org/dc/elements/1.1/"
   xmlns:cc="http://creativecommons.org/ns#"
   xmlns:rdf="http://www.w3.org/1999/02/22-rdf-syntax-ns#"
   xmlns:svg="http://www.w3.org/2000/svg"
   xmlns="http://www.w3.org/2000/svg"
   xmlns:sodipodi="http://sodipodi.sourceforge.net/DTD/sodipodi-0.dtd"
   xmlns:inkscape="http://www.inkscape.org/namespaces/inkscape"
   version="1.1"
   id="Capa_1"
   x="0px"
   y="0px"
   viewBox="0 0 468.292 468.292"
   style="enable-background:new 0 0 468.292 468.292;"
   xml:space="preserve"
   sodipodi:docname="ram.svg"
   inkscape:version="0.92.4 5da689c313, 2019-01-14"><metadata
   id="metadata73"><rdf:RDF><cc:Work
       rdf:about=""><dc:format>image/svg+xml</dc:format><dc:type
         rdf:resource="http://purl.org/dc/dcmitype/StillImage" /><dc:title></dc:title></cc:Work></rdf:RDF></metadata><defs
   id="defs71" /><sodipodi:namedview
   pagecolor="#ffffff"
   bordercolor="#666666"
   borderopacity="1"
   objecttolerance="10"
   gridtolerance="10"
   guidetolerance="10"
   inkscape:pageopacity="0"
   inkscape:pageshadow="2"
   inkscape:window-width="1920"
   inkscape:window-height="999"
   id="namedview69"
   showgrid="false"
   inkscape:zoom="0.50395908"
   inkscape:cx="234.146"
   inkscape:cy="234.146"
   inkscape:window-x="0"
   inkscape:window-y="0"
   inkscape:window-maximized="1"
   inkscape:current-layer="Capa_1" />
<path
   style="fill:#44C4A1;stroke:#000000;stroke-opacity:1;stroke-width:9.7;stroke-miterlimit:4;stroke-dasharray:none"
   d="M408.352,94.3c-6.284-6.284-7.332-15.822-3.142-23.191c1.507-2.651,1.34-5.92-0.817-8.077  l-5.736-5.736c-2.156-2.156-5.426-2.324-8.077-0.817c-7.369,4.19-16.907,3.142-23.191-3.142c-7.541-7.541-7.542-19.767,0-27.309  L343.247,1.885c-2.514-2.514-6.589-2.514-9.103,0L1.886,334.143c-2.514,2.514-2.514,6.589,0,9.103l24.143,24.143  c7.541-7.541,19.768-7.541,27.309,0c6.284,6.284,7.331,15.823,3.142,23.191c-1.507,2.651-1.34,5.92,0.817,8.076l5.737,5.737  c2.156,2.156,5.425,2.324,8.076,0.817c7.369-4.189,16.907-3.142,23.191,3.142c7.541,7.541,7.54,19.768,0,27.309l30.745,30.745  c2.514,2.514,6.589,2.514,9.103,0l332.258-332.258c2.514-2.514,2.514-6.589,0-9.103L435.661,94.3  C428.119,101.842,415.893,101.842,408.352,94.3z"
   id="path2" />
<g
   id="g26"
   transform="translate(-5.6124143,-1.4031036)"
   style="stroke:#000000;stroke-opacity:1;stroke-width:6;stroke-miterlimit:4;stroke-dasharray:none">
	
		<rect
   x="153.27699"
   y="398.56299"
   transform="matrix(-0.7071,0.7071,-0.7071,-0.7071,571.4177,592.8117)"
   style="fill:#fcd462;stroke:#000000;stroke-opacity:1;stroke-width:6.00005754;stroke-miterlimit:4;stroke-dasharray:none"
   width="19.312"
   height="32.375"
   id="rect4" />
	
		<rect
   x="178.459"
   y="373.40399"
   transform="matrix(-0.7071,0.7071,-0.7071,-0.7071,596.6157,532.0572)"
   style="fill:#fcd462;stroke:#000000;stroke-opacity:1;stroke-width:6.00005754;stroke-miterlimit:4;stroke-dasharray:none"
   width="19.312"
   height="32.375"
   id="rect6" />
	
		<rect
   x="203.59599"
   y="348.177"
   transform="matrix(-0.7071,0.7071,-0.7071,-0.7071,621.6894,471.2159)"
   style="fill:#fcd462;stroke:#000000;stroke-opacity:1;stroke-width:6.00005754;stroke-miterlimit:4;stroke-dasharray:none"
   width="19.312"
   height="32.375"
   id="rect8" />
	
		<rect
   x="228.82201"
   y="322.99899"
   transform="matrix(-0.7071,0.7071,-0.7071,-0.7071,646.9492,410.3974)"
   style="fill:#fcd462;stroke:#000000;stroke-opacity:1;stroke-width:6.00005754;stroke-miterlimit:4;stroke-dasharray:none"
   width="19.312"
   height="32.375"
   id="rect10" />
	
		<rect
   x="254.004"
   y="297.84"
   transform="matrix(-0.7071,0.7071,-0.7071,-0.7071,672.1472,349.6429)"
   style="fill:#fcd462;stroke:#000000;stroke-opacity:1;stroke-width:6.00005754;stroke-miterlimit:4;stroke-dasharray:none"
   width="19.312"
   height="32.375"
   id="rect12" />
	
		<rect
   x="279.186"
   y="272.66901"
   transform="matrix(-0.7071,0.7071,-0.7071,-0.7071,697.3362,288.867)"
   style="fill:#fcd462;stroke:#000000;stroke-opacity:1;stroke-width:6.00005754;stroke-miterlimit:4;stroke-dasharray:none"
   width="19.312"
   height="32.375"
   id="rect14" />
	
		<rect
   x="304.32901"
   y="247.479"
   transform="matrix(-0.7071,0.7071,-0.7071,-0.7071,722.4471,228.0852)"
   style="fill:#fcd462;stroke:#000000;stroke-opacity:1;stroke-width:6.00005754;stroke-miterlimit:4;stroke-dasharray:none"
   width="19.312"
   height="32.375"
   id="rect16" />
	
		<rect
   x="329.55499"
   y="222.276"
   transform="matrix(-0.7071,0.7071,-0.7071,-0.7071,747.6892,167.2241)"
   style="fill:#fcd462;stroke:#000000;stroke-opacity:1;stroke-width:6.00005754;stroke-miterlimit:4;stroke-dasharray:none"
   width="19.312"
   height="32.375"
   id="rect18" />
	
		<rect
   x="354.737"
   y="197.118"
   transform="matrix(-0.7071,0.7071,-0.7071,-0.7071,772.8872,106.4696)"
   style="fill:#fcd462;stroke:#000000;stroke-opacity:1;stroke-width:6.00005754;stroke-miterlimit:4;stroke-dasharray:none"
   width="19.312"
   height="32.375"
   id="rect20" />
	
		<rect
   x="379.87399"
   y="171.91499"
   transform="matrix(-0.7071,0.7071,-0.7071,-0.7071,797.9786,45.6709)"
   style="fill:#fcd462;stroke:#000000;stroke-opacity:1;stroke-width:6.00005754;stroke-miterlimit:4;stroke-dasharray:none"
   width="19.312"
   height="32.375"
   id="rect22" />
	
		<rect
   x="405.10001"
   y="146.71201"
   transform="matrix(-0.7071,0.7071,-0.7071,-0.7071,823.2207,-15.1902)"
   style="fill:#fcd462;stroke:#000000;stroke-opacity:1;stroke-width:6.00005754;stroke-miterlimit:4;stroke-dasharray:none"
   width="19.312"
   height="32.375"
   id="rect24" />
</g>
<g
   id="g36"
   style="stroke:#000000;stroke-opacity:1;stroke-width:10;stroke-miterlimit:4;stroke-dasharray:none">
	
		<rect
   x="79.676"
   y="279.884"
   transform="matrix(-0.7071 0.7071 -0.7071 -0.7071 418.9487 494.1288)"
   style="fill:#3A556A;stroke:#000000;stroke-opacity:1;stroke-width:10.0000959;stroke-miterlimit:4;stroke-dasharray:none"
   width="54.922"
   height="107.895"
   id="rect28" />
	
		<rect
   x="155.223"
   y="204.324"
   transform="matrix(-0.7071 0.7071 -0.7071 -0.7071 494.4865 311.7208)"
   style="fill:#3A556A;stroke:#000000;stroke-opacity:1;stroke-width:10.0000959;stroke-miterlimit:4;stroke-dasharray:none"
   width="54.922"
   height="107.895"
   id="rect30" />
	
		<rect
   x="230.774"
   y="128.76"
   transform="matrix(-0.7071 0.7071 -0.7071 -0.7071 570.0286 129.302)"
   style="fill:#3A556A;stroke:#000000;stroke-opacity:1;stroke-width:10.0000959;stroke-miterlimit:4;stroke-dasharray:none"
   width="54.922"
   height="107.895"
   id="rect32" />
	
		<rect
   x="306.316"
   y="53.218"
   transform="matrix(-0.7071 0.7071 -0.7071 -0.7071 645.5699 -53.0723)"
   style="fill:#3A556A;stroke:#000000;stroke-opacity:1;stroke-width:10.0000959;stroke-miterlimit:4;stroke-dasharray:none"
   width="54.922"
   height="107.895"
   id="rect34" />
</g>
<g
   id="g38">
</g>
<g
   id="g40">
</g>
<g
   id="g42">
</g>
<g
   id="g44">
</g>
<g
   id="g46">
</g>
<g
   id="g48">
</g>
<g
   id="g50">
</g>
<g
   id="g52">
</g>
<g
   id="g54">
</g>
<g
   id="g56">
</g>
<g
   id="g58">
</g>
<g
   id="g60">
</g>
<g
   id="g62">
</g>
<g
   id="g64">
</g>
<g
   id="g66">
</g>
</svg>