<svg height="512" viewBox="0 0 64 64" width="512" xmlns="http://www.w3.org/2000/svg"><g id="Filled_outline" data-name="Filled outline"><path d="m3 41h58v16h-58z" fill="#195c85"/><path d="m7 45h50v8h-50z" fill="#cfdfe8"/><path d="m7 57h8a0 0 0 0 1 0 0v2a2 2 0 0 1 -2 2h-4a2 2 0 0 1 -2-2v-2a0 0 0 0 1 0 0z" fill="#5a6470"/><path d="m49 57h8a0 0 0 0 1 0 0v2a2 2 0 0 1 -2 2h-4a2 2 0 0 1 -2-2v-2a0 0 0 0 1 0 0z" fill="#5a6470"/><g fill="#55b56a"><path d="m10 48h2v2h-2z"/><path d="m14 48h2v2h-2z"/><path d="m18 48h2v2h-2z"/><path d="m22 48h2v2h-2z"/><path d="m26 48h2v2h-2z"/></g><path d="m52 48h2v2h-2z" fill="#fcf05a"/><path d="m48 48h2v2h-2z" fill="#e1462b"/><path d="m61 41h-58l2-4h54z" fill="#1f729b"/><path d="m19 37h-6v-16l1-2h4l1 2z" fill="#32b1cc"/><path d="m16 3a2 2 0 0 1 2 2v14a0 0 0 0 1 0 0h-4a0 0 0 0 1 0 0v-14a2 2 0 0 1 2-2z" fill="#ffd782"/><path d="m13 33h6v4h-6z" fill="#195c85"/><path d="m13 24h3v2h-3z" fill="#87cee9"/><path d="m13 28h3v2h-3z" fill="#87cee9"/><path d="m45 37h6v-16l-1-2h-4l-1 2z" fill="#32b1cc"/><path d="m46 3h4a0 0 0 0 1 0 0v14a2 2 0 0 1 -2 2 2 2 0 0 1 -2-2v-14a0 0 0 0 1 0 0z" fill="#ffd782" transform="matrix(-1 0 0 -1 96 22)"/><path d="m45 33h6v4h-6z" fill="#195c85" transform="matrix(-1 0 0 -1 96 70)"/><path d="m48 24h3v2h-3z" fill="#87cee9"/><path d="m48 28h3v2h-3z" fill="#87cee9"/><path d="m39.356 15.766c-.3-.252-7.467-6.112-14.711 0l-1.29-1.528c8.547-7.213 17.2-.073 17.29 0z" fill="#f9bb4b"/><path d="m36.333 18.746c-.177-.159-4.408-3.831-8.664 0l-1.338-1.486a8.323 8.323 0 0 1 11.338 0z" fill="#f9bb4b"/><path d="m42.286 13.7c-.046-.047-4.686-4.7-10.694-4.7h-.015c-3.5.005-6.818 1.586-9.862 4.7l-1.43-1.4c3.439-3.516 7.244-5.3 11.308-5.3 6.86 0 11.91 5.084 12.122 5.3z" fill="#f9bb4b"/><path d="m7 54h50a1 1 0 0 0 1-1v-8a1 1 0 0 0 -1-1h-50a1 1 0 0 0 -1 1v8a1 1 0 0 0 1 1zm1-8h48v6h-48z"/><path d="m10 48h2v2h-2z"/><path d="m14 48h2v2h-2z"/><path d="m18 48h2v2h-2z"/><path d="m22 48h2v2h-2z"/><path d="m26 48h2v2h-2z"/><path d="m52 48h2v2h-2z"/><path d="m48 48h2v2h-2z"/><path d="m61.931 40.656c-.009-.022-.03-.091-.036-.1l-2-4a1 1 0 0 0 -.895-.556h-7v-15a1 1 0 0 0 -.1-.447l-.9-1.789v-13.764a3 3 0 0 0 -6 0v13.764l-.9 1.789a1 1 0 0 0 -.1.447v15h-24v-15a1 1 0 0 0 -.105-.447l-.895-1.789v-13.764a3 3 0 0 0 -6 0v13.764l-.895 1.789a1 1 0 0 0 -.105.447v15h-7a1 1 0 0 0 -.895.553l-2 4c-.006.012-.027.081-.036.1a2.13 2.13 0 0 0 -.069.347v16a1 1 0 0 0 1 1h3v1a3 3 0 0 0 3 3h4a3 3 0 0 0 3-3v-1h32v1a3 3 0 0 0 3 3h4a3 3 0 0 0 3-3v-1h3a1 1 0 0 0 1-1v-16a2.13 2.13 0 0 0 -.069-.344zm-15.931-19.42.618-1.236h2.764l.618 1.236v2.764h-2v2h2v2h-2v2h2v2h-4zm1-16.236a1 1 0 0 1 2 0v13h-2zm-1 29h4v2h-4zm-32-6v-2h2v-2h-2v-2.764l.618-1.236h2.764l.618 1.236v10.764h-4v-2h2v-2zm1-23a1 1 0 0 1 2 0v13h-2zm-1 29h4v2h-4zm-8.382 4h52.764l1 2h-54.764zm8.382 21a1 1 0 0 1 -1 1h-4a1 1 0 0 1 -1-1v-1h6zm42 0a1 1 0 0 1 -1 1h-4a1 1 0 0 1 -1-1v-1h6zm4-3h-56v-14h56z"/><path d="m40.645 14.236c-.087-.073-8.743-7.213-17.29 0l1.29 1.528c7.244-6.11 14.411-.25 14.711 0z"/><path d="m27.669 18.743c4.256-3.828 8.487-.156 8.664 0l1.336-1.489a8.323 8.323 0 0 0 -11.338 0z"/><path d="m43.715 12.3c-.215-.216-5.262-5.3-12.122-5.3-4.064 0-7.869 1.784-11.308 5.3l1.43 1.4c3.044-3.113 6.362-4.694 9.862-4.7h.015c6 0 10.648 4.653 10.694 4.7z"/></g></svg>