<?xml version="1.0" encoding="UTF-8" standalone="no"?>
<!-- Created with Inkscape (http://www.inkscape.org/) -->

<svg
   xmlns:dc="http://purl.org/dc/elements/1.1/"
   xmlns:cc="http://creativecommons.org/ns#"
   xmlns:rdf="http://www.w3.org/1999/02/22-rdf-syntax-ns#"
   xmlns:svg="http://www.w3.org/2000/svg"
   xmlns="http://www.w3.org/2000/svg"
   xmlns:sodipodi="http://sodipodi.sourceforge.net/DTD/sodipodi-0.dtd"
   xmlns:inkscape="http://www.inkscape.org/namespaces/inkscape"
   width="77.306633mm"
   height="63.737514mm"
   viewBox="0 0 77.306633 63.737514"
   version="1.1"
   id="svg8"
   inkscape:version="0.92.4 5da689c313, 2019-01-14"
   sodipodi:docname="amazon.svg">
  <defs
     id="defs2" />
  <sodipodi:namedview
     id="base"
     pagecolor="#ffffff"
     bordercolor="#666666"
     borderopacity="1.0"
     inkscape:pageopacity="0.0"
     inkscape:pageshadow="2"
     inkscape:zoom="1.4"
     inkscape:cx="-25.27917"
     inkscape:cy="-27.718214"
     inkscape:document-units="mm"
     inkscape:current-layer="layer1"
     showgrid="false"
     fit-margin-top="0"
     fit-margin-left="0"
     fit-margin-right="0"
     fit-margin-bottom="0"
     inkscape:window-width="2560"
     inkscape:window-height="1381"
     inkscape:window-x="0"
     inkscape:window-y="0"
     inkscape:window-maximized="1" />
  <metadata
     id="metadata5">
    <rdf:RDF>
      <cc:Work
         rdf:about="">
        <dc:format>image/svg+xml</dc:format>
        <dc:type
           rdf:resource="http://purl.org/dc/dcmitype/StillImage" />
        <dc:title></dc:title>
      </cc:Work>
    </rdf:RDF>
  </metadata>
  <g
     inkscape:label="Layer 1"
     inkscape:groupmode="layer"
     id="layer1"
     transform="translate(-65.251857,-10.507868)">
    <g
       id="g878"
       transform="translate(51.026786,-35.151786)">
      <path
         id="path873"
         d="m 49.359008,109.35433 c -5.442029,-0.30748 -10.83298,-1.36354 -15.920582,-3.11875 -1.449995,-0.50025 -2.101892,-0.75145 -3.096112,-1.19306 -0.325266,-0.14448 -0.669665,-0.28623 -0.765331,-0.31499 -0.388831,-0.11691 -3.343027,-1.53184 -4.271719,-2.04597 -0.195281,-0.10811 -0.648223,-0.3589 -1.006537,-0.55731 -1.720871,-0.95292 -4.24746,-2.577598 -5.578909,-3.587419 -2.379785,-1.80492 -4.076373,-3.193567 -4.324096,-3.539246 -0.217471,-0.303468 -0.226365,-0.505823 -0.03083,-0.701362 0.09759,-0.09759 0.243504,-0.17744 0.324249,-0.17744 0.200215,0 0.768941,0.249666 1.3563,0.595404 0.623651,0.367102 4.096039,2.112941 5.008531,2.518179 1.065772,0.47331 2.935229,1.267171 3.478778,1.477257 2.957162,1.142966 6.02249,2.156967 8.523007,2.819387 0.662348,0.17546 2.717464,0.67801 3.826656,0.93575 0.819404,0.19041 3.13207,0.62432 4.104958,0.7702 0.210466,0.0316 0.71141,0.1079 1.113209,0.16966 1.550224,0.23829 3.439096,0.4507 5.252958,0.5907 0.53573,0.0413 1.11495,0.0925 1.28715,0.11357 0.1722,0.0211 1.67504,0.063 3.33963,0.0931 3.99955,0.0723 5.7675,0.008 9.36496,-0.3391 2.3535,-0.22728 6.14571,-0.83223 8.34202,-1.33075 0.3444,-0.0782 0.82969,-0.1877 1.07842,-0.2434 1.45119,-0.32493 2.99586,-0.72553 4.13975,-1.07363 2.88336,-0.87743 4.46319,-1.428863 7.28853,-2.544027 1.06159,-0.419009 1.57755,-0.485645 2.04454,-0.264047 0.54159,0.257002 0.594,0.994518 0.10739,1.510886 -0.54238,0.575528 -3.39065,2.323468 -5.56518,3.415268 -1.05078,0.52758 -2.6482,1.26657 -3.04037,1.40652 -0.15307,0.0546 -0.48182,0.19077 -0.73055,0.30255 -1.07347,0.4824 -4.12505,1.55578 -5.53126,1.9456 -0.30613,0.0849 -0.80707,0.22769 -1.1132,0.31739 -2.91767,0.85491 -6.96291,1.57804 -10.92337,1.95269 -1.32057,0.12492 -6.48737,0.18652 -8.08299,0.0964 z"
         style="fill:#f6a31a;stroke-width:0.06957556"
         inkscape:connector-curvature="0" />
      <path
         id="path871"
         d="m 85.694588,106.25469 c -0.15674,-0.15673 -0.0919,-0.37627 0.65577,-2.22138 0.20158,-0.49747 0.42197,-1.07669 0.48973,-1.28716 0.0678,-0.21046 0.24601,-0.72706 0.39611,-1.14799 0.29791,-0.83547 0.73054,-2.398068 0.84874,-3.065518 0.0411,-0.231902 0.074,-0.717191 0.0731,-1.078421 -0.003,-1.215281 -0.35821,-1.598958 -1.80743,-1.951315 -0.1722,-0.04187 -1.08016,-0.0919 -2.01769,-0.111185 -1.69934,-0.03495 -3.93021,0.09821 -5.91772,0.353242 -0.81507,0.104586 -1.10941,0.04981 -1.10941,-0.206444 0,-0.283564 0.10658,-0.411648 0.62887,-0.755734 2.23514,-1.472521 6.0486,-2.303967 9.47732,-2.066336 1.79992,0.124745 3.38416,0.483087 3.78386,0.855881 0.46946,0.437852 0.44349,2.467206 -0.0573,4.477472 -0.76407,3.067088 -2.17291,5.720968 -3.94276,7.427118 -0.89768,0.86536 -1.23755,1.04145 -1.50122,0.77777 z"
         style="fill:#f6a31a;stroke-width:0.06957556"
         inkscape:connector-curvature="0" />
      <path
         style="fill:#211d1e;stroke-width:0.06957556"
         d="m 45.710038,93.892896 c -5.648536,-0.31597 -9.674087,-3.15023 -11.269673,-7.93461 -0.529078,-1.58645 -0.766894,-3.17828 -0.766894,-5.13323 0,-2.00716 0.23564,-3.52782 0.803623,-5.18604 1.673045,-4.88442 5.679366,-8.20037 11.754764,-9.72916 2.68158,-0.674776 4.68662,-0.976199 10.21643,-1.535857 1.50101,-0.151914 2.66642,-0.300189 2.71117,-0.344943 0.12522,-0.125222 0.0769,-3.879936 -0.0611,-4.748 -0.39313,-2.4728 -1.67704,-3.922535 -4.06517,-4.590222 -0.53413,-0.149336 -0.72275,-0.164853 -1.94811,-0.160248 -1.22934,0.0046 -1.41927,0.02192 -2.02283,0.184215 -2.6344,0.708401 -4.34604,2.398721 -4.90137,4.840344 -0.1859,0.8173 -0.69026,1.432938 -1.2481,1.523464 -0.13948,0.02264 -0.57289,0.0048 -0.96313,-0.03963 -0.68171,-0.07762 -2.91704,-0.315169 -6.246483,-0.663806 -1.681116,-0.176035 -1.926676,-0.244529 -2.303558,-0.642536 -0.102967,-0.108737 -0.226238,-0.34406 -0.273935,-0.522939 -0.233107,-0.87422 0.825149,-4.016 1.979972,-5.878189 2.775287,-4.475241 8.010474,-7.074488 15.318464,-7.605552 5.41666,-0.393622 11.08704,0.990584 14.26299,3.48176 2.37069,1.859542 3.70771,4.173647 4.23821,7.335466 0.26485,1.578485 0.27198,1.855154 0.31761,12.314873 0.0449,10.28717 0.0451,10.29785 0.19843,10.97512 0.3836,1.69404 1.00829,2.89278 2.58998,4.96998 0.69409,0.91153 0.89888,1.32203 0.89979,1.80368 0.001,0.65934 -0.016,0.67959 -1.97174,2.31696 -1.00069,0.83777 -2.5552,2.15283 -3.45447,2.92233 -0.89926,0.76951 -1.78989,1.47717 -1.97917,1.57258 -0.39909,0.20116 -1.0742,0.2368 -1.45688,0.0769 -0.31911,-0.13334 -1.55371,-1.21237 -2.37284,-2.07386 -0.68341,-0.71874 -1.40714,-1.64602 -2.2575,-2.89242 -0.25114,-0.3681 -0.49448,-0.68106 -0.54076,-0.69546 -0.0463,-0.0144 -0.40633,0.2793 -0.80012,0.65266 -2.81389,2.668 -5.22912,4.12048 -8.07713,4.85748 -1.60311,0.41485 -4.38342,0.65668 -6.31045,0.54889 z m 7.24434,-8.53777 c 0.78438,-0.19988 1.28982,-0.41724 1.92001,-0.82566 1.66162,-1.0769 2.9122,-2.78248 3.65995,-4.99156 0.52909,-1.56313 0.67578,-2.88252 0.6945,-6.24679 0.0118,-2.11651 -7e-4,-2.46403 -0.0907,-2.52104 -0.13483,-0.0854 -1.02598,-0.0847 -2.29599,0.002 -4.50485,0.30721 -7.41924,1.43298 -9.08687,3.51003 -1.00209,1.24813 -1.48417,2.60628 -1.59393,4.49056 -0.0877,1.50526 0.14126,2.79118 0.69986,3.93101 0.68868,1.40525 1.81188,2.32976 3.26467,2.6872 0.76431,0.18804 2.0124,0.17231 2.82851,-0.0357 z"
         id="path848"
         inkscape:connector-curvature="0" />
    </g>
  </g>
</svg>
