<svg id="Layer_3" enable-background="new 0 0 64 64" height="512" viewBox="0 0 64 64" width="512" xmlns="http://www.w3.org/2000/svg"><path d="m8 20h24v42h-24z" fill="#b3b6c2"/><path d="m14 48h12v14h-12z" fill="#dfdfe8"/><path d="m14 48h9v14h-9z" fill="#e7e7ee"/><path d="m12 40h16v4h-16z" fill="#4a83aa"/><path d="m12 40h13v4h-13z" fill="#63afe3"/><path d="m12 24h16v12h-16z" fill="#4a83aa"/><path d="m12 24h13v12h-13z" fill="#63afe3"/><path d="m2 22h6v10h-6z" fill="#5f9747"/><path d="m2 22h3v10h-3z" fill="#7ec95f"/><path d="m2 32h6v10h-6z" fill="#b24e4a"/><path d="m2 32h3v10h-3z" fill="#ed6863"/><path d="m2 42h6v10h-6z" fill="#5f9747"/><path d="m2 42h3v10h-3z" fill="#7ec95f"/><path d="m2 52h6v10h-6z" fill="#b24e4a"/><path d="m2 52h3v10h-3z" fill="#ed6863"/><path d="m6 2h28v14h-28z" fill="#63afe3"/><circle cx="50" cy="18" fill="#5f9747" r="12"/><ellipse cx="48.5" cy="18" fill="#7ec95f" rx="10.5" ry="11.896"/><circle cx="50" cy="46" fill="#b57a36" r="12"/><ellipse cx="48.5" cy="46" fill="#f2a348" rx="10.5" ry="11.896"/><path d="m32 63h-24c-.552 0-1-.448-1-1v-42c0-.552.448-1 1-1h24c.552 0 1 .448 1 1v42c0 .552-.448 1-1 1zm-23-2h22v-40h-22z"/><path d="m34 17h-28c-.552 0-1-.448-1-1v-14c0-.552.448-1 1-1h28c.552 0 1 .448 1 1v14c0 .552-.448 1-1 1zm-27-2h26v-12h-26z"/><path d="m11 16h2v4h-2z"/><path d="m27 16h2v4h-2z"/><path d="m15 13h-2v-6h-2v6h-2v-7c0-.552.448-1 1-1h4c.552 0 1 .448 1 1z"/><path d="m10 9h4v2h-4z"/><path d="m17 5h6v2h-6z"/><path d="m19 6h2v7h-2z"/><path d="m31 13h-2v-2.764l-.105.211c-.339.678-1.45.678-1.789 0l-.106-.211v2.764h-2v-7c0-.464.319-.867.77-.973.455-.106.917.111 1.125.526l1.105 2.211 1.105-2.211c.208-.415.671-.632 1.125-.526.451.106.77.509.77.973z"/><path d="m28 37h-16c-.552 0-1-.448-1-1v-12c0-.552.448-1 1-1h16c.552 0 1 .448 1 1v12c0 .552-.448 1-1 1zm-15-2h14v-10h-14z"/><path d="m28 45h-16c-.552 0-1-.448-1-1v-4c0-.552.448-1 1-1h16c.552 0 1 .448 1 1v4c0 .552-.448 1-1 1zm-15-2h14v-2h-14z"/><path d="m27 62h-2v-13h-10v13h-2v-14c0-.552.448-1 1-1h12c.552 0 1 .448 1 1z"/><path d="m17 53h2v4h-2z"/><path d="m15 27h10v2h-10z"/><path d="m15 31h10v2h-10z"/><path d="m8 63h-6c-.552 0-1-.448-1-1v-40c0-.552.448-1 1-1h6v2h-5v38h5z"/><path d="m2 31h6v2h-6z"/><path d="m2 41h6v2h-6z"/><path d="m2 51h6v2h-6z"/><path d="m50 25h-3v-2h3c.551 0 1-.449 1-1v-2c0-.551-.449-1-1-1-1.654 0-3-1.346-3-3v-2c0-1.654 1.346-3 3-3h3v2h-3c-.551 0-1 .449-1 1v2c0 .551.449 1 1 1 1.654 0 3 1.346 3 3v2c0 1.654-1.346 3-3 3z"/><path d="m49 9h2v3h-2z"/><path d="m49 24h2v3h-2z"/><path d="m50 31c-7.168 0-13-5.832-13-13s5.832-13 13-13 13 5.832 13 13-5.832 13-13 13zm0-24c-6.065 0-11 4.935-11 11s4.935 11 11 11 11-4.935 11-11-4.935-11-11-11z"/><path d="m50 59c-7.168 0-13-5.832-13-13s5.832-13 13-13 13 5.832 13 13-5.832 13-13 13zm0-24c-6.065 0-11 4.935-11 11s4.935 11 11 11 11-4.935 11-11-4.935-11-11-11z"/><path d="m50 44c-.256 0-.512-.098-.707-.293l-4-4 1.414-1.414 3.293 3.293 3.293-3.293 1.414 1.414-4 4c-.195.195-.451.293-.707.293z"/><path d="m49 43h2v10h-2z"/><path d="m47 45h6v2h-6z"/><path d="m47 49h6v2h-6z"/><path d="m39.293 40.707-8-8c-.391-.391-.391-1.023 0-1.414l8-8 1.414 1.414-7.293 7.293 7.293 7.293z"/></svg>