<?xml version="1.0" encoding="UTF-8" standalone="no"?>
<svg
   xmlns:dc="http://purl.org/dc/elements/1.1/"
   xmlns:cc="http://creativecommons.org/ns#"
   xmlns:rdf="http://www.w3.org/1999/02/22-rdf-syntax-ns#"
   xmlns:svg="http://www.w3.org/2000/svg"
   xmlns="http://www.w3.org/2000/svg"
   xmlns:sodipodi="http://sodipodi.sourceforge.net/DTD/sodipodi-0.dtd"
   xmlns:inkscape="http://www.inkscape.org/namespaces/inkscape"
   id="Capa_1"
   enable-background="new 0 0 512 512"
   height="317.66901"
   viewBox="0 0 314.47095 317.66901"
   width="314.47095"
   version="1.1"
   sodipodi:docname="authentication.svg"
   inkscape:version="0.92.4 5da689c313, 2019-01-14">
  <metadata
     id="metadata39">
    <rdf:RDF>
      <cc:Work
         rdf:about="">
        <dc:format>image/svg+xml</dc:format>
        <dc:type
           rdf:resource="http://purl.org/dc/dcmitype/StillImage" />
        <dc:title></dc:title>
      </cc:Work>
    </rdf:RDF>
  </metadata>
  <defs
     id="defs37" />
  <sodipodi:namedview
     pagecolor="#ffffff"
     bordercolor="#666666"
     borderopacity="1"
     objecttolerance="10"
     gridtolerance="10"
     guidetolerance="10"
     inkscape:pageopacity="0"
     inkscape:pageshadow="2"
     inkscape:window-width="2560"
     inkscape:window-height="1381"
     id="namedview35"
     showgrid="false"
     fit-margin-top="0"
     fit-margin-left="0"
     fit-margin-right="0"
     fit-margin-bottom="0"
     inkscape:zoom="1.84375"
     inkscape:cx="31.610317"
     inkscape:cy="202.71303"
     inkscape:window-x="0"
     inkscape:window-y="0"
     inkscape:window-maximized="1"
     inkscape:current-layer="Capa_1" />
  <path
     style="clip-rule:evenodd;fill:#a0e5a5;fill-rule:evenodd"
     inkscape:connector-curvature="0"
     id="path6"
     d="m 253.892,304.949 c 14.678,-8.781 26.608,-23.566 35.817,-40.703 8.671,-16.174 13.63,-33.197 14.111,-49.399 0.028,-1.133 0.057,-2.238 0.028,-3.342 -0.057,-7.619 -1.785,-8.469 -8.104,-11.868 l -41.767,-22.518 -6.744,-3.626 -48.511,26.144 c -6.319,3.399 -8.019,4.249 -8.104,11.868 -0.142,17.222 4.874,35.463 14.168,52.741 2.352,4.362 4.874,8.582 7.566,12.605 7.906,11.698 17.313,21.555 28.223,28.098 5.892,3.512 7.451,3.512 13.317,0 z" />
  <path
     style="clip-rule:evenodd;fill:#cdc0c4;fill-rule:evenodd"
     inkscape:connector-curvature="0"
     id="path14"
     d="m 92.886,98.487 c 0,-21.527 17.597,-39.145 39.132,-39.145 21.535,0 39.161,17.618 39.161,39.145 v 29.77 h 54.264 v -24.161 c 0,-51.721 -42.334,-94.011 -94.076,-94.011 -51.713,0 -94.048,42.289 -94.048,94.011 v 24.161 h 55.567 z" />
  <path
     style="clip-rule:evenodd;fill:#ffcd69;fill-rule:evenodd"
     inkscape:connector-curvature="0"
     id="path16"
     d="m 23.859,276.85 h 188.492 c -2.692,-4.022 -5.214,-8.243 -7.566,-12.605 -9.294,-17.278 -14.31,-35.52 -14.168,-52.741 0.085,-7.619 1.785,-8.469 8.104,-11.868 l 48.511,-26.144 6.744,3.626 v -35.066 c 0,-7.591 -6.206,-13.794 -13.8,-13.794 H 225.442 171.178 92.885 37.318 23.858 c -7.566,0 -13.771,6.203 -13.771,13.794 v 72.795 48.209 c 0,7.591 6.206,13.794 13.772,13.794 z" />
  <path
     style="clip-rule:evenodd;fill:#e6dfe1;fill-rule:evenodd"
     inkscape:connector-curvature="0"
     id="path18"
     d="m 92.886,128.257 h 78.293 v -29.77 c 0,-21.527 -17.625,-39.145 -39.161,-39.145 -21.536,0 -39.132,17.618 -39.132,39.145 z" />
  <path
     d="m 132.018,172.613 c -5.57,0 -10.085,4.515 -10.085,10.085 v 38.72 c 0,5.57 4.515,10.085 10.085,10.085 5.57,0 10.085,-4.515 10.085,-10.085 v -38.72 c 0,-5.57 -4.515,-10.085 -10.085,-10.085 z"
     id="path22"
     inkscape:connector-curvature="0" />
  <path
     d="m 23.859,266.765 c -1.998,0 -3.687,-1.699 -3.687,-3.71 V 142.051 c 0,-2.011 1.688,-3.709 3.687,-3.709 h 216.318 c 2.014,0 3.715,1.698 3.715,3.709 v 21.941 c -0.492,0.173 -0.977,0.371 -1.444,0.622 l -48.504,26.141 -0.159,0.085 c -7.914,4.256 -13.112,7.986 -13.253,20.581 -0.148,17.968 4.766,37.056 14.197,55.344 z M 132.018,49.258 c -27.138,0 -49.217,22.085 -49.217,49.23 v 19.685 H 47.404 v -14.077 c 0,-46.277 37.665,-83.926 83.963,-83.926 46.313,0 83.991,37.649 83.991,83.926 v 14.076 H 181.264 V 98.487 C 181.263,71.342 159.172,49.258 132.018,49.258 Z m 29.075,49.23 v 19.685 H 102.97 V 98.488 c 0,-16.024 13.03,-29.06 29.047,-29.06 16.033,-10e-4 29.076,13.036 29.076,29.06 z m 119.732,160.984 c -9.126,16.982 -20.23,29.715 -32.115,36.825 -0.634,0.379 -1.112,0.653 -1.473,0.849 -0.363,-0.197 -0.847,-0.471 -1.487,-0.853 -11.894,-7.116 -22.986,-19.845 -32.083,-36.825 -8.608,-16.002 -13.091,-32.559 -12.966,-47.851 0.008,-0.696 0.032,-1.214 0.06,-1.593 0.712,-0.417 1.714,-0.957 2.578,-1.421 l 43.894,-23.655 43.734,23.57 0.196,0.105 c 0.853,0.458 1.842,0.99 2.548,1.404 0.026,0.377 0.047,0.89 0.052,1.577 0.152,15.25 -4.324,31.806 -12.938,47.868 z M 301.48203,187.98263 263.86924,165.92754 264.061,142.051 c 0,-13.167 -10.715,-23.879 -23.885,-23.879 h -4.65 V 104.096 C 235.526,46.697 188.799,0 131.365,0 73.946,0 27.232,46.697 27.232,104.096 v 14.076 H 23.857 C 10.702,118.172 0,128.884 0,142.051 v 62.711 l 0.003,20.17 v 38.124 c 0,13.167 10.702,23.88 23.857,23.88 h 183.251 c 8.448,11.525 17.914,20.462 28.287,26.667 l 0.015,0.009 c 4.539,2.705 8.19,4.057 11.836,4.057 3.65,0 7.295,-1.355 11.821,-4.066 15.221,-9.105 28.518,-24.105 39.528,-44.591 7.781,-14.511 12.703,-29.524 14.531,-44.08 1.97862,-18.055 2.29782,-28.53787 -2.74116,-31.6599"
     id="path26"
     inkscape:connector-curvature="0"
     sodipodi:nodetypes="csssssscccccccssccsssccccsccscccccccccccccccccccsscssscccsscccscccc" />
</svg>
