<?xml version="1.0" encoding="iso-8859-1"?>
<!-- Generator: Adobe Illustrator 19.0.0, SVG Export Plug-In . SVG Version: 6.00 Build 0)  -->
<svg version="1.1" id="Capa_1" xmlns="http://www.w3.org/2000/svg" xmlns:xlink="http://www.w3.org/1999/xlink" x="0px" y="0px"
	 viewBox="0 0 512 512" style="enable-background:new 0 0 512 512;" xml:space="preserve">
<path style="fill:#ED2E4E;" d="M66.37,95.314c-12.382,0-22.456-10.073-22.456-22.456S53.989,50.402,66.37,50.402
	s22.456,10.073,22.456,22.456S78.752,95.314,66.37,95.314z"/>
<path style="fill:#F79548;" d="M428.164,391.772V344.79c0-2.736,2.218-4.953,4.953-4.953h46.982c2.736,0,4.953,2.218,4.953,4.953
	v46.982c0,2.736-2.218,4.953-4.953,4.953h-46.982C430.381,396.725,428.164,394.508,428.164,391.772z"/>
<path style="fill:#7FE4F4;" d="M6.986,476.538v-111.72c0-2.773,2.248-5.021,5.021-5.021h117.709c2.773,0,5.021,2.248,5.021,5.021
	v111.721c0,2.773-2.248,5.021-5.021,5.021H12.008C9.234,481.559,6.986,479.312,6.986,476.538z"/>
<path style="fill:#E0E0E3;" d="M256,350.004c-80.451,0-149.352-71.124-175.24-101.703c-7.729-9.128-7.729-22.379-0.002-31.508
	c25.89-30.58,94.793-101.704,175.242-101.704s149.351,71.124,175.241,101.703c7.728,9.129,7.728,22.38,0.001,31.508
	C405.351,278.879,336.449,350.004,256,350.004z"/>
<path style="fill:#CACAD8;" d="M304.405,283.338c-80.451,0-149.352-71.124-175.24-101.703c-2.243-2.649-3.815-5.65-4.756-8.792
	c-19.206,16.432-34.261,32.858-43.652,43.949c-7.727,9.128-7.727,22.38,0.002,31.508c25.887,30.579,94.789,101.703,175.24,101.703
	c80.449,0,149.351-71.124,175.242-101.704c5.485-6.479,7.055-15.032,4.754-22.717C402.249,254.452,355.674,283.338,304.405,283.338z
	"/>
<path style="fill:#7FE4F4;" d="M256,349.817c-64.664,0-117.271-52.607-117.271-117.271S191.336,115.275,256,115.275
	s117.271,52.607,117.271,117.271S320.664,349.817,256,349.817z"/>
<path style="fill:#4DD4E2;" d="M227.057,232.546c0-49.047,30.27-91.151,73.107-108.63c-13.638-5.565-28.548-8.641-44.164-8.641
	c-64.664,0-117.271,52.607-117.271,117.271S191.336,349.817,256,349.817c15.616,0,30.525-3.076,44.164-8.641
	C257.326,323.697,227.057,281.593,227.057,232.546z"/>
<path style="fill:#25D887;" d="M256,300.912c-37.697,0-68.366-30.669-68.366-68.366s30.669-68.366,68.366-68.366
	s68.366,30.669,68.366,68.366S293.697,300.912,256,300.912z"/>
<path style="fill:#07AA5C;" d="M256,255.819c-12.833,0-23.274-10.441-23.274-23.274c0-12.833,10.441-23.274,23.274-23.274
	c12.833,0,23.274,10.441,23.274,23.274C279.274,245.379,268.833,255.819,256,255.819z"/>
<path d="M436.573,212.276L436.573,212.276C410.055,180.954,339.374,108.101,256,108.101S101.946,180.955,75.427,212.276
	c-9.943,11.745-9.943,28.794,0.001,40.538C101.945,284.137,172.626,356.99,256,356.99s154.054-72.853,180.573-104.176
	C446.516,241.07,446.516,224.021,436.573,212.276z M86.853,243.141c-5.198-6.139-5.198-15.052-0.001-21.191
	c13.225-15.62,37.966-42.121,69.65-63.757c-15.543,20.746-24.76,46.493-24.76,74.353s9.217,53.606,24.761,74.353
	C124.818,285.262,100.079,258.762,86.853,243.141z M425.148,243.141c-13.225,15.62-37.966,42.121-69.65,63.757
	c10.468-13.972,18.048-30.216,21.889-47.842c1.016-4.663-2.539-9.076-7.312-9.076l0,0c-3.514,0-6.55,2.449-7.299,5.883
	c-10.836,49.661-55.53,86.816-108.586,85.952c-58.715-0.956-106.553-48.834-107.462-107.55
	C145.782,173.222,195.166,123.259,256,123.259c52.66,0,96.738,37.44,107.019,87.098c0.713,3.444,3.787,5.889,7.303,5.889h0.003
	c4.749,0,8.29-4.369,7.324-9.019c-3.757-18.087-11.45-34.748-22.153-49.034c31.685,21.637,56.425,48.137,69.65,63.757h-0.001
	C430.344,228.09,430.344,237.002,425.148,243.141z"/>
<path d="M256,157.193c-41.55,0-75.353,33.803-75.353,75.353S214.45,307.899,256,307.899s75.353-33.803,75.353-75.353
	S297.55,157.193,256,157.193z M309.077,203.777c-5.189,11.357-15.652,19.136-27.826,20.897c-0.551-1.764-1.288-3.446-2.177-5.03
	c8.473-10.47,12.39-23.643,11.218-36.757C298.07,188.273,304.533,195.427,309.077,203.777z M316.382,232.546
	c0,5.97-0.884,11.736-2.506,17.187c-11.704,4.362-24.608,2.463-34.463-4.906c0.846-1.607,1.529-3.311,2.033-5.089
	c13.401-1.414,25.49-7.966,33.934-18.079C316.027,225.193,316.382,228.828,316.382,232.546z M196.62,243.433
	c-0.647-3.534-1.002-7.169-1.002-10.887c0-5.971,0.884-11.737,2.506-17.187c11.704-4.363,24.607-2.463,34.463,4.906
	c-0.846,1.607-1.529,3.311-2.033,5.089C217.153,226.768,205.063,233.32,196.62,243.433z M256,244.023
	c-6.329,0-11.478-5.149-11.478-11.478s5.149-11.478,11.478-11.478s11.478,5.149,11.478,11.478S262.329,244.023,256,244.023z
	 M273.188,174.67c4.363,11.703,2.463,24.608-4.906,34.463c-1.607-0.846-3.311-1.53-5.09-2.033
	c-1.414-13.401-7.966-25.49-18.079-33.934c3.534-0.647,7.168-1.002,10.886-1.002C261.971,172.164,267.737,173.048,273.188,174.67z
	 M227.231,179.468c11.357,5.188,19.137,15.651,20.897,27.825c-1.765,0.551-3.446,1.287-5.031,2.177
	c-10.47-8.473-23.643-12.391-36.757-11.218C211.726,190.476,218.882,184.013,227.231,179.468z M202.923,261.315
	c5.189-11.357,15.652-19.136,27.826-20.897c0.551,1.764,1.287,3.446,2.177,5.03c-8.473,10.47-12.39,23.643-11.218,36.757
	C213.93,276.818,207.467,269.664,202.923,261.315z M238.812,290.422c-4.363-11.703-2.463-24.608,4.906-34.463
	c1.607,0.846,3.311,1.53,5.09,2.033c1.414,13.401,7.966,25.49,18.079,33.934c-3.534,0.647-7.168,1.002-10.886,1.002
	C250.029,292.928,244.263,292.044,238.812,290.422z M284.769,285.623c-11.357-5.188-19.137-15.651-20.897-27.825
	c1.765-0.551,3.447-1.288,5.032-2.178c9.257,7.491,20.626,11.429,32.2,11.429c1.517,0,3.038-0.078,4.558-0.214
	C300.276,274.614,293.119,281.079,284.769,285.623z"/>
<path d="M66.37,102.3c13.468,0,24.843-9.092,28.334-21.458h19.966l40.224,40.224c1.462,1.461,3.378,2.193,5.294,2.193
	s3.832-0.731,5.294-2.193c2.923-2.923,2.923-7.663,0-10.585l-42.417-42.417c-1.406-1.404-3.31-2.193-5.295-2.193H94.969
	C91.823,52.999,80.197,43.415,66.37,43.415c-16.235,0-29.442,13.208-29.442,29.442S50.135,102.3,66.37,102.3z M66.37,58.386
	c7.979,0,14.472,6.492,14.472,14.472S74.35,87.329,66.37,87.329s-14.472-6.492-14.472-14.472S58.391,58.386,66.37,58.386z"/>
<path d="M484.554,332.85h-55.891c-4.135,0-7.485,3.351-7.485,7.485v20.959h-19.855l-30.244-30.244
	c-2.924-2.923-7.663-2.923-10.586,0s-2.923,7.663,0,10.585l32.437,32.437c1.405,1.404,3.309,2.193,5.294,2.193h22.955v19.961
	c0,4.134,3.35,7.485,7.485,7.485h55.891c4.135,0,7.485-3.351,7.485-7.485v-55.891C492.039,336.201,488.689,332.85,484.554,332.85z
	 M477.068,388.741h-40.92v-40.92h40.92V388.741z"/>
<path d="M311.891,105.294c1.915,0,3.832-0.731,5.294-2.193l64.676-64.677h75.746c4.135,0,7.485-3.351,7.485-7.485
	s-3.35-7.485-7.485-7.485H378.76c-1.985,0-3.888,0.788-5.294,2.193l-66.869,66.869c-2.923,2.923-2.923,7.663,0,10.585
	C308.059,104.564,309.976,105.294,311.891,105.294z"/>
<path d="M484.554,38.425h19.961c4.135,0,7.485-3.351,7.485-7.485s-3.35-7.485-7.485-7.485h-19.961c-4.135,0-7.485,3.351-7.485,7.485
	S480.419,38.425,484.554,38.425z"/>
<path d="M504.515,49.404H388.741c-4.135,0-7.485,3.351-7.485,7.485s3.35,7.485,7.485,7.485h115.774c4.135,0,7.485-3.351,7.485-7.485
	S508.65,49.404,504.515,49.404z"/>
<path d="M504.515,78.347h-51.899c-4.135,0-7.485,3.351-7.485,7.485s3.35,7.485,7.485,7.485h51.899c4.135,0,7.485-3.351,7.485-7.485
	S508.65,78.347,504.515,78.347z"/>
<path d="M428.663,78.347h-39.922c-4.135,0-7.485,3.351-7.485,7.485s3.35,7.485,7.485,7.485h39.922c4.135,0,7.485-3.351,7.485-7.485
	S432.798,78.347,428.663,78.347z"/>
<path d="M504.515,106.292h-51.899c-4.135,0-7.485,3.351-7.485,7.485s3.35,7.485,7.485,7.485h51.899c4.135,0,7.485-3.351,7.485-7.485
	S508.65,106.292,504.515,106.292z"/>
<path d="M428.663,106.292h-39.922c-4.135,0-7.485,3.351-7.485,7.485s3.35,7.485,7.485,7.485h39.922c4.135,0,7.485-3.351,7.485-7.485
	S432.798,106.292,428.663,106.292z"/>
<path d="M134.238,352.811H7.485c-4.135,0-7.485,3.351-7.485,7.485V481.06c0,4.134,3.35,7.485,7.485,7.485h126.752
	c4.135,0,7.485-3.351,7.485-7.485V360.296C141.723,356.162,138.373,352.811,134.238,352.811z M126.752,473.575H14.971V367.782
	h111.782V473.575z"/>
<path d="M29.442,396.725h41.918c4.135,0,7.485-3.351,7.485-7.485c0-4.134-3.35-7.485-7.485-7.485H29.442
	c-4.135,0-7.485,3.351-7.485,7.485C21.957,393.374,25.308,396.725,29.442,396.725z"/>
<path d="M92.32,396.725h17.965c4.135,0,7.485-3.351,7.485-7.485c0-4.134-3.35-7.485-7.485-7.485H92.32
	c-4.135,0-7.485,3.351-7.485,7.485C84.834,393.374,88.185,396.725,92.32,396.725z"/>
<path d="M29.442,442.635h41.918c4.135,0,7.485-3.351,7.485-7.485c0-4.134-3.35-7.485-7.485-7.485H29.442
	c-4.135,0-7.485,3.351-7.485,7.485C21.957,439.284,25.308,442.635,29.442,442.635z"/>
<path d="M110.285,427.665H92.32c-4.135,0-7.485,3.351-7.485,7.485c0,4.134,3.35,7.485,7.485,7.485h17.965
	c4.135,0,7.485-3.351,7.485-7.485C117.77,431.016,114.42,427.665,110.285,427.665z"/>
<path d="M29.442,419.68h80.842c4.135,0,7.485-3.351,7.485-7.485c0-4.134-3.35-7.485-7.485-7.485H29.442
	c-4.135,0-7.485,3.351-7.485,7.485C21.957,416.329,25.308,419.68,29.442,419.68z"/>
<path d="M110.285,450.62H66.37c-4.135,0-7.485,3.351-7.485,7.485c0,4.134,3.35,7.485,7.485,7.485h43.914
	c4.135,0,7.485-3.351,7.485-7.485C117.77,453.971,114.42,450.62,110.285,450.62z"/>
<path d="M29.442,465.591h14.971c4.135,0,7.485-3.351,7.485-7.485c0-4.134-3.35-7.485-7.485-7.485H29.442
	c-4.135,0-7.485,3.351-7.485,7.485C21.957,462.239,25.308,465.591,29.442,465.591z"/>
<g>
</g>
<g>
</g>
<g>
</g>
<g>
</g>
<g>
</g>
<g>
</g>
<g>
</g>
<g>
</g>
<g>
</g>
<g>
</g>
<g>
</g>
<g>
</g>
<g>
</g>
<g>
</g>
<g>
</g>
</svg>
