<?xml version="1.0" encoding="UTF-8" standalone="no"?>
<!-- Generator: Adobe Illustrator 19.0.0, SVG Export Plug-In . SVG Version: 6.00 Build 0)  -->

<svg
   xmlns:dc="http://purl.org/dc/elements/1.1/"
   xmlns:cc="http://creativecommons.org/ns#"
   xmlns:rdf="http://www.w3.org/1999/02/22-rdf-syntax-ns#"
   xmlns:svg="http://www.w3.org/2000/svg"
   xmlns="http://www.w3.org/2000/svg"
   xmlns:sodipodi="http://sodipodi.sourceforge.net/DTD/sodipodi-0.dtd"
   xmlns:inkscape="http://www.inkscape.org/namespaces/inkscape"
   version="1.1"
   id="Capa_1"
   x="0px"
   y="0px"
   viewBox="0 0 469.5 469.5"
   style="enable-background:new 0 0 469.5 469.5;"
   xml:space="preserve"
   sodipodi:docname="certificate-yellow.svg"
   inkscape:version="0.92.3 (2405546, 2018-03-11)"><metadata
   id="metadata6546"><rdf:RDF><cc:Work
       rdf:about=""><dc:format>image/svg+xml</dc:format><dc:type
         rdf:resource="http://purl.org/dc/dcmitype/StillImage" /><dc:title></dc:title></cc:Work></rdf:RDF></metadata><defs
   id="defs6544">
	
	
	
	
	
	
	
	
	
	
	
	
	
</defs><sodipodi:namedview
   pagecolor="#ffffff"
   bordercolor="#666666"
   borderopacity="1"
   objecttolerance="10"
   gridtolerance="10"
   guidetolerance="10"
   inkscape:pageopacity="0"
   inkscape:pageshadow="2"
   inkscape:window-width="3832"
   inkscape:window-height="1998"
   id="namedview6542"
   showgrid="false"
   inkscape:zoom="2.0106496"
   inkscape:cx="88.705724"
   inkscape:cy="149.74384"
   inkscape:window-x="3840"
   inkscape:window-y="158"
   inkscape:window-maximized="0"
   inkscape:current-layer="Capa_1" />
<path
   inkscape:connector-curvature="0"
   id="path6483"
   d="M 348.75,372.05 V 37.45 c 0,-8.409 2.798,-16.186 7.508,-22.45 H 83.15 c -12.561,0 -22.4,9.642 -22.4,21.95 v 335.1 c 0,12.655 10.048,22.95 22.4,22.95 h 73.6 V 349.919 C 144.22,337.294 137.1,320.157 137.1,302.35 c 0,-37.22 30.28,-67.5 67.5,-67.5 37.22,0 67.5,30.28 67.5,67.5 0,18.179 -7.378,35.572 -20.35,48.251 v 44.385 l 104.626,-0.185 c -4.78,-6.331 -7.626,-14.216 -7.626,-22.751 z M 128.681,85.064 l 23.34,-30 c 1.421,-1.826 3.605,-2.895 5.919,-2.895 2.315,0 4.5,1.069 5.92,2.896 l 17.411,22.388 17.419,-22.39 c 1.421,-1.826 3.605,-2.895 5.919,-2.895 2.315,0 4.5,1.069 5.92,2.896 l 17.41,22.387 17.41,-22.387 c 1.421,-1.827 3.606,-2.896 5.92,-2.896 2.314,0 4.5,1.069 5.92,2.896 l 23.33,30 c 2.543,3.27 1.954,7.981 -1.316,10.524 -3.27,2.543 -7.982,1.953 -10.524,-1.316 l -17.41,-22.387 -17.41,22.387 c -1.421,1.827 -3.606,2.896 -5.92,2.896 -2.314,0 -4.5,-1.069 -5.92,-2.896 l -17.411,-22.388 -17.419,22.39 c -1.421,1.826 -3.605,2.895 -5.919,2.895 -2.315,0 -4.5,-1.069 -5.92,-2.896 L 157.939,71.885 140.52,94.275 c -1.479,1.9 -3.69,2.895 -5.925,2.895 -1.609,0 -3.231,-0.516 -4.6,-1.581 -3.269,-2.543 -3.858,-7.255 -1.314,-10.525 z M 104.75,122 h 140 c 4.142,0 7.5,3.358 7.5,7.5 0,4.142 -3.358,7.5 -7.5,7.5 h -140 c -4.142,0 -7.5,-3.358 -7.5,-7.5 0,-4.142 3.358,-7.5 7.5,-7.5 z m 170,75 h -140 c -4.142,0 -7.5,-3.358 -7.5,-7.5 0,-4.142 3.358,-7.5 7.5,-7.5 h 140 c 4.142,0 7.5,3.358 7.5,7.5 0,4.142 -3.358,7.5 -7.5,7.5 z m 30,-30 h -200 c -4.142,0 -7.5,-3.358 -7.5,-7.5 0,-4.142 3.358,-7.5 7.5,-7.5 h 200 c 4.142,0 7.5,3.358 7.5,7.5 0,4.142 -3.358,7.5 -7.5,7.5 z m 0,-30 h -30 c -4.142,0 -7.5,-3.358 -7.5,-7.5 0,-4.142 3.358,-7.5 7.5,-7.5 h 30 c 4.142,0 7.5,3.358 7.5,7.5 0,4.142 -3.358,7.5 -7.5,7.5 z"
   style="fill:#f2ebd9" /><path
   inkscape:connector-curvature="0"
   id="path6485"
   d="M 386.095,15 C 373.773,15.052 363.75,25.12 363.75,37.45 V 82 h 45 V 36.95 C 408.75,24.852 398.589,15.008 386.095,15 Z"
   style="fill:#c1e8e6" /><path
   inkscape:connector-curvature="0"
   id="path6487"
   d="m 363.75,372.05 c 0,12.466 10.019,22.644 22.338,22.7 12.292,-0.012 22.662,-10.402 22.662,-22.7 V 327 h -45 z"
   style="fill:#c1e8e6" /><path
   inkscape:connector-curvature="0"
   id="path6489"
   d="m 204.6,249.85 c -28.949,0 -52.5,23.551 -52.5,52.5 0,14.779 6.314,28.973 17.324,38.94 9.669,8.743 22.163,13.56 35.176,13.56 12.255,0 24.082,-4.302 33.493,-12.127 0.677,-0.972 1.575,-1.777 2.625,-2.339 10.428,-9.909 16.382,-23.653 16.382,-38.034 0,-28.949 -23.551,-52.5 -52.5,-52.5 z m 0,90 c -20.678,0 -37.5,-16.822 -37.5,-37.5 0,-20.678 16.822,-37.5 37.5,-37.5 20.678,0 37.5,16.822 37.5,37.5 0,20.678 -16.822,37.5 -37.5,37.5 z"
   style="fill:#d4aa00" /><path
   inkscape:connector-curvature="0"
   id="path6491"
   d="m 207.604,435.292 29.146,14.573 v -88.183 c -9.802,5.324 -20.836,8.168 -32.15,8.168 -11.602,0 -22.879,-2.98 -32.85,-8.551 v 88.566 l 29.146,-14.573 c 2.111,-1.056 4.597,-1.056 6.708,0 z"
   style="fill:#ffcc00" /><path
   inkscape:connector-curvature="0"
   id="path6493"
   d="m 204.6,279.85 c -12.407,0 -22.5,10.093 -22.5,22.5 0,12.407 10.093,22.5 22.5,22.5 12.407,0 22.5,-10.093 22.5,-22.5 0,-12.407 -10.093,-22.5 -22.5,-22.5 z"
   style="fill:#ffd42a" /><path
   inkscape:connector-curvature="0"
   id="path6495"
   d="m 416.25,97 c 4.142,0 7.5,-3.358 7.5,-7.5 V 36.95 C 423.75,16.576 406.852,0 386.081,0 H 83.15 C 62.178,0 45.75,16.23 45.75,36.95 v 335.1 c 0,20.926 16.777,37.95 37.4,37.95 h 73.6 v 52 c 0,2.599 1.346,5.013 3.557,6.38 2.211,1.367 4.973,1.491 7.297,0.328 l 36.646,-18.323 36.646,18.323 c 1.059,0.529 2.208,0.792 3.354,0.792 1.372,0 2.739,-0.376 3.943,-1.12 2.211,-1.367 3.557,-3.781 3.557,-6.38 v -52.013 l 134.33,-0.237 c 20.772,0 37.67,-16.912 37.67,-37.7 V 319.5 c 0,-4.142 -3.358,-7.5 -7.5,-7.5 h -52.5 V 97 Z m -7.5,275.05 c 0,12.298 -10.369,22.688 -22.662,22.7 -12.319,-0.056 -22.338,-10.234 -22.338,-22.7 V 327 h 45 z M 240.718,340.384 c -1.05,0.562 -1.948,1.367 -2.625,2.339 -9.411,7.825 -21.239,12.127 -33.493,12.127 -13.013,0 -25.507,-4.817 -35.176,-13.56 -11.009,-9.967 -17.324,-24.161 -17.324,-38.94 0,-28.949 23.551,-52.5 52.5,-52.5 28.949,0 52.5,23.551 52.5,52.5 0,14.381 -5.954,28.125 -16.382,38.034 z M 171.75,449.865 v -88.566 c 9.971,5.571 21.248,8.551 32.85,8.551 11.314,0 22.348,-2.844 32.15,-8.168 v 88.183 l -29.146,-14.573 c -2.111,-1.056 -4.597,-1.056 -6.708,0 z m 80,-99.264 c 12.972,-12.679 20.35,-30.072 20.35,-48.251 0,-37.22 -30.28,-67.5 -67.5,-67.5 -37.22,0 -67.5,30.28 -67.5,67.5 0,17.806 7.12,34.943 19.65,47.569 V 395 h -73.6 c -12.352,0 -22.4,-10.295 -22.4,-22.95 V 36.95 C 60.75,24.641 70.589,15 83.15,15 h 273.108 c -4.71,6.264 -7.508,14.041 -7.508,22.45 v 334.6 c 0,8.535 2.846,16.42 7.626,22.752 L 251.75,394.987 Z M 408.75,82 h -45 V 37.45 c 0,-12.33 10.023,-22.398 22.345,-22.45 12.494,0.008 22.655,9.851 22.655,21.95 z"
   style="fill:#082947" /><path
   inkscape:connector-curvature="0"
   id="path6497"
   d="m 204.6,264.85 c -20.678,0 -37.5,16.822 -37.5,37.5 0,20.678 16.822,37.5 37.5,37.5 20.678,0 37.5,-16.822 37.5,-37.5 0,-20.678 -16.822,-37.5 -37.5,-37.5 z m 0,60 c -12.407,0 -22.5,-10.093 -22.5,-22.5 0,-12.407 10.093,-22.5 22.5,-22.5 12.407,0 22.5,10.093 22.5,22.5 0,12.407 -10.093,22.5 -22.5,22.5 z"
   style="fill:#082947" /><path
   inkscape:connector-curvature="0"
   id="path6499"
   d="m 304.75,152 h -200 c -4.142,0 -7.5,3.358 -7.5,7.5 0,4.142 3.358,7.5 7.5,7.5 h 200 c 4.142,0 7.5,-3.358 7.5,-7.5 0,-4.142 -3.358,-7.5 -7.5,-7.5 z"
   style="fill:#082947" /><path
   inkscape:connector-curvature="0"
   id="path6501"
   d="m 274.75,182 h -140 c -4.142,0 -7.5,3.358 -7.5,7.5 0,4.142 3.358,7.5 7.5,7.5 h 140 c 4.142,0 7.5,-3.358 7.5,-7.5 0,-4.142 -3.358,-7.5 -7.5,-7.5 z"
   style="fill:#082947" /><path
   inkscape:connector-curvature="0"
   id="path6503"
   d="m 304.75,122 h -30 c -4.142,0 -7.5,3.358 -7.5,7.5 0,4.142 3.358,7.5 7.5,7.5 h 30 c 4.142,0 7.5,-3.358 7.5,-7.5 0,-4.142 -3.358,-7.5 -7.5,-7.5 z"
   style="fill:#082947" /><path
   inkscape:connector-curvature="0"
   id="path6505"
   d="m 104.75,137 h 140 c 4.142,0 7.5,-3.358 7.5,-7.5 0,-4.142 -3.358,-7.5 -7.5,-7.5 h -140 c -4.142,0 -7.5,3.358 -7.5,7.5 0,4.142 3.358,7.5 7.5,7.5 z"
   style="fill:#082947" /><path
   inkscape:connector-curvature="0"
   id="path6507"
   d="m 129.995,95.589 c 1.369,1.065 2.991,1.581 4.6,1.581 2.235,0 4.446,-0.995 5.925,-2.895 l 17.419,-22.39 17.411,22.388 c 1.421,1.827 3.605,2.896 5.919,2.896 2.315,0 4.5,-1.068 5.92,-2.895 l 17.419,-22.39 17.411,22.388 c 1.421,1.827 3.606,2.896 5.92,2.896 2.314,0 4.5,-1.069 5.92,-2.896 l 17.41,-22.387 17.41,22.387 c 2.542,3.27 7.254,3.86 10.524,1.316 3.27,-2.543 3.859,-7.255 1.316,-10.524 l -23.33,-30 c -1.421,-1.827 -3.606,-2.896 -5.92,-2.896 -2.314,0 -4.5,1.069 -5.92,2.896 l -17.41,22.387 -17.41,-22.387 c -1.421,-1.827 -3.605,-2.896 -5.919,-2.896 -2.315,0 -4.5,1.068 -5.92,2.895 L 181.271,77.453 163.86,55.066 c -1.421,-1.827 -3.605,-2.896 -5.919,-2.896 -2.315,0 -4.5,1.068 -5.92,2.895 l -23.34,30 c -2.544,3.269 -1.955,7.981 1.314,10.524 z"
   style="fill:#082947" />
<g
   id="g6511">
</g>
<g
   id="g6513">
</g>
<g
   id="g6515">
</g>
<g
   id="g6517">
</g>
<g
   id="g6519">
</g>
<g
   id="g6521">
</g>
<g
   id="g6523">
</g>
<g
   id="g6525">
</g>
<g
   id="g6527">
</g>
<g
   id="g6529">
</g>
<g
   id="g6531">
</g>
<g
   id="g6533">
</g>
<g
   id="g6535">
</g>
<g
   id="g6537">
</g>
<g
   id="g6539">
</g>
</svg>