<?xml version="1.0" encoding="iso-8859-1"?>
<!-- Generator: Adobe Illustrator 19.0.0, SVG Export Plug-In . SVG Version: 6.00 Build 0)  -->
<svg version="1.1" id="Layer_1" xmlns="http://www.w3.org/2000/svg" xmlns:xlink="http://www.w3.org/1999/xlink" x="0px" y="0px"
	 viewBox="0 0 512 512" style="enable-background:new 0 0 512 512;" xml:space="preserve">
<path style="fill:#5D5F66;" d="M495.304,38.957H317.217c-9.217,0-16.696,7.479-16.696,16.696v400.696
	c0,9.217,7.479,16.696,16.696,16.696h178.087c9.217,0,16.696-7.479,16.696-16.696V55.652C512,46.435,504.521,38.957,495.304,38.957z
	"/>
<path style="fill:#55575C;" d="M495.304,38.957h-89.043v434.087h89.043c9.217,0,16.696-7.479,16.696-16.696V55.652
	C512,46.435,504.521,38.957,495.304,38.957z"/>
<g>
	<path style="fill:#7F8189;" d="M445.217,139.13h-77.913c-9.217,0-16.696-7.479-16.696-16.696s7.479-16.696,16.696-16.696h77.913
		c9.217,0,16.696,7.479,16.696,16.696S454.434,139.13,445.217,139.13z"/>
	<path style="fill:#7F8189;" d="M445.217,205.913h-77.913c-9.217,0-16.696-7.479-16.696-16.696c0-9.217,7.479-16.696,16.696-16.696
		h77.913c9.217,0,16.696,7.479,16.696,16.696C461.913,198.435,454.434,205.913,445.217,205.913z"/>
	<path style="fill:#7F8189;" d="M445.217,272.696h-77.913c-9.217,0-16.696-7.479-16.696-16.696s7.479-16.696,16.696-16.696h77.913
		c9.217,0,16.696,7.479,16.696,16.696S454.434,272.696,445.217,272.696z"/>
</g>
<g>
	<path style="fill:#757880;" d="M445.217,239.304h-38.957v33.391h38.957c9.217,0,16.696-7.479,16.696-16.696
		S454.434,239.304,445.217,239.304z"/>
	<path style="fill:#757880;" d="M445.217,172.522h-38.957v33.391h38.957c9.217,0,16.696-7.479,16.696-16.696
		C461.913,180,454.434,172.522,445.217,172.522z"/>
	<path style="fill:#757880;" d="M445.217,105.739h-38.957v33.391h38.957c9.217,0,16.696-7.479,16.696-16.696
		S454.434,105.739,445.217,105.739z"/>
</g>
<path style="fill:#5D5F66;" d="M217.043,372.87h-66.783c-9.217,0-16.696,7.479-16.696,16.696v66.783
	c0,9.217,7.479,16.696,16.696,16.696h66.783c9.217,0,16.696-7.479,16.696-16.696v-66.783
	C233.739,380.348,226.261,372.87,217.043,372.87z"/>
<path style="fill:#55575C;" d="M217.043,372.87h-33.391v100.174h33.391c9.217,0,16.696-7.479,16.696-16.696v-66.783
	C233.739,380.348,226.261,372.87,217.043,372.87z"/>
<path style="fill:#7F8189;" d="M317.217,406.261H50.087C22.468,406.261,0,383.793,0,356.174V155.826
	c0-27.619,22.468-50.087,50.087-50.087h267.13c27.619,0,50.087,22.468,50.087,50.087v200.348
	C367.304,383.793,344.836,406.261,317.217,406.261z"/>
<path style="fill:#757880;" d="M317.217,105.739H183.652v300.522h133.565c27.619,0,50.087-22.468,50.087-50.087V155.826
	C367.304,128.207,344.836,105.739,317.217,105.739z"/>
<path style="fill:#7F8189;" d="M250.435,473.043H116.87c-9.217,0-16.696-7.479-16.696-16.696c0-9.217,7.479-16.696,16.696-16.696
	h133.565c9.217,0,16.696,7.479,16.696,16.696C267.13,465.565,259.652,473.043,250.435,473.043z"/>
<g>
	<circle style="fill:#77CAB0;" cx="428.522" cy="322.783" r="16.696"/>
	<circle style="fill:#77CAB0;" cx="428.522" cy="389.565" r="16.696"/>
</g>
<path style="fill:#757880;" d="M250.435,439.652h-66.783v33.391h66.783c9.217,0,16.696-7.479,16.696-16.696
	C267.13,447.131,259.652,439.652,250.435,439.652z"/>
<path style="fill:#86E4C6;" d="M50.087,139.13c-9.206,0-16.696,7.49-16.696,16.696v200.348c0,9.206,7.49,16.696,16.696,16.696
	h267.13c9.206,0,16.696-7.49,16.696-16.696V155.826c0-9.206-7.49-16.696-16.696-16.696H50.087z"/>
<path style="fill:#77CAB0;" d="M317.217,139.13H183.652V372.87h133.565c9.206,0,16.696-7.49,16.696-16.696V155.826
	C333.913,146.62,326.423,139.13,317.217,139.13z"/>
<g>
</g>
<g>
</g>
<g>
</g>
<g>
</g>
<g>
</g>
<g>
</g>
<g>
</g>
<g>
</g>
<g>
</g>
<g>
</g>
<g>
</g>
<g>
</g>
<g>
</g>
<g>
</g>
<g>
</g>
</svg>
