<svg height="460.04pt" viewBox="0 0 460.04 460.04" width="460.04pt" xmlns="http://www.w3.org/2000/svg"><path d="m191.011719 316.019531h78.015625c14.894531 0 26.992187-12.464843 26.992187-27.351562v-57.746094c-.121093-12.535156-8.792969-23.363281-21-26.222656v-14.464844c0-25.289063-19.945312-45.863281-45-45.863281-25.050781 0-45 20.574218-45 45.863281v14.460937c-12.207031 2.859376-20.878906 13.6875-21 26.222657v57.75c0 14.886719 12.105469 27.351562 26.992188 27.351562zm39.007812-157.648437c17.332031 0 31 14.292968 31 31.863281v13.785156h-62v-13.785156c0-17.570313 13.667969-31.863281 31-31.863281zm52 130.648437c0 7.179688-5.820312 13-13 13h-78c-7.179687 0-13-5.820312-13-13v-58c0-7.179687 5.820313-13 13-13h78c7.179688 0 13 5.820313 13 13zm0 0"/><path d="m222.019531 274.742188v9.277343c0 3.867188 3.132813 7 7 7 3.867188 0 7-3.132812 7-7v-8.53125c7.054688-2.90625 11.15625-10.3125 9.875-17.835937-1.28125-7.519532-7.601562-13.148438-15.222656-13.554688-7.617187-.40625-14.503906 4.519532-16.574219 11.863282-2.074218 7.339843 1.214844 15.140624 7.921875 18.78125zm7.789063-16.671876c1.023437 0 1.929687.671876 2.226562 1.652344.296875.984375-.085937 2.042969-.941406 2.609375-.671875-.207031-1.371094-.3125-2.074219-.3125-.273437 0-.546875.019531-.816406.050781-.6875-.652343-.90625-1.660156-.550781-2.542968.351562-.878906 1.207031-1.457032 2.15625-1.457032zm0 0"/><path d="m453.039062 159.019531c3.867188 0 7-3.132812 7-7 0-3.867187-3.132812-7-7-7h-63.019531v-38.359375c.058594-9.734375-3.785156-19.085937-10.667969-25.972656-6.882812-6.882812-16.238281-10.722656-25.972656-10.667969h-38.359375v-63.019531c0-3.867188-3.132812-7-7-7-3.867187 0-7 3.132812-7 7v63.019531h-64v-63.019531c0-3.867188-3.132812-7-7-7-3.867187 0-7 3.132812-7 7v63.019531h-64v-63.019531c0-3.867188-3.132812-7-7-7-3.867187 0-7 3.132812-7 7v63.019531h-38.359375c-9.734375-.054687-19.085937 3.785157-25.972656 10.667969-6.882812 6.886719-10.722656 16.238281-10.667969 25.972656v38.359375h-63.019531c-3.867188 0-7 3.132813-7 7 0 3.867188 3.132812 7 7 7h63.019531v64h-63.019531c-3.867188 0-7 3.132813-7 7 0 3.867188 3.132812 7 7 7h63.019531v64h-63.019531c-3.867188 0-7 3.132813-7 7 0 3.867188 3.132812 7 7 7h63.019531v38.359375c-.054687 9.734375 3.785157 19.089844 10.667969 25.972656 6.886719 6.882813 16.238281 10.726563 25.972656 10.667969h38.359375v63.019531c0 3.867188 3.132813 7 7 7 3.867188 0 7-3.132812 7-7v-63.019531h64v63.019531c0 3.867188 3.132813 7 7 7 3.867188 0 7-3.132812 7-7v-63.019531h64v63.019531c0 3.867188 3.132813 7 7 7 3.867188 0 7-3.132812 7-7v-63.019531h38.359375c9.734375.058594 19.089844-3.785156 25.972656-10.667969 6.882813-6.882812 10.726563-16.238281 10.667969-25.972656v-38.359375h63.019531c3.867188 0 7-3.132812 7-7 0-3.867187-3.132812-7-7-7h-63.019531v-64h63.019531c3.867188 0 7-3.132812 7-7 0-3.867187-3.132812-7-7-7h-63.019531v-64zm-77.019531 194.359375c.0625 6.023438-2.304687 11.816406-6.5625 16.078125-4.261719 4.257813-10.054687 6.625-16.078125 6.5625h-246.71875c-6.023437.0625-11.816406-2.304687-16.078125-6.5625-4.257812-4.261719-6.625-10.054687-6.5625-16.078125v-44.597656c0-.179688.027344-.359375.027344-.542969 0-.183593-.027344-.363281-.027344-.542969v-77.132812c0-.179688.027344-.359375.027344-.542969 0-.183593-.027344-.363281-.027344-.542969v-77.132812c0-.179688.027344-.359375.027344-.542969 0-.183593-.027344-.363281-.027344-.542969v-44.597656c-.058593-6.023437 2.304688-11.816406 6.566407-16.078125 4.257812-4.257812 10.050781-6.625 16.074218-6.5625h246.71875c6.023438-.0625 11.816406 2.304688 16.078125 6.5625 4.257813 4.261719 6.625 10.054688 6.5625 16.078125zm0 0"/><path d="m342.019531 126.019531c0-3.867187-3.132812-7-7-7h-209c-3.867187 0-7 3.132813-7 7v209c0 3.867188 3.132813 7 7 7h209c3.867188 0 7-3.132812 7-7zm-15 201h-194v-194h194zm0 0"/></svg>