<svg height="512" viewBox="0 0 64 64" width="512" xmlns="http://www.w3.org/2000/svg"><g id="Filled_outline" data-name="Filled outline"><rect fill="#cfdfe8" height="36" rx="2" width="58" x="3" y="14"/><path d="m3 18h58v6h-58z" fill="#394d5c"/><path d="m21 28h36v8h-36z" fill="#f4f4e6"/><path d="m46 31h8v2h-8z" fill="#394d5c"/><path d="m36 31h8v2h-8z" fill="#394d5c"/><circle cx="11" cy="42" fill="#e1462b" r="4"/><circle cx="15" cy="42" fill="#e97424" r="4"/><g fill="#fcf05a"><path d="m40 40h18v2h-18z"/><path d="m32 40h6v2h-6z"/><path d="m52 44h6v2h-6z"/><path d="m32 44h18v2h-18z"/><path d="m26 44h4v2h-4z"/></g><path d="m6 27h2v4h-2z" fill="#394d5c"/><path d="m10 27h2v4h-2z" fill="#394d5c"/><path d="m14 27h2v4h-2z" fill="#394d5c"/><path d="m59 13h-54a3 3 0 0 0 -3 3v32a3 3 0 0 0 3 3h54a3 3 0 0 0 3-3v-32a3 3 0 0 0 -3-3zm-55 6h56v4h-56zm56 29a1 1 0 0 1 -1 1h-54a1 1 0 0 1 -1-1v-23h56zm-56-31v-1a1 1 0 0 1 1-1h54a1 1 0 0 1 1 1v1z"/><path d="m58 27h-38v10h38zm-2 8h-34v-6h34z"/><path d="m46 31h8v2h-8z"/><path d="m36 31h8v2h-8z"/><path d="m11 47a4.977 4.977 0 0 0 2-.426 4.954 4.954 0 0 0 2 .426 5 5 0 0 0 0-10 4.954 4.954 0 0 0 -2 .426 5 5 0 1 0 -2 9.574zm7-5a3 3 0 1 1 -3-3 3 3 0 0 1 3 3zm-7-3h.023a4.9 4.9 0 0 0 0 5.994c-.008 0-.015 0-.023 0a3 3 0 0 1 0-6z"/><path d="m40 40h18v2h-18z"/><path d="m32 40h6v2h-6z"/><path d="m52 44h6v2h-6z"/><path d="m32 44h18v2h-18z"/><path d="m26 44h4v2h-4z"/><path d="m6 27h2v4h-2z"/><path d="m10 27h2v4h-2z"/><path d="m14 27h2v4h-2z"/></g></svg>