<?xml version="1.0" encoding="UTF-8" standalone="no"?>
<!-- Created with Inkscape (http://www.inkscape.org/) -->

<svg
   xmlns:dc="http://purl.org/dc/elements/1.1/"
   xmlns:cc="http://creativecommons.org/ns#"
   xmlns:rdf="http://www.w3.org/1999/02/22-rdf-syntax-ns#"
   xmlns:svg="http://www.w3.org/2000/svg"
   xmlns="http://www.w3.org/2000/svg"
   xmlns:sodipodi="http://sodipodi.sourceforge.net/DTD/sodipodi-0.dtd"
   xmlns:inkscape="http://www.inkscape.org/namespaces/inkscape"
   width="16.898409mm"
   height="19.811766mm"
   viewBox="0 0 16.898409 19.811766"
   version="1.1"
   id="svg1188"
   inkscape:version="0.92.4 5da689c313, 2019-01-14"
   sodipodi:docname="dataset.svg">
  <defs
     id="defs1182" />
  <sodipodi:namedview
     id="base"
     pagecolor="#ffffff"
     bordercolor="#666666"
     borderopacity="1.0"
     inkscape:pageopacity="0.0"
     inkscape:pageshadow="2"
     inkscape:zoom="11.2"
     inkscape:cx="19.539125"
     inkscape:cy="41.462477"
     inkscape:document-units="mm"
     inkscape:current-layer="layer1"
     showgrid="false"
     fit-margin-top="0"
     fit-margin-left="0"
     fit-margin-right="0"
     fit-margin-bottom="0"
     inkscape:window-width="2560"
     inkscape:window-height="1381"
     inkscape:window-x="0"
     inkscape:window-y="0"
     inkscape:window-maximized="1" />
  <metadata
     id="metadata1185">
    <rdf:RDF>
      <cc:Work
         rdf:about="">
        <dc:format>image/svg+xml</dc:format>
        <dc:type
           rdf:resource="http://purl.org/dc/dcmitype/StillImage" />
        <dc:title></dc:title>
      </cc:Work>
    </rdf:RDF>
  </metadata>
  <g
     inkscape:label="Layer 1"
     inkscape:groupmode="layer"
     id="layer1"
     transform="translate(-95.90886,-39.584313)">
    <rect
       style="opacity:1;fill:#eeeeee;fill-opacity:1;fill-rule:nonzero;stroke:#000000;stroke-width:0.53899997;stroke-linecap:round;stroke-linejoin:miter;stroke-miterlimit:4;stroke-dasharray:none;stroke-dashoffset:25.13385773;stroke-opacity:1;paint-order:normal"
       id="rect1926"
       width="12.828938"
       height="15.902536"
       x="99.708832"
       y="39.853813" />
    <g
       id="g1818-92-5"
       transform="matrix(0.2725533,0,0,0.2725533,98.091102,39.693536)"
       style="fill:#000000;fill-opacity:1;stroke:#000000;stroke-width:1.61069417;stroke-miterlimit:4;stroke-dasharray:none;stroke-opacity:1">
      <path
         inkscape:connector-curvature="0"
         style="fill:#000000;fill-opacity:1;stroke:#000000;stroke-width:1.61069417;stroke-miterlimit:4;stroke-dasharray:none;stroke-opacity:1"
         d="m 16.5,23 h 25 c 0.552,0 1,-0.447 1,-1 0,-0.553 -0.448,-1 -1,-1 h -25 c -0.552,0 -1,0.447 -1,1 0,0.553 0.448,1 1,1 z"
         id="path1808-24-7" />
      <path
         inkscape:connector-curvature="0"
         style="fill:#000000;fill-opacity:1;stroke:#000000;stroke-width:1.61069417;stroke-miterlimit:4;stroke-dasharray:none;stroke-opacity:1"
         d="m 16.5,15 h 24.691384 c 0.552,0 1,-0.447 1,-1 0,-0.553 -0.448,-1 -1,-1 H 16.5 c -0.552,0 -1,0.447 -1,1 0,0.553 0.448,1 1,1 z"
         id="path1810-7-4"
         sodipodi:nodetypes="sssssss" />
      <path
         inkscape:connector-curvature="0"
         style="fill:#000000;fill-opacity:1;stroke:#000000;stroke-width:1.61069417;stroke-miterlimit:4;stroke-dasharray:none;stroke-opacity:1"
         d="m 41.5,29 h -25 c -0.552,0 -1,0.447 -1,1 0,0.553 0.448,1 1,1 h 25 c 0.552,0 1,-0.447 1,-1 0,-0.553 -0.448,-1 -1,-1 z"
         id="path1812-7-1" />
      <path
         inkscape:connector-curvature="0"
         style="fill:#000000;fill-opacity:1;stroke:#000000;stroke-width:1.61069417;stroke-miterlimit:4;stroke-dasharray:none;stroke-opacity:1"
         d="m 41.5,37 h -25 c -0.552,0 -1,0.447 -1,1 0,0.553 0.448,1 1,1 h 25 c 0.552,0 1,-0.447 1,-1 0,-0.553 -0.448,-1 -1,-1 z"
         id="path1814-5-8" />
      <path
         inkscape:connector-curvature="0"
         style="fill:#000000;fill-opacity:1;stroke:#000000;stroke-width:1.61069417;stroke-miterlimit:4;stroke-dasharray:none;stroke-opacity:1"
         d="m 41.5,45 h -25 c -0.552,0 -1,0.447 -1,1 0,0.553 0.448,1 1,1 h 25 c 0.552,0 1,-0.447 1,-1 0,-0.553 -0.448,-1 -1,-1 z"
         id="path1816-4-5" />
    </g>
    <rect
       style="opacity:1;fill:#eeeeee;fill-opacity:1;fill-rule:nonzero;stroke:#000000;stroke-width:0.53899997;stroke-linecap:round;stroke-linejoin:miter;stroke-miterlimit:4;stroke-dasharray:none;stroke-dashoffset:25.13385773;stroke-opacity:1;paint-order:normal"
       id="rect1926-3"
       width="12.828938"
       height="15.902537"
       x="97.879257"
       y="41.428654" />
    <g
       id="g1818-92-5-8"
       transform="matrix(0.2725533,0,0,0.2725533,96.261521,41.362871)"
       style="fill:#000000;fill-opacity:1;stroke:#000000;stroke-width:1.61069417;stroke-miterlimit:4;stroke-dasharray:none;stroke-opacity:1">
      <path
         inkscape:connector-curvature="0"
         style="fill:#000000;fill-opacity:1;stroke:#000000;stroke-width:1.61069417;stroke-miterlimit:4;stroke-dasharray:none;stroke-opacity:1"
         d="m 16.5,23 h 25 c 0.552,0 1,-0.447 1,-1 0,-0.553 -0.448,-1 -1,-1 h -25 c -0.552,0 -1,0.447 -1,1 0,0.553 0.448,1 1,1 z"
         id="path1808-24-7-6" />
      <path
         inkscape:connector-curvature="0"
         style="fill:#000000;fill-opacity:1;stroke:#000000;stroke-width:1.61069417;stroke-miterlimit:4;stroke-dasharray:none;stroke-opacity:1"
         d="m 16.5,15 h 24.691384 c 0.552,0 1,-0.447 1,-1 0,-0.553 -0.448,-1 -1,-1 H 16.5 c -0.552,0 -1,0.447 -1,1 0,0.553 0.448,1 1,1 z"
         id="path1810-7-4-0"
         sodipodi:nodetypes="sssssss" />
      <path
         inkscape:connector-curvature="0"
         style="fill:#000000;fill-opacity:1;stroke:#000000;stroke-width:1.61069417;stroke-miterlimit:4;stroke-dasharray:none;stroke-opacity:1"
         d="m 41.5,29 h -25 c -0.552,0 -1,0.447 -1,1 0,0.553 0.448,1 1,1 h 25 c 0.552,0 1,-0.447 1,-1 0,-0.553 -0.448,-1 -1,-1 z"
         id="path1812-7-1-4" />
      <path
         inkscape:connector-curvature="0"
         style="fill:#000000;fill-opacity:1;stroke:#000000;stroke-width:1.61069417;stroke-miterlimit:4;stroke-dasharray:none;stroke-opacity:1"
         d="m 41.5,37 h -25 c -0.552,0 -1,0.447 -1,1 0,0.553 0.448,1 1,1 h 25 c 0.552,0 1,-0.447 1,-1 0,-0.553 -0.448,-1 -1,-1 z"
         id="path1814-5-8-8" />
      <path
         inkscape:connector-curvature="0"
         style="fill:#000000;fill-opacity:1;stroke:#000000;stroke-width:1.61069417;stroke-miterlimit:4;stroke-dasharray:none;stroke-opacity:1"
         d="m 41.5,45 h -25 c -0.552,0 -1,0.447 -1,1 0,0.553 0.448,1 1,1 h 25 c 0.552,0 1,-0.447 1,-1 0,-0.553 -0.448,-1 -1,-1 z"
         id="path1816-4-5-8" />
    </g>
    <rect
       style="opacity:1;fill:#eeeeee;fill-opacity:1;fill-rule:nonzero;stroke:#000000;stroke-width:0.53899997;stroke-linecap:round;stroke-linejoin:miter;stroke-miterlimit:4;stroke-dasharray:none;stroke-dashoffset:25.13385773;stroke-opacity:1;paint-order:normal"
       id="rect1926-8"
       width="12.828938"
       height="15.902537"
       x="96.17836"
       y="43.224041" />
    <g
       id="g1818-92-5-9"
       transform="matrix(0.2725533,0,0,0.2725533,94.560631,43.063764)"
       style="fill:#000000;fill-opacity:1;stroke:#000000;stroke-width:1.61069417;stroke-miterlimit:4;stroke-dasharray:none;stroke-opacity:1">
      <path
         inkscape:connector-curvature="0"
         style="fill:#000000;fill-opacity:1;stroke:#000000;stroke-width:1.61069417;stroke-miterlimit:4;stroke-dasharray:none;stroke-opacity:1"
         d="m 16.5,23 h 25 c 0.552,0 1,-0.447 1,-1 0,-0.553 -0.448,-1 -1,-1 h -25 c -0.552,0 -1,0.447 -1,1 0,0.553 0.448,1 1,1 z"
         id="path1808-24-7-7" />
      <path
         inkscape:connector-curvature="0"
         style="fill:#000000;fill-opacity:1;stroke:#000000;stroke-width:1.61069417;stroke-miterlimit:4;stroke-dasharray:none;stroke-opacity:1"
         d="m 16.5,15 h 24.691384 c 0.552,0 1,-0.447 1,-1 0,-0.553 -0.448,-1 -1,-1 H 16.5 c -0.552,0 -1,0.447 -1,1 0,0.553 0.448,1 1,1 z"
         id="path1810-7-4-7"
         sodipodi:nodetypes="sssssss" />
      <path
         inkscape:connector-curvature="0"
         style="fill:#000000;fill-opacity:1;stroke:#000000;stroke-width:1.61069417;stroke-miterlimit:4;stroke-dasharray:none;stroke-opacity:1"
         d="m 41.5,29 h -25 c -0.552,0 -1,0.447 -1,1 0,0.553 0.448,1 1,1 h 25 c 0.552,0 1,-0.447 1,-1 0,-0.553 -0.448,-1 -1,-1 z"
         id="path1812-7-1-6" />
      <path
         inkscape:connector-curvature="0"
         style="fill:#000000;fill-opacity:1;stroke:#000000;stroke-width:1.61069417;stroke-miterlimit:4;stroke-dasharray:none;stroke-opacity:1"
         d="m 41.5,37 h -25 c -0.552,0 -1,0.447 -1,1 0,0.553 0.448,1 1,1 h 25 c 0.552,0 1,-0.447 1,-1 0,-0.553 -0.448,-1 -1,-1 z"
         id="path1814-5-8-4" />
      <path
         inkscape:connector-curvature="0"
         style="fill:#000000;fill-opacity:1;stroke:#000000;stroke-width:1.61069417;stroke-miterlimit:4;stroke-dasharray:none;stroke-opacity:1"
         d="m 41.5,45 h -25 c -0.552,0 -1,0.447 -1,1 0,0.553 0.448,1 1,1 h 25 c 0.552,0 1,-0.447 1,-1 0,-0.553 -0.448,-1 -1,-1 z"
         id="path1816-4-5-3" />
    </g>
  </g>
</svg>
