<?xml version="1.0" encoding="UTF-8" standalone="no"?>
<svg
   xmlns:dc="http://purl.org/dc/elements/1.1/"
   xmlns:cc="http://creativecommons.org/ns#"
   xmlns:rdf="http://www.w3.org/1999/02/22-rdf-syntax-ns#"
   xmlns:svg="http://www.w3.org/2000/svg"
   xmlns="http://www.w3.org/2000/svg"
   xml:space="preserve"
   style="enable-background:new 0 0 591.146 591.146;"
   viewBox="0 0 591.146 591.146"
   y="0px"
   x="0px"
   id="Capa_1"
   version="1.1"><metadata
   id="metadata248"><rdf:RDF><cc:Work
       rdf:about=""><dc:format>image/svg+xml</dc:format><dc:type
         rdf:resource="http://purl.org/dc/dcmitype/StillImage" /><dc:title></dc:title></cc:Work></rdf:RDF></metadata><defs
   id="defs246">
	

			
			
			
			
			
			
			
			
			
			
			
			
			
			
			
			
			
			
			
			
			
			
			
			
			
			
			
			
			
			
			
			
			
			
			
			
			
			
			
			
			
			
			
			
			
			
			
			
			
			
			
			
			
			
			
			
			
			
			
			
			
			
			
			
			
			
			
			
			
			
			
			
			
			
			
			
			
			
			
			
			
			
			
			
			
			
			
			
			
			
			
			
			
			
			
			
			
			
			
			
			
			
			
		</defs>
<g
   id="g209">
		<rect
   id="rect2"
   height="19.705"
   width="78.819"
   style="fill:#fdb62f"
   y="285.72"
   x="512.32599" /><rect
   id="rect4"
   height="19.705"
   width="78.819"
   style="fill:#fdb62f"
   y="236.45799"
   x="512.32599" /><rect
   id="rect6"
   height="19.705"
   width="78.819"
   style="fill:#fdb62f"
   y="187.196"
   x="512.32599" /><rect
   id="rect8"
   height="19.705"
   width="78.819"
   style="fill:#fdb62f"
   y="137.93401"
   x="512.32599" /><rect
   id="rect10"
   height="19.705"
   width="78.819"
   style="fill:#fdb62f"
   y="88.671997"
   x="512.32599" /><rect
   id="rect12"
   height="19.705"
   width="78.819"
   style="fill:#fdb62f"
   y="482.76901"
   x="512.32599" /><rect
   id="rect14"
   height="19.705"
   width="78.819"
   style="fill:#fdb62f"
   y="433.50699"
   x="512.32599" /><rect
   id="rect16"
   height="19.705"
   width="78.819"
   style="fill:#fdb62f"
   y="384.245"
   x="512.32599" /><rect
   id="rect18"
   height="19.705"
   width="78.819"
   style="fill:#fdb62f"
   y="334.983"
   x="512.32599" /><rect
   id="rect20"
   height="19.705"
   width="78.819"
   style="fill:#fdb62f"
   y="285.72"
   x="512.32599" /><rect
   id="rect22"
   height="19.705"
   width="78.819"
   style="fill:#fdb62f"
   y="236.45799"
   x="512.32599" /><rect
   id="rect24"
   height="19.705"
   width="78.819"
   style="fill:#fdb62f"
   y="187.196"
   x="512.32599" /><rect
   id="rect26"
   height="19.705"
   width="78.819"
   style="fill:#fdb62f"
   y="137.93401"
   x="512.32599" /><rect
   id="rect28"
   height="19.705"
   width="78.819"
   style="fill:#fdb62f"
   y="88.671997"
   x="512.32599" /><rect
   id="rect30"
   height="19.705"
   width="78.819"
   style="fill:#fdb62f"
   y="482.76901"
   x="512.32599" /><rect
   id="rect32"
   height="19.705"
   width="78.819"
   style="fill:#fdb62f"
   y="433.50699"
   x="512.32599" /><rect
   id="rect34"
   height="19.705"
   width="78.819"
   style="fill:#fdb62f"
   y="384.245"
   x="512.32599" /><rect
   id="rect36"
   height="19.705"
   width="78.819"
   style="fill:#fdb62f"
   y="334.983"
   x="512.32599" /><rect
   y="0"
   id="rect38"
   height="78.819"
   width="19.705"
   style="fill:#fdb62f"
   x="285.72" /><rect
   y="0"
   id="rect40"
   height="78.819"
   width="19.705"
   style="fill:#fdb62f"
   x="236.45799" /><rect
   y="0"
   id="rect42"
   height="78.819"
   width="19.705"
   style="fill:#fdb62f"
   x="187.196" /><rect
   y="0"
   id="rect44"
   height="78.819"
   width="19.705"
   style="fill:#fdb62f"
   x="137.93401" /><rect
   y="0"
   id="rect46"
   height="78.819"
   width="19.705"
   style="fill:#fdb62f"
   x="88.671997" /><rect
   y="0"
   id="rect48"
   height="78.819"
   width="19.705"
   style="fill:#fdb62f"
   x="482.76901" /><rect
   y="0"
   id="rect50"
   height="78.819"
   width="19.705"
   style="fill:#fdb62f"
   x="433.50699" /><rect
   y="0"
   id="rect52"
   height="78.819"
   width="19.705"
   style="fill:#fdb62f"
   x="384.245" /><rect
   y="0"
   id="rect54"
   height="78.819"
   width="19.705"
   style="fill:#fdb62f"
   x="334.983" /><rect
   id="rect56"
   height="78.819"
   width="19.705"
   style="fill:#fdb62f"
   y="512.32599"
   x="285.72" /><rect
   id="rect58"
   height="78.819"
   width="19.705"
   style="fill:#fdb62f"
   y="512.32599"
   x="236.45799" /><rect
   id="rect60"
   height="78.819"
   width="19.705"
   style="fill:#fdb62f"
   y="512.32599"
   x="187.196" /><rect
   id="rect62"
   height="78.819"
   width="19.705"
   style="fill:#fdb62f"
   y="512.32599"
   x="137.93401" /><rect
   id="rect64"
   height="78.819"
   width="19.705"
   style="fill:#fdb62f"
   y="512.32599"
   x="88.671997" /><rect
   id="rect66"
   height="78.819"
   width="19.705"
   style="fill:#fdb62f"
   y="512.32599"
   x="482.76901" /><rect
   id="rect68"
   height="78.819"
   width="19.705"
   style="fill:#fdb62f"
   y="512.32599"
   x="433.50699" /><rect
   id="rect70"
   height="78.819"
   width="19.705"
   style="fill:#fdb62f"
   y="512.32599"
   x="384.245" /><rect
   id="rect72"
   height="78.819"
   width="19.705"
   style="fill:#fdb62f"
   y="512.32599"
   x="334.983" /><rect
   id="rect74"
   height="19.705"
   width="78.819"
   style="fill:#fdb62f"
   y="285.72"
   x="0" /><rect
   id="rect76"
   height="19.705"
   width="78.819"
   style="fill:#fdb62f"
   y="236.45799"
   x="0" /><rect
   id="rect78"
   height="19.705"
   width="78.819"
   style="fill:#fdb62f"
   y="187.196"
   x="0" /><rect
   id="rect80"
   height="19.705"
   width="78.819"
   style="fill:#fdb62f"
   y="137.93401"
   x="0" /><rect
   id="rect82"
   height="19.705"
   width="78.819"
   style="fill:#fdb62f"
   y="88.671997"
   x="0" /><rect
   id="rect84"
   height="19.705"
   width="78.819"
   style="fill:#fdb62f"
   y="482.76901"
   x="0" /><rect
   id="rect86"
   height="19.705"
   width="78.819"
   style="fill:#fdb62f"
   y="433.50699"
   x="0" /><rect
   id="rect88"
   height="19.705"
   width="78.819"
   style="fill:#fdb62f"
   y="384.245"
   x="0" /><rect
   id="rect90"
   height="19.705"
   width="78.819"
   style="fill:#fdb62f"
   y="334.983"
   x="0" /><rect
   y="0"
   id="rect92"
   height="78.819"
   width="19.705"
   style="fill:#fdb62f"
   x="285.72" /><rect
   y="0"
   id="rect94"
   height="78.819"
   width="19.705"
   style="fill:#fdb62f"
   x="236.45799" /><rect
   y="0"
   id="rect96"
   height="78.819"
   width="19.705"
   style="fill:#fdb62f"
   x="187.196" /><rect
   y="0"
   id="rect98"
   height="78.819"
   width="19.705"
   style="fill:#fdb62f"
   x="137.93401" /><rect
   y="0"
   id="rect100"
   height="78.819"
   width="19.705"
   style="fill:#fdb62f"
   x="88.671997" /><rect
   y="0"
   id="rect102"
   height="78.819"
   width="19.705"
   style="fill:#fdb62f"
   x="482.76901" /><rect
   y="0"
   id="rect104"
   height="78.819"
   width="19.705"
   style="fill:#fdb62f"
   x="433.50699" /><rect
   y="0"
   id="rect106"
   height="78.819"
   width="19.705"
   style="fill:#fdb62f"
   x="384.245" /><rect
   y="0"
   id="rect108"
   height="78.819"
   width="19.705"
   style="fill:#fdb62f"
   x="334.983" /><rect
   id="rect110"
   height="19.705"
   width="39.41"
   style="fill:#ffa230"
   y="285.72"
   x="512.32599" /><rect
   id="rect112"
   height="19.705"
   width="39.41"
   style="fill:#ffa230"
   y="236.45799"
   x="512.32599" /><rect
   id="rect114"
   height="19.705"
   width="39.41"
   style="fill:#ffa230"
   y="187.196"
   x="512.32599" /><rect
   id="rect116"
   height="19.705"
   width="39.41"
   style="fill:#ffa230"
   y="137.93401"
   x="512.32599" /><rect
   id="rect118"
   height="19.705"
   width="39.41"
   style="fill:#ffa230"
   y="88.671997"
   x="512.32599" /><rect
   id="rect120"
   height="19.705"
   width="39.41"
   style="fill:#ffa230"
   y="482.76901"
   x="512.32599" /><rect
   id="rect122"
   height="19.705"
   width="39.41"
   style="fill:#ffa230"
   y="433.50699"
   x="512.32599" /><rect
   id="rect124"
   height="19.705"
   width="39.41"
   style="fill:#ffa230"
   y="384.245"
   x="512.32599" /><rect
   id="rect126"
   height="19.705"
   width="39.41"
   style="fill:#ffa230"
   y="334.983"
   x="512.32599" /><rect
   id="rect128"
   height="78.819"
   width="19.705"
   style="fill:#fdb62f"
   y="512.32599"
   x="285.72" /><rect
   id="rect130"
   height="78.819"
   width="19.705"
   style="fill:#fdb62f"
   y="512.32599"
   x="236.45799" /><rect
   id="rect132"
   height="78.819"
   width="19.705"
   style="fill:#fdb62f"
   y="512.32599"
   x="187.196" /><rect
   id="rect134"
   height="78.819"
   width="19.705"
   style="fill:#fdb62f"
   y="512.32599"
   x="137.93401" /><rect
   id="rect136"
   height="78.819"
   width="19.705"
   style="fill:#fdb62f"
   y="512.32599"
   x="88.671997" /><rect
   id="rect138"
   height="78.819"
   width="19.705"
   style="fill:#fdb62f"
   y="512.32599"
   x="482.76901" /><rect
   id="rect140"
   height="78.819"
   width="19.705"
   style="fill:#fdb62f"
   y="512.32599"
   x="433.50699" /><rect
   id="rect142"
   height="78.819"
   width="19.705"
   style="fill:#fdb62f"
   y="512.32599"
   x="384.245" /><rect
   id="rect144"
   height="78.819"
   width="19.705"
   style="fill:#fdb62f"
   y="512.32599"
   x="334.983" /><rect
   id="rect146"
   height="39.41"
   width="19.705"
   style="fill:#ffa230"
   y="512.32599"
   x="285.72" /><rect
   id="rect148"
   height="39.41"
   width="19.705"
   style="fill:#ffa230"
   y="512.32599"
   x="334.983" /><rect
   id="rect150"
   height="39.41"
   width="19.705"
   style="fill:#ffa230"
   y="512.32599"
   x="384.245" /><rect
   id="rect152"
   height="39.41"
   width="19.705"
   style="fill:#ffa230"
   y="512.32599"
   x="433.50699" /><rect
   id="rect154"
   height="39.41"
   width="19.705"
   style="fill:#ffa230"
   y="512.32599"
   x="482.76901" /><rect
   id="rect156"
   height="39.41"
   width="19.705"
   style="fill:#ffa230"
   y="512.32599"
   x="88.671997" /><rect
   id="rect158"
   height="39.41"
   width="19.705"
   style="fill:#ffa230"
   y="512.32599"
   x="137.93401" /><rect
   id="rect160"
   height="39.41"
   width="19.705"
   style="fill:#ffa230"
   y="512.32599"
   x="187.196" /><rect
   id="rect162"
   height="39.41"
   width="19.705"
   style="fill:#ffa230"
   y="512.32599"
   x="236.45799" /><rect
   id="rect164"
   height="19.705"
   width="78.819"
   style="fill:#fdb62f"
   y="285.72"
   x="0" /><rect
   id="rect166"
   height="19.705"
   width="78.819"
   style="fill:#fdb62f"
   y="236.45799"
   x="0" /><rect
   id="rect168"
   height="19.705"
   width="78.819"
   style="fill:#fdb62f"
   y="187.196"
   x="0" /><rect
   id="rect170"
   height="19.705"
   width="78.819"
   style="fill:#fdb62f"
   y="137.93401"
   x="0" /><rect
   id="rect172"
   height="19.705"
   width="78.819"
   style="fill:#fdb62f"
   y="88.671997"
   x="0" /><rect
   id="rect174"
   height="19.705"
   width="78.819"
   style="fill:#fdb62f"
   y="482.76901"
   x="0" /><rect
   id="rect176"
   height="19.705"
   width="78.819"
   style="fill:#fdb62f"
   y="433.50699"
   x="0" /><rect
   id="rect178"
   height="19.705"
   width="78.819"
   style="fill:#fdb62f"
   y="384.245"
   x="0" /><rect
   id="rect180"
   height="19.705"
   width="78.819"
   style="fill:#fdb62f"
   y="334.983"
   x="0" /><path
   id="path182"
   d="m 118.229,59.115 h 354.688 c 32.651,0 59.115,26.464 59.115,59.115 v 354.688 c 0,32.651 -26.464,59.115 -59.115,59.115 H 118.229 c -32.651,0 -59.115,-26.464 -59.115,-59.115 V 118.229 C 59.115,85.578 85.578,59.115 118.229,59.115 Z"
   style="fill:#4398d1" /><path
   id="path184"
   d="m 109.145,531.263 c 3.005,0.493 6.04,0.749 9.084,0.768 h 354.688 c 32.651,0 59.115,-26.464 59.115,-59.115 V 118.229 c -0.02,-3.044 -0.276,-6.079 -0.768,-9.084 z"
   style="fill:#3e8cc7" /><path
   id="path186"
   d="M 463.064,492.622 H 128.082 c -16.325,0 -29.557,-13.232 -29.557,-29.557 V 128.082 c 0,-16.325 13.232,-29.557 29.557,-29.557 h 334.983 c 16.325,0 29.557,13.232 29.557,29.557 v 334.983 c 0,16.325 -13.232,29.557 -29.558,29.557 z M 128.082,118.229 c -5.439,0 -9.852,4.414 -9.852,9.852 v 334.983 c 0,5.439 4.414,9.852 9.852,9.852 h 334.983 c 5.439,0 9.852,-4.414 9.852,-9.852 V 128.082 c 0,-5.439 -4.414,-9.852 -9.852,-9.852 H 128.082 Z"
   style="fill:#387eb3" /><rect
   id="rect188"
   height="19.705"
   width="19.705"
   style="fill:#5eb3d1"
   y="137.93401"
   x="433.50699" /><rect
   id="rect190"
   height="19.705"
   width="19.705"
   style="fill:#5eb3d1"
   y="433.50699"
   x="137.93401" /><path
   id="path192"
   d="m 157.639,187.196 h -19.705 v -29.557 c 0,-10.887 8.818,-19.705 19.705,-19.705 h 29.557 v 19.705 h -29.557 z"
   style="fill:#5eb3d1" /><path
   id="path194"
   d="M 433.507,453.212 H 403.95 v -19.705 h 29.557 V 403.95 h 19.705 v 29.557 c 0,10.887 -8.818,19.705 -19.705,19.705 z"
   style="fill:#5eb3d1" /><path
   id="path196"
   d="M 502.474,56.011 V 0 h -19.705 v 50.05 c -3.261,-0.493 -6.552,-0.759 -9.852,-0.788 H 453.212 V 0 H 433.507 V 49.262 H 403.95 V 0 H 384.245 V 49.262 H 354.688 V 0 H 334.983 V 49.262 H 305.426 V 0 H 285.72 V 49.262 H 256.163 V 0 H 236.458 V 49.262 H 206.901 V 0 H 187.196 V 49.262 H 157.639 V 0 h -19.705 v 49.262 h -19.705 c -3.301,0.03 -6.591,0.296 -9.852,0.788 V 0 H 88.672 V 56.011 C 74.366,62.839 62.839,74.366 56.011,88.672 H 0 v 19.705 h 50.05 c -0.493,3.261 -0.759,6.552 -0.788,9.852 v 19.705 H 0 v 19.705 h 49.262 v 29.557 H 0 v 19.705 h 49.262 v 29.557 H 0 v 19.705 H 49.262 V 285.72 H 0 v 19.705 h 49.262 v 29.557 H 0 v 19.705 h 49.262 v 29.557 H 0 v 19.705 h 49.262 v 29.557 H 0 v 19.705 h 49.262 v 19.705 c 0.03,3.301 0.296,6.591 0.788,9.852 H 0 v 19.705 h 56.011 c 6.828,14.306 18.355,25.833 32.661,32.661 v 56.011 h 19.705 v -50.05 c 3.261,0.493 6.552,0.759 9.852,0.788 h 19.705 v 49.262 h 19.705 v -49.262 h 29.557 v 49.262 h 19.705 v -49.262 h 29.557 v 49.262 h 19.705 v -49.262 h 29.557 v 49.262 h 19.705 v -49.262 h 29.557 v 49.262 h 19.705 v -49.262 h 29.557 v 49.262 h 19.705 v -49.262 h 29.557 v 49.262 h 19.705 v -49.262 h 19.705 c 3.301,-0.03 6.591,-0.296 9.852,-0.788 v 50.05 h 19.705 v -56.011 c 14.306,-6.828 25.833,-18.355 32.661,-32.661 h 56.011 v -19.705 h -50.05 c 0.493,-3.261 0.759,-6.552 0.788,-9.852 v -19.705 h 49.262 V 433.506 H 541.883 V 403.95 h 49.262 v -19.705 h -49.262 v -29.557 h 49.262 v -19.705 h -49.262 v -29.557 h 49.262 V 285.72 h -49.262 v -29.557 h 49.262 v -19.705 h -49.262 v -29.557 h 49.262 v -19.705 h -49.262 v -29.557 h 49.262 v -19.705 h -49.262 v -19.705 c -0.03,-3.301 -0.296,-6.591 -0.788,-9.852 h 50.05 V 88.672 H 535.134 C 528.307,74.366 516.78,62.839 502.474,56.011 Z m 19.705,416.906 c -0.03,27.193 -22.069,49.233 -49.262,49.262 H 118.229 C 91.036,522.149 68.996,500.11 68.967,472.917 V 118.229 c 0.03,-27.193 22.069,-49.233 49.262,-49.262 h 354.688 c 27.193,0.03 49.233,22.069 49.262,49.262 z" /><path
   id="path198"
   d="M 463.064,98.524 H 128.082 c -16.325,0 -29.557,13.232 -29.557,29.557 v 334.983 c 0,16.325 13.232,29.557 29.557,29.557 h 334.983 c 16.325,0 29.557,-13.232 29.557,-29.557 V 128.082 c 0,-16.326 -13.232,-29.558 -29.558,-29.558 z m 9.853,364.54 c 0,5.439 -4.414,9.852 -9.852,9.852 H 128.082 c -5.439,0 -9.852,-4.414 -9.852,-9.852 V 128.082 c 0,-5.439 4.414,-9.852 9.852,-9.852 h 334.983 c 5.439,0 9.852,4.414 9.852,9.852 z" /><rect
   id="rect200"
   height="19.705"
   width="19.705"
   y="137.93401"
   x="433.50699" /><rect
   id="rect202"
   height="19.705"
   width="19.705"
   y="433.50699"
   x="137.93401" /><path
   id="path204"
   d="m 137.934,157.639 v 29.557 h 19.705 v -29.557 h 29.557 v -19.705 h -29.557 c -10.887,0 -19.705,8.818 -19.705,19.705 z" /><polygon
   id="polygon206"
   points="453.212,403.95 433.507,403.95 433.507,433.507 403.95,433.507 403.95,453.212 453.212,453.212 " />
	</g>
<g
   id="g213">
</g>
<g
   id="g215">
</g>
<g
   id="g217">
</g>
<g
   id="g219">
</g>
<g
   id="g221">
</g>
<g
   id="g223">
</g>
<g
   id="g225">
</g>
<g
   id="g227">
</g>
<g
   id="g229">
</g>
<g
   id="g231">
</g>
<g
   id="g233">
</g>
<g
   id="g235">
</g>
<g
   id="g237">
</g>
<g
   id="g239">
</g>
<g
   id="g241">
</g>
<g
   transform="matrix(0.61926192,0,0,0.61926192,179.42127,181.87038)"
   id="g1118"><g
     id="g1060">
	<g
   id="_x32_37._Locked">
		<g
   id="g1057">
			<path
   d="M 274.765,141.3 V 94.205 C 274.765,42.172 232.583,0 180.559,0 128.527,0 86.354,42.172 86.354,94.205 V 141.3 c -17.34,0 -31.4,14.06 -31.4,31.4 v 157.016 c 0,17.344 14.06,31.402 31.4,31.402 h 188.411 c 17.341,0 31.398,-14.059 31.398,-31.402 V 172.7 c 10e-4,-17.34 -14.057,-31.4 -31.398,-31.4 z M 117.756,94.205 c 0,-34.69 28.12,-62.803 62.803,-62.803 34.685,0 62.805,28.112 62.805,62.803 V 141.3 H 117.756 Z m 157.009,235.51 H 86.354 V 172.708 H 274.765 Z M 164.858,262.558 v 20.054 c 0,8.664 7.035,15.701 15.701,15.701 8.664,0 15.701,-7.037 15.701,-15.701 v -20.054 c 9.337,-5.441 15.701,-15.456 15.701,-27.046 0,-17.348 -14.062,-31.41 -31.402,-31.41 -17.34,0 -31.4,14.062 -31.4,31.41 0,11.59 6.358,21.605 15.699,27.046 z"
   id="path1055" />
		</g>
	</g>
</g><g
     id="g1062">
</g><g
     id="g1064">
</g><g
     id="g1066">
</g><g
     id="g1068">
</g><g
     id="g1070">
</g><g
     id="g1072">
</g><g
     id="g1074">
</g><g
     id="g1076">
</g><g
     id="g1078">
</g><g
     id="g1080">
</g><g
     id="g1082">
</g><g
     id="g1084">
</g><g
     id="g1086">
</g><g
     id="g1088">
</g><g
     id="g1090">
</g></g></svg>