<svg id="Layer_3" enable-background="new 0 0 64 64" height="512" viewBox="0 0 64 64" width="512" xmlns="http://www.w3.org/2000/svg"><path d="m62 32-6.335 6.335c-6.188 6.188-14.582 9.665-23.334 9.665h-.662c-8.752 0-17.146-3.477-23.335-9.665l-6.334-6.335 6.335-6.335c6.188-6.188 14.582-9.665 23.334-9.665h.662c8.752 0 17.146 3.477 23.335 9.665z" fill="#c7e2fc"/><path d="m54.563 24.616c-6.065-5.53-13.989-8.616-22.232-8.616h-.662c-8.752 0-17.146 3.477-23.335 9.665l-6.334 6.335 5.857 5.857c3.673.741 7.584 1.143 11.643 1.143 15.592 0 29.01-5.902 35.063-14.384z" fill="#ebf7fe"/><path d="m49 31c0-5.456-2.581-10.299-6.577-13.41-3.233-1.039-6.633-1.59-10.092-1.59h-.662c-3.459 0-6.859.551-10.092 1.59-3.996 3.111-6.577 7.954-6.577 13.41 0 9.389 7.611 17 17 17s17-7.611 17-17z" fill="#8892a0"/><circle cx="32" cy="32" fill="#4d5d7a" r="9"/><path d="m30.768 27.154c.149-.355.232-.745.232-1.154 0-1.136-.639-2.113-1.571-2.622-1.747.52-3.273 1.554-4.398 2.93.156 1.51 1.417 2.692 2.969 2.692 0 1.105.895 2 2 2s2-.895 2-2c0-.832-.509-1.545-1.232-1.846z" fill="#ebf7fe"/><path d="m32.331 49h-.662c-9.082 0-17.62-3.536-24.042-9.958l-6.334-6.335c-.391-.391-.391-1.023 0-1.414l6.334-6.335c6.422-6.422 14.96-9.958 24.042-9.958h.662c9.082 0 17.62 3.536 24.042 9.958l6.334 6.335c.391.391.391 1.023 0 1.414l-6.334 6.335c-6.422 6.422-14.96 9.958-24.042 9.958zm-28.917-17 5.627 5.628c6.045 6.044 14.081 9.372 22.628 9.372h.662c8.547 0 16.583-3.328 22.627-9.372l5.628-5.628-5.627-5.628c-6.045-6.044-14.081-9.372-22.628-9.372h-.662c-8.547 0-16.583 3.328-22.627 9.372z"/><path d="m32 49c-9.925 0-18-8.075-18-18 0-5.584 2.528-10.76 6.936-14.199l1.23 1.576c-3.918 3.059-6.166 7.659-6.166 12.623 0 8.822 7.178 16 16 16s16-7.178 16-16c0-4.964-2.248-9.564-6.167-12.623l1.23-1.576c4.409 3.439 6.937 8.615 6.937 14.199 0 9.925-8.075 18-18 18z"/><path d="m32 42c-5.514 0-10-4.486-10-10s4.486-10 10-10 10 4.486 10 10-4.486 10-10 10zm0-18c-4.411 0-8 3.589-8 8s3.589 8 8 8 8-3.589 8-8-3.589-8-8-8z"/><path d="m30 32c-1.338 0-2.474-.88-2.859-2.092-1.66-.36-2.942-1.745-3.12-3.501l1.99-.201c.103 1.023.959 1.794 1.989 1.794.552 0 1 .447 1 1 0 .552.449 1 1 1s1-.448 1-1c0-.404-.242-.767-.616-.923-.245-.102-.439-.297-.541-.542-.101-.246-.1-.521.002-.767.103-.245.155-.502.155-.768 0-.73-.398-1.402-1.04-1.756l.964-1.752c1.281.704 2.076 2.048 2.076 3.508 0 .239-.021.476-.063.708.664.56 1.063 1.391 1.063 2.292 0 1.654-1.346 3-3 3z"/></svg>