<?xml version="1.0" encoding="UTF-8" standalone="no"?>
<!-- Created with Inkscape (http://www.inkscape.org/) -->

<svg
   xmlns:dc="http://purl.org/dc/elements/1.1/"
   xmlns:cc="http://creativecommons.org/ns#"
   xmlns:rdf="http://www.w3.org/1999/02/22-rdf-syntax-ns#"
   xmlns:svg="http://www.w3.org/2000/svg"
   xmlns="http://www.w3.org/2000/svg"
   xmlns:sodipodi="http://sodipodi.sourceforge.net/DTD/sodipodi-0.dtd"
   xmlns:inkscape="http://www.inkscape.org/namespaces/inkscape"
   width="77.306633mm"
   height="63.737514mm"
   viewBox="0 0 77.306633 63.737514"
   version="1.1"
   id="svg8"
   inkscape:version="0.92.4 5da689c313, 2019-01-14"
   sodipodi:docname="fake_amazon.svg"
   inkscape:export-filename="/home/daniele/Documents/presentations/amazon.png"
   inkscape:export-xdpi="168.17097"
   inkscape:export-ydpi="168.17097">
  <defs
     id="defs2" />
  <sodipodi:namedview
     id="base"
     pagecolor="#ffffff"
     bordercolor="#666666"
     borderopacity="1.0"
     inkscape:pageopacity="0.0"
     inkscape:pageshadow="2"
     inkscape:zoom="2.8"
     inkscape:cx="125.53022"
     inkscape:cy="75.683537"
     inkscape:document-units="mm"
     inkscape:current-layer="layer1"
     showgrid="false"
     fit-margin-top="0"
     fit-margin-left="0"
     fit-margin-right="0"
     fit-margin-bottom="0"
     inkscape:window-width="2560"
     inkscape:window-height="1381"
     inkscape:window-x="0"
     inkscape:window-y="0"
     inkscape:window-maximized="1" />
  <metadata
     id="metadata5">
    <rdf:RDF>
      <cc:Work
         rdf:about="">
        <dc:format>image/svg+xml</dc:format>
        <dc:type
           rdf:resource="http://purl.org/dc/dcmitype/StillImage" />
        <dc:title></dc:title>
      </cc:Work>
    </rdf:RDF>
  </metadata>
  <g
     inkscape:label="Layer 1"
     inkscape:groupmode="layer"
     id="layer1"
     transform="translate(-65.251857,-10.507868)">
    <path
       inkscape:connector-curvature="0"
       style="fill:#f6a31a;stroke-width:0.06957556"
       d="m 100.38579,74.202544 c -5.442025,-0.30748 -10.832976,-1.36354 -15.920578,-3.11875 -1.449995,-0.50025 -2.101892,-0.75145 -3.096112,-1.19306 -0.325266,-0.14448 -0.669665,-0.28623 -0.765331,-0.31499 -0.388831,-0.11691 -3.343027,-1.53184 -4.271719,-2.04597 -0.195281,-0.10811 -0.648223,-0.3589 -1.006537,-0.55731 -1.720871,-0.95292 -4.24746,-2.577598 -5.578909,-3.587419 -2.379785,-1.80492 -4.076373,-3.193567 -4.324096,-3.539246 -0.217471,-0.303468 -0.226365,-0.505823 -0.03083,-0.701362 0.09759,-0.09759 0.243504,-0.17744 0.324249,-0.17744 0.200215,0 0.768941,0.249666 1.3563,0.595404 0.623651,0.367102 4.096039,2.112941 5.008531,2.518179 1.065772,0.47331 2.935229,1.267171 3.478778,1.477257 2.957162,1.142966 6.02249,2.156967 8.523007,2.819387 0.662348,0.17546 2.717464,0.67801 3.826656,0.93575 0.819404,0.19041 3.13207,0.62432 4.104958,0.7702 0.210466,0.0316 0.71141,0.1079 1.113209,0.16966 1.550224,0.23829 3.439096,0.4507 5.252958,0.5907 0.53573,0.0413 1.11495,0.0925 1.28715,0.11357 0.1722,0.0211 1.675036,0.063 3.339626,0.0931 3.99955,0.0723 5.7675,0.008 9.36496,-0.3391 2.3535,-0.22728 6.14571,-0.83223 8.34202,-1.33075 0.3444,-0.0782 0.82969,-0.1877 1.07842,-0.2434 1.45119,-0.32493 2.99586,-0.72553 4.13975,-1.07363 2.88336,-0.87743 4.46319,-1.428863 7.28853,-2.544027 1.06159,-0.419009 1.57755,-0.485645 2.04454,-0.264047 0.54159,0.257002 0.594,0.994518 0.10739,1.510886 -0.54238,0.575528 -3.39065,2.323468 -5.56518,3.415268 -1.05078,0.52758 -2.6482,1.26657 -3.04037,1.40652 -0.15307,0.0546 -0.48182,0.19077 -0.73055,0.30255 -1.07347,0.4824 -4.12505,1.55578 -5.53126,1.9456 -0.30613,0.0849 -0.80707,0.22769 -1.1132,0.31739 -2.91767,0.85491 -6.96291,1.57804 -10.92337,1.95269 -1.32057,0.12492 -6.48737,0.18652 -8.08299,0.0964 z"
       id="path873" />
    <path
       inkscape:connector-curvature="0"
       style="fill:#f6a31a;stroke-width:0.06957556"
       d="m 136.72137,71.102904 c -0.15674,-0.15673 -0.0919,-0.37627 0.65577,-2.22138 0.20158,-0.49747 0.42197,-1.07669 0.48973,-1.28716 0.0678,-0.21046 0.24601,-0.72706 0.39611,-1.14799 0.29791,-0.83547 0.73054,-2.398068 0.84874,-3.065518 0.0411,-0.231902 0.074,-0.717191 0.0731,-1.078421 -0.003,-1.215281 -0.35821,-1.598958 -1.80743,-1.951315 -0.1722,-0.04187 -1.08016,-0.0919 -2.01769,-0.111185 -1.69934,-0.03495 -3.93021,0.09821 -5.91772,0.353242 -0.81507,0.104586 -1.10941,0.04981 -1.10941,-0.206444 0,-0.283564 0.10658,-0.411648 0.62887,-0.755734 2.23514,-1.472521 6.0486,-2.303967 9.47732,-2.066336 1.79992,0.124745 3.38416,0.483087 3.78386,0.855881 0.46946,0.437852 0.44349,2.467206 -0.0573,4.477472 -0.76407,3.067088 -2.17291,5.720968 -3.94276,7.427118 -0.89768,0.86536 -1.23755,1.04145 -1.50122,0.77777 z"
       id="path871" />
    <text
       xml:space="preserve"
       style="font-style:normal;font-variant:normal;font-weight:normal;font-stretch:normal;font-size:1.41111112px;line-height:1.25;font-family:sans-serif;-inkscape-font-specification:'sans-serif, Normal';font-variant-ligatures:normal;font-variant-caps:normal;font-variant-numeric:normal;font-feature-settings:normal;text-align:start;letter-spacing:0px;word-spacing:0px;writing-mode:lr-tb;text-anchor:start;fill:#000000;fill-opacity:1;stroke:none;stroke-width:0.26458332"
       x="78.953491"
       y="56.574997"
       id="text923"><tspan
         sodipodi:role="line"
         id="tspan921"
         x="78.953491"
         y="56.574997"
         style="font-style:normal;font-variant:normal;font-weight:normal;font-stretch:normal;font-size:50.79999924px;font-family:Pacifico;-inkscape-font-specification:'Pacifico, Normal';font-variant-ligatures:normal;font-variant-caps:normal;font-variant-numeric:normal;font-feature-settings:normal;text-align:start;writing-mode:lr-tb;text-anchor:start;stroke-width:0.26458332">A</tspan></text>
  </g>
</svg>
