<svg height="512" viewBox="0 0 64 64" width="512" xmlns="http://www.w3.org/2000/svg"><g id="Id_card" data-name="Id card"><rect fill="#e0e0e2" height="38" rx="4" width="60" x="2" y="12"/><circle cx="18" cy="24" fill="#ffeb99" r="5"/><path d="m20 28.59v3.41h-4v-3.41" fill="#ffeb99"/><path d="m16 32h4a8 8 0 0 1 8 8v2a0 0 0 0 1 0 0h-20a0 0 0 0 1 0 0v-2a8 8 0 0 1 8-8z" fill="#ed1c24"/><path d="m32 20h24v6h-24z" fill="#ffd422"/><g fill="#231f20"><path d="m58 11h-52a5.006 5.006 0 0 0 -5 5v30a5.006 5.006 0 0 0 5 5h52a5.006 5.006 0 0 0 5-5v-30a5.006 5.006 0 0 0 -5-5zm3 35a3 3 0 0 1 -3 3h-52a3 3 0 0 1 -3-3v-30a3 3 0 0 1 3-3h52a3 3 0 0 1 3 3z"/><path d="m21 31.059v-1.871a6 6 0 1 0 -6 0v1.871a9.011 9.011 0 0 0 -8 8.941v2a1 1 0 0 0 1 1h20a1 1 0 0 0 1-1v-2a9.011 9.011 0 0 0 -8-8.941zm-3-11.059a4 4 0 1 1 -4 4 4 4 0 0 1 4-4zm0 10a6 6 0 0 0 1-.09v1.09h-2v-1.09a6 6 0 0 0 1 .09zm9 11h-18v-1a7.008 7.008 0 0 1 7-7h4a7.008 7.008 0 0 1 7 7z"/><path d="m56 19h-24a1 1 0 0 0 -1 1v6a1 1 0 0 0 1 1h24a1 1 0 0 0 1-1v-6a1 1 0 0 0 -1-1zm-1 6h-22v-4h22z"/><path d="m56 29h-20a1 1 0 0 0 0 2h20a1 1 0 0 0 0-2z"/><path d="m32 31h1a1 1 0 0 0 0-2h-1a1 1 0 0 0 0 2z"/><path d="m43 37h-11a1 1 0 0 0 0 2h11a1 1 0 0 0 0-2z"/><path d="m47 37h-1a1 1 0 0 0 0 2h1a1 1 0 0 0 0-2z"/><path d="m56 33h-24a1 1 0 0 0 0 2h24a1 1 0 0 0 0-2z"/></g></g></svg>