<?xml version="1.0" encoding="UTF-8" standalone="no"?>
<!-- Generator: Adobe Illustrator 16.0.0, SVG Export Plug-In . SVG Version: 6.00 Build 0)  -->

<svg
   xmlns:dc="http://purl.org/dc/elements/1.1/"
   xmlns:cc="http://creativecommons.org/ns#"
   xmlns:rdf="http://www.w3.org/1999/02/22-rdf-syntax-ns#"
   xmlns:svg="http://www.w3.org/2000/svg"
   xmlns="http://www.w3.org/2000/svg"
   xmlns:sodipodi="http://sodipodi.sourceforge.net/DTD/sodipodi-0.dtd"
   xmlns:inkscape="http://www.inkscape.org/namespaces/inkscape"
   version="1.1"
   id="Capa_1"
   x="0px"
   y="0px"
   width="361.118px"
   height="361.118px"
   viewBox="0 0 361.118 361.118"
   style="enable-background:new 0 0 361.118 361.118;"
   xml:space="preserve"
   sodipodi:docname="lock-icon.svg"
   inkscape:version="0.92.5 (2060ec1f9f, 2020-04-08)"><metadata
   id="metadata3837"><rdf:RDF><cc:Work
       rdf:about=""><dc:format>image/svg+xml</dc:format><dc:type
         rdf:resource="http://purl.org/dc/dcmitype/StillImage" /></cc:Work></rdf:RDF></metadata><defs
   id="defs3835" /><sodipodi:namedview
   pagecolor="#ffffff"
   bordercolor="#666666"
   borderopacity="1"
   objecttolerance="10"
   gridtolerance="10"
   guidetolerance="10"
   inkscape:pageopacity="0"
   inkscape:pageshadow="2"
   inkscape:window-width="1916"
   inkscape:window-height="1041"
   id="namedview3833"
   showgrid="false"
   inkscape:zoom="2.3565704"
   inkscape:cx="180.55901"
   inkscape:cy="180.55901"
   inkscape:window-x="1920"
   inkscape:window-y="37"
   inkscape:window-maximized="0"
   inkscape:current-layer="Capa_1" />
<path
   style="fill:#ffffff;fill-opacity:1;stroke-width:0.44104847"
   d="M 80.626146,251.10698 V 172.708 H 182.0248 283.42347 v 78.39898 78.39899 H 182.0248 80.626146 Z m 104.923934,46.90157 c 5.26806,-1.03755 9.74756,-4.27789 12.12311,-8.76949 l 1.28955,-2.43823 0.13971,-12.13888 0.13971,-12.13889 1.32515,-0.72661 c 4.52717,-2.48232 9.82916,-8.14796 12.38928,-13.23902 4.63829,-9.22376 4.14708,-20.42811 -1.27612,-29.10749 -2.1235,-3.3985 -8.60058,-9.489 -12.14038,-11.41577 -8.90181,-4.84545 -20.50796,-5.63364 -30.08455,-2.04311 -4.34021,1.62726 -7.67421,3.65175 -10.96808,6.66005 -3.88147,3.54496 -6.28317,6.94358 -8.13536,11.51223 -5.33042,13.14815 -0.74898,27.79807 11.31362,36.17719 l 3.19228,2.21747 v 10.29456 c 0,5.89865 0.21671,11.2561 0.50753,12.54634 1.43225,6.35428 6.82088,11.43645 13.41227,12.64948 2.73131,0.50266 4.0574,0.49485 6.77228,-0.0399 z"
   id="path3839"
   inkscape:connector-curvature="0" /><path
   style="fill:#ffffff;fill-opacity:1;stroke-width:0.44240829"
   d="m 113.72567,113.06848 c 0.17916,-26.646872 0.23868,-28.337954 1.14256,-32.462724 5.76043,-26.287355 24.88756,-45.229363 51.5721,-51.072955 3.99677,-0.875248 5.85875,-1.016359 13.36678,-1.013019 9.64199,0.0043 12.64479,0.445777 20.83532,3.063327 19.13935,6.116598 35.14964,21.723316 41.51339,40.466976 3.22132,9.488015 3.10558,8.075955 3.29039,40.143335 l 0.16706,28.98632 h -66.0383 -66.03829 z"
   id="path3841"
   inkscape:connector-curvature="0" /><g
   id="g3800">
	<g
   id="_x32_37._Locked">
		<g
   id="g3797">
			<path
   d="M274.765,141.3V94.205C274.765,42.172,232.583,0,180.559,0c-52.032,0-94.205,42.172-94.205,94.205V141.3     c-17.34,0-31.4,14.06-31.4,31.4v157.016c0,17.344,14.06,31.402,31.4,31.402h188.411c17.341,0,31.398-14.059,31.398-31.402V172.7     C306.164,155.36,292.106,141.3,274.765,141.3z M117.756,94.205c0-34.69,28.12-62.803,62.803-62.803     c34.685,0,62.805,28.112,62.805,62.803V141.3H117.756V94.205z M274.765,329.715H86.354V172.708h188.411V329.715z      M164.858,262.558v20.054c0,8.664,7.035,15.701,15.701,15.701c8.664,0,15.701-7.037,15.701-15.701v-20.054     c9.337-5.441,15.701-15.456,15.701-27.046c0-17.348-14.062-31.41-31.402-31.41c-17.34,0-31.4,14.062-31.4,31.41     C149.159,247.102,155.517,257.117,164.858,262.558z"
   id="path3795" />
		</g>
	</g>
</g>
<g
   id="g3802">
</g>
<g
   id="g3804">
</g>
<g
   id="g3806">
</g>
<g
   id="g3808">
</g>
<g
   id="g3810">
</g>
<g
   id="g3812">
</g>
<g
   id="g3814">
</g>
<g
   id="g3816">
</g>
<g
   id="g3818">
</g>
<g
   id="g3820">
</g>
<g
   id="g3822">
</g>
<g
   id="g3824">
</g>
<g
   id="g3826">
</g>
<g
   id="g3828">
</g>
<g
   id="g3830">
</g>
</svg>