<svg height="512" viewBox="0 0 64 64" width="512" xmlns="http://www.w3.org/2000/svg"><g id="Filled_outline" data-name="Filled outline"><path d="m19 55h26a2 2 0 0 1 2 2v4a0 0 0 0 1 0 0h-30a0 0 0 0 1 0 0v-4a2 2 0 0 1 2-2z" fill="#5a6470"/><path d="m29 35h6v20h-6z" fill="#aabece"/><rect fill="#aabece" height="24" rx="2" width="20" x="22" y="3"/><g fill="#5a6470"><path d="m22 6h8v2h-8z"/><path d="m22 10h8v2h-8z"/><path d="m22 14h8v2h-8z"/><path d="m22 18h8v2h-8z"/><path d="m22 22h8v2h-8z"/><path d="m34 6h8v2h-8z"/><path d="m34 10h8v2h-8z"/><path d="m34 14h8v2h-8z"/><path d="m34 18h8v2h-8z"/><path d="m34 22h8v2h-8z"/></g><path d="m38 31-3 4h-6l-3-4v-4h12z" fill="#7d8d9c"/><path d="m31 30h2v2h-2z" fill="#fcf05a"/><path d="m49.868 18.5-1.736-1 2.985-5.225-4.975.711a1 1 0 0 1 -1.01-1.486l4-7 1.736.992-2.985 5.225 4.975-.711a1 1 0 0 1 1.01 1.486z" fill="#fcf05a"/><path d="m14.132 28.5-4-7a1 1 0 0 1 1.01-1.486l4.975.711-2.985-5.225 1.736-.992 4 7a1 1 0 0 1 -1.01 1.486l-4.975-.711 2.985 5.217z" fill="#fcf05a"/><path d="m21 58h2v3h-2z" fill="#aabece"/><path d="m25 58h2v3h-2z" fill="#aabece"/><path d="m34 58h2v3h-2z" fill="#aabece"/><path d="m40 58h2v3h-2z" fill="#aabece"/><path d="m19 54a3 3 0 0 0 -3 3v5h32v-5a3 3 0 0 0 -3-3h-9v-18.667l3-4v-3.333h1a3 3 0 0 0 3-3v-20a3 3 0 0 0 -3-3h-16a3 3 0 0 0 -3 3v20a3 3 0 0 0 3 3h1v3.333l3 4v18.667zm26 2a1 1 0 0 1 1 1v3h-4v-2h-2v2h-4v-2h-2v2h-7v-2h-2v2h-2v-2h-2v2h-3v-3a1 1 0 0 1 1-1zm-21-30a1 1 0 0 1 -1-1v-1h7v-2h-7v-2h7v-2h-7v-2h7v-2h-7v-2h7v-2h-7v-2h7v-2h-7v-1a1 1 0 0 1 1-1h16a1 1 0 0 1 1 1v1h-7v2h7v2h-7v2h7v2h-7v2h7v2h-7v2h7v2h-7v2h7v1a1 1 0 0 1 -1 1zm3 2h10v2.667l-2.5 3.333h-5l-2.5-3.333zm3 8h4v18h-4z"/><path d="m31 30h2v2h-2z"/><path d="m46.142 12.99 4.975-.711-2.985 5.221 1.736.992 4-7a1 1 0 0 0 -1.01-1.486l-4.975.711 2.985-5.217-1.736-1-4 7a1 1 0 0 0 1.01 1.486z"/><path d="m14.132 28.5 1.736-.992-2.985-5.225 4.975.711a1 1 0 0 0 1.01-1.486l-4-7-1.736.992 2.985 5.225-4.975-.711a1 1 0 0 0 -1.01 1.486z"/></g></svg>