<svg height="512pt" viewBox="-86 0 512 512" width="512pt" xmlns="http://www.w3.org/2000/svg"><path d="m89.667969 10h240.332031v492h-240.332031zm0 0" fill="#d1d3d4"/><path d="m178 284h121v42h-121zm0 0" fill="#fff"/><path d="m178 166h121v41.832031h-121zm0 0" fill="#fff"/><path d="m178 48.167969h121v41.832031h-121zm0 0" fill="#fff"/><g fill="#4aa7ed"><path d="m228 284h71v42h-71zm0 0"/><path d="m228 166h71v41.832031h-71zm0 0"/><path d="m228 48.167969h71v41.832031h-71zm0 0"/><path d="m286.199219 433c0 17.671875-14.324219 32-32 32-17.671875 0-32-14.328125-32-32s14.328125-32 32-32c17.675781 0 32 14.328125 32 32zm0 0"/></g><path d="m330 0h-320c-5.523438 0-10 4.476562-10 10v492c0 5.523438 4.476562 10 10 10h320c5.523438 0 10-4.476562 10-10v-492c0-5.523438-4.476562-10-10-10zm-310 492v-118h113.035156c5.523438 0 10-4.476562 10-10s-4.476562-10-10-10h-113.035156v-98h113.035156c5.523438 0 10-4.476562 10-10s-4.476562-10-10-10h-113.035156v-98h113.035156c5.523438 0 10-4.476562 10-10s-4.476562-10-10-10h-113.035156v-98h300v98h-114.5c-5.523438 0-10 4.476562-10 10s4.476562 10 10 10h114.5v98h-114.5c-5.523438 0-10 4.476562-10 10s4.476562 10 10 10h114.5v98h-114.5c-5.523438 0-10 4.476562-10 10s4.476562 10 10 10h114.5v118zm0 0"/><path d="m236.996094 58h.085937c5.523438 0 9.957031-4.476562 9.957031-10s-4.519531-10-10.042968-10c-5.523438 0-10 4.476562-10 10s4.476562 10 10 10zm0 0"/><path d="m178 100h120c5.523438 0 10-4.476562 10-10v-42c0-5.523438-4.476562-10-10-10h-25.304688c-5.523437 0-10 4.476562-10 10s4.476563 10 10 10h15.304688v22h-100v-22h11.429688c5.523437 0 10-4.476562 10-10s-4.476563-10-10-10h-21.429688c-5.523438 0-10 4.476562-10 10v42c0 5.523438 4.476562 10 10 10zm0 0"/><path d="m55.964844 59c-5.523438 0-10 4.476562-10 10s4.476562 10 10 10h.070312c5.523438 0 9.964844-4.476562 9.964844-10s-4.511719-10-10.035156-10zm0 0"/><path d="m94.035156 59c-5.523437 0-10 4.476562-10 10s4.476563 10 10 10h.070313c5.523437 0 9.964843-4.476562 9.964843-10s-4.511718-10-10.035156-10zm0 0"/><path d="m131.964844 59c-5.523438 0-10 4.476562-10 10s4.476562 10 10 10h.070312c5.523438 0 9.964844-4.476562 9.964844-10s-4.511719-10-10.035156-10zm0 0"/><path d="m170.128906 138h.433594c5.523438 0 10-4.476562 10-10s-4.476562-10-10-10h-.433594c-5.523437 0-10 4.476562-10 10s4.476563 10 10 10zm0 0"/><path d="m236.996094 176h.085937c5.523438 0 9.957031-4.476562 9.957031-10s-4.519531-10-10.042968-10c-5.523438 0-10 4.476562-10 10s4.476562 10 10 10zm0 0"/><path d="m168 166v42c0 5.523438 4.476562 10 10 10h120c5.523438 0 10-4.476562 10-10v-42c0-5.523438-4.476562-10-10-10h-25.304688c-5.523437 0-10 4.476562-10 10s4.476563 10 10 10h15.304688v22h-100v-22h11.429688c5.523437 0 10-4.476562 10-10s-4.476563-10-10-10h-21.429688c-5.523438 0-10 4.476562-10 10zm0 0"/><path d="m55.964844 177c-5.523438 0-10 4.476562-10 10s4.476562 10 10 10h.070312c5.523438 0 9.964844-4.476562 9.964844-10s-4.511719-10-10.035156-10zm0 0"/><path d="m94.035156 177c-5.523437 0-10 4.476562-10 10s4.476563 10 10 10h.070313c5.523437 0 9.964843-4.476562 9.964843-10s-4.511718-10-10.035156-10zm0 0"/><path d="m131.964844 177c-5.523438 0-10 4.476562-10 10s4.476562 10 10 10h.070312c5.523438 0 9.964844-4.476562 9.964844-10s-4.511719-10-10.035156-10zm0 0"/><path d="m170.128906 256h.433594c5.523438 0 10-4.476562 10-10s-4.476562-10-10-10h-.433594c-5.523437 0-10 4.476562-10 10s4.476563 10 10 10zm0 0"/><path d="m236.996094 294h.085937c5.523438 0 9.957031-4.476562 9.957031-10s-4.519531-10-10.042968-10c-5.523438 0-10 4.476562-10 10s4.476562 10 10 10zm0 0"/><path d="m168 284v42c0 5.523438 4.476562 10 10 10h120c5.523438 0 10-4.476562 10-10v-42c0-5.523438-4.476562-10-10-10h-25.304688c-5.523437 0-10 4.476562-10 10s4.476563 10 10 10h15.304688v22h-100v-22h11.429688c5.523437 0 10-4.476562 10-10s-4.476563-10-10-10h-21.429688c-5.523438 0-10 4.476562-10 10zm0 0"/><path d="m55.964844 295c-5.523438 0-10 4.476562-10 10s4.476562 10 10 10h.070312c5.523438 0 9.964844-4.476562 9.964844-10s-4.511719-10-10.035156-10zm0 0"/><path d="m94.035156 295c-5.523437 0-10 4.476562-10 10s4.476563 10 10 10h.070313c5.523437 0 9.964843-4.476562 9.964843-10s-4.511718-10-10.035156-10zm0 0"/><path d="m131.964844 295c-5.523438 0-10 4.476562-10 10s4.476562 10 10 10h.070312c5.523438 0 9.964844-4.476562 9.964844-10s-4.511719-10-10.035156-10zm0 0"/><path d="m170.5625 354h-.433594c-5.523437 0-10 4.476562-10 10s4.476563 10 10 10h.433594c5.523438 0 10-4.476562 10-10s-4.476562-10-10-10zm0 0"/><path d="m224.917969 449.105469c-3.96875 3.839843-4.070313 10.171875-.230469 14.140625l.210938.210937c1.949218 1.972657 4.503906 2.953125 7.0625 2.953125 2.542968 0 5.089843-.96875 7.046874-2.90625 3.925782-3.882812 3.933594-10.246094.046876-14.171875-3.839844-3.96875-10.167969-4.066406-14.136719-.226562zm0 0"/><path d="m254.027344 391.222656c-20.675782 0-38.539063 15.410156-41.546875 35.839844-.804688 5.464844 2.96875 10.546875 8.433593 11.351562 5.460938.800782 10.546876-2.972656 11.351563-8.4375 1.574219-10.691406 10.929687-18.753906 21.761719-18.753906 12.132812 0 22 9.871094 22 22 0 10.785156-7.703125 19.910156-18.3125 21.691406-5.445313.914063-9.121094 6.074219-8.203125 11.519532.820312 4.886718 5.054687 8.34375 9.847656 8.34375.550781 0 1.109375-.042969 1.671875-.140625 20.277344-3.40625 34.996094-20.824219 35-41.414063-.003906-23.160156-18.84375-42-42.003906-42zm0 0"/></svg>