<?xml version="1.0" encoding="UTF-8" standalone="no"?>
<svg
   xmlns:dc="http://purl.org/dc/elements/1.1/"
   xmlns:cc="http://creativecommons.org/ns#"
   xmlns:rdf="http://www.w3.org/1999/02/22-rdf-syntax-ns#"
   xmlns:svg="http://www.w3.org/2000/svg"
   xmlns="http://www.w3.org/2000/svg"
   xmlns:sodipodi="http://sodipodi.sourceforge.net/DTD/sodipodi-0.dtd"
   xmlns:inkscape="http://www.inkscape.org/namespaces/inkscape"
   height="512pt"
   viewBox="-73 0 512 512.00067"
   width="512pt"
   version="1.1"
   id="svg32"
   sodipodi:docname="owner_2.svg"
   inkscape:version="0.92.4 5da689c313, 2019-01-14">
  <metadata
     id="metadata38">
    <rdf:RDF>
      <cc:Work
         rdf:about="">
        <dc:format>image/svg+xml</dc:format>
        <dc:type
           rdf:resource="http://purl.org/dc/dcmitype/StillImage" />
        <dc:title></dc:title>
      </cc:Work>
    </rdf:RDF>
  </metadata>
  <defs
     id="defs36" />
  <sodipodi:namedview
     pagecolor="#ffffff"
     bordercolor="#666666"
     borderopacity="1"
     objecttolerance="10"
     gridtolerance="10"
     guidetolerance="10"
     inkscape:pageopacity="0"
     inkscape:pageshadow="2"
     inkscape:window-width="2560"
     inkscape:window-height="1373"
     id="namedview34"
     showgrid="false"
     inkscape:zoom="0.9777961"
     inkscape:cx="-128.98021"
     inkscape:cy="386.06731"
     inkscape:window-x="0"
     inkscape:window-y="0"
     inkscape:window-maximized="1"
     inkscape:current-layer="svg32" />
  <path
     d="m 194.32811,309.14187 6.6901,-1.206 c 4.52354,-0.81668 8.72971,-3.52488 12.65237,-6.23308 8.84819,-6.10192 17.73448,-12.65661 26.40918,-19.49058 l 9.74106,-7.67182 -20.01529,84.91476 z m 0,0"
     id="path6"
     inkscape:connector-curvature="0"
     style="fill:#ffffff;stroke-width:1.08327997" />
  <path
     d="m 160.58139,348.63081 c -3.49527,-19.71061 -6.55891,-39.55665 -9.09363,-58.98375 l -1.26946,-9.70297 8.03574,5.58143 c 8.64931,6.00459 17.39171,11.80182 25.99025,17.2267 2.76744,1.73493 5.72954,3.52066 8.80165,4.54892 l 5.37409,1.79418 -3.14405,4.71819 c -8.42505,12.65238 -17.53137,25.0297 -27.06085,36.78921 l -5.97497,7.37138 z m 0,0"
     id="path8"
     inkscape:connector-curvature="0"
     style="fill:#ffffff;stroke-width:1.08327997" />
  <path
     d="m 278.07496,155.12146 c -0.0381,-0.11425 -0.0719,-0.22004 -0.1015,-0.3216 -0.16081,-0.50355 -0.30468,-0.93094 -0.42739,-1.23139 -1.15099,-2.84361 -2.36122,-5.72953 -3.57567,-8.62815 -3.77456,-9.0217 -7.6676,-18.33959 -10.33347,-27.73789 -4.70128,-16.58772 -7.33331,-39.590454 -0.85901,-55.035644 v -0.0338 l 0.11848,-0.27082 -0.13118,0.13541 c -9.08093,19.913709 -20.70503,36.031713 -33.64938,46.648694 -10.44773,8.5816 -22.05491,15.61445 -34.4957,20.89544 -10.68893,4.53624 -21.76716,7.67606 -32.93002,9.33061 l -10.48158,1.55721 6.38966,-8.45466 c 8.11613,-10.73971 13.48176,-23.38362 15.50867,-36.569144 -6.58008,5.924174 -13.93876,10.299604 -21.73331,14.937394 l -1.58683,0.94787 c -0.89709,0.54164 -1.79418,1.07904 -2.69128,1.62068 -8.81433,5.32331 -17.83179,11.40407 -24.12836,19.79102 -3.07635,4.08769 -5.26407,8.47582 -6.51237,13.04591 l -3.27946,12.03457 -4.88746,-11.48024 C 99.236433,125.03505 97.027557,101.27484 102.06312,79.397685 106.56127,59.84789 113.19213,46.141859 122.3323,37.50524 c 11.89069,-11.247494 27.0143,-19.727544 43.7332,-24.530368 11.24326,-3.2329137 23.39207,-4.8705287 36.10792,-4.8705287 9.86801,0 20.00683,0.9944175 30.14142,2.9620937 22.86737,4.426214 40.63993,12.982434 52.81837,25.418997 19.36786,19.786786 24.86042,47.461171 16.77814,84.614266 -2.12424,9.80875 -4.87053,20.04068 -10.51966,28.40225 -2.63626,3.91419 -4.72666,6.30079 -6.01729,7.61257 l -5.12019,5.20483 z m 0,0"
     id="path14"
     inkscape:connector-curvature="0"
     style="fill:#b56f2b;stroke-width:1.08327997;fill-opacity:1" />
  <path
     d="m 202.94356,264.44811 c -13.67217,0 -27.25972,-3.24984 -39.28582,-9.3983 -23.01124,-11.77644 -40.93191,-34.35605 -47.93937,-60.40979 -1.26947,0.2285 -2.5347,0.35969 -3.81264,0.35969 -4.30773,0 -8.7551,-1.48529 -12.516962,-4.17656 -4.942465,-3.51643 -8.17961,-8.67893 -8.873586,-14.15881 -0.693976,-5.48411 1.155216,-11.29404 5.073644,-15.93606 3.313313,-3.95652 7.743764,-6.60547 12.470414,-7.45178 l 3.09328,-0.55857 1.48951,2.77591 c 1.32024,2.45854 2.60664,4.66741 3.93111,6.74933 -2.88592,-9.04284 -0.44008,-20.33688 6.44045,-29.50245 6.29233,-8.3658 15.30555,-14.44655 24.11566,-19.76986 0.9775,-0.59242 4.28235,-2.56855 4.28235,-2.56855 l 0.31737,-0.18619 c 3.92265,-2.34005 7.98073,-4.7605 11.82298,-7.37138 l 10.41387,-7.070925 -3.85495,11.983765 c -3.90996,12.15305 -10.68469,23.32014 -19.59637,32.28682 15.0009,-0.84208 29.84099,-4.37544 44.13098,-10.44772 12.43655,-5.27677 24.04796,-12.30539 34.52108,-20.89546 7.91302,-6.5039 15.23362,-14.865458 21.76293,-24.847699 l 7.87494,-12.047243 0.0846,14.395751 c 0.055,9.82991 1.62916,20.264931 4.67588,31.013091 2.68704,9.47024 6.58008,18.75851 10.34617,27.7379 l 0.39777,0.95209 c 1.07904,2.58126 2.14963,5.15405 3.1779,7.70567 0.12695,0.31315 0.28351,0.77439 0.44854,1.31179 0.55857,1.71802 1.51914,4.68858 2.87324,4.9467 0.15657,0.0296 0.30044,0.0424 0.42739,0.0424 0.62204,0 3.05096,-0.53741 8.16691,-7.47294 l 1.7561,-2.3739 2.85631,0.76591 c 11.73412,3.15251 17.72601,12.91896 14.91202,24.30186 -2.47123,9.96956 -12.32231,17.48058 -22.91391,17.48058 -1.60376,0 -3.1906,-0.17772 -4.71819,-0.53318 -0.92671,25.84216 -17.46366,51.38388 -41.19003,63.60039 -11.14171,5.73801 -23.99296,8.7678 -37.16159,8.7678 z m 0,0"
     id="path26"
     inkscape:connector-curvature="0"
     style="fill:#ffdbbb;stroke-width:1.08327997;fill-opacity:1" />
  <path
     style="fill:#ffd740;fill-opacity:1;stroke:#000000;stroke-width:0.75000095px;stroke-linecap:butt;stroke-linejoin:miter;stroke-opacity:1"
     d="m 4.0167161,498.07182 35.7966529,-138.47814 93.830621,-59.6611 20.94128,-22.36662 43.19579,30.56033 51.26115,-33.21353 105.34783,81.96905 40.67802,141.73239 -20.06782,10.3051 -358.508938,-0.54237 z"
     id="path1036"
     inkscape:connector-curvature="0"
     sodipodi:nodetypes="ccccccccccc" />
  <path
     d="m 197.78106,308.12629 c -4.75628,-0.15656 -8.92436,-2.55163 -13.49022,-5.43332 -10.70585,-6.74934 -21.54289,-14.01493 -32.21065,-21.59367 l -2.65743,-1.88727 1.07906,-3.07635 c 2.29773,-6.55891 2.73358,-13.49868 2.85629,-19.42286 l 0.15234,-7.31214 6.33888,3.64337 c 1.29909,0.74898 2.57703,1.44719 3.79148,2.07346 11.99648,6.14 25.58827,9.38561 39.29853,9.38561 13.2067,0 26.06643,-3.0298 37.19966,-8.75934 0.23697,-0.11848 0.41893,-0.22427 0.60511,-0.33006 l 5.06518,-2.86476 1.29487,5.67029 c 0.85901,3.77032 2.12001,7.52371 3.74915,11.15017 l 1.50221,3.34716 -3.05519,2.03538 c -0.0846,0.055 -0.17349,0.11002 -0.25812,0.1608 -11.3956,9.39407 -23.28628,18.36922 -35.40548,26.73924 -4.9594,3.41487 -9.86377,6.47853 -15.3902,6.47853 -0.15657,0.004 -0.31314,0 -0.46547,-0.004 z m 0,0"
     id="path28"
     inkscape:connector-curvature="0"
     style="fill:#ffdbbb;stroke-width:1.08327997;fill-opacity:1" />
  <path
     d="m 395.34002,492.32029 -17.28593,-68.19418 c -2.90286,-19.41863 -6.19077,-41.43122 -17.47213,-59.77081 -12.51273,-20.33266 -32.87078,-33.40819 -52.556,-46.05633 -3.38525,-2.17502 -6.88475,-4.42198 -10.25308,-6.64778 -28.58843,-18.92355 -43.53432,-37.14889 -46.95342,-57.26574 19.279,-13.27441 32.23182,-34.63534 34.51687,-57.37576 0.22003,0.009 0.44008,0.009 0.65589,0.009 12.27153,0 24.2003,-8.69587 27.20471,-20.82353 3.17367,-12.8174 -3.11866,-24.28494 -15.42405,-28.79154 4.24426,-7.92572 6.58008,-16.81201 8.44197,-25.36822 8.41657,-38.714533 2.55163,-67.700709 -17.93336,-88.625786 C 275.45562,20.312403 256.90445,11.337259 233.14423,6.7375504 209.1682,2.0997568 185.55185,2.7895017 164.84258,8.7390803 147.44662,13.740787 131.69675,22.580521 119.30251,34.306181 c -9.79607,9.258658 -16.8374,23.684055 -21.538662,44.101323 -5.4164,23.535916 -2.79283,48.675616 7.113262,71.098666 -4.77321,1.38373 -9.216348,4.29081 -12.665072,8.38696 -4.701265,5.5899 -6.914372,12.63122 -6.06806,19.31708 0.846313,6.6901 4.73935,12.95705 10.688928,17.20131 4.739354,3.38525 10.303854,5.11595 15.673714,4.98054 6.43197,20.77698 19.53289,39.1885 36.48029,51.70547 0.004,8.5139 -0.0719,18.06877 -3.5799,25.9691 -4.12577,9.2925 -12.84279,16.1561 -21.27629,22.79119 -1.31179,1.03251 -2.60664,2.05654 -3.87612,3.07634 -8.67046,6.97785 -19.20283,12.1869 -29.392429,17.22247 -2.805527,1.38795 -5.708378,2.82245 -8.518135,4.26965 -17.11244,8.80587 -34.394141,19.26207 -44.871491,35.98943 -7.942642,12.682 -11.027451,27.83523 -13.502915,40.01365 -9.258659,45.51046 -17.1251338,44.37048 -23.37515142,90.39719 -0.47816683,3.5122 -1.36679497,10.04996 2.58125262,14.79778 4.2146363,5.0694 11.2644198,5.07364 15.0516688,5.07364 l 361.45584,0.0889 h 0.14811 c 3.23714,0 9.07247,-0.0635 12.83432,-4.16808 4.13424,-4.51508 3.18214,-10.87935 2.67435,-14.29846 z m -193.5559,-180.119 c 5.29791,-0.95633 9.96956,-3.90996 14.34922,-6.9313 9.0344,-6.23732 17.95452,-12.82587 26.62923,-19.65137 6.7292,-3.76073 10.89722,1.02959 17.05743,6.00881 l 19.86293,17.87846 c 4.55315,3.50796 9.07247,6.64779 13.27018,9.42369 3.4191,2.26388 6.94398,4.52778 10.35039,6.71972 18.86431,12.11497 38.37181,24.64462 49.83935,43.28042 10.3504,16.82046 13.49445,37.89365 16.27036,56.48289 l 17.28593,68.19841 c 0.41893,2.8013 0.68975,5.83533 -0.47817,7.10902 l 3e-5,-10e-5 c -1.1933,1.30755 -4.532,1.33294 -6.41504,1.33294 h -0.12272 l -61.87391,-0.0169 h -8.74664 l -106.48304,-0.0253 -8.73817,-1.1e-4 -119.228505,-0.0296 -8.865124,-0.004 -47.516216,-0.0127 c -3.499502,0 -6.9313,-0.23274 -8.331946,-1.92114 l -4.1e-6,-2.4e-4 c -1.37949,-1.65877 -1.0578912,-5.01863 -0.6474299,-8.03996 6.22886,-45.84052 14.061483,-44.51012 23.282058,-89.83016 2.335822,-11.48869 5.247137,-25.78291 12.347699,-37.12349 9.360216,-14.93742 25.45708,-24.61923 41.465081,-32.85386 2.746284,-1.41757 5.615284,-2.83514 8.391189,-4.20617 8.551988,-4.22733 17.324018,-8.5943 25.342818,-14.0911 l 18.95318,-13.93453 c 7.03802,-4.90932 7.82629,-10.15946 16.74429,-10.87935 9.12821,3.79277 17.3494,11.77643 26.15529,17.33248 3.16944,1.99729 6.33042,4.80833 9.73682,5.94238 3.37115,0.50704 6.74229,0.76669 10.11344,-0.15784 z M 106.28198,80.366714 c 4.29927,-18.682323 10.5239,-31.673221 19.02511,-39.71319 C 136.69,29.884198 151.20002,21.751134 167.2588,17.1345 c 19.38902,-5.568737 41.59626,-6.19924 64.23088,-1.819572 21.98297,4.256952 38.99386,12.398478 50.55026,24.208769 18.27188,18.656959 23.38784,45.040716 15.64408,80.653513 -2.04385,9.39407 -4.65472,19.15206 -9.8807,26.90004 -2.25965,3.34718 -4.16809,5.63645 -5.50949,7.00325 -0.0719,-0.22005 -0.13541,-0.41047 -0.18619,-0.5628 -0.20311,-0.63474 -0.38507,-1.17638 -0.53741,-1.55299 -1.16791,-2.88592 -2.38237,-5.78878 -3.60106,-8.70432 -3.72378,-8.90744 -7.57873,-18.11956 -10.16421,-27.23857 -4.57855,-16.17302 -7.16404,-38.566421 -0.70245,-52.932556 0.004,-0.0087 0.009,-0.01267 0.0127,-0.02535 0.99019,-2.196177 0.0127,-4.785893 -2.18772,-5.776078 -2.20041,-0.990186 -4.7859,-0.0127 -5.77608,2.187718 -0.004,0.0084 -0.009,0.0127 -0.0127,0.02116 -8.85666,19.634424 -20.18456,35.473148 -32.76923,45.802376 -10.14305,8.32347 -21.39478,15.14052 -33.43781,20.25225 -10.38848,4.40929 -21.06894,7.43486 -31.87635,9.03862 8.49697,-11.24327 14.19266,-24.58961 16.33806,-38.528358 0.27929,-1.828035 -0.62627,-3.639138 -2.25542,-4.515067 -1.63762,-0.871705 -3.64338,-0.617817 -5.01017,0.630501 -6.16538,5.636425 -13.35059,9.914534 -20.95893,14.442294 -1.44296,0.85901 -2.88593,1.71802 -4.32042,2.58548 -9.19096,5.56028 -18.61888,11.94147 -25.34706,20.89546 -3.42334,4.55316 -5.85649,9.49986 -7.22328,14.50157 -8.66624,-20.35805 -10.88358,-43.0096 -5.99613,-64.23508 z m 13.61718,113.151946 c -0.59666,-2.23427 -2.82669,-3.61376 -5.10751,-3.14406 -4.21886,0.88017 -8.9159,-0.23697 -12.8851,-3.07211 -3.964975,-2.83091 -6.554692,-6.91014 -7.0921,-11.18402 -0.54164,-4.27811 0.94787,-8.87359 4.087689,-12.60159 2.699741,-3.21176 6.237321,-5.31484 9.914551,-5.97497 1.28216,2.38237 2.6405,4.72665 4.09616,7.0244 0.82092,1.30332 2.23426,2.03537 3.69414,2.03537 0.62628,0 1.25678,-0.13541 1.85767,-0.41892 1.99306,-0.93518 2.97478,-3.21175 2.28927,-5.30637 -2.51778,-7.69722 -0.3216,-17.48059 5.72953,-25.52902 5.83533,-7.76916 14.45078,-13.56216 22.88853,-18.66966 1.41757,-0.85478 2.83937,-1.70531 4.26541,-2.55163 4.11308,-2.44585 8.29809,-4.93824 12.35193,-7.68874 -3.68992,11.44214 -10.06689,22.01681 -18.55117,30.5561 -1.2737,1.2864 -1.62492,3.22869 -0.88016,4.879 0.74475,1.6503 2.42891,2.67011 4.24425,2.56009 15.46636,-0.93095 30.78885,-4.57855 45.54008,-10.84126 12.8174,-5.43757 24.78003,-12.68623 35.57051,-21.53866 8.27694,-6.80011 15.84721,-15.436718 22.63887,-25.825189 0.0635,9.305191 1.45142,20.167599 4.84936,32.172539 2.72513,9.62681 6.68587,19.08435 10.5112,28.23299 1.20601,2.88168 2.40353,5.75068 3.56298,8.60699 0.0931,0.23273 0.19465,0.57126 0.3216,0.96057 0.92248,2.86476 2.32312,7.18942 6.2077,7.92148 2.71244,0.51202 6.35158,-0.25812 12.88934,-9.11056 9.43216,2.53472 14.07418,10.01188 11.82722,19.08435 -2.32312,9.38561 -13.02899,15.94877 -22.43998,13.76951 -1.27792,-0.29621 -2.61087,-0.004 -3.64337,0.7913 -1.03674,0.79131 -1.663,2.01 -1.70955,3.31331 -0.83362,24.28918 -16.43116,48.34561 -38.80344,59.85968 -21.90256,11.27289 -49.68277,11.02746 -72.49512,-0.64319 -21.94066,-11.2221 -39.03193,-32.77768 -45.73049,-57.66773 z m 41.74859,65.44534 c 12.85549,6.57585 27.14547,9.86801 41.29581,9.86801 13.66795,0 27.20472,-3.07635 39.17581,-9.23751 0.25813,-0.13117 0.50779,-0.27082 0.76168,-0.40623 0.95211,4.17232 2.31467,8.15846 4.01152,11.9584 -0.16503,0.1015 -0.33005,0.19889 -0.48662,0.32584 -11.31521,9.33059 -23.17204,18.28457 -35.23623,26.60806 -4.46853,3.0848 -8.86935,5.85225 -13.25325,5.70838 -3.66454,-0.11003 -7.29522,-2.22157 -11.31943,-4.76474 -10.8201,-6.82551 -21.57674,-14.04456 -32.01177,-21.45825 2.3866,-6.80013 2.96209,-13.96417 3.0975,-20.77275 1.30755,0.75745 2.6278,1.48528 3.96498,2.17079 z"
     id="path30"
     inkscape:connector-curvature="0"
     style="stroke:#000000;stroke-width:4.08911657;stroke-miterlimit:4;stroke-dasharray:none;stroke-opacity:1"
     sodipodi:nodetypes="cccccccscccccccccccccccccccccccccscccccccccccccccscccccccccccccccccccccccccccccccccccccccccccccccccccccccccsccccccccccccccccccccccccccscccccccccc" />
  <path
     style="opacity:0;fill:#ffdbbb;fill-opacity:1;fill-rule:nonzero;stroke:#000000;stroke-width:3.63968372;stroke-linecap:butt;stroke-linejoin:miter;stroke-miterlimit:4;stroke-dasharray:none;stroke-opacity:1;paint-order:normal"
     d="m 115.76761,729.16856 c -2.58345,-0.6099 -3.67385,-1.72533 -3.69206,-3.7768 -0.0158,-1.78348 6.03255,-43.85876 9.04407,-62.91472 6.7756,-42.87377 16.60203,-97.26145 23.16227,-128.19933 6.62247,-31.23136 12.43782,-44.61018 25.26822,-58.13219 10.96576,-11.55686 22.29335,-18.97313 53.2089,-34.83632 12.15883,-6.23886 25.08286,-13.15636 28.72006,-15.37222 9.61211,-5.85588 32.81584,-23.09112 39.78486,-29.55134 3.69819,-3.42818 7.27562,-6.05004 9.32082,-6.83111 l 3.31912,-1.26758 4.41928,2.31092 c 2.43062,1.271 7.51082,4.56412 11.28935,7.31804 11.98,8.73141 26.54285,18.70971 29.41093,20.15204 6.08875,3.06198 17.5064,2.41502 26.27827,-1.48901 5.30306,-2.36019 16.20162,-9.73378 33.97807,-22.98839 9.46825,-7.05979 15.49355,-11.07297 16.98912,-11.31567 4.26962,-0.69286 6.71133,1.0739 28.21367,20.41471 16.47974,14.82311 19.75724,17.2845 44.05141,33.08246 23.45698,15.25355 33.22799,22.19829 43.01997,30.57639 24.29993,20.79127 35.25107,42.20733 42.31646,82.75413 2.57766,14.79261 26.45397,175.27723 26.45397,177.81032 0,1.55484 -0.41594,2.20025 -1.62712,2.52484 -2.46481,0.66054 -490.11948,0.39425 -492.92964,-0.26917 z"
     id="path1017"
     inkscape:connector-curvature="0"
     transform="matrix(0.75000096,0,0,0.75000096,-73.000335,0)" />
</svg>
