<?xml version="1.0" encoding="UTF-8" standalone="no"?>
<!-- Generator: Adobe Illustrator 19.0.0, SVG Export Plug-In . SVG Version: 6.00 Build 0)  -->

<svg
   xmlns:dc="http://purl.org/dc/elements/1.1/"
   xmlns:cc="http://creativecommons.org/ns#"
   xmlns:rdf="http://www.w3.org/1999/02/22-rdf-syntax-ns#"
   xmlns:svg="http://www.w3.org/2000/svg"
   xmlns="http://www.w3.org/2000/svg"
   xmlns:sodipodi="http://sodipodi.sourceforge.net/DTD/sodipodi-0.dtd"
   xmlns:inkscape="http://www.inkscape.org/namespaces/inkscape"
   version="1.1"
   id="Capa_1"
   x="0px"
   y="0px"
   viewBox="0 0 59.599998 58.599998"
   xml:space="preserve"
   sodipodi:docname="server_contoured.svg"
   inkscape:version="0.92.4 5da689c313, 2019-01-14"
   width="59.599998"
   height="58.599998"><metadata
   id="metadata109"><rdf:RDF><cc:Work
       rdf:about=""><dc:format>image/svg+xml</dc:format><dc:type
         rdf:resource="http://purl.org/dc/dcmitype/StillImage" /><dc:title /></cc:Work></rdf:RDF></metadata><defs
   id="defs107" /><sodipodi:namedview
   pagecolor="#ffffff"
   bordercolor="#666666"
   borderopacity="1"
   objecttolerance="10"
   gridtolerance="10"
   guidetolerance="10"
   inkscape:pageopacity="0"
   inkscape:pageshadow="2"
   inkscape:window-width="1914"
   inkscape:window-height="2055"
   id="namedview105"
   showgrid="false"
   inkscape:zoom="11.508772"
   inkscape:cx="14.357142"
   inkscape:cy="25.205161"
   inkscape:window-x="1914"
   inkscape:window-y="0"
   inkscape:window-maximized="0"
   inkscape:current-layer="Capa_1"
   fit-margin-top="0"
   fit-margin-left="0"
   fit-margin-right="0"
   fit-margin-bottom="0" />
<path
   style="fill:#4398d1;stroke:#000000;stroke-width:2.5;stroke-miterlimit:4;stroke-dasharray:none;stroke-opacity:1;fill-opacity:1"
   d="M 55.192,19.8 H 4.408 C 2.416,19.8 0.80000001,18.184 0.80000001,16.192 V 4.408 C 0.80000001,2.416 2.416,0.80000001 4.408,0.80000001 H 55.191 C 57.184,0.80000001 58.8,2.416 58.8,4.408 v 11.783 c 0,1.993 -1.616,3.609 -3.608,3.609 z"
   id="path2"
   inkscape:connector-curvature="0" />
<path
   style="fill:#316f9e;stroke:#000000;stroke-width:2.5;stroke-miterlimit:4;stroke-dasharray:none;stroke-opacity:1;fill-opacity:1"
   d="M 55.192,38.8 H 4.408 C 2.416,38.8 0.80000001,37.184 0.80000001,35.192 V 23.408 C 0.80000001,21.416 2.416,19.8 4.408,19.8 h 50.783 c 1.993,0 3.608,1.616 3.608,3.608 V 35.191 C 58.8,37.184 57.184,38.8 55.192,38.8 Z"
   id="path4"
   inkscape:connector-curvature="0" />
<path
   style="fill:#4398d1;stroke:#000000;stroke-width:2.5;stroke-miterlimit:4;stroke-dasharray:none;stroke-opacity:1;fill-opacity:1"
   d="M 55.192,57.8 H 4.408 C 2.416,57.8 0.80000001,56.184 0.80000001,54.192 V 42.408 C 0.80000001,40.416 2.416,38.8 4.408,38.8 h 50.783 c 1.993,0 3.608,1.616 3.608,3.608 V 54.191 C 58.8,56.184 57.184,57.8 55.192,57.8 Z"
   id="path6"
   inkscape:connector-curvature="0" />
<circle
   style="fill:#000000;stroke:#000000;stroke-opacity:1;fill-opacity:1"
   cx="10.3"
   cy="10.3"
   r="3.5"
   id="circle8" />
<circle
   style="fill:#070707;fill-opacity:1"
   cx="49.799999"
   cy="8.8000002"
   r="1"
   id="circle10" />
<circle
   style="fill:#070707;fill-opacity:1"
   cx="45.799999"
   cy="8.8000002"
   r="1"
   id="circle12" />
<circle
   style="fill:#070707;fill-opacity:1"
   cx="51.799999"
   cy="11.8"
   r="1"
   id="circle14" />
<circle
   style="fill:#070707;fill-opacity:1"
   cx="47.799999"
   cy="11.8"
   r="1"
   id="circle16" />
<circle
   style="fill:#070707;fill-opacity:1"
   cx="41.799999"
   cy="8.8000002"
   r="1"
   id="circle18" />
<circle
   style="fill:#070707;fill-opacity:1"
   cx="43.799999"
   cy="11.8"
   r="1"
   id="circle20" />
<circle
   style="fill:#070707;fill-opacity:1"
   cx="37.799999"
   cy="8.8000002"
   r="1"
   id="circle22" />
<circle
   style="fill:#070707;fill-opacity:1"
   cx="39.799999"
   cy="11.8"
   r="1"
   id="circle24" />
<circle
   style="fill:#070707;fill-opacity:1"
   cx="33.799999"
   cy="8.8000002"
   r="1"
   id="circle26" />
<circle
   style="fill:#070707;fill-opacity:1"
   cx="35.799999"
   cy="11.8"
   r="1"
   id="circle28" />
<circle
   style="fill:#000000;stroke:#000000;stroke-opacity:1;fill-opacity:1"
   cx="10.3"
   cy="29.299999"
   r="3.5"
   id="circle30" />
<circle
   style="fill:#000000;fill-opacity:1"
   cx="49.799999"
   cy="27.799999"
   r="1"
   id="circle32" />
<circle
   style="fill:#000000;fill-opacity:1"
   cx="45.799999"
   cy="27.799999"
   r="1"
   id="circle34" />
<circle
   style="fill:#000000;fill-opacity:1"
   cx="51.799999"
   cy="30.799999"
   r="1"
   id="circle36" />
<circle
   style="fill:#000000;fill-opacity:1"
   cx="47.799999"
   cy="30.799999"
   r="1"
   id="circle38" />
<circle
   style="fill:#000000;fill-opacity:1"
   cx="41.799999"
   cy="27.799999"
   r="1"
   id="circle40" />
<circle
   style="fill:#000000;fill-opacity:1"
   cx="43.799999"
   cy="30.799999"
   r="1"
   id="circle42" />
<circle
   style="fill:#000000;fill-opacity:1"
   cx="37.799999"
   cy="27.799999"
   r="1"
   id="circle44" />
<circle
   style="fill:#000000;fill-opacity:1"
   cx="39.799999"
   cy="30.799999"
   r="1"
   id="circle46" />
<circle
   style="fill:#000000;fill-opacity:1"
   cx="33.799999"
   cy="27.799999"
   r="1"
   id="circle48" />
<circle
   style="fill:#000000;fill-opacity:1"
   cx="35.799999"
   cy="30.799999"
   r="1"
   id="circle50" />
<circle
   style="fill:#000102;stroke:#000000;stroke-opacity:1;fill-opacity:1"
   cx="10.3"
   cy="48.299999"
   r="3.5"
   id="circle52" />
<circle
   style="fill:#000000;fill-opacity:1"
   cx="49.799999"
   cy="46.799999"
   r="1"
   id="circle54" />
<circle
   style="fill:#000000;fill-opacity:1"
   cx="45.799999"
   cy="46.799999"
   r="1"
   id="circle56" />
<circle
   style="fill:#000000;fill-opacity:1"
   cx="51.799999"
   cy="49.799999"
   r="1"
   id="circle58" />
<circle
   style="fill:#000000;fill-opacity:1"
   cx="47.799999"
   cy="49.799999"
   r="1"
   id="circle60" />
<circle
   style="fill:#000000;fill-opacity:1"
   cx="41.799999"
   cy="46.799999"
   r="1"
   id="circle62" />
<circle
   style="fill:#000000;fill-opacity:1"
   cx="43.799999"
   cy="49.799999"
   r="1"
   id="circle64" />
<circle
   style="fill:#000000;fill-opacity:1"
   cx="37.799999"
   cy="46.799999"
   r="1"
   id="circle66" />
<circle
   style="fill:#000000;fill-opacity:1"
   cx="39.799999"
   cy="49.799999"
   r="1"
   id="circle68" />
<circle
   style="fill:#000000;fill-opacity:1"
   cx="33.799999"
   cy="46.799999"
   r="1"
   id="circle70" />
<circle
   style="fill:#000000;fill-opacity:1"
   cx="35.799999"
   cy="49.799999"
   r="1"
   id="circle72" />
<g
   id="g74"
   transform="translate(0.80000001,0.30000001)">
</g>
<g
   id="g76"
   transform="translate(0.80000001,0.30000001)">
</g>
<g
   id="g78"
   transform="translate(0.80000001,0.30000001)">
</g>
<g
   id="g80"
   transform="translate(0.80000001,0.30000001)">
</g>
<g
   id="g82"
   transform="translate(0.80000001,0.30000001)">
</g>
<g
   id="g84"
   transform="translate(0.80000001,0.30000001)">
</g>
<g
   id="g86"
   transform="translate(0.80000001,0.30000001)">
</g>
<g
   id="g88"
   transform="translate(0.80000001,0.30000001)">
</g>
<g
   id="g90"
   transform="translate(0.80000001,0.30000001)">
</g>
<g
   id="g92"
   transform="translate(0.80000001,0.30000001)">
</g>
<g
   id="g94"
   transform="translate(0.80000001,0.30000001)">
</g>
<g
   id="g96"
   transform="translate(0.80000001,0.30000001)">
</g>
<g
   id="g98"
   transform="translate(0.80000001,0.30000001)">
</g>
<g
   id="g100"
   transform="translate(0.80000001,0.30000001)">
</g>
<g
   id="g102"
   transform="translate(0.80000001,0.30000001)">
</g>
</svg>