<?xml version="1.0" encoding="UTF-8" standalone="no"?>
<svg
   xmlns:dc="http://purl.org/dc/elements/1.1/"
   xmlns:cc="http://creativecommons.org/ns#"
   xmlns:rdf="http://www.w3.org/1999/02/22-rdf-syntax-ns#"
   xmlns:svg="http://www.w3.org/2000/svg"
   xmlns="http://www.w3.org/2000/svg"
   xmlns:sodipodi="http://sodipodi.sourceforge.net/DTD/sodipodi-0.dtd"
   xmlns:inkscape="http://www.inkscape.org/namespaces/inkscape"
   xml:space="preserve"
   style="enable-background:new 0 0 591.146 591.146;"
   viewBox="0 0 591.146 591.146"
   y="0px"
   x="0px"
   id="Capa_1"
   version="1.1"
   sodipodi:docname="sgx_yellow.svg"
   inkscape:version="0.92.4 5da689c313, 2019-01-14"><sodipodi:namedview
   pagecolor="#ffffff"
   bordercolor="#666666"
   borderopacity="1"
   objecttolerance="10"
   gridtolerance="10"
   guidetolerance="10"
   inkscape:pageopacity="0"
   inkscape:pageshadow="2"
   inkscape:window-width="3840"
   inkscape:window-height="2051"
   id="namedview188"
   showgrid="false"
   inkscape:zoom="1.5968982"
   inkscape:cx="375.02555"
   inkscape:cy="329.90881"
   inkscape:window-x="0"
   inkscape:window-y="0"
   inkscape:window-maximized="1"
   inkscape:current-layer="Capa_1" /><metadata
   id="metadata248"><rdf:RDF><cc:Work
       rdf:about=""><dc:format>image/svg+xml</dc:format><dc:type
         rdf:resource="http://purl.org/dc/dcmitype/StillImage" /><dc:title></dc:title></cc:Work></rdf:RDF></metadata><defs
   id="defs246">
	

			
			
			
			
			
			
			
			
			
			
			
			
			
			
			
			
			
			
			
			
			
			
			
			
			
			
			
			
			
			
			
			
			
			
			
			
			
			
			
			
			
			
			
			
			
			
			
			
			
			
			
			
			
			
			
			
			
			
			
			
			
			
			
			
			
			
			
			
			
			
			
			
			
			
			
			
			
			
			
			
			
			
			
			
			
			
			
			
			
			
			
			
			
			
			
			
			
			
			
			
			
			
			
		
		
	</defs>
<rect
   x="512.32599"
   y="285.72"
   style="fill:#fdb62f"
   width="78.819"
   height="19.705"
   id="rect2" /><rect
   x="512.32599"
   y="236.45799"
   style="fill:#fdb62f"
   width="78.819"
   height="19.705"
   id="rect4" /><rect
   x="512.32599"
   y="187.196"
   style="fill:#fdb62f"
   width="78.819"
   height="19.705"
   id="rect6" /><rect
   x="512.32599"
   y="137.93401"
   style="fill:#fdb62f"
   width="78.819"
   height="19.705"
   id="rect8" /><rect
   x="512.32599"
   y="88.671997"
   style="fill:#fdb62f"
   width="78.819"
   height="19.705"
   id="rect10" /><rect
   x="512.32599"
   y="482.76901"
   style="fill:#fdb62f"
   width="78.819"
   height="19.705"
   id="rect12" /><rect
   x="512.32599"
   y="433.50699"
   style="fill:#fdb62f"
   width="78.819"
   height="19.705"
   id="rect14" /><rect
   x="512.32599"
   y="384.245"
   style="fill:#fdb62f"
   width="78.819"
   height="19.705"
   id="rect16" /><rect
   x="512.32599"
   y="334.983"
   style="fill:#fdb62f"
   width="78.819"
   height="19.705"
   id="rect18" /><rect
   x="512.32599"
   y="285.72"
   style="fill:#fdb62f"
   width="78.819"
   height="19.705"
   id="rect20" /><rect
   x="512.32599"
   y="236.45799"
   style="fill:#fdb62f"
   width="78.819"
   height="19.705"
   id="rect22" /><rect
   x="512.32599"
   y="187.196"
   style="fill:#fdb62f"
   width="78.819"
   height="19.705"
   id="rect24" /><rect
   x="512.32599"
   y="137.93401"
   style="fill:#fdb62f"
   width="78.819"
   height="19.705"
   id="rect26" /><rect
   x="512.32599"
   y="88.671997"
   style="fill:#fdb62f"
   width="78.819"
   height="19.705"
   id="rect28" /><rect
   x="512.32599"
   y="482.76901"
   style="fill:#fdb62f"
   width="78.819"
   height="19.705"
   id="rect30" /><rect
   x="512.32599"
   y="433.50699"
   style="fill:#fdb62f"
   width="78.819"
   height="19.705"
   id="rect32" /><rect
   x="512.32599"
   y="384.245"
   style="fill:#fdb62f"
   width="78.819"
   height="19.705"
   id="rect34" /><rect
   x="512.32599"
   y="334.983"
   style="fill:#fdb62f"
   width="78.819"
   height="19.705"
   id="rect36" /><rect
   x="285.72"
   style="fill:#fdb62f"
   width="19.705"
   height="78.819"
   id="rect38"
   y="0" /><rect
   x="236.45799"
   style="fill:#fdb62f"
   width="19.705"
   height="78.819"
   id="rect40"
   y="0" /><rect
   x="187.196"
   style="fill:#fdb62f"
   width="19.705"
   height="78.819"
   id="rect42"
   y="0" /><rect
   x="137.93401"
   style="fill:#fdb62f"
   width="19.705"
   height="78.819"
   id="rect44"
   y="0" /><rect
   x="88.671997"
   style="fill:#fdb62f"
   width="19.705"
   height="78.819"
   id="rect46"
   y="0" /><rect
   x="482.76901"
   style="fill:#fdb62f"
   width="19.705"
   height="78.819"
   id="rect48"
   y="0" /><rect
   x="433.50699"
   style="fill:#fdb62f"
   width="19.705"
   height="78.819"
   id="rect50"
   y="0" /><rect
   x="384.245"
   style="fill:#fdb62f"
   width="19.705"
   height="78.819"
   id="rect52"
   y="0" /><rect
   x="334.983"
   style="fill:#fdb62f"
   width="19.705"
   height="78.819"
   id="rect54"
   y="0" /><rect
   x="285.72"
   y="512.32599"
   style="fill:#fdb62f"
   width="19.705"
   height="78.819"
   id="rect56" /><rect
   x="236.45799"
   y="512.32599"
   style="fill:#fdb62f"
   width="19.705"
   height="78.819"
   id="rect58" /><rect
   x="187.196"
   y="512.32599"
   style="fill:#fdb62f"
   width="19.705"
   height="78.819"
   id="rect60" /><rect
   x="137.93401"
   y="512.32599"
   style="fill:#fdb62f"
   width="19.705"
   height="78.819"
   id="rect62" /><rect
   x="88.671997"
   y="512.32599"
   style="fill:#fdb62f"
   width="19.705"
   height="78.819"
   id="rect64" /><rect
   x="482.76901"
   y="512.32599"
   style="fill:#fdb62f"
   width="19.705"
   height="78.819"
   id="rect66" /><rect
   x="433.50699"
   y="512.32599"
   style="fill:#fdb62f"
   width="19.705"
   height="78.819"
   id="rect68" /><rect
   x="384.245"
   y="512.32599"
   style="fill:#fdb62f"
   width="19.705"
   height="78.819"
   id="rect70" /><rect
   x="334.983"
   y="512.32599"
   style="fill:#fdb62f"
   width="19.705"
   height="78.819"
   id="rect72" /><rect
   x="0"
   y="285.72"
   style="fill:#fdb62f"
   width="78.819"
   height="19.705"
   id="rect74" /><rect
   x="0"
   y="236.45799"
   style="fill:#fdb62f"
   width="78.819"
   height="19.705"
   id="rect76" /><rect
   x="0"
   y="187.196"
   style="fill:#fdb62f"
   width="78.819"
   height="19.705"
   id="rect78" /><rect
   x="0"
   y="137.93401"
   style="fill:#fdb62f"
   width="78.819"
   height="19.705"
   id="rect80" /><rect
   x="0"
   y="88.671997"
   style="fill:#fdb62f"
   width="78.819"
   height="19.705"
   id="rect82" /><rect
   x="0"
   y="482.76901"
   style="fill:#fdb62f"
   width="78.819"
   height="19.705"
   id="rect84" /><rect
   x="0"
   y="433.50699"
   style="fill:#fdb62f"
   width="78.819"
   height="19.705"
   id="rect86" /><rect
   x="0"
   y="384.245"
   style="fill:#fdb62f"
   width="78.819"
   height="19.705"
   id="rect88" /><rect
   x="0"
   y="334.983"
   style="fill:#fdb62f"
   width="78.819"
   height="19.705"
   id="rect90" /><rect
   x="285.72"
   style="fill:#fdb62f"
   width="19.705"
   height="78.819"
   id="rect92"
   y="0" /><rect
   x="236.45799"
   style="fill:#fdb62f"
   width="19.705"
   height="78.819"
   id="rect94"
   y="0" /><rect
   x="187.196"
   style="fill:#fdb62f"
   width="19.705"
   height="78.819"
   id="rect96"
   y="0" /><rect
   x="137.93401"
   style="fill:#fdb62f"
   width="19.705"
   height="78.819"
   id="rect98"
   y="0" /><rect
   x="88.671997"
   style="fill:#fdb62f"
   width="19.705"
   height="78.819"
   id="rect100"
   y="0" /><rect
   x="482.76901"
   style="fill:#fdb62f"
   width="19.705"
   height="78.819"
   id="rect102"
   y="0" /><rect
   x="433.50699"
   style="fill:#fdb62f"
   width="19.705"
   height="78.819"
   id="rect104"
   y="0" /><rect
   x="384.245"
   style="fill:#fdb62f"
   width="19.705"
   height="78.819"
   id="rect106"
   y="0" /><rect
   x="334.983"
   style="fill:#fdb62f"
   width="19.705"
   height="78.819"
   id="rect108"
   y="0" /><rect
   x="512.32599"
   y="285.72"
   style="fill:#ffa230"
   width="39.41"
   height="19.705"
   id="rect110" /><rect
   x="512.32599"
   y="236.45799"
   style="fill:#ffa230"
   width="39.41"
   height="19.705"
   id="rect112" /><rect
   x="512.32599"
   y="187.196"
   style="fill:#ffa230"
   width="39.41"
   height="19.705"
   id="rect114" /><rect
   x="512.32599"
   y="137.93401"
   style="fill:#ffa230"
   width="39.41"
   height="19.705"
   id="rect116" /><rect
   x="512.32599"
   y="88.671997"
   style="fill:#ffa230"
   width="39.41"
   height="19.705"
   id="rect118" /><rect
   x="512.32599"
   y="482.76901"
   style="fill:#ffa230"
   width="39.41"
   height="19.705"
   id="rect120" /><rect
   x="512.32599"
   y="433.50699"
   style="fill:#ffa230"
   width="39.41"
   height="19.705"
   id="rect122" /><rect
   x="512.32599"
   y="384.245"
   style="fill:#ffa230"
   width="39.41"
   height="19.705"
   id="rect124" /><rect
   x="512.32599"
   y="334.983"
   style="fill:#ffa230"
   width="39.41"
   height="19.705"
   id="rect126" /><rect
   x="285.72"
   y="512.32599"
   style="fill:#fdb62f"
   width="19.705"
   height="78.819"
   id="rect128" /><rect
   x="236.45799"
   y="512.32599"
   style="fill:#fdb62f"
   width="19.705"
   height="78.819"
   id="rect130" /><rect
   x="187.196"
   y="512.32599"
   style="fill:#fdb62f"
   width="19.705"
   height="78.819"
   id="rect132" /><rect
   x="137.93401"
   y="512.32599"
   style="fill:#fdb62f"
   width="19.705"
   height="78.819"
   id="rect134" /><rect
   x="88.671997"
   y="512.32599"
   style="fill:#fdb62f"
   width="19.705"
   height="78.819"
   id="rect136" /><rect
   x="482.76901"
   y="512.32599"
   style="fill:#fdb62f"
   width="19.705"
   height="78.819"
   id="rect138" /><rect
   x="433.50699"
   y="512.32599"
   style="fill:#fdb62f"
   width="19.705"
   height="78.819"
   id="rect140" /><rect
   x="384.245"
   y="512.32599"
   style="fill:#fdb62f"
   width="19.705"
   height="78.819"
   id="rect142" /><rect
   x="334.983"
   y="512.32599"
   style="fill:#fdb62f"
   width="19.705"
   height="78.819"
   id="rect144" /><rect
   x="285.72"
   y="512.32599"
   style="fill:#ffa230"
   width="19.705"
   height="39.41"
   id="rect146" /><rect
   x="334.983"
   y="512.32599"
   style="fill:#ffa230"
   width="19.705"
   height="39.41"
   id="rect148" /><rect
   x="384.245"
   y="512.32599"
   style="fill:#ffa230"
   width="19.705"
   height="39.41"
   id="rect150" /><rect
   x="433.50699"
   y="512.32599"
   style="fill:#ffa230"
   width="19.705"
   height="39.41"
   id="rect152" /><rect
   x="482.76901"
   y="512.32599"
   style="fill:#ffa230"
   width="19.705"
   height="39.41"
   id="rect154" /><rect
   x="88.671997"
   y="512.32599"
   style="fill:#ffa230"
   width="19.705"
   height="39.41"
   id="rect156" /><rect
   x="137.93401"
   y="512.32599"
   style="fill:#ffa230"
   width="19.705"
   height="39.41"
   id="rect158" /><rect
   x="187.196"
   y="512.32599"
   style="fill:#ffa230"
   width="19.705"
   height="39.41"
   id="rect160" /><rect
   x="236.45799"
   y="512.32599"
   style="fill:#ffa230"
   width="19.705"
   height="39.41"
   id="rect162" /><rect
   x="0"
   y="285.72"
   style="fill:#fdb62f"
   width="78.819"
   height="19.705"
   id="rect164" /><rect
   x="0"
   y="236.45799"
   style="fill:#fdb62f"
   width="78.819"
   height="19.705"
   id="rect166" /><rect
   x="0"
   y="187.196"
   style="fill:#fdb62f"
   width="78.819"
   height="19.705"
   id="rect168" /><rect
   x="0"
   y="137.93401"
   style="fill:#fdb62f"
   width="78.819"
   height="19.705"
   id="rect170" /><rect
   x="0"
   y="88.671997"
   style="fill:#fdb62f"
   width="78.819"
   height="19.705"
   id="rect172" /><rect
   x="0"
   y="482.76901"
   style="fill:#fdb62f"
   width="78.819"
   height="19.705"
   id="rect174" /><rect
   x="0"
   y="433.50699"
   style="fill:#fdb62f"
   width="78.819"
   height="19.705"
   id="rect176" /><rect
   x="0"
   y="384.245"
   style="fill:#fdb62f"
   width="78.819"
   height="19.705"
   id="rect178" /><rect
   x="0"
   y="334.983"
   style="fill:#fdb62f"
   width="78.819"
   height="19.705"
   id="rect180" /><path
   inkscape:connector-curvature="0"
   style="fill:#ffe163;fill-opacity:1"
   d="m 118.229,59.115 h 354.688 c 32.651,0 59.115,26.464 59.115,59.115 v 354.688 c 0,32.651 -26.464,59.115 -59.115,59.115 H 118.229 c -32.651,0 -59.115,-26.464 -59.115,-59.115 V 118.229 C 59.115,85.578 85.578,59.115 118.229,59.115 Z"
   id="path182" /><path
   inkscape:connector-curvature="0"
   style="fill:#ffd636;fill-opacity:1"
   d="m 109.145,531.263 c 3.005,0.493 6.04,0.749 9.084,0.768 h 354.688 c 32.651,0 59.115,-26.464 59.115,-59.115 V 118.229 c -0.02,-3.044 -0.276,-6.079 -0.768,-9.084 z"
   id="path184" /><path
   inkscape:connector-curvature="0"
   style="fill:#387eb3"
   d="M 463.064,492.622 H 128.082 c -16.325,0 -29.557,-13.232 -29.557,-29.557 V 128.082 c 0,-16.325 13.232,-29.557 29.557,-29.557 h 334.983 c 16.325,0 29.557,13.232 29.557,29.557 v 334.983 c 0,16.325 -13.232,29.557 -29.558,29.557 z M 128.082,118.229 c -5.439,0 -9.852,4.414 -9.852,9.852 v 334.983 c 0,5.439 4.414,9.852 9.852,9.852 h 334.983 c 5.439,0 9.852,-4.414 9.852,-9.852 V 128.082 c 0,-5.439 -4.414,-9.852 -9.852,-9.852 H 128.082 Z"
   id="path186" /><rect
   x="433.50699"
   y="137.93401"
   style="fill:#5eb3d1"
   width="19.705"
   height="19.705"
   id="rect188" /><rect
   x="137.93401"
   y="433.50699"
   style="fill:#5eb3d1"
   width="19.705"
   height="19.705"
   id="rect190" /><path
   inkscape:connector-curvature="0"
   style="fill:#5eb3d1"
   d="m 157.639,187.196 h -19.705 v -29.557 c 0,-10.887 8.818,-19.705 19.705,-19.705 h 29.557 v 19.705 h -29.557 z"
   id="path192" /><path
   inkscape:connector-curvature="0"
   style="fill:#5eb3d1"
   d="M 433.507,453.212 H 403.95 v -19.705 h 29.557 V 403.95 h 19.705 v 29.557 c 0,10.887 -8.818,19.705 -19.705,19.705 z"
   id="path194" /><path
   inkscape:connector-curvature="0"
   d="M 502.474,56.011 V 0 h -19.705 v 50.05 c -3.261,-0.493 -6.552,-0.759 -9.852,-0.788 H 453.212 V 0 H 433.507 V 49.262 H 403.95 V 0 H 384.245 V 49.262 H 354.688 V 0 H 334.983 V 49.262 H 305.426 V 0 H 285.72 V 49.262 H 256.163 V 0 H 236.458 V 49.262 H 206.901 V 0 H 187.196 V 49.262 H 157.639 V 0 h -19.705 v 49.262 h -19.705 c -3.301,0.03 -6.591,0.296 -9.852,0.788 V 0 H 88.672 V 56.011 C 74.366,62.839 62.839,74.366 56.011,88.672 H 0 v 19.705 h 50.05 c -0.493,3.261 -0.759,6.552 -0.788,9.852 v 19.705 H 0 v 19.705 h 49.262 v 29.557 H 0 v 19.705 h 49.262 v 29.557 H 0 v 19.705 H 49.262 V 285.72 H 0 v 19.705 h 49.262 v 29.557 H 0 v 19.705 h 49.262 v 29.557 H 0 v 19.705 h 49.262 v 29.557 H 0 v 19.705 h 49.262 v 19.705 c 0.03,3.301 0.296,6.591 0.788,9.852 H 0 v 19.705 h 56.011 c 6.828,14.306 18.355,25.833 32.661,32.661 v 56.011 h 19.705 v -50.05 c 3.261,0.493 6.552,0.759 9.852,0.788 h 19.705 v 49.262 h 19.705 v -49.262 h 29.557 v 49.262 h 19.705 v -49.262 h 29.557 v 49.262 h 19.705 v -49.262 h 29.557 v 49.262 h 19.705 v -49.262 h 29.557 v 49.262 h 19.705 v -49.262 h 29.557 v 49.262 h 19.705 v -49.262 h 29.557 v 49.262 h 19.705 v -49.262 h 19.705 c 3.301,-0.03 6.591,-0.296 9.852,-0.788 v 50.05 h 19.705 v -56.011 c 14.306,-6.828 25.833,-18.355 32.661,-32.661 h 56.011 v -19.705 h -50.05 c 0.493,-3.261 0.759,-6.552 0.788,-9.852 v -19.705 h 49.262 V 433.506 H 541.883 V 403.95 h 49.262 v -19.705 h -49.262 v -29.557 h 49.262 v -19.705 h -49.262 v -29.557 h 49.262 V 285.72 h -49.262 v -29.557 h 49.262 v -19.705 h -49.262 v -29.557 h 49.262 v -19.705 h -49.262 v -29.557 h 49.262 v -19.705 h -49.262 v -19.705 c -0.03,-3.301 -0.296,-6.591 -0.788,-9.852 h 50.05 V 88.672 H 535.134 C 528.307,74.366 516.78,62.839 502.474,56.011 Z m 19.705,416.906 c -0.03,27.193 -22.069,49.233 -49.262,49.262 H 118.229 C 91.036,522.149 68.996,500.11 68.967,472.917 V 118.229 c 0.03,-27.193 22.069,-49.233 49.262,-49.262 h 354.688 c 27.193,0.03 49.233,22.069 49.262,49.262 z"
   id="path196" /><path
   inkscape:connector-curvature="0"
   d="M 463.064,98.524 H 128.082 c -16.325,0 -29.557,13.232 -29.557,29.557 v 334.983 c 0,16.325 13.232,29.557 29.557,29.557 h 334.983 c 16.325,0 29.557,-13.232 29.557,-29.557 V 128.082 c 0,-16.326 -13.232,-29.558 -29.558,-29.558 z m 9.853,364.54 c 0,5.439 -4.414,9.852 -9.852,9.852 H 128.082 c -5.439,0 -9.852,-4.414 -9.852,-9.852 V 128.082 c 0,-5.439 4.414,-9.852 9.852,-9.852 h 334.983 c 5.439,0 9.852,4.414 9.852,9.852 z"
   id="path198" /><rect
   x="433.50699"
   y="137.93401"
   width="19.705"
   height="19.705"
   id="rect200" /><rect
   x="137.93401"
   y="433.50699"
   width="19.705"
   height="19.705"
   id="rect202" /><path
   inkscape:connector-curvature="0"
   d="m 137.934,157.639 v 29.557 h 19.705 v -29.557 h 29.557 v -19.705 h -29.557 c -10.887,0 -19.705,8.818 -19.705,19.705 z"
   id="path204" /><polygon
   points="433.507,433.507 403.95,433.507 403.95,453.212 453.212,453.212 453.212,403.95 433.507,403.95 "
   id="polygon206" />
<g
   id="g213">
</g>
<g
   id="g215">
</g>
<g
   id="g217">
</g>
<g
   id="g219">
</g>
<g
   id="g221">
</g>
<g
   id="g223">
</g>
<g
   id="g225">
</g>
<g
   id="g227">
</g>
<g
   id="g229">
</g>
<g
   id="g231">
</g>
<g
   id="g233">
</g>
<g
   id="g235">
</g>
<g
   id="g237">
</g>
<g
   id="g239">
</g>
<g
   id="g241">
</g>
<g
   transform="matrix(0.61926192,0,0,0.61926192,179.42127,181.87038)"
   id="g1118"><g
     id="g1060">
	<g
   id="_x32_37._Locked">
		<g
   id="g1057">
			<path
   d="M 274.765,141.3 V 94.205 C 274.765,42.172 232.583,0 180.559,0 128.527,0 86.354,42.172 86.354,94.205 V 141.3 c -17.34,0 -31.4,14.06 -31.4,31.4 v 157.016 c 0,17.344 14.06,31.402 31.4,31.402 h 188.411 c 17.341,0 31.398,-14.059 31.398,-31.402 V 172.7 c 10e-4,-17.34 -14.057,-31.4 -31.398,-31.4 z M 117.756,94.205 c 0,-34.69 28.12,-62.803 62.803,-62.803 34.685,0 62.805,28.112 62.805,62.803 V 141.3 H 117.756 Z m 157.009,235.51 H 86.354 V 172.708 H 274.765 Z M 164.858,262.558 v 20.054 c 0,8.664 7.035,15.701 15.701,15.701 8.664,0 15.701,-7.037 15.701,-15.701 v -20.054 c 9.337,-5.441 15.701,-15.456 15.701,-27.046 0,-17.348 -14.062,-31.41 -31.402,-31.41 -17.34,0 -31.4,14.062 -31.4,31.41 0,11.59 6.358,21.605 15.699,27.046 z"
   id="path1055" />
		</g>
	</g>
</g><g
     id="g1062">
</g><g
     id="g1064">
</g><g
     id="g1066">
</g><g
     id="g1068">
</g><g
     id="g1070">
</g><g
     id="g1072">
</g><g
     id="g1074">
</g><g
     id="g1076">
</g><g
     id="g1078">
</g><g
     id="g1080">
</g><g
     id="g1082">
</g><g
     id="g1084">
</g><g
     id="g1086">
</g><g
     id="g1088">
</g><g
     id="g1090">
</g></g></svg>