<?xml version="1.0" encoding="UTF-8" standalone="no"?>
<!-- Generator: Adobe Illustrator 19.0.0, SVG Export Plug-In . SVG Version: 6.00 Build 0)  -->

<svg
   xmlns:dc="http://purl.org/dc/elements/1.1/"
   xmlns:cc="http://creativecommons.org/ns#"
   xmlns:rdf="http://www.w3.org/1999/02/22-rdf-syntax-ns#"
   xmlns:svg="http://www.w3.org/2000/svg"
   xmlns="http://www.w3.org/2000/svg"
   xmlns:sodipodi="http://sodipodi.sourceforge.net/DTD/sodipodi-0.dtd"
   xmlns:inkscape="http://www.inkscape.org/namespaces/inkscape"
   version="1.1"
   id="Capa_1"
   x="0px"
   y="0px"
   viewBox="0 0 512 512"
   style="enable-background:new 0 0 512 512;"
   xml:space="preserve"
   sodipodi:docname="owner.svg"
   inkscape:version="0.92.4 5da689c313, 2019-01-14"><metadata
   id="metadata87"><rdf:RDF><cc:Work
       rdf:about=""><dc:format>image/svg+xml</dc:format><dc:type
         rdf:resource="http://purl.org/dc/dcmitype/StillImage" /><dc:title></dc:title></cc:Work></rdf:RDF></metadata><defs
   id="defs85">
	
	
</defs><sodipodi:namedview
   pagecolor="#ffffff"
   bordercolor="#666666"
   borderopacity="1"
   objecttolerance="10"
   gridtolerance="10"
   guidetolerance="10"
   inkscape:pageopacity="0"
   inkscape:pageshadow="2"
   inkscape:window-width="2560"
   inkscape:window-height="1373"
   id="namedview83"
   showgrid="false"
   inkscape:zoom="1.3037281"
   inkscape:cx="396.83014"
   inkscape:cy="213.91207"
   inkscape:window-x="0"
   inkscape:window-y="0"
   inkscape:window-maximized="1"
   inkscape:current-layer="Capa_1" />
<path
   style="fill:#A15D30;"
   d="M353.974,61.961l-2.517-1.215c-10.405-31.084-39.511-52.05-72.287-52.068H134.508l17.356,52.068  c-20.176,10.084-30.451,32.985-24.559,54.758l15.881,49.378h17.356v-43.39c0,0,52.068,0,78.102-8.678l78.102-26.034l34.712,60.746  v17.356h17.356l10.24-51.287C383.254,92.698,372.996,71.576,353.974,61.961z"
   id="path2" />

<path
   style="fill:#FECB66;"
   d="M393.025,367.165l-60.312-8.071l-4.165,9.633c-17.226,40.066-63.67,58.585-103.736,41.359  c-18.571-7.984-33.367-22.788-41.359-41.359l-4.165-9.633l-60.312,8.071c-25.852,3.436-45.177,25.47-45.212,51.547V512h364.475  v-93.288C438.203,392.635,418.877,370.601,393.025,367.165z"
   id="path6" />
<path
   style="fill:#FEDAC6;"
   d="M256,416.542c31.57,0.017,60.112-18.796,72.548-47.816l4.165-9.633l-9.546-1.302  c-8.695-1.137-15.178-8.582-15.1-17.356v-36.708H203.932v37.228c0.078,8.773-6.404,16.219-15.1,17.356l-9.546,1.302l4.165,9.633  C196.044,398.067,224.551,416.647,256,416.542z"
   id="path8" />


<path
   style="fill:#FEDAC6;"
   d="M351.458,156.203h-8.678v52.068h8.678c14.379,0,26.034-11.655,26.034-26.034  C377.492,167.858,365.837,156.203,351.458,156.203z"
   id="path14" />
<path
   style="fill:#F5C4B0;"
   d="M134.508,182.237c0,14.379,11.655,26.034,26.034,26.034h8.678v-52.068h-8.678  C146.163,156.203,134.508,167.858,134.508,182.237z"
   id="path16" />
<path
   style="fill:#FEDAC6;"
   d="M351.458,241.161c0.113,12.757-4.452,25.105-12.843,34.712l-37.489,42.435  c-6.578,7.489-16.063,11.793-26.034,11.802h-38.009c-9.971-0.009-19.456-4.313-26.034-11.802l-37.489-42.869  c-8.392-9.607-12.956-21.955-12.843-34.712V121.492c0,0,52.068,0,78.102-8.678l78.102-26.034l34.712,60.746L351.458,241.161z"
   id="path18" />


<path
   d="M82.441,512H65.085v-92.941c-0.026-30.607,22.866-56.554,53.248-60.329l69.337-9.363c4.374-0.564,7.619-4.296,7.585-8.678  v-28.282h17.356v28.203c0.113,13.069-9.624,24.264-22.658,25.956l-69.389,9.372c-21.799,2.716-38.148,21.235-38.131,43.112V512  H82.441z"
   id="path28" />
<path
   d="M446.915,512h-17.356v-92.941c0.017-21.877-16.332-40.405-38.036-43.112l-69.519-9.381  c-12.991-1.692-22.728-12.887-22.615-26.034v-28.125h17.356v28.203c-0.043,4.46,3.202,8.183,7.55,8.756l69.458,9.372  c30.295,3.775,53.187,29.713,53.161,60.329V512z"
   id="path30" />
<path
   d="M351.458,216.949h-8.678v-17.356h8.678c9.572,0,17.356-7.784,17.356-17.356s-7.784-17.356-17.356-17.356h-8.678v-17.356  h8.678c19.144,0,34.712,15.568,34.712,34.712S370.601,216.949,351.458,216.949z"
   id="path32" />
<path
   d="M169.22,216.949h-8.678c-19.144,0-34.712-15.568-34.712-34.712s15.568-34.712,34.712-34.712h8.678v17.356h-8.678  c-9.572,0-17.356,7.784-17.356,17.356s7.784,17.356,17.356,17.356h8.678V216.949z"
   id="path34" />
<path
   d="M256.043,425.22c-0.035,0-0.069,0-0.095,0c-35.076,0-66.655-20.827-80.471-53.074l-5.554-12.921l15.95-6.847l5.554,12.93  c11.082,25.852,36.404,42.557,64.529,42.557c0.026,0,0.052,0,0.078,0c28.125,0,53.456-16.705,64.547-42.557l5.554-12.93l15.95,6.847  l-5.554,12.93C322.708,404.393,291.111,425.22,256.043,425.22z"
   id="path36" />


<path
   d="M275.109,338.788h-38.027c-12.479-0.017-24.333-5.398-32.551-14.753l-37.497-42.878  c-9.797-11.229-15.117-25.609-14.987-40.5V121.492c0-4.79,3.888-8.678,8.678-8.678c0.503,0,50.974-0.104,75.359-8.235l78.102-26.034  c3.931-1.293,8.227,0.338,10.283,3.931l34.712,60.746c0.755,1.31,1.146,2.803,1.146,4.322l-0.191,93.583  c0.13,14.874-5.198,29.236-14.996,40.448l-37.515,42.479C299.425,333.39,287.562,338.77,275.109,338.788z M169.394,130.039v110.687  c-0.095,10.717,3.705,20.992,10.7,29.01l37.48,42.852c4.92,5.606,12.036,8.834,19.517,8.843h38.001  c7.454-0.009,14.579-3.237,19.517-8.86l37.497-42.453c6.968-7.984,10.769-18.258,10.665-28.889c0-0.035,0-0.061,0-0.095  l0.174-91.318l-30.043-52.562L241.56,121.04C220.82,127.957,185.674,129.631,169.394,130.039z"
   id="path42" />
<path
   d="M134.916,167.528l-15.794-49.378c-6.465-23.509,2.855-48.033,22.285-61.31l-15.143-45.412  c-0.885-2.647-0.434-5.554,1.198-7.819c1.64-2.274,4.261-3.61,7.047-3.61h144.748c35.337,0.035,66.725,21.834,79.221,54.602  c22.042,11.333,34.044,36.204,29.089,60.711l-10.24,51.269l-17.017-3.402l10.24-51.287c3.454-17.087-5.016-34.408-20.61-42.158  l-2.473-1.284c-1.996-1.041-3.515-2.812-4.226-4.955c-9.216-27.57-34.929-46.115-63.991-46.141H146.545L160.1,58.004  c1.371,4.105-0.495,8.583-4.365,10.509c-16.436,8.192-24.836,26.98-19.968,44.692l15.69,49.031L134.916,167.528z"
   id="path44" />



<g
   id="g52">
</g>
<g
   id="g54">
</g>
<g
   id="g56">
</g>
<g
   id="g58">
</g>
<g
   id="g60">
</g>
<g
   id="g62">
</g>
<g
   id="g64">
</g>
<g
   id="g66">
</g>
<g
   id="g68">
</g>
<g
   id="g70">
</g>
<g
   id="g72">
</g>
<g
   id="g74">
</g>
<g
   id="g76">
</g>
<g
   id="g78">
</g>
<g
   id="g80">
</g>
</svg>