<?xml version="1.0" encoding="iso-8859-1"?>
<!-- Generator: Adobe Illustrator 19.0.0, SVG Export Plug-In . SVG Version: 6.00 Build 0)  -->
<svg version="1.1" id="Capa_1" xmlns="http://www.w3.org/2000/svg" xmlns:xlink="http://www.w3.org/1999/xlink" x="0px" y="0px"
	 viewBox="0 0 512 512" style="enable-background:new 0 0 512 512;" xml:space="preserve">
<g>
	<path style="fill:#ACABB1;" d="M119.469,477.867h383.994V324.27H8.537v153.597H119.469z M435.197,384.002
		c9.429,0,17.066,7.637,17.066,17.066s-7.637,17.066-17.066,17.066s-17.066-7.637-17.066-17.066S425.776,384.002,435.197,384.002z
		 M366.931,384.002c9.429,0,17.066,7.637,17.066,17.066s-7.637,17.066-17.066,17.066s-17.066-7.637-17.066-17.066
		S357.511,384.002,366.931,384.002z M298.666,384.002c9.429,0,17.066,7.637,17.066,17.066s-7.637,17.066-17.066,17.066
		c-9.429,0-17.066-7.637-17.066-17.066S289.245,384.002,298.666,384.002z M59.737,375.469h153.597v51.199H59.737V375.469z"/>
	<rect x="68.27" y="477.859" style="fill:#ACABB1;" width="51.199" height="25.6"/>
	<rect x="392.531" y="477.859" style="fill:#ACABB1;" width="51.199" height="25.6"/>
</g>
<g>
	<circle style="fill:#FFAF46;" cx="298.666" cy="401.06" r="17.066"/>
	<circle style="fill:#FFAF46;" cx="366.931" cy="401.06" r="17.066"/>
	<circle style="fill:#FFAF46;" cx="435.197" cy="401.06" r="17.066"/>
</g>
<path style="fill:#E6E7E8;" d="M435.197,136.54c0-9.429-7.637-17.066-17.066-17.066s-17.066,7.637-17.066,17.066v187.73h34.133
	V136.54z"/>
<rect x="59.737" y="375.46" style="fill:#FFAF46;" width="153.597" height="51.199"/>
<path style="fill:#E6E7E8;" d="M110.936,136.54c0-9.429-7.637-17.066-17.066-17.066s-17.066,7.637-17.066,17.066v187.73h34.133
	V136.54z"/>
<g>
	<path style="fill:#231F20;" d="M502.609,52.061c-2.261,0-4.42-0.887-6.024-2.483C453.27,6.246,383.034,6.238,339.711,49.552
		c-0.009,0.009-0.017,0.017-0.026,0.026c-3.524,3.123-8.917,2.799-12.049-0.725c-2.884-3.251-2.867-8.149,0.043-11.375
		c49.979-49.97,131.01-49.97,180.989,0c3.345,3.319,3.354,8.729,0.034,12.066C507.089,51.165,504.896,52.07,502.609,52.061z"/>
	<path style="fill:#231F20;" d="M478.46,76.21c-2.261,0-4.437-0.896-6.033-2.5c-29.986-29.977-78.599-29.977-108.593,0
		c-3.388,3.277-8.789,3.183-12.066-0.213c-3.191-3.311-3.191-8.55,0-11.853c36.624-36.65,96.024-36.676,132.674-0.051
		c0.017,0.017,0.034,0.034,0.051,0.051c3.328,3.336,3.328,8.738,0,12.066C482.898,75.305,480.722,76.21,478.46,76.21z"/>
	<path style="fill:#231F20;" d="M454.311,100.359c-2.278-0.009-4.463-0.93-6.059-2.56c-16.606-16.64-43.562-16.657-60.193-0.051
		c-0.017,0.017-0.034,0.034-0.051,0.051c-3.319,3.345-8.721,3.371-12.074,0.06c-3.345-3.319-3.371-8.721-0.06-12.074l0,0
		c23.253-23.33,61.012-23.389,84.342-0.137c0.043,0.043,0.094,0.094,0.137,0.137c3.302,3.362,3.243,8.772-0.119,12.066
		c-1.587,1.553-3.72,2.432-5.948,2.44L454.311,100.359z"/>
	<path style="fill:#231F20;" d="M503.463,315.737H443.73V136.54c0-14.139-11.46-25.6-25.6-25.6c-14.14,0-25.6,11.46-25.6,25.6
		v179.197H119.469V136.54c0-14.139-11.46-25.6-25.6-25.6s-25.6,11.46-25.6,25.6v179.197H8.537c-4.71,0-8.533,3.823-8.533,8.533
		v153.597c0,4.71,3.823,8.533,8.533,8.533h51.199V512h68.266v-25.6h255.996V512h68.266v-25.6h51.199c4.71,0,8.533-3.823,8.533-8.533
		V324.27C511.996,319.559,508.181,315.737,503.463,315.737z M409.597,136.54c0-4.71,3.823-8.533,8.533-8.533
		s8.533,3.823,8.533,8.533v179.197h-17.066V136.54z M85.336,136.54c0-4.71,3.823-8.533,8.533-8.533s8.533,3.823,8.533,8.533v179.197
		H85.336V136.54z M110.936,494.934H76.803V486.4h34.133V494.934z M435.197,494.934h-34.133V486.4h34.133V494.934z M494.929,469.334
		H17.071V332.803h477.859V469.334z"/>
	<path style="fill:#231F20;" d="M298.666,375.469c-14.139,0-25.6,11.46-25.6,25.6c0,14.14,11.46,25.6,25.6,25.6
		c14.14,0,25.6-11.46,25.6-25.6C324.266,386.929,312.805,375.469,298.666,375.469z M298.666,409.602
		c-4.71,0-8.533-3.823-8.533-8.533c0-4.71,3.823-8.533,8.533-8.533c4.71,0,8.533,3.823,8.533,8.533
		C307.199,405.779,303.385,409.602,298.666,409.602z"/>
	<path style="fill:#231F20;" d="M366.931,375.469c-14.139,0-25.6,11.46-25.6,25.6c0,14.14,11.46,25.6,25.6,25.6
		c14.14,0,25.6-11.46,25.6-25.6C392.531,386.929,381.071,375.469,366.931,375.469z M366.931,409.602
		c-4.71,0-8.533-3.823-8.533-8.533c0-4.71,3.823-8.533,8.533-8.533c4.71,0,8.533,3.823,8.533,8.533
		C375.465,405.779,371.65,409.602,366.931,409.602z"/>
	<path style="fill:#231F20;" d="M409.597,401.068c0,14.14,11.46,25.6,25.6,25.6s25.6-11.46,25.6-25.6c0-14.139-11.46-25.6-25.6-25.6
		S409.597,386.929,409.597,401.068z M443.73,401.068c0,4.71-3.823,8.533-8.533,8.533s-8.533-3.823-8.533-8.533
		c0-4.71,3.823-8.533,8.533-8.533S443.73,396.358,443.73,401.068z"/>
	<path style="fill:#231F20;" d="M213.334,366.936H59.737c-4.71,0-8.533,3.823-8.533,8.533v51.199c0,4.71,3.823,8.533,8.533,8.533
		h153.597c4.71,0,8.533-3.823,8.533-8.533v-51.199C221.867,370.759,218.053,366.936,213.334,366.936z M204.801,418.135H68.27
		v-34.133h136.531V418.135z"/>
	<path style="fill:#231F20;" d="M178.348,52.061c-2.261,0-4.42-0.887-6.024-2.483C129.009,6.246,58.772,6.238,15.449,49.552
		c-0.009,0.009-0.026,0.017-0.034,0.026c-3.524,3.123-8.917,2.799-12.04-0.725c-2.884-3.251-2.867-8.149,0.043-11.375
		c49.979-49.97,131.01-49.97,180.989,0c3.345,3.319,3.354,8.729,0.034,12.066C182.828,51.165,180.635,52.07,178.348,52.061z"/>
	<path style="fill:#231F20;" d="M154.199,76.21c-2.261,0-4.437-0.896-6.033-2.5c-29.986-29.977-78.608-29.977-108.593,0
		c-3.388,3.268-8.789,3.174-12.066-0.213c-3.191-3.311-3.191-8.55,0-11.853c36.624-36.65,96.024-36.676,132.674-0.051
		c0.017,0.017,0.034,0.034,0.051,0.051c3.328,3.336,3.328,8.738,0,12.066C158.636,75.305,156.46,76.21,154.199,76.21z"/>
	<path style="fill:#231F20;" d="M130.05,100.359c-2.278-0.009-4.463-0.93-6.059-2.56c-16.606-16.64-43.562-16.657-60.193-0.051
		c-0.017,0.017-0.034,0.034-0.051,0.051c-3.319,3.345-8.721,3.371-12.066,0.051c-3.345-3.319-3.371-8.721-0.06-12.066l0,0
		c23.253-23.33,61.012-23.389,84.342-0.137c0.043,0.043,0.094,0.094,0.137,0.137c3.302,3.362,3.243,8.772-0.119,12.066
		c-1.587,1.553-3.72,2.432-5.948,2.44L130.05,100.359z"/>
</g>
<g>
</g>
<g>
</g>
<g>
</g>
<g>
</g>
<g>
</g>
<g>
</g>
<g>
</g>
<g>
</g>
<g>
</g>
<g>
</g>
<g>
</g>
<g>
</g>
<g>
</g>
<g>
</g>
<g>
</g>
</svg>
