<?xml version="1.0" encoding="iso-8859-1"?>
<!-- Generator: Adobe Illustrator 19.0.0, SVG Export Plug-In . SVG Version: 6.00 Build 0)  -->
<svg version="1.1" id="Capa_1" xmlns="http://www.w3.org/2000/svg" xmlns:xlink="http://www.w3.org/1999/xlink" x="0px" y="0px"
	 viewBox="0 0 512 512" style="enable-background:new 0 0 512 512;" xml:space="preserve">
<g>
	<rect x="196.267" y="401.067" style="fill:#FFAF46;" width="34.133" height="34.133"/>
	<rect x="230.4" y="401.067" style="fill:#FFAF46;" width="34.133" height="34.133"/>
	<rect x="264.533" y="401.067" style="fill:#FFAF46;" width="34.133" height="34.133"/>
	<rect x="332.8" y="401.067" style="fill:#FFAF46;" width="34.133" height="34.133"/>
	<rect x="298.667" y="401.067" style="fill:#FFAF46;" width="34.133" height="34.133"/>
	<rect x="128" y="401.067" style="fill:#FFAF46;" width="34.133" height="34.133"/>
</g>
<polygon style="fill:#E6E7E8;" points="42.667,264.533 17.067,264.533 17.067,349.867 42.667,349.867 42.667,332.8 "/>
<path style="fill:#E13957;" d="M426.291,145.067H324.267l-34.133,25.6H256l-34.133-25.6h-102.4L85.333,179.2H42.667v153.6h42.667
	l34.133,34.133h102.4l34.133-25.6h34.133l34.133,25.6h102.025l48.017-42.667h29.158V187.733h-29.158L426.291,145.067z
	 M231.006,316.339c-33.323,33.323-87.356,33.323-120.678,0s-33.323-87.356,0-120.678s87.356-33.323,120.678,0
	c16,16,24.994,37.709,24.994,60.339C256.026,278.639,247.031,300.356,231.006,316.339z M435.806,316.339
	c-33.323,33.323-87.356,33.323-120.678,0s-33.323-87.356,0-120.678s87.356-33.323,120.678,0c16,16,24.994,37.709,24.994,60.339
	C460.826,278.639,451.832,300.356,435.806,316.339z"/>
<g>
	<path style="fill:#64C37D;" d="M426.291,366.933H324.267l-34.133-25.6H256l-34.133,25.6h-102.4L85.333,332.8H42.667v68.267h426.667
		c18.85,0,34.133-15.283,34.133-34.133v-42.667h-29.158L426.291,366.933z"/>
	<path style="fill:#64C37D;" d="M469.333,110.933H42.667V179.2h42.667l34.133-34.133h102.4l34.133,25.6h34.133l34.133-25.6h102.025
		l48.017,42.667h29.158v-42.667C503.467,126.217,488.184,110.933,469.333,110.933z"/>
</g>
<g>
	<path style="fill:#FFAF46;" d="M381.542,221.278l-6.076,9.122c6.793-0.009,13.303,2.697,18.099,7.501l10.752-2.15
		c12.015-2.406,21.811-11.059,25.685-22.682l5.803-17.408c-15.983-16.026-37.7-25.02-60.339-24.994l8.209,16.418
		C389.154,198.042,388.335,211.089,381.542,221.278z"/>
	<path style="fill:#FFAF46;" d="M340.745,249.924l9.122,6.076c-0.009-6.793,2.697-13.303,7.501-18.099l-2.15-10.752
		c-2.406-12.015-11.059-21.811-22.682-25.685l-17.408-5.803c-16.026,15.983-25.02,37.7-24.994,60.339l16.418-8.209
		C317.508,242.313,330.556,243.132,340.745,249.924z"/>
	<path style="fill:#FFAF46;" d="M346.615,276.25l10.752-2.15c-4.804-4.796-7.509-11.307-7.501-18.099l-9.122-6.076
		c-10.189-6.793-23.236-7.612-34.193-2.133L290.133,256c-0.026,22.639,8.969,44.356,24.994,60.339l5.803-17.408
		C324.804,287.309,334.601,278.656,346.615,276.25z"/>
	<path style="fill:#FFAF46;" d="M355.217,227.149l2.15,10.752c4.796-4.804,11.307-7.509,18.099-7.501l6.076-9.122
		c6.793-10.189,7.612-23.236,2.133-34.193l-8.209-16.418c-22.639-0.026-44.356,8.969-60.339,24.994l17.408,5.803
		C344.158,205.338,352.811,215.134,355.217,227.149z"/>
	<path style="fill:#FFAF46;" d="M369.391,290.722l6.076-9.122c-6.793,0.009-13.303-2.697-18.099-7.501l-10.752,2.15
		c-12.015,2.406-21.811,11.059-25.685,22.682l-5.803,17.408c15.983,16.026,37.7,25.02,60.339,24.994l-8.209-16.418
		C361.779,313.958,362.598,300.911,369.391,290.722z"/>
	<path style="fill:#FFAF46;" d="M430.003,213.069c-3.874,11.622-13.67,20.275-25.685,22.682l-10.752,2.15
		c4.804,4.796,7.509,11.307,7.501,18.099l9.122,6.076c10.189,6.793,23.236,7.612,34.193,2.133L460.8,256
		c0.026-22.639-8.969-44.356-24.994-60.339L430.003,213.069z"/>
	<path style="fill:#FFAF46;" d="M410.189,262.076L401.067,256c0.009,6.793-2.697,13.303-7.501,18.099l2.15,10.752
		c2.406,12.015,11.059,21.811,22.682,25.685l17.408,5.803c16.026-15.983,25.02-37.7,24.994-60.339l-16.418,8.209
		C433.425,269.687,420.378,268.868,410.189,262.076z"/>
	<path style="fill:#FFAF46;" d="M395.716,284.851l-2.15-10.752c-4.796,4.804-11.307,7.509-18.099,7.501l-6.076,9.122
		c-6.793,10.189-7.612,23.236-2.133,34.193l8.209,16.418c22.639,0.026,44.356-8.969,60.339-24.994l-17.408-5.803
		C406.775,306.662,398.123,296.866,395.716,284.851z"/>
	<path style="fill:#FFAF46;" d="M357.367,237.901c-9.993,9.993-9.993,26.197,0,36.198l0,0c10.001,9.993,26.197,9.993,36.198,0l0,0
		c10.172-9.822,10.453-26.027,0.631-36.198c-9.822-10.172-26.027-10.453-36.198-0.631
		C357.786,237.474,357.572,237.687,357.367,237.901z"/>
	<path style="fill:#FFAF46;" d="M225.203,213.069c-3.874,11.622-13.67,20.275-25.685,22.682l-10.752,2.15
		c4.804,4.796,7.509,11.307,7.501,18.099l9.122,6.076c10.189,6.793,23.236,7.612,34.193,2.133L256,256
		c0.026-22.639-8.969-44.356-24.994-60.339L225.203,213.069z"/>
	<path style="fill:#FFAF46;" d="M141.815,276.25l10.752-2.15c-4.804-4.796-7.509-11.307-7.501-18.099l-9.122-6.076
		c-10.189-6.793-23.236-7.612-34.193-2.133L85.333,256c-0.026,22.639,8.969,44.356,24.994,60.339l5.803-17.408
		C120.004,287.309,129.801,278.656,141.815,276.25z"/>
	<path style="fill:#FFAF46;" d="M164.591,290.722l6.076-9.122c-6.793,0.009-13.303-2.697-18.099-7.501l-10.752,2.15
		c-12.015,2.406-21.811,11.059-25.685,22.682l-5.803,17.408c15.983,16.026,37.7,25.02,60.339,24.994l-8.209-16.418
		C156.979,313.958,157.798,300.911,164.591,290.722z"/>
	<path style="fill:#FFAF46;" d="M135.945,249.924l9.122,6.076c-0.009-6.793,2.697-13.303,7.501-18.099l-2.15-10.752
		c-2.406-12.015-11.059-21.811-22.682-25.685l-17.408-5.803c-16.026,15.983-25.02,37.7-24.994,60.339l16.418-8.209
		C112.708,242.313,125.756,243.132,135.945,249.924z"/>
	<path style="fill:#FFAF46;" d="M190.916,284.851l-2.15-10.752c-4.796,4.804-11.307,7.509-18.099,7.501l-6.076,9.122
		c-6.793,10.189-7.612,23.236-2.133,34.193l8.209,16.418c22.639,0.026,44.356-8.969,60.339-24.994l-17.408-5.803
		C201.975,306.662,193.323,296.866,190.916,284.851z"/>
	<path style="fill:#FFAF46;" d="M150.417,227.149l2.15,10.752c4.796-4.804,11.307-7.509,18.099-7.501l6.076-9.122
		c6.793-10.189,7.612-23.236,2.133-34.193l-8.209-16.418c-22.639-0.026-44.356,8.969-60.339,24.994l17.408,5.803
		C139.358,205.338,148.011,215.134,150.417,227.149z"/>
	<path style="fill:#FFAF46;" d="M176.742,221.278l-6.076,9.122c6.793-0.009,13.303,2.697,18.099,7.501l10.752-2.15
		c12.015-2.406,21.811-11.059,25.685-22.682l5.803-17.408c-15.983-16.026-37.7-25.02-60.339-24.994l8.209,16.418
		C184.354,198.042,183.535,211.089,176.742,221.278z"/>
	<path style="fill:#FFAF46;" d="M205.389,262.076L196.267,256c0.009,6.793-2.697,13.303-7.501,18.099l2.15,10.752
		c2.406,12.015,11.059,21.811,22.682,25.685l17.408,5.803c16.026-15.983,25.02-37.7,24.994-60.339l-16.418,8.209
		C228.625,269.687,215.578,268.868,205.389,262.076z"/>
	<path style="fill:#FFAF46;" d="M152.567,237.901c-9.993,9.993-9.993,26.197,0,36.198l0,0c9.993,9.993,26.206,9.993,36.198,0l0,0
		c10.172-9.822,10.453-26.027,0.631-36.198c-9.822-10.172-26.027-10.453-36.198-0.631
		C152.986,237.474,152.772,237.687,152.567,237.901z"/>
	<rect x="93.867" y="401.067" style="fill:#FFAF46;" width="34.133" height="34.133"/>
</g>
<g>
	<path style="fill:#231F20;" d="M375.467,349.867c51.84,0,93.867-42.027,93.867-93.867s-42.027-93.867-93.867-93.867
		S281.6,204.16,281.6,256C281.66,307.814,323.652,349.807,375.467,349.867z M341.828,260.898c0.341,2.5,0.964,4.958,1.86,7.322
		c-14.455,3.337-26.129,13.943-30.848,28.006l-0.939,2.816c-7.62-11.247-12.1-24.337-12.971-37.897l11.435-5.717
		c8.218-4.113,18.005-3.499,25.651,1.596L341.828,260.898z M409.105,251.102c-0.341-2.5-0.964-4.958-1.86-7.322
		c14.455-3.337,26.129-13.943,30.848-28.006l0.939-2.816c7.62,11.247,12.1,24.337,12.971,37.897l-11.435,5.717
		c-8.218,4.096-18.005,3.482-25.651-1.596L409.105,251.102z M375.467,238.933c9.429,0,17.067,7.637,17.067,17.067
		c0,9.429-7.637,17.067-17.067,17.067c-9.429,0-17.067-7.637-17.067-17.067C358.4,246.571,366.037,238.933,375.467,238.933z
		 M355.123,283.247c2.014,1.536,4.198,2.842,6.502,3.891c-7.842,12.578-8.602,28.322-1.997,41.591l1.323,2.654
		c-13.346-2.586-25.754-8.678-35.968-17.647l4.045-12.109c2.901-8.713,10.257-15.206,19.26-17.007L355.123,283.247z
		 M374.895,321.101c-4.113-8.218-3.499-18.005,1.596-25.651l3.874-5.811c2.5-0.341,4.958-0.964,7.322-1.86
		c3.345,14.447,13.952,26.129,28.006,30.857l2.816,0.939c-11.264,7.62-24.354,12.1-37.922,12.962L374.895,321.101z M421.905,210.372
		c-2.901,8.713-10.257,15.206-19.26,17.007l-6.827,1.374c-2.014-1.536-4.198-2.842-6.502-3.891
		c7.842-12.578,8.602-28.322,1.997-41.591l-1.323-2.654c13.346,2.586,25.754,8.678,35.968,17.647L421.905,210.372z M376.038,190.899
		c4.113,8.218,3.499,18.005-1.596,25.651l-3.874,5.811c-2.5,0.341-4.958,0.964-7.322,1.86
		c-3.345-14.447-13.952-26.129-28.006-30.857l-2.816-0.939c11.264-7.62,24.354-12.1,37.922-12.962L376.038,190.899z
		 M433.212,306.475l-12.109-4.036c-8.713-2.901-15.206-10.257-17.007-19.26l-1.374-6.827c1.536-2.014,2.85-4.198,3.9-6.511
		c12.561,7.893,28.322,8.653,41.583,2.005l2.654-1.323c-2.586,13.338-8.678,25.745-17.655,35.951H433.212z M317.73,205.525
		l12.109,4.036c8.713,2.901,15.206,10.257,17.007,19.26l1.374,6.827c-1.536,2.014-2.842,4.198-3.891,6.502
		c-12.578-7.834-28.322-8.585-41.591-1.997l-2.654,1.323C302.669,228.139,308.762,215.731,317.73,205.525z"/>
	<path style="fill:#231F20;" d="M170.667,349.867c51.84,0,93.867-42.027,93.867-93.867s-42.027-93.867-93.867-93.867
		S76.8,204.16,76.8,256C76.86,307.814,118.852,349.807,170.667,349.867z M137.028,260.898c0.341,2.5,0.964,4.958,1.86,7.322
		c-14.455,3.337-26.129,13.943-30.848,28.006l-0.939,2.816c-7.62-11.247-12.1-24.337-12.971-37.897l11.435-5.717
		c8.218-4.113,18.005-3.499,25.651,1.596L137.028,260.898z M204.305,251.102c-0.341-2.5-0.964-4.958-1.86-7.322
		c14.455-3.337,26.129-13.943,30.848-28.006l0.939-2.816c7.62,11.247,12.1,24.337,12.971,37.897l-11.435,5.717
		c-8.218,4.096-18.005,3.482-25.651-1.596L204.305,251.102z M170.667,238.933c9.429,0,17.067,7.637,17.067,17.067
		c0,9.429-7.637,17.067-17.067,17.067c-9.429,0-17.067-7.637-17.067-17.067C153.6,246.571,161.237,238.933,170.667,238.933z
		 M150.323,283.247c2.014,1.536,4.198,2.842,6.502,3.891c-7.842,12.578-8.602,28.322-1.997,41.591l1.323,2.654
		c-13.346-2.586-25.754-8.678-35.968-17.647l4.045-12.109c2.901-8.713,10.257-15.206,19.26-17.007L150.323,283.247z
		 M170.095,321.101c-4.113-8.218-3.499-18.005,1.596-25.651l3.874-5.811c2.5-0.341,4.958-0.964,7.322-1.86
		c3.345,14.447,13.952,26.129,28.006,30.857l2.816,0.939c-11.264,7.62-24.354,12.1-37.922,12.962L170.095,321.101z M217.105,210.372
		c-2.901,8.713-10.257,15.206-19.26,17.007l-6.827,1.374c-2.014-1.536-4.198-2.842-6.502-3.891
		c7.842-12.578,8.602-28.322,1.997-41.591l-1.323-2.654c13.346,2.586,25.754,8.678,35.968,17.647L217.105,210.372z M171.238,190.899
		c4.113,8.218,3.499,18.005-1.596,25.651l-3.874,5.811c-2.5,0.341-4.958,0.964-7.322,1.86
		c-3.345-14.447-13.952-26.129-28.006-30.857l-2.816-0.939c11.264-7.62,24.354-12.1,37.922-12.962L171.238,190.899z
		 M228.412,306.475l-12.109-4.036c-8.713-2.901-15.206-10.257-17.007-19.26l-1.374-6.827c1.536-2.014,2.85-4.198,3.9-6.511
		c12.561,7.893,28.322,8.653,41.583,2.005l2.654-1.323C243.473,283.861,237.38,296.269,228.412,306.475L228.412,306.475z
		 M112.93,205.525l12.109,4.036c8.713,2.901,15.206,10.257,17.007,19.26l1.374,6.827c-1.536,2.014-2.842,4.198-3.891,6.502
		c-12.578-7.834-28.322-8.585-41.591-1.997l-2.654,1.323C97.869,228.139,103.962,215.731,112.93,205.525z"/>
	<path style="fill:#231F20;" d="M469.333,102.4H51.2V85.333c0-14.14-11.46-25.6-25.6-25.6H0V76.8h25.6
		c4.71,0,8.533,3.823,8.533,8.533V230.4H17.067v17.067h17.067V256h-25.6v102.4h25.6v8.533H17.067V384h17.067v68.267H51.2V409.6
		h34.133v34.133h85.333V409.6h17.067v34.133h187.733V409.6h93.867c23.552-0.026,42.641-19.115,42.667-42.667V145.067
		C511.974,121.515,492.885,102.426,469.333,102.4z M469.333,119.467c14.14,0,25.6,11.46,25.6,25.6V179.2h-17.382l-48.017-42.667
		H321.425l-34.133,25.6h-28.45l-34.133-25.6H115.934l-34.133,34.133H51.2v-51.2H469.333z M51.2,187.733h37.666l34.133-34.133h96.026
		l34.133,25.6h39.817l34.133-25.6h95.94l47.991,42.667h23.893v119.467H471.04L423.023,358.4h-95.915l-34.133-25.6h-39.817
		l-34.133,25.6h-96.026l-34.133-34.133H51.2V187.733z M25.6,341.333v-68.267h8.533v68.267H25.6z M119.467,426.667H102.4V409.6
		h17.067V426.667z M153.6,426.667h-17.067V409.6H153.6V426.667z M221.867,426.667H204.8V409.6h17.067V426.667z M256,426.667h-17.067
		V409.6H256V426.667z M290.133,426.667h-17.067V409.6h17.067V426.667z M324.267,426.667H307.2V409.6h17.067V426.667z M358.4,426.667
		h-17.067V409.6H358.4V426.667z M469.333,392.533H51.2v-51.2h30.601l34.133,34.133h108.774l34.133-25.6h28.45l34.133,25.6h108.109
		l48.017-42.667h17.382v34.133C494.933,381.073,483.473,392.533,469.333,392.533z"/>
</g>
<g>
</g>
<g>
</g>
<g>
</g>
<g>
</g>
<g>
</g>
<g>
</g>
<g>
</g>
<g>
</g>
<g>
</g>
<g>
</g>
<g>
</g>
<g>
</g>
<g>
</g>
<g>
</g>
<g>
</g>
</svg>
