<?xml version="1.0" encoding="iso-8859-1"?>
<!-- Generator: Adobe Illustrator 19.0.0, SVG Export Plug-In . SVG Version: 6.00 Build 0)  -->
<svg version="1.1" id="Capa_1" xmlns="http://www.w3.org/2000/svg" xmlns:xlink="http://www.w3.org/1999/xlink" x="0px" y="0px"
	 viewBox="0 0 512 512" style="enable-background:new 0 0 512 512;" xml:space="preserve">
<path style="fill:#78B9EB;" d="M401.067,170.667h-307.2c-47.13,0-85.333,38.204-85.333,85.333s38.204,85.333,85.333,85.333h307.2
	V170.667z M349.867,290.133h-204.8c-18.85,0-34.133-15.283-34.133-34.133c0-18.85,15.283-34.133,34.133-34.133h204.8V290.133z"/>
<path style="fill:#006DF0;" d="M110.933,256c0,18.85,15.283,34.133,34.133,34.133h204.8v-68.267h-204.8
	C126.217,221.867,110.933,237.15,110.933,256z"/>
<path style="fill:#E6E7E8;" d="M401.067,307.2h102.4V204.8h-102.4V307.2z"/>
<g>
	<path style="fill:#231F20;" d="M102.4,256c0.026,23.552,19.115,42.641,42.667,42.667H358.4v-85.333H145.067
		C121.515,213.359,102.426,232.448,102.4,256z M341.333,281.6H145.067c-14.14,0-25.6-11.46-25.6-25.6c0-14.14,11.46-25.6,25.6-25.6
		h196.267V281.6z"/>
	<path style="fill:#231F20;" d="M512,196.267H409.6v-34.133H93.867C42.027,162.133,0,204.16,0,256s42.027,93.867,93.867,93.867
		H409.6v-34.133H512V196.267z M392.533,332.8H93.867c-42.419,0-76.8-34.381-76.8-76.8s34.381-76.8,76.8-76.8h298.667V332.8z
		 M494.933,298.667H409.6v-85.333h85.333V298.667z"/>
	<rect x="443.733" y="221.867" style="fill:#231F20;" width="34.133" height="17.067"/>
	<rect x="443.733" y="273.067" style="fill:#231F20;" width="34.133" height="17.067"/>
</g>
<g>
</g>
<g>
</g>
<g>
</g>
<g>
</g>
<g>
</g>
<g>
</g>
<g>
</g>
<g>
</g>
<g>
</g>
<g>
</g>
<g>
</g>
<g>
</g>
<g>
</g>
<g>
</g>
<g>
</g>
</svg>
