<?xml version="1.0" encoding="iso-8859-1"?>
<!-- Generator: Adobe Illustrator 19.0.0, SVG Export Plug-In . SVG Version: 6.00 Build 0)  -->
<svg version="1.1" id="Capa_1" xmlns="http://www.w3.org/2000/svg" xmlns:xlink="http://www.w3.org/1999/xlink" x="0px" y="0px"
	 viewBox="0 0 512 512" style="enable-background:new 0 0 512 512;" xml:space="preserve">
<path style="fill:#58595B;" d="M89.296,267.913c-6.576,6.576-6.576,17.234-0.008,23.81c0,0,0,0,0.008,0.008l65.486,65.486
	l35.723,35.723l0,0l29.763,29.763c6.576,6.576,17.235,6.576,23.81,0.008c0,0,0,0,0.008-0.008l202.411-202.419L291.715,65.503
	L89.296,267.913z M339.352,172.665l-7.577,28.171l-10.314-10.314l-93.194,93.211h59.02l27.986-27.978l-5.7-5.7l11.905-11.905
	l11.905,11.905l-11.905,11.905l-6.205-6.205l-27.986,27.978h-59.02l-16.839,16.839l-19.306,19.306c3.292,3.284,3.292,8.621,0,11.905
	c-3.292,3.284-8.621,3.292-11.905,0c-3.284-3.292-3.292-8.621,0-11.905l0,0c3.284-3.284,8.621-3.284,11.905,0l19.306-19.306V243.32
	l28.719-28.719c-0.345-0.202-0.682-0.421-0.993-0.665c-3.292-3.284-3.292-8.621,0-11.905c3.292-3.284,8.621-3.292,11.905,0
	c3.292,3.284,3.292,8.621,0,11.905l0,0c-2.964,2.938-7.645,3.216-10.945,0.665l-28.685,28.719v57.252l16.839-16.839l93.211-93.211
	l-10.314-10.347L339.352,172.665z"/>
<g>
	<path style="fill:#E6E7E8;" d="M180.217,319.878c-3.292,3.284-3.292,8.621,0,11.905c3.292,3.284,8.621,3.292,11.905,0
		c3.284-3.292,3.292-8.621,0-11.905l0,0l-1.617,1.617l1.617-1.617C188.83,316.594,183.501,316.594,180.217,319.878z"/>
	<path style="fill:#E6E7E8;" d="M251.058,213.911c3.292-3.284,3.292-8.621,0-11.905s-8.621-3.292-11.905,0
		c-3.292,3.284-3.292,8.621,0,11.905l0,0c0.312,0.244,0.648,0.463,0.993,0.665l6.188-6.197l-6.188,6.197
		C243.438,217.111,248.094,216.825,251.058,213.911z"/>
	<polygon style="fill:#E6E7E8;" points="333.383,250.056 321.478,238.151 309.573,250.056 315.272,255.756 321.478,249.542 
		315.272,255.756 321.478,261.961 	"/>
	<path style="fill:#E6E7E8;" d="M309.573,83.352l119.075,119.075l71.439-71.439L381.011,11.922L309.573,83.352z M434.592,113.123
		l23.818,23.81l-23.818,23.81l-23.81-23.81L434.592,113.123z M375.059,101.209l-23.81-23.81l23.81-23.818l23.81,23.818
		L375.059,101.209z"/>
	
		<rect x="358.214" y="60.552" transform="matrix(-0.7071 0.7071 -0.7071 -0.7071 694.9775 -133.0889)" style="fill:#E6E7E8;" width="33.677" height="33.677"/>
	
		<rect x="417.754" y="120.077" transform="matrix(-0.7071 0.7071 -0.7071 -0.7071 838.7098 -73.5745)" style="fill:#E6E7E8;" width="33.677" height="33.677"/>
</g>
<path style="fill:#58595B;" d="M119.059,321.494L95.24,345.313c-6.576,6.576-6.576,17.234,0,23.81l11.905,11.905l0,0l23.818,23.818
	l0,0l11.913,11.913c6.576,6.576,17.234,6.576,23.81,0l23.818-23.81l-35.723-35.723L119.059,321.494z"/>
<g>
	<polygon style="fill:#E6E7E8;" points="154.782,357.218 190.506,392.941 190.506,392.941 	"/>
	
		<rect x="4.095" y="423.738" transform="matrix(-0.7071 0.7071 -0.7071 -0.7071 433.5064 701.589)" style="fill:#E6E7E8;" width="134.709" height="33.677"/>
	<polygon style="fill:#E6E7E8;" points="107.154,381.028 107.154,381.028 130.972,404.846 130.972,404.846 	"/>
	<polygon style="fill:#E6E7E8;" points="339.335,172.665 311.164,180.209 321.478,190.522 	"/>
	<polygon style="fill:#E6E7E8;" points="331.791,200.836 339.335,172.665 321.478,190.522 	"/>
</g>
<g>
	<path style="fill:#231F20;" d="M440.545,202.427L512,130.98L381.011,0l-71.439,71.455L297.668,59.55
		c-3.284-3.284-8.621-3.284-11.905,0L83.344,261.961c-9.868,9.859-9.868,25.856,0,35.723l0,0l23.81,23.81l-17.858,17.858
		c-9.868,9.859-9.876,25.856-0.008,35.723l0.008,0.008l5.953,5.953L0,476.285L35.715,512l95.257-95.24l5.953,5.953
		c9.859,9.868,25.856,9.868,35.723,0l0,0l17.858-17.858l23.81,23.81c9.859,9.868,25.856,9.868,35.723,0l0,0L452.45,226.246
		c3.284-3.284,3.284-8.621,0-11.905L440.545,202.427z M35.715,488.19L23.81,476.285l83.352-83.352l11.913,11.905L35.715,488.19z
		 M160.735,410.799c-3.326,3.182-8.579,3.182-11.905,0l0,0l-5.953-5.953l0,0l-41.676-41.668c-3.292-3.284-3.292-8.613-0.008-11.905
		l0.008-0.008l17.858-17.858l59.534,59.534L160.735,410.799z M381.011,23.827L488.173,130.98l-59.525,59.542l-107.17-107.17
		L381.011,23.827z M238.134,416.76c-3.284,3.292-8.613,3.292-11.905,0.008l-0.008-0.008L95.24,285.779
		c-3.292-3.284-3.292-8.613-0.008-11.905l0.008-0.008L291.715,77.408l142.877,142.885L238.134,416.76z"/>
	<path style="fill:#231F20;" d="M375.059,41.684l-35.723,35.723l35.723,35.715l35.723-35.715L375.059,41.684z M363.154,77.408
		l11.905-11.913l11.913,11.913l-11.913,11.905L363.154,77.408z"/>
	<path style="fill:#231F20;" d="M470.316,136.941l-35.723-35.723l-35.715,35.723l35.715,35.723L470.316,136.941z M434.592,125.028
		l11.905,11.913l-11.905,11.905l-11.905-11.905L434.592,125.028z"/>
	<path style="fill:#231F20;" d="M336.144,217.094l15.096-56.334l-56.343,15.096l14.675,14.667l-89.725,89.725v-33.475l22.269-22.269
		c0.985,0.185,1.987,0.286,2.989,0.295c9.303,0.034,16.864-7.485,16.898-16.78c0.034-9.295-7.485-16.864-16.78-16.898
		c-9.303-0.034-16.864,7.485-16.898,16.78c-0.008,1.92,0.312,3.831,0.951,5.641l-26.269,26.26v57.252l-12.545,12.545
		c-8.983-2.408-18.22,2.922-20.628,11.905c-2.408,8.983,2.922,18.22,11.905,20.628c8.983,2.408,18.22-2.922,20.628-11.905
		c0.766-2.854,0.766-5.86,0-8.722l29.384-29.35h59.02l24.5-24.492l6.205,6.205l23.818-23.81l-23.81-23.81l-23.827,23.81l5.7,5.7
		l-19.525,19.558h-35.244l72.887-72.887L336.144,217.094z"/>
</g>
<g>
</g>
<g>
</g>
<g>
</g>
<g>
</g>
<g>
</g>
<g>
</g>
<g>
</g>
<g>
</g>
<g>
</g>
<g>
</g>
<g>
</g>
<g>
</g>
<g>
</g>
<g>
</g>
<g>
</g>
</svg>
