<?xml version="1.0" encoding="iso-8859-1"?>
<!-- Generator: Adobe Illustrator 19.0.0, SVG Export Plug-In . SVG Version: 6.00 Build 0)  -->
<svg version="1.1" id="Capa_1" xmlns="http://www.w3.org/2000/svg" xmlns:xlink="http://www.w3.org/1999/xlink" x="0px" y="0px"
	 viewBox="0 0 512 512" style="enable-background:new 0 0 512 512;" xml:space="preserve">
<g>
	<path style="fill:#E6E7E8;" d="M128,503.467h256c28.279,0,51.2-22.921,51.2-51.2l0,0v-34.133H76.8v34.133
		C76.8,480.546,99.721,503.467,128,503.467L128,503.467z M238.933,443.733h34.133v34.133h-34.133V443.733z"/>
	<path style="fill:#E6E7E8;" d="M384,8.533H128c-28.279,0-51.2,22.921-51.2,51.2h358.4C435.2,31.454,412.279,8.533,384,8.533z"/>
</g>
<rect x="76.8" y="59.733" style="fill:#006DF0;" width="358.4" height="358.4"/>
<rect x="238.933" y="443.733" style="fill:#E6E7E8;" width="34.133" height="34.133"/>
<g>
	<path style="fill:#231F20;" d="M384,0H128C95.027,0.034,68.301,26.761,68.267,59.733v392.533
		C68.301,485.239,95.027,511.966,128,512h256c32.973-0.034,59.699-26.761,59.733-59.733V59.733C443.699,26.761,416.973,0.034,384,0z
		 M85.333,68.267h341.333V409.6H85.333V68.267z M128,17.067h256c20.267,0.026,37.734,14.285,41.813,34.133H86.187
		C90.266,31.351,107.733,17.092,128,17.067z M384,494.933H128c-23.552-0.026-42.641-19.115-42.667-42.667v-25.6h341.333v25.6
		C426.641,475.819,407.552,494.908,384,494.933z"/>
	<path style="fill:#231F20;" d="M273.067,435.2h-34.133c-4.71,0-8.533,3.823-8.533,8.533v34.133c0,4.71,3.823,8.533,8.533,8.533
		h34.133c4.71,0,8.533-3.823,8.533-8.533v-34.133C281.6,439.023,277.777,435.2,273.067,435.2z M264.533,469.333h-17.067v-17.067
		h17.067V469.333z"/>
</g>
<g>
</g>
<g>
</g>
<g>
</g>
<g>
</g>
<g>
</g>
<g>
</g>
<g>
</g>
<g>
</g>
<g>
</g>
<g>
</g>
<g>
</g>
<g>
</g>
<g>
</g>
<g>
</g>
<g>
</g>
</svg>
