<?xml version="1.0" encoding="iso-8859-1"?>
<!-- Generator: Adobe Illustrator 19.0.0, SVG Export Plug-In . SVG Version: 6.00 Build 0)  -->
<svg version="1.1" id="Capa_1" xmlns="http://www.w3.org/2000/svg" xmlns:xlink="http://www.w3.org/1999/xlink" x="0px" y="0px"
	 viewBox="0 0 512 512" style="enable-background:new 0 0 512 512;" xml:space="preserve">
<g>
	<path style="fill:#414042;" d="M486.4,85.333H110.933v341.333H486.4c9.429,0,17.067-7.637,17.067-17.067V102.4
		C503.467,92.971,495.829,85.333,486.4,85.333z M477.867,401.067H136.533V110.933h341.333V401.067z"/>
	<path style="fill:#414042;" d="M25.6,85.333c-9.429,0-17.067,7.637-17.067,17.067v307.2c0,9.429,7.637,17.067,17.067,17.067h85.333
		V85.333H25.6z M59.733,281.6c-14.14,0-25.6-11.46-25.6-25.6c0-14.14,11.46-25.6,25.6-25.6s25.6,11.46,25.6,25.6
		C85.333,270.14,73.873,281.6,59.733,281.6z"/>
	<circle style="fill:#414042;" cx="59.733" cy="256" r="25.6"/>
</g>
<path style="fill:#6D6E71;" d="M136.533,401.067h341.333V110.933H136.533V401.067z M221.687,317.372l181.018-181.018l24.141,24.141
	L245.828,341.513l-60.339,36.198L221.687,317.372z"/>
<g>
	
		<rect x="196.264" y="221.858" transform="matrix(-0.7071 0.7071 -0.7071 -0.7071 722.4974 178.5814)" style="fill:#414042;" width="255.998" height="34.133"/>
	<polygon style="fill:#414042;" points="221.687,317.372 185.489,377.711 245.828,341.513 	"/>
</g>
<g>
	<path style="fill:#231F20;" d="M486.4,76.8H25.6C11.46,76.8,0,88.26,0,102.4v307.2c0,14.14,11.46,25.6,25.6,25.6h460.8
		c14.14,0,25.6-11.46,25.6-25.6V102.4C512,88.26,500.54,76.8,486.4,76.8z M25.6,418.133c-4.71,0-8.533-3.823-8.533-8.533V102.4
		c0-4.71,3.823-8.533,8.533-8.533h76.8v324.267H25.6z M494.933,409.6c0,4.71-3.823,8.533-8.533,8.533H119.467V93.867H486.4
		c4.71,0,8.533,3.823,8.533,8.533V409.6z"/>
	<path style="fill:#231F20;" d="M59.733,221.867C40.883,221.867,25.6,237.15,25.6,256c0,18.85,15.283,34.133,34.133,34.133
		S93.867,274.85,93.867,256C93.867,237.15,78.583,221.867,59.733,221.867z M59.733,273.067c-9.429,0-17.067-7.637-17.067-17.067
		c0-9.429,7.637-17.067,17.067-17.067S76.8,246.571,76.8,256C76.8,265.429,69.163,273.067,59.733,273.067z"/>
	<path style="fill:#231F20;" d="M477.867,102.4H136.533c-4.71,0-8.533,3.823-8.533,8.533v290.133c0,4.71,3.823,8.533,8.533,8.533
		h341.333c4.71,0,8.533-3.823,8.533-8.533V110.933C486.4,106.223,482.577,102.4,477.867,102.4z M469.333,392.533H145.067V119.467
		h324.267V392.533z"/>
	<path style="fill:#231F20;" d="M185.481,386.253c1.545,0,3.063-0.418,4.395-1.22l60.339-36.207
		c0.256-0.154,0.393-0.427,0.631-0.597c0.35-0.205,0.691-0.435,1.015-0.683l181.018-181.018c3.328-3.328,3.328-8.738,0-12.066
		l-24.132-24.141c-3.328-3.328-8.738-3.328-12.066,0L215.654,311.339c-0.239,0.316-0.461,0.649-0.657,0.998
		c-0.188,0.247-0.469,0.384-0.623,0.649l-36.207,60.339c-2.423,4.036-1.118,9.284,2.918,11.708
		C182.417,385.835,183.936,386.253,185.481,386.253z M402.705,148.42l12.066,12.075l-168.96,168.96l-12.066-12.075L402.705,148.42z
		 M223.386,331.136l8.721,8.678l-21.7,13.022L223.386,331.136z"/>
	<path style="fill:#231F20;" d="M42.667,204.8c4.71,0,8.533-3.823,8.533-8.533v-34.133c0-4.71-3.823-8.533-8.533-8.533
		s-8.533,3.823-8.533,8.533v34.133C34.133,200.977,37.956,204.8,42.667,204.8z"/>
	<path style="fill:#231F20;" d="M76.8,204.8c4.71,0,8.533-3.823,8.533-8.533v-34.133c0-4.71-3.823-8.533-8.533-8.533
		s-8.533,3.823-8.533,8.533v34.133C68.267,200.977,72.09,204.8,76.8,204.8z"/>
	<path style="fill:#231F20;" d="M42.667,315.733c-4.71,0-8.533,3.823-8.533,8.533V358.4c0,4.71,3.823,8.533,8.533,8.533
		S51.2,363.11,51.2,358.4v-34.133C51.2,319.556,47.377,315.733,42.667,315.733z"/>
	<path style="fill:#231F20;" d="M76.8,315.733c-4.71,0-8.533,3.823-8.533,8.533V358.4c0,4.71,3.823,8.533,8.533,8.533
		s8.533-3.823,8.533-8.533v-34.133C85.333,319.556,81.51,315.733,76.8,315.733z"/>
</g>
<g>
</g>
<g>
</g>
<g>
</g>
<g>
</g>
<g>
</g>
<g>
</g>
<g>
</g>
<g>
</g>
<g>
</g>
<g>
</g>
<g>
</g>
<g>
</g>
<g>
</g>
<g>
</g>
<g>
</g>
</svg>
