<?xml version="1.0" encoding="iso-8859-1"?>
<!-- Generator: Adobe Illustrator 19.0.0, SVG Export Plug-In . SVG Version: 6.00 Build 0)  -->
<svg version="1.1" id="Capa_1" xmlns="http://www.w3.org/2000/svg" xmlns:xlink="http://www.w3.org/1999/xlink" x="0px" y="0px"
	 viewBox="0 0 512 512" style="enable-background:new 0 0 512 512;" xml:space="preserve">
<path style="fill:#FFE26E;" d="M179.2,384h153.6c28.279,0,51.2-22.921,51.2-51.2V179.2c0-28.279-22.921-51.2-51.2-51.2H179.2
	c-28.279,0-51.2,22.921-51.2,51.2v153.6C128,361.079,150.921,384,179.2,384z M256,256L256,256L256,256z"/>
<g>
	<polygon style="fill:#E6E7E8;" points="324.267,8.533 187.733,8.533 179.2,128 332.8,128 	"/>
	<polygon style="fill:#E6E7E8;" points="187.733,503.467 324.267,503.467 332.8,384 179.2,384 	"/>
</g>
<g>
	<path style="fill:#231F20;" d="M340.787,120.064L332.211,0H179.789l-8.533,120.064c-29.628,3.977-51.755,29.244-51.789,59.136
		v153.6c0.034,29.884,22.135,55.142,51.746,59.136L179.746,512h152.465l8.576-120.064c29.611-3.994,51.712-29.252,51.746-59.136
		V179.2C392.499,149.316,370.398,124.058,340.787,120.064z M195.678,17.067h120.644l7.313,102.4h-135.27L195.678,17.067z
		 M316.322,494.933H195.678l-7.313-102.4h135.27L316.322,494.933z M375.467,332.8c-0.026,23.552-19.115,42.641-42.667,42.667H179.2
		c-23.552-0.026-42.641-19.115-42.667-42.667V179.2c0.026-23.552,19.115-42.641,42.667-42.667h153.6
		c23.552,0.026,42.641,19.115,42.667,42.667V332.8z"/>
	<polygon style="fill:#231F20;" points="247.467,247.467 187.733,247.467 187.733,264.533 264.533,264.533 264.533,153.6 
		247.467,153.6 	"/>
</g>
<g>
</g>
<g>
</g>
<g>
</g>
<g>
</g>
<g>
</g>
<g>
</g>
<g>
</g>
<g>
</g>
<g>
</g>
<g>
</g>
<g>
</g>
<g>
</g>
<g>
</g>
<g>
</g>
<g>
</g>
</svg>
