<?xml version="1.0" encoding="iso-8859-1"?>
<!-- Generator: Adobe Illustrator 19.0.0, SVG Export Plug-In . SVG Version: 6.00 Build 0)  -->
<svg version="1.1" id="Capa_1" xmlns="http://www.w3.org/2000/svg" xmlns:xlink="http://www.w3.org/1999/xlink" x="0px" y="0px"
	 viewBox="0 0 512 512" style="enable-background:new 0 0 512 512;" xml:space="preserve">
<path style="fill:#E6E7E8;" d="M401.067,503.467c18.85,0,34.133-15.283,34.133-34.133V93.867L349.867,8.533H110.933
	c-18.85,0-34.133,15.283-34.133,34.133v426.667c0,18.85,15.283,34.133,34.133,34.133H401.067z M153.6,384V264.533h204.8V435.2H153.6
	V384z"/>
<g>
	<path style="fill:#FFAF46;" d="M256,315.733h-51.2c18.85,0,34.133,15.283,34.133,34.133c0,18.85-15.283,34.133-34.133,34.133h102.4
		v51.2h51.2V315.733H256z"/>
	<rect x="153.6" y="384" style="fill:#FFAF46;" width="51.2" height="51.2"/>
	<rect x="204.8" y="384" style="fill:#FFAF46;" width="51.2" height="51.2"/>
	<rect x="256" y="384" style="fill:#FFAF46;" width="51.2" height="51.2"/>
	<rect x="153.6" y="264.533" style="fill:#FFAF46;" width="51.2" height="51.2"/>
	<rect x="204.8" y="264.533" style="fill:#FFAF46;" width="51.2" height="51.2"/>
	<rect x="256" y="264.533" style="fill:#FFAF46;" width="51.2" height="51.2"/>
	<rect x="307.2" y="264.533" style="fill:#FFAF46;" width="51.2" height="51.2"/>
	<path style="fill:#FFAF46;" d="M238.933,349.867c0-18.85-15.283-34.133-34.133-34.133h-51.2V384h51.2
		C223.65,384,238.933,368.717,238.933,349.867z"/>
</g>
<g>
	<path style="fill:#231F20;" d="M401.067,512H110.933c-23.552-0.026-42.641-19.115-42.667-42.667V42.667
		C68.292,19.115,87.381,0.026,110.933,0h238.933c2.261,0,4.437,0.896,6.033,2.5l85.333,85.333c1.604,1.596,2.5,3.772,2.5,6.033
		v375.467C443.708,492.885,424.619,511.974,401.067,512z M110.933,17.067c-14.14,0-25.6,11.46-25.6,25.6v426.667
		c0,14.14,11.46,25.6,25.6,25.6h290.133c14.14,0,25.6-11.46,25.6-25.6V97.399l-80.333-80.333H110.933z"/>
	<path style="fill:#231F20;" d="M358.4,256H153.6c-4.71,0-8.533,3.823-8.533,8.533V435.2c0,4.71,3.823,8.533,8.533,8.533h204.8
		c4.71,0,8.533-3.823,8.533-8.533V264.533C366.933,259.823,363.11,256,358.4,256z M349.867,307.2h-34.133v-34.133h34.133V307.2z
		 M298.667,307.2h-34.133v-34.133h34.133V307.2z M247.467,307.2h-34.133v-34.133h34.133V307.2z M230.4,349.867
		c0,14.14-11.46,25.6-25.6,25.6h-42.667v-51.2H204.8C218.94,324.267,230.4,335.727,230.4,349.867z M162.133,273.067h34.133V307.2
		h-34.133V273.067z M162.133,392.533h34.133v34.133h-34.133V392.533z M213.333,392.533h34.133v34.133h-34.133V392.533z
		 M264.533,426.667v-34.133h34.133v34.133H264.533z M315.733,426.667V384c0-4.71-3.823-8.533-8.533-8.533h-68.489
		c11.674-15.07,11.674-36.13,0-51.2h111.155v102.4H315.733z"/>
</g>
<g>
</g>
<g>
</g>
<g>
</g>
<g>
</g>
<g>
</g>
<g>
</g>
<g>
</g>
<g>
</g>
<g>
</g>
<g>
</g>
<g>
</g>
<g>
</g>
<g>
</g>
<g>
</g>
<g>
</g>
</svg>
