<?xml version="1.0" encoding="iso-8859-1"?>
<!-- Generator: Adobe Illustrator 19.0.0, SVG Export Plug-In . SVG Version: 6.00 Build 0)  -->
<svg version="1.1" id="Capa_1" xmlns="http://www.w3.org/2000/svg" xmlns:xlink="http://www.w3.org/1999/xlink" x="0px" y="0px"
	 viewBox="0 0 512 512" style="enable-background:new 0 0 512 512;" xml:space="preserve">
<path style="fill:#414042;" d="M76.8,204.8v281.6c0,9.429,7.637,17.067,17.067,17.067h324.267c9.429,0,17.067-7.637,17.067-17.067
	V187.734h-17.067V153.6H435.2v-35.601c0-4.523-1.801-8.866-5.001-12.066l-92.399-92.399c-3.2-3.2-7.543-5.001-12.066-5.001H93.867
	C84.437,8.534,76.8,16.171,76.8,25.6v93.867h17.067V204.8H76.8z M110.933,230.4h290.133v238.933H110.933V230.4z"/>
<g>
	<path style="fill:#58595B;" d="M401.067,230.4H110.933v238.933h290.133V230.4z M230.4,384c18.85,0,34.133,11.46,34.133,25.6
		c0,14.14-15.283,25.6-34.133,25.6s-34.133-11.46-34.133-25.6c0,14.14,15.283,25.6,34.133,25.6s34.133-11.46,34.133-25.6
		C264.533,395.46,249.25,384,230.4,384s-34.133-11.46-34.133-25.6c0-14.14,15.283-25.6,34.133-25.6s34.133,11.46,34.133,25.6
		c0-14.14-15.283-25.6-34.133-25.6s-34.133,11.46-34.133,25.6C196.267,372.54,211.55,384,230.4,384z M315.733,435.2h-17.067V332.8
		h17.067c28.279,0,51.2,22.921,51.2,51.2C366.933,412.28,344.013,435.2,315.733,435.2z"/>
	<path style="fill:#58595B;" d="M315.733,332.8h-17.067v102.4h17.067c28.279,0,51.2-22.921,51.2-51.2
		C366.933,355.721,344.013,332.8,315.733,332.8z"/>
</g>
<g>
	<path style="fill:#231F20;" d="M418.133,512H93.867c-14.14,0-25.6-11.46-25.6-25.6V196.267h17.067V128H68.267V25.6
		c0-14.14,11.46-25.6,25.6-25.6h231.859c6.793-0.026,13.321,2.679,18.108,7.501L436.233,99.9c4.821,4.787,7.526,11.315,7.501,18.108
		v44.126h-17.067V179.2h17.067v307.2C443.733,500.54,432.273,512,418.133,512z M85.333,213.334V486.4
		c0,4.71,3.823,8.533,8.533,8.533h324.267c4.71,0,8.533-3.823,8.533-8.533V196.267H409.6v-51.2h17.067v-27.059
		c0-2.27-0.896-4.437-2.5-6.042l-92.399-92.399c-1.604-1.604-3.772-2.5-6.042-2.5H93.867c-4.71,0-8.533,3.823-8.533,8.533v85.333
		H102.4v102.4H85.333z"/>
	<path style="fill:#231F20;" d="M409.6,477.867H102.4v-256h307.2V477.867z M119.467,460.8h273.067V238.934H119.467V460.8z"/>
	<path style="fill:#231F20;" d="M315.733,443.734h-25.6V324.267h25.6c32.99,0,59.733,26.743,59.733,59.733
		S348.723,443.734,315.733,443.734z M307.2,426.667h8.533c23.561,0,42.667-19.106,42.667-42.667s-19.106-42.667-42.667-42.667H307.2
		V426.667z"/>
	<path style="fill:#231F20;" d="M230.4,375.467c-13.875,0-25.6-7.817-25.6-17.067c0-9.25,11.725-17.067,25.6-17.067
		S256,349.15,256,358.4h17.067c0-18.825-19.14-34.133-42.667-34.133s-42.667,15.309-42.667,34.133
		c0,18.825,19.14,34.133,42.667,34.133c13.875,0,25.6,7.817,25.6,17.067c0,9.25-11.725,17.067-25.6,17.067s-25.6-7.817-25.6-17.067
		h-17.067c0,18.825,19.14,34.133,42.667,34.133s42.667-15.309,42.667-34.133C273.067,390.776,253.926,375.467,230.4,375.467z"/>
</g>
<g>
</g>
<g>
</g>
<g>
</g>
<g>
</g>
<g>
</g>
<g>
</g>
<g>
</g>
<g>
</g>
<g>
</g>
<g>
</g>
<g>
</g>
<g>
</g>
<g>
</g>
<g>
</g>
<g>
</g>
</svg>
