<?xml version="1.0" encoding="iso-8859-1"?>
<!-- Generator: Adobe Illustrator 19.0.0, SVG Export Plug-In . SVG Version: 6.00 Build 0)  -->
<svg version="1.1" id="Capa_1" xmlns="http://www.w3.org/2000/svg" xmlns:xlink="http://www.w3.org/1999/xlink" x="0px" y="0px"
	 viewBox="0 0 512 512" style="enable-background:new 0 0 512 512;" xml:space="preserve">
<path style="fill:#414042;" d="M76.8,187.734V486.4c0,9.429,7.637,17.067,17.067,17.067h324.267c9.429,0,17.067-7.637,17.067-17.067
	V204.8h-17.067v-85.333H435.2V25.6c0-9.429-7.637-17.067-17.067-17.067h-17.067v85.333H384V8.534h-34.133v85.333H332.8V8.534
	h-34.133v85.333H281.6V8.534h-34.133v85.333H230.4V8.534h-44.134c-4.523,0-8.866,1.801-12.066,5.001l-92.399,92.399
	c-3.2,3.2-5.001,7.543-5.001,12.066V153.6h17.067v34.133H76.8z M332.8,384v-51.2h42.667c14.14,0,25.6,11.46,25.6,25.6
	c0,14.14-11.46,25.6-25.6,25.6c14.14,0,25.6,11.46,25.6,25.6c0,14.14-11.46,25.6-25.6,25.6H332.8V384z M247.467,332.8
	c18.304-0.009,35.226,9.745,44.373,25.6c-14.106-24.55-45.44-33.024-69.99-18.927c-24.55,14.097-33.024,45.44-18.927,69.99
	c14.106,24.55,45.44,33.024,69.99,18.927c13.269-7.62,22.443-20.77,25.011-35.857l0,0c0.486-2.816,0.734-5.675,0.742-8.533
	c-0.017,2.859-0.273,5.717-0.768,8.533l0,0c-4.71,27.878-31.138,46.66-59.017,41.95s-46.66-31.138-41.95-59.017
	C201.097,350.814,222.464,332.775,247.467,332.8z M179.2,42.667h17.067V128H179.2V42.667z"/>
<g>
	<rect x="281.6" y="8.534" style="fill:#FF9811;" width="17.067" height="85.333"/>
	<rect x="332.8" y="8.534" style="fill:#FF9811;" width="17.067" height="85.333"/>
	<rect x="384" y="8.534" style="fill:#FF9811;" width="17.067" height="85.333"/>
	<rect x="230.4" y="8.534" style="fill:#FF9811;" width="17.067" height="85.333"/>
	<rect x="179.2" y="42.667" style="fill:#FF9811;" width="17.067" height="85.333"/>
</g>
<g>
	<path style="fill:#414042;" d="M401.067,358.4c0-14.14-11.46-25.6-25.6-25.6H332.8V384h42.667
		C389.607,384,401.067,372.54,401.067,358.4z"/>
	<path style="fill:#414042;" d="M401.067,409.6c0-14.14-11.46-25.6-25.6-25.6H332.8v51.2h42.667
		C389.607,435.2,401.067,423.74,401.067,409.6z"/>
</g>
<g>
	<rect x="273.067" y="0" style="fill:#FFAF46;" width="34.133" height="102.4"/>
	<rect x="324.267" y="0" style="fill:#FFAF46;" width="34.133" height="102.4"/>
	<rect x="375.467" y="0" style="fill:#FFAF46;" width="34.133" height="102.4"/>
	<rect x="221.867" y="0" style="fill:#FFAF46;" width="34.133" height="102.4"/>
	<rect x="170.667" y="34.134" style="fill:#FFAF46;" width="34.133" height="102.4"/>
</g>
<g>
	<path style="fill:#231F20;" d="M418.134,512H93.867c-14.14,0-25.6-11.46-25.6-25.6V179.2h17.067v-17.067H68.267v-44.126
		c-0.026-6.793,2.679-13.321,7.501-18.108l92.399-92.399C172.954,2.68,179.482-0.025,186.274,0h231.859
		c14.14,0,25.6,11.46,25.6,25.6V128h-17.067v68.267h17.067V486.4C443.734,500.54,432.273,512,418.134,512z M85.334,196.267V486.4
		c0,4.71,3.823,8.533,8.533,8.533h324.267c4.71,0,8.533-3.823,8.533-8.533V213.334H409.6v-102.4h17.067V25.6
		c0-4.71-3.823-8.533-8.533-8.533H186.274c-2.27,0-4.437,0.896-6.042,2.5l-92.399,92.399c-1.604,1.604-2.5,3.772-2.5,6.042v27.059
		H102.4v51.2H85.334z"/>
	<path style="fill:#231F20;" d="M397.807,384c14.217-12.254,15.812-33.715,3.558-47.932c-6.494-7.535-15.957-11.844-25.899-11.802
		h-51.2v119.467h51.2c18.773,0.085,34.057-15.07,34.142-33.835C409.651,399.958,405.342,390.494,397.807,384z M341.334,341.334
		h34.133c9.429,0,17.067,7.637,17.067,17.067c0,9.429-7.637,17.067-17.067,17.067h-34.133V341.334z M375.467,426.667h-34.133
		v-34.133h34.133c9.429,0,17.067,7.637,17.067,17.067C392.534,419.03,384.896,426.667,375.467,426.667z"/>
	<path style="fill:#231F20;" d="M247.467,384v17.067h39.049c-9.464,21.538-34.594,31.326-56.132,21.871
		s-31.326-34.594-21.871-56.132c9.463-21.538,34.594-31.326,56.132-21.871c8.311,3.652,15.241,9.865,19.78,17.732l14.771-8.533
		c-16.495-28.57-53.026-38.357-81.596-21.862c-28.57,16.495-38.357,53.026-21.862,81.596c16.495,28.57,53.026,38.357,81.596,21.862
		C295.817,425.063,307.2,405.342,307.2,384H247.467z"/>
	<rect x="187.734" y="460.8" style="fill:#231F20;" width="221.867" height="17.067"/>
</g>
<g>
</g>
<g>
</g>
<g>
</g>
<g>
</g>
<g>
</g>
<g>
</g>
<g>
</g>
<g>
</g>
<g>
</g>
<g>
</g>
<g>
</g>
<g>
</g>
<g>
</g>
<g>
</g>
<g>
</g>
</svg>
