<?xml version="1.0" encoding="iso-8859-1"?>
<!-- Generator: Adobe Illustrator 19.0.0, SVG Export Plug-In . SVG Version: 6.00 Build 0)  -->
<svg version="1.1" id="Capa_1" xmlns="http://www.w3.org/2000/svg" xmlns:xlink="http://www.w3.org/1999/xlink" x="0px" y="0px"
	 viewBox="0 0 512.004 512.004" style="enable-background:new 0 0 512.004 512.004;" xml:space="preserve">
<g>
	<path style="fill:#FFAF46;" d="M107.794,434.089l0.73,0.195L107.794,434.089z"/>
	<path style="fill:#FFAF46;" d="M112.905,435.142c1.409,0.204,2.818,0.331,4.245,0.399
		C115.715,435.473,114.306,435.346,112.905,435.142z"/>
	<path style="fill:#FFAF46;" d="M112.489,435.082l0.407,0.059L112.489,435.082z"/>
	<path style="fill:#FFAF46;" d="M103.1,432.536c0.391,0.161,0.781,0.323,1.172,0.467C103.881,432.841,103.49,432.68,103.1,432.536z"
		/>
	<path style="fill:#FFAF46;" d="M100.137,431.228c0.976,0.484,1.97,0.891,2.963,1.29
		C102.098,432.128,101.105,431.687,100.137,431.228z"/>
	<path style="fill:#FFAF46;" d="M98.448,430.32c0.569,0.306,1.121,0.628,1.698,0.908C99.568,430.948,99.008,430.634,98.448,430.32z"
		/>
	<path style="fill:#FFAF46;" d="M121.598,435.498c-1.375,0.076-2.751,0.102-4.109,0.051
		C118.856,435.592,120.223,435.583,121.598,435.498z"/>
	<path style="fill:#FFAF46;" d="M104.271,432.986c1.163,0.424,2.335,0.781,3.523,1.104
		C106.606,433.775,105.426,433.385,104.271,432.986z"/>
	<path style="fill:#FFAF46;" d="M76.52,393.688c0-1.239,0-2.487,0.119-3.744C76.545,391.193,76.511,392.441,76.52,393.688z"/>
	<path style="fill:#FFAF46;" d="M92.31,426.279c-1.273-1.019-2.487-2.105-3.633-3.268c-1.146-1.163-2.216-2.385-3.217-3.667
		c1.002,1.282,2.071,2.513,3.217,3.676C89.822,424.182,91.028,425.269,92.31,426.279z"/>
	<path style="fill:#FFAF46;" d="M76.545,394.741v-1.053V394.741z"/>
	<path style="fill:#FFAF46;" d="M92.31,426.279c0.484,0.391,0.993,0.713,1.486,1.078C93.303,426.992,92.794,426.661,92.31,426.279z"
		/>
	<path style="fill:#FFAF46;" d="M77.572,402.619c0.127,0.569,0.28,1.129,0.433,1.698C77.853,403.748,77.683,403.188,77.572,402.619z
		"/>
	<path style="fill:#FFAF46;" d="M78.005,404.309c0.246,0.908,0.501,1.808,0.849,2.7C78.532,406.125,78.243,405.217,78.005,404.309z"
		/>
	<path style="fill:#FFAF46;" d="M78.812,407.008c0.221,0.654,0.475,1.282,0.73,1.919C79.287,408.29,79.033,407.653,78.812,407.008z"
		/>
	<path style="fill:#FFAF46;" d="M76.545,394.741c0.042,1.146,0.127,2.284,0.263,3.396C76.681,397.033,76.588,395.887,76.545,394.741
		z"/>
	<path style="fill:#FFAF46;" d="M77.004,399.555c0.153,1.027,0.34,2.046,0.569,3.065C77.343,401.609,77.156,400.59,77.004,399.555z"
		/>
	<path style="fill:#FFAF46;" d="M79.542,408.927c0.314,0.798,0.628,1.596,1.002,2.377C80.179,410.523,79.856,409.725,79.542,408.927
		z"/>
	<path style="fill:#FFAF46;" d="M76.834,398.171c0.059,0.467,0.127,0.925,0.195,1.384C76.927,399.096,76.834,398.638,76.834,398.171
		z"/>
	<path style="fill:#FFAF46;" d="M93.812,427.357c0.773,0.569,1.537,1.138,2.343,1.647C95.341,428.495,94.568,427.926,93.812,427.357
		z"/>
	<path style="fill:#FFAF46;" d="M84.474,417.892c0.34,0.475,0.654,0.976,1.019,1.452C85.094,418.868,84.78,418.367,84.474,417.892z"
		/>
	<path style="fill:#FFAF46;" d="M80.544,411.312c0.34,0.722,0.722,1.418,1.104,2.122C81.265,412.722,80.883,412.017,80.544,411.312z
		"/>
	<path style="fill:#FFAF46;" d="M96.139,429.004c0.756,0.475,1.537,0.891,2.309,1.316C97.675,429.895,96.894,429.479,96.139,429.004
		z"/>
	<path style="fill:#FFAF46;" d="M82.776,415.43c0.518,0.849,1.104,1.647,1.698,2.462C83.854,417.077,83.277,416.27,82.776,415.43z"
		/>
	<path style="fill:#FFAF46;" d="M81.647,413.426c0.365,0.671,0.713,1.35,1.112,2.003C82.36,414.776,82.012,414.097,81.647,413.426z"
		/>
	<path style="fill:#FFAF46;" d="M108.524,434.284c1.316,0.331,2.64,0.594,3.973,0.798
		C111.156,434.879,109.832,434.616,108.524,434.284z"/>
</g>
<g>
	<path style="fill:#006DF0;" d="M488.49,95.458c19.729-20.052,19.466-52.303-0.586-72.032c-19.823-19.5-51.624-19.5-71.446,0
		L392.45,47.434l72.032,72.032L488.49,95.458z"/>
	<path style="fill:#006DF0;" d="M230.372,353.585l96.524-96.524l5.527-5.527l132.06-132.069L392.45,47.434l-132.069,132.06
		l-102.05,102.05L230.372,353.585z M350.428,137.48c6.749-6.511,17.497-6.325,24.008,0.416c6.358,6.579,6.358,17.013,0,23.592
		l-132.06,132.06c-6.511,6.749-17.259,6.936-24.008,0.416c-6.749-6.511-6.936-17.259-0.416-24.008
		c0.136-0.144,0.28-0.28,0.416-0.416L350.428,137.48z"/>
</g>
<g>
	
		<rect x="299.067" y="277.617" transform="matrix(-0.7071 0.7071 -0.7071 -0.7071 890.2675 254.3871)" style="fill:#96C9EF;" width="186.763" height="67.914"/>
	<polygon style="fill:#96C9EF;" points="242.376,29.428 110.316,161.488 158.34,209.512 224.37,143.482 290.4,77.452 	"/>
	<path style="fill:#96C9EF;" d="M218.368,293.548c6.63,6.63,17.378,6.63,24.008,0l132.06-132.06
		c6.511-6.749,6.325-17.497-0.416-24.008c-6.579-6.359-17.013-6.359-23.592,0l-132.06,132.06
		C211.738,276.171,211.738,286.918,218.368,293.548z"/>
</g>
<path style="fill:#398DF3;" d="M116.318,359.587L116.318,359.587l54.026,54.026c19.891-19.89,19.891-52.15,0-72.04
	c-19.891-19.891-52.15-19.891-72.04,0L116.318,359.587z"/>
<g>
	<path style="fill:#231F20;" d="M118.975,512.004h-0.942C52.495,511.605-0.309,458.156,0.09,392.627
		c0.017-3.184,0.17-6.367,0.441-9.542c0.306-4.593,4.27-8.065,8.863-7.759c0.11,0.009,0.212,0.017,0.314,0.025
		c4.652,0.416,8.099,4.516,7.7,9.177c-4.864,55.953,36.555,105.251,92.508,110.115c2.742,0.238,5.493,0.365,8.243,0.382
		c2.598,0,5.331-0.076,8.014-0.272c4.669-0.45,8.82,2.963,9.27,7.632c0.45,4.669-2.963,8.82-7.632,9.27
		c-0.127,0.008-0.255,0.025-0.382,0.025C124.603,511.894,121.776,512.004,118.975,512.004z"/>
	<path style="fill:#231F20;" d="M123.474,426.848c-0.696,0.102-1.401,0.119-2.105,0.17c-4.907,0.314-9.822-0.399-14.432-2.097
		l-0.195-0.076c-2.165-0.815-4.236-1.859-6.189-3.107c-0.161-0.102-0.314-0.229-0.475-0.331c-1.919-1.256-3.701-2.717-5.323-4.338
		l0,0l-0.102-0.127c-1.749-1.8-3.285-3.795-4.584-5.943c-0.424-0.705-0.696-1.477-1.07-2.207c-0.815-1.477-1.511-3.014-2.105-4.593
		c-0.365-1.078-0.535-2.199-0.798-3.311c-0.34-1.299-0.611-2.615-0.798-3.939c-0.11-1.341-0.136-2.691-0.093-4.032
		c-0.068-1.596-0.017-3.192,0.144-4.78c0.747-4.627-2.411-8.982-7.038-9.729s-8.982,2.411-9.729,7.038
		c-0.008,0.059-0.017,0.127-0.025,0.187c-0.153,0.993-0.178,1.995-0.272,2.997c0,0.068-0.051,0.127-0.059,0.195
		c0,0.229,0,0.458,0,0.688c-0.093,1.35-0.136,2.691-0.127,4.032c0,0.628,0,1.256,0.059,1.885c0.051,1.172,0.136,2.335,0.263,3.498
		c0.102,0.849,0.229,1.698,0.374,2.547c0.144,0.849,0.314,1.885,0.518,2.81c0.238,1.07,0.535,2.122,0.849,3.175
		c0.204,0.713,0.399,1.426,0.637,2.122c0.416,1.239,0.908,2.445,1.418,3.642c0.229,0.526,0.424,1.053,0.662,1.571
		c0.611,1.307,1.307,2.547,2.037,3.846c0.221,0.391,0.416,0.798,0.654,1.189c0.849,1.35,1.74,2.649,2.7,3.922
		c0.204,0.272,0.374,0.56,0.577,0.849c1.197,1.537,2.479,2.997,3.846,4.389c3.566,3.616,7.657,6.673,12.14,9.058
		c7.454,3.99,15.782,6.087,24.237,6.087c0.484,0,0.976-0.076,1.469-0.093c0.679,0,1.35,0,2.029-0.068
		c0.119,0,0.212-0.076,0.323-0.085c0.976-0.076,1.944-0.068,2.92-0.195c4.652-0.628,7.912-4.907,7.284-9.55
		c-0.628-4.652-4.907-7.912-9.559-7.284l0,0L123.474,426.848z"/>
	<path style="fill:#231F20;" d="M123.771,460.898c-37.336,2.751-69.825-25.29-72.575-62.617c-0.263-3.616-0.246-7.258,0.076-10.875
		c0.407-4.669-3.039-8.786-7.717-9.202c-0.008,0-0.017,0-0.017,0c-4.584-0.467-8.685,2.869-9.152,7.454
		c-0.008,0.093-0.017,0.187-0.025,0.28c-4.058,46.623,30.443,87.712,77.066,91.77c2.479,0.212,4.958,0.323,7.445,0.323
		c2.029,0,4.075-0.076,6.112-0.229c4.686-0.195,8.32-4.151,8.124-8.837c-0.195-4.686-4.151-8.32-8.837-8.124
		c-0.17,0.008-0.331,0.017-0.501,0.034V460.898z"/>
	<path style="fill:#231F20;" d="M470.484,125.468l24.025-24.016c23.21-23.21,23.21-60.835,0-84.044s-60.835-23.21-84.044,0l0,0
		l-24.016,24.025L260.382,167.49l-24.008-24.008l60.028-60.028c3.311-3.319,3.311-8.693,0-12.004l-48.024-48.024
		c-3.311-3.311-8.693-3.311-12.004,0l-132.068,132.06c-3.311,3.311-3.311,8.693,0,12.004l48.033,48.024
		c3.311,3.311,8.693,3.311,12.004,0l60.028-60.028l24.008,24.008l-96.04,96.048c-3.311,3.311-3.311,8.693,0,12.004l30.01,30.018
		l-12.488,12.488c-23.643-17.658-56.658-15.306-77.559,5.518c-3.311,3.311-3.311,8.693,0,12.004l12.861,12.861
		c-9.576,16.002-4.364,36.742,11.647,46.318c10.68,6.384,23.999,6.384,34.67,0l12.861,12.861c3.311,3.311,8.693,3.311,12.004,0
		c20.841-20.892,23.193-53.924,5.518-77.559l12.488-12.488l30.018,30.01c3.311,3.311,8.693,3.311,12.004,0l96.048-96.04
		l24.008,24.008l-60.028,60.028c-3.311,3.311-3.311,8.693,0,12.004l48.024,48.033c3.311,3.311,8.693,3.311,12.004,0l132.06-132.068
		c3.311-3.311,3.311-8.693,0-12.004l-48.024-48.024c-3.37-3.184-8.634-3.184-12.004,0l-60.028,60.028l-24.008-24.008
		L470.484,125.468z M158.331,197.508l-36.029-36.02L242.376,41.432l36.02,36.02L158.331,197.508z M122.311,389.605
		c-4.245-4.296-5.9-10.518-4.33-16.35l20.68,20.68C132.829,395.505,126.598,393.858,122.311,389.605z M169.733,400.998
		l-58.814-58.814c19.559-12.921,45.893-7.547,58.814,12.012C179.105,368.39,179.105,386.812,169.733,400.998z M434.464,233.52
		l36.02,36.02L350.428,389.605l-36.02-36.02L434.464,233.52z M422.46,29.428c16.503-16.648,43.38-16.766,60.028-0.263
		c16.648,16.503,16.766,43.38,0.263,60.028c-0.085,0.085-0.178,0.178-0.263,0.263l-18.006,18.006l-60.028-60.028L422.46,29.428z
		 M230.372,341.572l-60.028-60.028L392.45,59.438l60.028,60.028L230.372,341.572z"/>
	<path style="fill:#231F20;" d="M380.455,167.49c9.949-9.95,9.941-26.079,0-36.02s-26.079-9.941-36.02,0l0,0L212.366,263.539
		c-10.119,9.771-10.399,25.892-0.628,36.012s25.892,10.399,36.012,0.628c0.212-0.204,0.424-0.416,0.628-0.628L380.455,167.49
		L380.455,167.49z M368.442,155.486l-132.069,132.06c-3.353,3.226-8.651,3.226-12.004,0c-3.311-3.311-3.311-8.685,0-11.995
		l132.06-132.069c3.311-3.319,8.693-3.319,12.012-0.008C371.753,146.793,371.753,152.175,368.442,155.486z"/>
</g>
<g>
</g>
<g>
</g>
<g>
</g>
<g>
</g>
<g>
</g>
<g>
</g>
<g>
</g>
<g>
</g>
<g>
</g>
<g>
</g>
<g>
</g>
<g>
</g>
<g>
</g>
<g>
</g>
<g>
</g>
</svg>
