<?xml version="1.0" encoding="iso-8859-1"?>
<!-- Generator: Adobe Illustrator 19.0.0, SVG Export Plug-In . SVG Version: 6.00 Build 0)  -->
<svg version="1.1" id="Capa_1" xmlns="http://www.w3.org/2000/svg" xmlns:xlink="http://www.w3.org/1999/xlink" x="0px" y="0px"
	 viewBox="0 0 512 512" style="enable-background:new 0 0 512 512;" xml:space="preserve">
<path style="fill:#64C37D;" d="M8.533,192c9.429,0,17.067,7.637,17.067,17.067c0,9.429-7.637,17.067-17.067,17.067v102.4h494.933
	v-102.4c-9.429,0-17.067-7.637-17.067-17.067c0-9.429,7.637-17.067,17.067-17.067v-34.133H8.533V192z M401.067,192h51.2v85.333
	h-51.2V192z M315.733,192h51.2v85.333h-51.2V192z M230.4,192h51.2v85.333h-51.2V192z M145.067,192h51.2v85.333h-51.2V192z
	 M59.733,192h51.2v85.333h-51.2V192z"/>
<g>
	<rect x="230.4" y="192" style="fill:#FFAF46;" width="51.2" height="85.333"/>
	<rect x="315.733" y="192" style="fill:#FFAF46;" width="51.2" height="85.333"/>
	<rect x="59.733" y="192" style="fill:#FFAF46;" width="51.2" height="85.333"/>
	<rect x="145.067" y="192" style="fill:#FFAF46;" width="51.2" height="85.333"/>
	<rect x="401.067" y="192" style="fill:#FFAF46;" width="51.2" height="85.333"/>
	<rect x="25.6" y="328.533" style="fill:#FFAF46;" width="153.6" height="25.6"/>
	<rect x="213.333" y="328.533" style="fill:#FFAF46;" width="273.067" height="25.6"/>
</g>
<g>
	<path style="fill:#231F20;" d="M503.467,200.533c4.71,0,8.533-3.823,8.533-8.533v-34.133c0-4.71-3.823-8.533-8.533-8.533H8.533
		c-4.71,0-8.533,3.823-8.533,8.533V192c0,4.71,3.823,8.533,8.533,8.533s8.533,3.823,8.533,8.533s-3.823,8.533-8.533,8.533
		S0,221.423,0,226.133v102.4c0,4.71,3.823,8.533,8.533,8.533h8.533v17.067c0,4.71,3.823,8.533,8.533,8.533h153.6
		c4.71,0,8.533-3.823,8.533-8.533v-17.067H204.8v17.067c0,4.71,3.823,8.533,8.533,8.533H486.4c4.71,0,8.533-3.823,8.533-8.533
		v-17.067h8.533c4.71,0,8.533-3.823,8.533-8.533v-102.4c0-4.71-3.823-8.533-8.533-8.533c-4.71,0-8.533-3.823-8.533-8.533
		S498.756,200.533,503.467,200.533z M170.667,345.6H34.133v-8.533h136.533V345.6z M477.867,345.6h-256v-8.533h256V345.6z
		 M494.933,184.926c-13.329,4.702-20.326,19.328-15.625,32.657c2.577,7.305,8.32,13.047,15.625,15.625V320H17.067v-86.793
		c0.29-0.102,0.546-0.256,0.853-0.367c0.478-0.188,0.93-0.401,1.391-0.623c0.947-0.444,1.86-0.939,2.748-1.493
		c0.418-0.256,0.853-0.512,1.237-0.794c1.007-0.717,1.963-1.502,2.859-2.355c0.188-0.179,0.401-0.333,0.58-0.512
		c1.041-1.058,1.997-2.193,2.842-3.413c0.23-0.341,0.427-0.717,0.649-1.067c0.589-0.93,1.109-1.894,1.57-2.893
		c0.213-0.469,0.401-0.939,0.589-1.425c0.384-0.998,0.708-2.031,0.956-3.072c0.119-0.469,0.256-0.922,0.341-1.399
		c0.631-3.098,0.631-6.289,0-9.387c-0.085-0.478-0.222-0.93-0.341-1.399c-0.247-1.041-0.572-2.074-0.956-3.072
		c-0.188-0.486-0.375-0.964-0.589-1.434c-0.461-0.99-0.99-1.954-1.57-2.884c-0.222-0.35-0.418-0.725-0.649-1.067
		c-0.845-1.22-1.801-2.355-2.842-3.413c-0.179-0.179-0.393-0.333-0.58-0.512c-0.896-0.853-1.852-1.638-2.859-2.355
		c-0.401-0.29-0.853-0.538-1.237-0.794c-0.887-0.555-1.801-1.05-2.748-1.493c-0.461-0.213-0.913-0.435-1.391-0.623
		c-0.282-0.111-0.538-0.265-0.853-0.367V166.4h477.867V184.926z"/>
	<path style="fill:#231F20;" d="M230.4,285.867h51.2c4.71,0,8.533-3.823,8.533-8.533V192c0-4.71-3.823-8.533-8.533-8.533h-51.2
		c-4.71,0-8.533,3.823-8.533,8.533v85.333C221.867,282.044,225.69,285.867,230.4,285.867z M238.933,200.533h34.133V268.8h-34.133
		V200.533z"/>
	<path style="fill:#231F20;" d="M315.733,285.867h51.2c4.71,0,8.533-3.823,8.533-8.533V192c0-4.71-3.823-8.533-8.533-8.533h-51.2
		c-4.71,0-8.533,3.823-8.533,8.533v85.333C307.2,282.044,311.023,285.867,315.733,285.867z M324.267,200.533H358.4V268.8h-34.133
		V200.533z"/>
	<path style="fill:#231F20;" d="M59.733,285.867h51.2c4.71,0,8.533-3.823,8.533-8.533V192c0-4.71-3.823-8.533-8.533-8.533h-51.2
		c-4.71,0-8.533,3.823-8.533,8.533v85.333C51.2,282.044,55.023,285.867,59.733,285.867z M68.267,200.533H102.4V268.8H68.267V200.533
		z"/>
	<path style="fill:#231F20;" d="M145.067,285.867h51.2c4.71,0,8.533-3.823,8.533-8.533V192c0-4.71-3.823-8.533-8.533-8.533h-51.2
		c-4.71,0-8.533,3.823-8.533,8.533v85.333C136.533,282.044,140.356,285.867,145.067,285.867z M153.6,200.533h34.133V268.8H153.6
		V200.533z"/>
	<path style="fill:#231F20;" d="M401.067,285.867h51.2c4.71,0,8.533-3.823,8.533-8.533V192c0-4.71-3.823-8.533-8.533-8.533h-51.2
		c-4.71,0-8.533,3.823-8.533,8.533v85.333C392.533,282.044,396.356,285.867,401.067,285.867z M409.6,200.533h34.133V268.8H409.6
		V200.533z"/>
</g>
<g>
</g>
<g>
</g>
<g>
</g>
<g>
</g>
<g>
</g>
<g>
</g>
<g>
</g>
<g>
</g>
<g>
</g>
<g>
</g>
<g>
</g>
<g>
</g>
<g>
</g>
<g>
</g>
<g>
</g>
</svg>
