<?xml version="1.0" encoding="iso-8859-1"?>
<!-- Generator: Adobe Illustrator 19.0.0, SVG Export Plug-In . SVG Version: 6.00 Build 0)  -->
<svg version="1.1" id="Capa_1" xmlns="http://www.w3.org/2000/svg" xmlns:xlink="http://www.w3.org/1999/xlink" x="0px" y="0px"
	 viewBox="0 0 512 512" style="enable-background:new 0 0 512 512;" xml:space="preserve">
<path style="fill:#006DF0;" d="M42.667,384H128v-51.2h256V384h85.333c18.85,0,34.133-15.283,34.133-34.133V213.333
	c0-18.85-15.283-34.133-34.133-34.133H42.667c-18.85,0-34.133,15.283-34.133,34.133v136.533C8.533,368.717,23.817,384,42.667,384z"
	/>
<g>
	<polygon style="fill:#E6E7E8;" points="384,8.533 179.2,8.533 179.2,59.733 128,59.733 128,179.2 384,179.2 	"/>
	<path style="fill:#E6E7E8;" d="M128,332.8v170.667h256V332.8H128z"/>
	<polygon style="fill:#E6E7E8;" points="179.2,8.533 128,59.733 179.2,59.733 	"/>
</g>
<g>
	<rect x="170.667" y="460.8" style="fill:#231F20;" width="170.667" height="17.067"/>
	<path style="fill:#231F20;" d="M469.333,170.667h-76.8V8.533C392.533,3.823,388.71,0,384,0H179.2
		c-0.171,0.026-0.341,0.06-0.503,0.102c-0.768,0.043-1.536,0.196-2.261,0.452c-0.256,0.077-0.503,0.162-0.751,0.265
		c-0.956,0.401-1.818,0.981-2.56,1.707l-51.2,51.2c-0.717,0.725-1.289,1.57-1.707,2.5c-0.119,0.265-0.188,0.529-0.282,0.802
		c-0.247,0.708-0.393,1.442-0.435,2.193c0,0.188-0.111,0.35-0.111,0.538v110.908H42.667C19.115,170.692,0.026,189.781,0,213.333
		v136.533c0.026,23.552,19.115,42.641,42.667,42.667h76.8v110.933c0,4.71,3.823,8.533,8.533,8.533h256
		c4.71,0,8.533-3.823,8.533-8.533V392.533h76.8c23.552-0.026,42.641-19.115,42.667-42.667V213.333
		C511.974,189.781,492.885,170.692,469.333,170.667z M170.667,29.133V51.2h-22.067L170.667,29.133z M136.533,68.267H179.2
		c4.71,0,8.533-3.823,8.533-8.533V17.067h187.733v153.6H136.533V68.267z M375.467,494.933H136.533v-153.6h238.933V494.933z
		 M494.933,349.867c0,14.14-11.46,25.6-25.6,25.6h-76.8v-34.133h25.6c4.71,0,8.533-3.823,8.533-8.533s-3.823-8.533-8.533-8.533
		H93.867c-4.71,0-8.533,3.823-8.533,8.533s3.823,8.533,8.533,8.533h25.6v34.133h-76.8c-14.14,0-25.6-11.46-25.6-25.6V213.333
		c0-14.14,11.46-25.6,25.6-25.6h426.667c14.14,0,25.6,11.46,25.6,25.6V349.867z"/>
	<rect x="426.667" y="204.8" style="fill:#231F20;" width="17.067" height="17.067"/>
	<rect x="460.8" y="204.8" style="fill:#231F20;" width="17.067" height="17.067"/>
	<rect x="170.667" y="358.4" style="fill:#231F20;" width="170.667" height="17.067"/>
	<rect x="170.667" y="392.533" style="fill:#231F20;" width="170.667" height="17.067"/>
	<rect x="170.667" y="426.667" style="fill:#231F20;" width="170.667" height="17.067"/>
	<rect x="392.533" y="204.8" style="fill:#231F20;" width="17.067" height="17.067"/>
</g>
<g>
</g>
<g>
</g>
<g>
</g>
<g>
</g>
<g>
</g>
<g>
</g>
<g>
</g>
<g>
</g>
<g>
</g>
<g>
</g>
<g>
</g>
<g>
</g>
<g>
</g>
<g>
</g>
<g>
</g>
</svg>
