<?xml version="1.0" encoding="iso-8859-1"?>
<!-- Generator: Adobe Illustrator 19.0.0, SVG Export Plug-In . SVG Version: 6.00 Build 0)  -->
<svg version="1.1" id="Capa_1" xmlns="http://www.w3.org/2000/svg" xmlns:xlink="http://www.w3.org/1999/xlink" x="0px" y="0px"
	 viewBox="0 0 512.001 512.001" style="enable-background:new 0 0 512.001 512.001;" xml:space="preserve">
<g>
	<circle style="fill:#ACABB1;" cx="76.793" cy="196.247" r="17.065"/>
	<circle style="fill:#ACABB1;" cx="76.793" cy="59.727" r="17.065"/>
</g>
<path style="fill:#939598;" d="M503.442,366.897v-68.26c0-9.428-7.637-17.065-17.065-17.065H25.624
	c-9.428,0-17.065,7.637-17.065,17.065v68.26c0,9.428,7.637,17.065,17.065,17.065h460.754
	C495.806,383.962,503.442,376.325,503.442,366.897z M93.883,332.767c0,9.428-7.637,17.065-17.065,17.065
	s-17.065-7.637-17.065-17.065c0-9.428,7.637-17.065,17.065-17.065S93.883,323.338,93.883,332.767L93.883,332.767z"/>
<circle style="fill:#ACABB1;" cx="76.793" cy="332.767" r="17.065"/>
<g>
	<path style="fill:#939598;" d="M503.442,230.377v-68.26c0-9.428-7.637-17.065-17.065-17.065H25.624
		c-9.428,0-17.065,7.637-17.065,17.065v68.26c0,9.428,7.637,17.065,17.065,17.065h460.754
		C495.806,247.442,503.442,239.805,503.442,230.377z M93.883,196.247c0,9.428-7.637,17.065-17.065,17.065
		s-17.065-7.637-17.065-17.065c0-9.428,7.637-17.065,17.065-17.065S93.883,186.819,93.883,196.247L93.883,196.247z"/>
	<path style="fill:#939598;" d="M503.442,93.857v-68.26c0-9.428-7.637-17.065-17.065-17.065H25.624
		c-9.428,0-17.065,7.637-17.065,17.065v68.26c0,9.428,7.637,17.065,17.065,17.065h460.754
		C495.806,110.922,503.442,103.286,503.442,93.857z M93.883,59.727c0,9.428-7.637,17.065-17.065,17.065s-17.065-7.637-17.065-17.065
		s7.637-17.065,17.065-17.065S93.883,50.299,93.883,59.727L93.883,59.727z"/>
</g>
<g>
	<path style="fill:#231F20;" d="M486.377,136.52H25.624c-14.138,0-25.597,11.459-25.597,25.597v68.26
		c0,14.138,11.459,25.597,25.597,25.597l0,0h460.754c14.138,0,25.597-11.459,25.597-25.597l0,0v-68.26
		C511.975,147.979,500.516,136.52,486.377,136.52z M494.91,230.377c0,4.71-3.823,8.532-8.532,8.532H25.624
		c-4.71,0-8.532-3.823-8.532-8.532v-68.26c0-4.71,3.823-8.532,8.532-8.532h460.754c4.71,0,8.532,3.823,8.532,8.532V230.377z"/>
	<path style="fill:#231F20;" d="M273.065,187.715h-172.22c-4.71-13.328-19.335-20.316-32.662-15.597
		c-13.336,4.71-20.316,19.335-15.606,32.662s19.335,20.316,32.662,15.597c7.287-2.577,13.021-8.311,15.597-15.597h172.22
		c4.71,0,8.532-3.823,8.532-8.532S277.775,187.715,273.065,187.715z M76.818,204.78c-4.71,0-8.532-3.823-8.532-8.532
		s3.823-8.532,8.532-8.532s8.532,3.823,8.532,8.532S81.528,204.78,76.818,204.78z"/>
	<rect x="375.43" y="170.65" style="fill:#231F20;" width="17.065" height="17.065"/>
	<rect x="409.56" y="170.65" style="fill:#231F20;" width="17.065" height="17.065"/>
	<rect x="443.689" y="170.65" style="fill:#231F20;" width="17.065" height="17.065"/>
	<rect x="341.3" y="170.65" style="fill:#231F20;" width="17.065" height="17.065"/>
	<rect x="307.17" y="170.65" style="fill:#231F20;" width="17.065" height="17.065"/>
	<rect x="375.43" y="204.78" style="fill:#231F20;" width="17.065" height="17.065"/>
	<rect x="409.56" y="204.78" style="fill:#231F20;" width="17.065" height="17.065"/>
	<rect x="443.689" y="204.78" style="fill:#231F20;" width="17.065" height="17.065"/>
	<rect x="341.3" y="204.78" style="fill:#231F20;" width="17.065" height="17.065"/>
	<rect x="307.17" y="204.78" style="fill:#231F20;" width="17.065" height="17.065"/>
	<path style="fill:#231F20;" d="M486.377,0H25.624C11.485,0,0.026,11.459,0.026,25.597v68.26c0,14.138,11.459,25.597,25.597,25.597
		h460.754c14.138,0,25.597-11.459,25.597-25.597v-68.26C511.975,11.459,500.516,0,486.377,0z M494.91,93.857
		c0,4.71-3.823,8.532-8.532,8.532H25.624c-4.71,0-8.532-3.823-8.532-8.532v-68.26c0-4.71,3.823-8.532,8.532-8.532h460.754
		c4.71,0,8.532,3.823,8.532,8.532V93.857z"/>
	<path style="fill:#231F20;" d="M273.065,51.195h-172.22c-4.71-13.328-19.335-20.316-32.662-15.597S47.868,54.932,52.578,68.26
		S71.912,88.576,85.24,83.857c7.295-2.577,13.029-8.311,15.606-15.597h172.22c4.71,0,8.533-3.823,8.533-8.532
		S277.775,51.195,273.065,51.195z M76.818,68.26c-4.71,0-8.532-3.823-8.532-8.532s3.823-8.532,8.532-8.532s8.532,3.823,8.532,8.532
		S81.528,68.26,76.818,68.26z"/>
	<rect x="375.43" y="34.13" style="fill:#231F20;" width="17.065" height="17.065"/>
	<rect x="409.56" y="34.13" style="fill:#231F20;" width="17.065" height="17.065"/>
	<rect x="443.689" y="34.13" style="fill:#231F20;" width="17.065" height="17.065"/>
	<rect x="341.3" y="34.13" style="fill:#231F20;" width="17.065" height="17.065"/>
	<rect x="307.17" y="34.13" style="fill:#231F20;" width="17.065" height="17.065"/>
	<rect x="375.43" y="68.26" style="fill:#231F20;" width="17.065" height="17.065"/>
	<rect x="409.56" y="68.26" style="fill:#231F20;" width="17.065" height="17.065"/>
	<rect x="443.689" y="68.26" style="fill:#231F20;" width="17.065" height="17.065"/>
	<rect x="341.3" y="68.26" style="fill:#231F20;" width="17.065" height="17.065"/>
	<rect x="307.17" y="68.26" style="fill:#231F20;" width="17.065" height="17.065"/>
	<path style="fill:#231F20;" d="M486.377,273.039H25.624c-14.138,0-25.597,11.459-25.597,25.597v68.26
		c0,14.138,11.459,25.597,25.597,25.597h221.844v34.983c-16.741,3.447-29.83,16.536-33.277,33.277H0.026v17.065h214.165
		c4.693,23.089,27.21,38.012,50.299,33.319c16.792-3.413,29.906-16.527,33.319-33.319h214.165v-17.065H297.81
		c-3.447-16.741-16.536-29.83-33.277-33.277v-34.983h221.844c14.138,0,25.597-11.459,25.597-25.597v-68.26
		C511.975,284.498,500.516,273.039,486.377,273.039z M281.598,469.286c0,14.138-11.459,25.597-25.597,25.597
		c-14.138,0-25.597-11.459-25.597-25.597s11.459-25.597,25.597-25.597C270.139,443.689,281.598,455.148,281.598,469.286z
		 M494.91,366.897c0,4.71-3.823,8.533-8.532,8.533H25.624c-4.71,0-8.532-3.823-8.532-8.533v-68.26c0-4.71,3.823-8.532,8.532-8.532
		h460.754c4.71,0,8.532,3.823,8.532,8.532V366.897z"/>
	<path style="fill:#231F20;" d="M273.065,324.234h-172.22c-4.71-13.328-19.335-20.316-32.662-15.597s-20.316,19.335-15.606,32.662
		c4.71,13.328,19.335,20.316,32.662,15.597c7.287-2.577,13.021-8.311,15.597-15.597h172.22c4.71,0,8.532-3.823,8.532-8.532
		C281.589,328.057,277.775,324.234,273.065,324.234z M76.818,341.299c-4.71,0-8.532-3.823-8.532-8.532
		c0-4.71,3.823-8.532,8.532-8.532s8.532,3.823,8.532,8.532C85.351,337.477,81.528,341.299,76.818,341.299z"/>
	<rect x="375.43" y="307.169" style="fill:#231F20;" width="17.065" height="17.065"/>
	<rect x="409.56" y="307.169" style="fill:#231F20;" width="17.065" height="17.065"/>
	<rect x="443.689" y="307.169" style="fill:#231F20;" width="17.065" height="17.065"/>
	<rect x="341.3" y="307.169" style="fill:#231F20;" width="17.065" height="17.065"/>
	<rect x="307.17" y="307.169" style="fill:#231F20;" width="17.065" height="17.065"/>
	<rect x="375.43" y="341.299" style="fill:#231F20;" width="17.065" height="17.065"/>
	<rect x="409.56" y="341.299" style="fill:#231F20;" width="17.065" height="17.065"/>
	<rect x="443.689" y="341.299" style="fill:#231F20;" width="17.065" height="17.065"/>
	<rect x="341.3" y="341.299" style="fill:#231F20;" width="17.065" height="17.065"/>
	<rect x="307.17" y="341.299" style="fill:#231F20;" width="17.065" height="17.065"/>
</g>
<g>
</g>
<g>
</g>
<g>
</g>
<g>
</g>
<g>
</g>
<g>
</g>
<g>
</g>
<g>
</g>
<g>
</g>
<g>
</g>
<g>
</g>
<g>
</g>
<g>
</g>
<g>
</g>
<g>
</g>
</svg>
