<?xml version="1.0" encoding="iso-8859-1"?>
<!-- Generator: Adobe Illustrator 19.0.0, SVG Export Plug-In . SVG Version: 6.00 Build 0)  -->
<svg version="1.1" id="Capa_1" xmlns="http://www.w3.org/2000/svg" xmlns:xlink="http://www.w3.org/1999/xlink" x="0px" y="0px"
	 viewBox="0 0 512 512" style="enable-background:new 0 0 512 512;" xml:space="preserve">
<path style="fill:#E6E7E8;" d="M470.033,222.426v67.148c18.541,0,33.574-15.033,33.574-33.574S488.574,222.426,470.033,222.426z"/>
<path style="fill:#78B9EB;" d="M260.197,96.524c0-18.541-15.033-33.574-33.574-33.574H41.967c-18.541,0-33.574,15.033-33.574,33.574
	v369.311c0,18.541,15.033,33.574,33.574,33.574h184.656c18.541,0,33.574-15.033,33.574-33.574v-58.754h-8.393h8.393V96.524z
	 M134.295,449.049c-41.724,0-75.541-33.817-75.541-75.541s33.817-75.541,75.541-75.541s75.541,33.817,75.541,75.541l0,0
	C209.836,415.232,176.019,449.049,134.295,449.049z M226.623,214.033c0,9.275-7.512,16.787-16.787,16.787H58.754
	c-9.275,0-16.787-7.512-16.787-16.787V113.311c0-9.275,7.512-16.787,16.787-16.787h151.082c9.275,0,16.787,7.512,16.787,16.787
	V214.033z"/>
<g>
	<path style="fill:#E6E7E8;" d="M134.295,297.967c-41.724,0-75.541,33.817-75.541,75.541s33.817,75.541,75.541,75.541
		s75.541-33.817,75.541-75.541S176.019,297.967,134.295,297.967L134.295,297.967z M134.295,398.688
		c-13.908,0-25.18-11.272-25.18-25.18c0-13.908,11.272-25.18,25.18-25.18s25.18,11.272,25.18,25.18
		C159.475,387.416,148.203,398.688,134.295,398.688z"/>
	<path style="fill:#E6E7E8;" d="M58.754,96.524h151.082c9.275,0,16.787,7.512,16.787,16.787v100.721
		c0,9.275-7.512,16.787-16.787,16.787H58.754c-9.275,0-16.787-7.512-16.787-16.787V113.311
		C41.967,104.036,49.479,96.524,58.754,96.524z"/>
	<circle style="fill:#E6E7E8;" cx="134.295" cy="373.508" r="25.18"/>
	<path style="fill:#E6E7E8;" d="M377.705,46.164c0-18.541-15.033-33.574-33.574-33.574s-33.574,15.033-33.574,33.574
		s15.033,33.574,33.574,33.574S377.705,64.705,377.705,46.164z M344.131,54.557c-4.633,0-8.393-3.76-8.393-8.393
		s3.76-8.393,8.393-8.393c4.633,0,8.393,3.76,8.393,8.393S348.764,54.557,344.131,54.557z"/>
	<circle style="fill:#E6E7E8;" cx="344.131" cy="46.164" r="8.393"/>
	<path style="fill:#E6E7E8;" d="M436.459,239.213c-9.275,0-16.787,7.512-16.787,16.787s7.512,16.787,16.787,16.787h33.574v-33.574
		H436.459z"/>
</g>
<g>
	<path style="fill:#231F20;" d="M134.295,289.573c-46.357,0-83.934,37.577-83.934,83.934s37.577,83.934,83.934,83.934
		s83.934-37.577,83.934-83.934C218.179,327.176,180.627,289.624,134.295,289.573z M134.295,440.655
		c-37.082,0-67.148-30.065-67.148-67.148s30.065-67.148,67.148-67.148s67.148,30.065,67.148,67.148
		C201.401,410.573,171.361,440.613,134.295,440.655z"/>
	<path style="fill:#231F20;" d="M209.836,88.131H58.754c-13.908,0-25.18,11.272-25.18,25.18v100.721
		c0,13.908,11.272,25.18,25.18,25.18h151.082c13.908,0,25.18-11.272,25.18-25.18V113.311
		C235.016,99.403,223.744,88.131,209.836,88.131z M218.229,214.033c0,4.633-3.76,8.393-8.393,8.393H58.754
		c-4.633,0-8.393-3.76-8.393-8.393V113.311c0-4.633,3.76-8.393,8.393-8.393h151.082c4.633,0,8.393,3.76,8.393,8.393V214.033z"/>
	<path style="fill:#231F20;" d="M134.295,339.934c-18.541,0-33.574,15.033-33.574,33.574c0,18.541,15.033,33.574,33.574,33.574
		s33.574-15.033,33.574-33.574C167.869,354.967,152.836,339.934,134.295,339.934z M134.295,390.295
		c-9.275,0-16.787-7.512-16.787-16.787s7.512-16.787,16.787-16.787s16.787,7.512,16.787,16.787S143.57,390.295,134.295,390.295z"/>
	<circle style="fill:#231F20;" cx="344.131" cy="46.164" r="16.787"/>
	<path style="fill:#231F20;" d="M470.033,214.033c-4.633,0-8.393,3.76-8.393,8.393v8.393h-25.18c-13.908,0-25.18,11.272-25.18,25.18
		c0,13.908,11.272,25.18,25.18,25.18v91.849c-0.025,13.866-11.239,25.113-25.105,25.18l-142.764,0.428v-16.737h58.754
		c13.908,0,25.18-11.272,25.18-25.18V87.292c22.713-4.633,37.359-26.8,32.726-49.513c-4.633-22.713-26.8-37.359-49.513-32.726
		c-22.713,4.633-37.359,26.8-32.726,49.513c3.366,16.485,16.241,29.36,32.726,32.726v269.43c0,4.633-3.76,8.393-8.393,8.393H268.59
		V96.524c-0.025-23.166-18.801-41.942-41.967-41.967H41.967C18.801,54.582,0.025,73.358,0,96.524v369.311
		c0.025,23.166,18.801,41.942,41.967,41.967h184.656c23.166-0.025,41.942-18.801,41.967-41.967v-50.411l142.814-0.428
		c23.116-0.109,41.799-18.852,41.841-41.967V281.18h8.393v8.393c0,4.633,3.76,8.393,8.393,8.393
		C493.207,297.967,512,279.174,512,256S493.207,214.033,470.033,214.033z M318.951,46.164c0-13.908,11.272-25.18,25.18-25.18
		c13.908,0,25.18,11.272,25.18,25.18s-11.272,25.18-25.18,25.18C330.223,71.344,318.951,60.072,318.951,46.164z M226.623,491.016
		H41.967c-13.908,0-25.18-11.272-25.18-25.18V96.524c0-13.908,11.272-25.18,25.18-25.18h184.656c13.908,0,25.18,11.272,25.18,25.18
		v369.311C251.803,479.744,240.531,491.016,226.623,491.016z M428.066,256c0-4.633,3.76-8.393,8.393-8.393h25.18v16.787h-25.18
		C431.826,264.393,428.066,260.633,428.066,256z M478.426,279.745v-47.49c13.111,4.625,19.993,19.011,15.368,32.122
		C491.26,271.561,485.611,277.21,478.426,279.745z"/>
</g>
<g>
</g>
<g>
</g>
<g>
</g>
<g>
</g>
<g>
</g>
<g>
</g>
<g>
</g>
<g>
</g>
<g>
</g>
<g>
</g>
<g>
</g>
<g>
</g>
<g>
</g>
<g>
</g>
<g>
</g>
</svg>
