<?xml version="1.0" encoding="iso-8859-1"?>
<!-- Generator: Adobe Illustrator 19.0.0, SVG Export Plug-In . SVG Version: 6.00 Build 0)  -->
<svg version="1.1" id="Capa_1" xmlns="http://www.w3.org/2000/svg" xmlns:xlink="http://www.w3.org/1999/xlink" x="0px" y="0px"
	 viewBox="0 0 512 512" style="enable-background:new 0 0 512 512;" xml:space="preserve">
<g>
	<path style="fill:#78B9EB;" d="M413.867,307.2c0,9.429-7.637,17.067-17.067,17.067s-17.067-7.637-17.067-17.067v-17.067H303.36
		c-0.273,2.807-0.427,5.649-0.427,8.533v119.467c0,47.13,38.204,85.333,85.333,85.333h17.067c47.13,0,85.333-38.204,85.333-85.333
		V298.667c0-2.884-0.154-5.726-0.427-8.533h-76.373V307.2z"/>
	<path style="fill:#78B9EB;" d="M413.867,273.067v17.067h76.373c-4.386-43.605-41.079-76.8-84.907-76.8H396.8V256
		C406.229,256,413.867,263.637,413.867,273.067z"/>
	<path style="fill:#78B9EB;" d="M303.36,290.133h76.373v-17.067c0-9.429,7.637-17.067,17.067-17.067v-42.667h-8.533
		C344.439,213.333,307.746,246.528,303.36,290.133z"/>
</g>
<path style="fill:#E6E7E8;" d="M396.8,324.267c9.429,0,17.067-7.637,17.067-17.067v-34.133c0-9.429-7.637-17.067-17.067-17.067
	s-17.067,7.637-17.067,17.067V307.2C379.733,316.629,387.371,324.267,396.8,324.267z"/>
<path style="fill:#231F20;" d="M405.333,204.8V93.867C405.333,42.027,363.307,0,311.467,0S217.6,42.027,217.6,93.867v170.667
	c0,42.419-34.381,76.8-76.8,76.8S64,306.953,64,264.533v-68.267c0-14.14-11.46-25.6-25.6-25.6H12.8v17.067h25.6
	c4.71,0,8.533,3.823,8.533,8.533v68.267c0,51.84,42.027,93.867,93.867,93.867s93.867-42.027,93.867-93.867V93.867
	c0-42.419,34.381-76.8,76.8-76.8s76.8,34.381,76.8,76.8V204.8c-51.814,0.06-93.807,42.052-93.867,93.867v119.467
	c0.06,51.814,42.052,93.807,93.867,93.867h17.067c51.814-0.06,93.807-42.052,93.867-93.867V298.667
	C499.14,246.852,457.148,204.86,405.333,204.8z M480.154,281.6H422.4v-8.533c-0.043-10.812-6.878-20.429-17.067-24.03v-27.17
	C441.139,221.926,472.166,246.699,480.154,281.6z M405.333,273.067V307.2c0,4.71-3.823,8.533-8.533,8.533s-8.533-3.823-8.533-8.533
	v-34.133c0-4.71,3.823-8.533,8.533-8.533S405.333,268.356,405.333,273.067z M388.267,221.867v27.17
	c-10.189,3.601-17.024,13.218-17.067,24.03v8.533h-57.754C321.434,246.699,352.461,221.926,388.267,221.867z M482.133,418.133
	c-0.051,42.394-34.406,76.749-76.8,76.8h-17.067c-42.394-0.051-76.749-34.406-76.8-76.8V298.667H371.2v8.533
	c0,14.14,11.46,25.6,25.6,25.6s25.6-11.46,25.6-25.6v-8.533h59.733V418.133z"/>
<g>
</g>
<g>
</g>
<g>
</g>
<g>
</g>
<g>
</g>
<g>
</g>
<g>
</g>
<g>
</g>
<g>
</g>
<g>
</g>
<g>
</g>
<g>
</g>
<g>
</g>
<g>
</g>
<g>
</g>
</svg>
