<?xml version="1.0" encoding="iso-8859-1"?>
<!-- Generator: Adobe Illustrator 19.0.0, SVG Export Plug-In . SVG Version: 6.00 Build 0)  -->
<svg version="1.1" id="Capa_1" xmlns="http://www.w3.org/2000/svg" xmlns:xlink="http://www.w3.org/1999/xlink" x="0px" y="0px"
	 viewBox="0 0 512 512" style="enable-background:new 0 0 512 512;" xml:space="preserve">
<g>
	<path style="fill:#E6E7E8;" d="M469.333,51.2H42.667c-18.85,0-34.133,15.283-34.133,34.133h494.933
		C503.467,66.483,488.184,51.2,469.333,51.2z"/>
	<path style="fill:#E6E7E8;" d="M42.667,375.467h426.667c18.85,0,34.133-15.283,34.133-34.133v-17.067H8.533v17.067
		C8.533,360.183,23.817,375.467,42.667,375.467z"/>
	<path style="fill:#E6E7E8;" d="M204.8,376.226c0,27.127-9.233,53.453-26.18,74.633l-7.953,9.941h170.667l-7.953-9.941
		c-16.947-21.18-26.18-47.505-26.18-74.633v-0.759H204.8V376.226z"/>
</g>
<rect x="8.533" y="85.333" style="fill:#006DF0;" width="494.933" height="238.933"/>
<g>
	<path style="fill:#231F20;" d="M469.333,42.667H42.667C19.115,42.692,0.026,61.781,0,85.333v256
		C0.026,364.885,19.115,383.974,42.667,384h153.267c-1.587,22.46-9.941,43.913-23.979,61.525l-5.385,6.741h-30.037
		c-4.71,0-8.533,3.823-8.533,8.533s3.823,8.533,8.533,8.533h238.933c4.71,0,8.533-3.823,8.533-8.533s-3.823-8.533-8.533-8.533
		h-30.037l-5.385-6.741c-14.02-17.613-22.366-39.066-23.953-61.525h153.242c23.552-0.026,42.641-19.115,42.667-42.667v-256
		C511.974,61.781,492.885,42.692,469.333,42.667z M17.067,93.867h477.867v221.867H17.067V93.867z M42.667,59.733h426.667
		c10.812,0.043,20.429,6.878,24.03,17.067H18.637C22.238,66.611,31.855,59.776,42.667,59.733z M323.703,452.267H188.297
		c14.626-19.917,23.211-43.605,24.747-68.267h85.845C300.425,408.67,309.043,432.367,323.703,452.267z M469.333,366.933H42.667
		c-14.14,0-25.6-11.46-25.6-25.6V332.8h477.867v8.533C494.933,355.473,483.473,366.933,469.333,366.933z"/>
	<path style="fill:#231F20;" d="M273.067,341.333h-34.133c-4.71,0-8.533,3.823-8.533,8.533c0,4.71,3.823,8.533,8.533,8.533h34.133
		c4.71,0,8.533-3.823,8.533-8.533C281.6,345.156,277.777,341.333,273.067,341.333z"/>
</g>
<g>
</g>
<g>
</g>
<g>
</g>
<g>
</g>
<g>
</g>
<g>
</g>
<g>
</g>
<g>
</g>
<g>
</g>
<g>
</g>
<g>
</g>
<g>
</g>
<g>
</g>
<g>
</g>
<g>
</g>
</svg>
