<?xml version="1.0" encoding="iso-8859-1"?>
<!-- Generator: Adobe Illustrator 19.0.0, SVG Export Plug-In . SVG Version: 6.00 Build 0)  -->
<svg version="1.1" id="Capa_1" xmlns="http://www.w3.org/2000/svg" xmlns:xlink="http://www.w3.org/1999/xlink" x="0px" y="0px"
	 viewBox="0 0 512 512" style="enable-background:new 0 0 512 512;" xml:space="preserve">
<path style="fill:#006DF0;" d="M46.165,90.537L8.533,85.332v273.067l37.632-5.205c58.249-8.073,116.915-12.749,175.701-13.995
	c22.784-0.512,45.483-0.512,68.267,0c58.786,1.246,117.453,5.922,175.701,13.995l37.632,5.205V85.332l-37.632,5.205
	C326.605,109.737,185.395,109.737,46.165,90.537z"/>
<path style="fill:#231F20;" d="M509.073,78.898c-1.86-1.621-4.335-2.355-6.775-2.014l-37.632,5.205
	c-138.453,19.089-278.878,19.089-417.331,0L9.702,76.884c-4.668-0.649-8.977,2.611-9.626,7.279C0.026,84.555,0,84.939,0,85.332
	v273.067c0,4.71,3.823,8.533,8.542,8.525c0.393,0,0.777-0.026,1.161-0.077l37.641-5.205c55.04-7.578,110.455-12.117,165.99-13.594
	v70.084H153.6v17.067h204.8v-17.067h-59.733v-70.084c55.543,1.476,110.959,6.016,165.999,13.594l37.632,5.205
	c0.384,0.06,0.777,0.085,1.169,0.085c4.71,0,8.533-3.823,8.533-8.533V85.332C512,82.866,510.933,80.519,509.073,78.898z
	 M230.4,418.132v-70.494c2.244,0,4.497,0,6.741-0.077c12.561-0.154,25.156-0.154,37.717,0c2.253,0,4.497,0.043,6.741,0.077v70.494
	H230.4z M494.933,348.611l-27.921-3.866c-55.817-7.689-112.017-12.288-168.346-13.773v-0.119l-8.346-0.188
	c-11.392-0.247-22.852-0.375-34.321-0.375c-11.469,0-22.938,0.128-34.321,0.375l-8.346,0.188v0.119
	c-56.32,1.485-112.521,6.084-168.337,13.773l-27.93,3.866V95.12l27.93,3.874c140.006,19.311,282.001,19.311,422.007,0l27.93-3.874
	V348.611z"/>
<g>
</g>
<g>
</g>
<g>
</g>
<g>
</g>
<g>
</g>
<g>
</g>
<g>
</g>
<g>
</g>
<g>
</g>
<g>
</g>
<g>
</g>
<g>
</g>
<g>
</g>
<g>
</g>
<g>
</g>
</svg>
