<?xml version="1.0" encoding="iso-8859-1"?>
<!-- Generator: Adobe Illustrator 19.0.0, SVG Export Plug-In . SVG Version: 6.00 Build 0)  -->
<svg version="1.1" id="Capa_1" xmlns="http://www.w3.org/2000/svg" xmlns:xlink="http://www.w3.org/1999/xlink" x="0px" y="0px"
	 viewBox="0 0 512 512" style="enable-background:new 0 0 512 512;" xml:space="preserve">
<g>
	<path style="fill:#E6E7E8;" d="M477.867,119.467c0-18.85-15.283-34.133-34.133-34.133H68.267c-18.85,0-34.133,15.283-34.133,34.133
		v256h443.733V119.467z M452.267,349.867H59.733V110.933h392.533V349.867z"/>
	<path style="fill:#E6E7E8;" d="M42.667,426.667h426.667c18.85,0,34.133-15.283,34.133-34.133v-17.067H8.533v17.067
		C8.533,411.383,23.817,426.667,42.667,426.667z"/>
</g>
<rect x="59.733" y="110.933" style="fill:#006DF0;" width="392.533" height="238.933"/>
<g>
	<path style="fill:#231F20;" d="M503.467,366.933H486.4V119.467c-0.026-23.552-19.115-42.641-42.667-42.667H68.267
		C44.715,76.826,25.626,95.915,25.6,119.467v247.467H8.533c-4.71,0-8.533,3.823-8.533,8.533v17.067
		c0.026,23.552,19.115,42.641,42.667,42.667h426.667c23.552-0.026,42.641-19.115,42.667-42.667v-17.067
		C512,370.756,508.177,366.933,503.467,366.933z M42.667,119.467c0-14.14,11.46-25.6,25.6-25.6h375.467
		c14.14,0,25.6,11.46,25.6,25.6v247.467H42.667V119.467z M494.933,392.533c0,14.14-11.46,25.6-25.6,25.6H42.667
		c-14.14,0-25.6-11.46-25.6-25.6V384h477.867V392.533z"/>
	<path style="fill:#231F20;" d="M452.267,102.4H59.733c-4.71,0-8.533,3.823-8.533,8.533v238.933c0,4.71,3.823,8.533,8.533,8.533
		h392.533c4.71,0,8.533-3.823,8.533-8.533V110.933C460.8,106.223,456.977,102.4,452.267,102.4z M443.733,341.333H68.267V119.467
		h375.467V341.333z"/>
</g>
<g>
</g>
<g>
</g>
<g>
</g>
<g>
</g>
<g>
</g>
<g>
</g>
<g>
</g>
<g>
</g>
<g>
</g>
<g>
</g>
<g>
</g>
<g>
</g>
<g>
</g>
<g>
</g>
<g>
</g>
</svg>
