<?xml version="1.0" encoding="iso-8859-1"?>
<!-- Generator: Adobe Illustrator 19.0.0, SVG Export Plug-In . SVG Version: 6.00 Build 0)  -->
<svg version="1.1" id="Capa_1" xmlns="http://www.w3.org/2000/svg" xmlns:xlink="http://www.w3.org/1999/xlink" x="0px" y="0px"
	 viewBox="0 0 512 512" style="enable-background:new 0 0 512 512;" xml:space="preserve">
<path style="fill:#E6E7E8;" d="M8.533,477.867h494.933V34.133H8.533V477.867z M85.333,110.933h341.333V332.8H358.4v34.133h-51.2
	v34.133H204.8v-34.133h-51.2V332.8H85.333V110.933z"/>
<polygon style="fill:#FFAF46;" points="153.6,366.933 204.8,366.933 204.8,401.067 307.2,401.067 307.2,366.933 358.4,366.933 
	358.4,332.8 426.667,332.8 426.667,110.933 392.533,110.933 392.533,196.267 392.533,110.933 358.4,110.933 358.4,196.267 
	358.4,110.933 324.267,110.933 324.267,196.267 324.267,110.933 290.133,110.933 290.133,196.267 290.133,110.933 256,110.933 
	256,196.267 256,110.933 221.867,110.933 221.867,196.267 221.867,110.933 187.733,110.933 187.733,196.267 187.733,110.933 
	153.6,110.933 153.6,196.267 153.6,110.933 119.467,110.933 119.467,196.267 119.467,110.933 85.333,110.933 85.333,332.8 
	153.6,332.8 "/>
<g>
	<path style="fill:#231F20;" d="M503.467,486.4H8.533c-4.71,0-8.533-3.823-8.533-8.533V34.133c0-4.71,3.823-8.533,8.533-8.533
		h494.933c4.71,0,8.533,3.823,8.533,8.533v443.733C512,482.577,508.177,486.4,503.467,486.4z M17.067,469.333h477.867V42.667H17.067
		V469.333z"/>
	<path style="fill:#231F20;" d="M76.8,102.4v238.933h68.267v34.133h51.2V409.6h119.467v-34.133h51.2v-34.133H435.2V102.4H76.8z
		 M418.133,324.267h-68.267V358.4h-51.2v34.133h-85.333V358.4h-51.2v-34.133H93.867v-204.8h17.067v76.8H128v-76.8h17.067v76.8
		h17.067v-76.8H179.2v76.8h17.067v-76.8h17.067v76.8H230.4v-76.8h17.067v76.8h17.067v-76.8H281.6v76.8h17.067v-76.8h17.067v76.8
		H332.8v-76.8h17.067v76.8h17.067v-76.8H384v76.8h17.067v-76.8h17.067V324.267z"/>
</g>
<g>
</g>
<g>
</g>
<g>
</g>
<g>
</g>
<g>
</g>
<g>
</g>
<g>
</g>
<g>
</g>
<g>
</g>
<g>
</g>
<g>
</g>
<g>
</g>
<g>
</g>
<g>
</g>
<g>
</g>
</svg>
