<?xml version="1.0" encoding="UTF-8" standalone="no"?>
<!-- Generator: Adobe Illustrator 19.0.0, SVG Export Plug-In . SVG Version: 6.00 Build 0)  -->

<svg
   xmlns:dc="http://purl.org/dc/elements/1.1/"
   xmlns:cc="http://creativecommons.org/ns#"
   xmlns:rdf="http://www.w3.org/1999/02/22-rdf-syntax-ns#"
   xmlns:svg="http://www.w3.org/2000/svg"
   xmlns="http://www.w3.org/2000/svg"
   xmlns:sodipodi="http://sodipodi.sourceforge.net/DTD/sodipodi-0.dtd"
   xmlns:inkscape="http://www.inkscape.org/namespaces/inkscape"
   version="1.1"
   id="Capa_1"
   x="0px"
   y="0px"
   viewBox="0 0 512 512"
   style="enable-background:new 0 0 512 512;"
   xml:space="preserve"
   sodipodi:docname="023-lan-red.svg"
   inkscape:version="0.92.3 (2405546, 2018-03-11)"><metadata
   id="metadata945"><rdf:RDF><cc:Work
       rdf:about=""><dc:format>image/svg+xml</dc:format><dc:type
         rdf:resource="http://purl.org/dc/dcmitype/StillImage" /><dc:title></dc:title></cc:Work></rdf:RDF></metadata><defs
   id="defs943" /><sodipodi:namedview
   pagecolor="#ffffff"
   bordercolor="#666666"
   borderopacity="1"
   objecttolerance="10"
   gridtolerance="10"
   guidetolerance="10"
   inkscape:pageopacity="0"
   inkscape:pageshadow="2"
   inkscape:window-width="3832"
   inkscape:window-height="2028"
   id="namedview941"
   showgrid="false"
   inkscape:zoom="0.87792969"
   inkscape:cx="-195.70771"
   inkscape:cy="271.69122"
   inkscape:window-x="0"
   inkscape:window-y="128"
   inkscape:window-maximized="0"
   inkscape:current-layer="Capa_1" />
<path
   style="fill:#E6E7E8;"
   d="M8.533,477.867h494.933V34.133H8.533V477.867z M85.333,110.933h341.333V332.8H358.4v34.133h-51.2  v34.133H204.8v-34.133h-51.2V332.8H85.333V110.933z"
   id="path900" />
<polygon
   style="fill:#ff4646;fill-opacity:1"
   points="153.6,366.933 204.8,366.933 204.8,401.067 307.2,401.067 307.2,366.933 358.4,366.933   358.4,332.8 426.667,332.8 426.667,110.933 392.533,110.933 392.533,196.267 392.533,110.933 358.4,110.933 358.4,196.267   358.4,110.933 324.267,110.933 324.267,196.267 324.267,110.933 290.133,110.933 290.133,196.267 290.133,110.933 256,110.933   256,196.267 256,110.933 221.867,110.933 221.867,196.267 221.867,110.933 187.733,110.933 187.733,196.267 187.733,110.933   153.6,110.933 153.6,196.267 153.6,110.933 119.467,110.933 119.467,196.267 119.467,110.933 85.333,110.933 85.333,332.8   153.6,332.8 "
   id="polygon902" />
<g
   id="g908">
	<path
   style="fill:#231F20;"
   d="M503.467,486.4H8.533c-4.71,0-8.533-3.823-8.533-8.533V34.133c0-4.71,3.823-8.533,8.533-8.533   h494.933c4.71,0,8.533,3.823,8.533,8.533v443.733C512,482.577,508.177,486.4,503.467,486.4z M17.067,469.333h477.867V42.667H17.067   V469.333z"
   id="path904" />
	<path
   style="fill:#231F20;"
   d="M76.8,102.4v238.933h68.267v34.133h51.2V409.6h119.467v-34.133h51.2v-34.133H435.2V102.4H76.8z    M418.133,324.267h-68.267V358.4h-51.2v34.133h-85.333V358.4h-51.2v-34.133H93.867v-204.8h17.067v76.8H128v-76.8h17.067v76.8   h17.067v-76.8H179.2v76.8h17.067v-76.8h17.067v76.8H230.4v-76.8h17.067v76.8h17.067v-76.8H281.6v76.8h17.067v-76.8h17.067v76.8   H332.8v-76.8h17.067v76.8h17.067v-76.8H384v76.8h17.067v-76.8h17.067V324.267z"
   id="path906" />
</g>
<g
   id="g910">
</g>
<g
   id="g912">
</g>
<g
   id="g914">
</g>
<g
   id="g916">
</g>
<g
   id="g918">
</g>
<g
   id="g920">
</g>
<g
   id="g922">
</g>
<g
   id="g924">
</g>
<g
   id="g926">
</g>
<g
   id="g928">
</g>
<g
   id="g930">
</g>
<g
   id="g932">
</g>
<g
   id="g934">
</g>
<g
   id="g936">
</g>
<g
   id="g938">
</g>
</svg>