<?xml version="1.0" encoding="iso-8859-1"?>
<!-- Generator: Adobe Illustrator 19.0.0, SVG Export Plug-In . SVG Version: 6.00 Build 0)  -->
<svg version="1.1" id="Capa_1" xmlns="http://www.w3.org/2000/svg" xmlns:xlink="http://www.w3.org/1999/xlink" x="0px" y="0px"
	 viewBox="0 0 512 512" style="enable-background:new 0 0 512 512;" xml:space="preserve">
<g>
	<path style="fill:#ACABB1;" d="M8.533,503.467h494.933V281.6H8.533V503.467z M443.733,307.2h34.133v34.133h-34.133V307.2z
		 M443.733,375.467h34.133V409.6h-34.133V375.467z M443.733,443.733h34.133v34.133h-34.133V443.733z M375.467,307.2H409.6v34.133
		h-34.133V307.2z M375.467,375.467H409.6V409.6h-34.133V375.467z M375.467,443.733H409.6v34.133h-34.133V443.733z M307.2,307.2
		h34.133v34.133H307.2V307.2z M307.2,375.467h34.133V409.6H307.2V375.467z M307.2,443.733h34.133v34.133H307.2V443.733z
		 M238.933,307.2h34.133v34.133h-34.133V307.2z M238.933,375.467h34.133V409.6h-34.133V375.467z M238.933,443.733h34.133v34.133
		h-34.133V443.733z M170.667,307.2H204.8v34.133h-34.133V307.2z M170.667,375.467H204.8V409.6h-34.133V375.467z M170.667,443.733
		H204.8v34.133h-34.133V443.733z M102.4,307.2h34.133v34.133H102.4V307.2z M102.4,375.467h34.133V409.6H102.4V375.467z
		 M102.4,443.733h34.133v34.133H102.4V443.733z M34.133,307.2h34.133v34.133H34.133V307.2z M34.133,375.467h34.133V409.6H34.133
		V375.467z M34.133,443.733h34.133v34.133H34.133V443.733z"/>
	<rect x="34.133" y="307.2" style="fill:#ACABB1;" width="34.133" height="34.133"/>
	<rect x="34.133" y="375.467" style="fill:#ACABB1;" width="34.133" height="34.133"/>
	<rect x="102.4" y="375.467" style="fill:#ACABB1;" width="34.133" height="34.133"/>
	<rect x="102.4" y="307.2" style="fill:#ACABB1;" width="34.133" height="34.133"/>
	<rect x="170.667" y="307.2" style="fill:#ACABB1;" width="34.133" height="34.133"/>
	<rect x="170.667" y="375.467" style="fill:#ACABB1;" width="34.133" height="34.133"/>
	<rect x="238.933" y="307.2" style="fill:#ACABB1;" width="34.133" height="34.133"/>
	<rect x="238.933" y="375.467" style="fill:#ACABB1;" width="34.133" height="34.133"/>
	<rect x="307.2" y="375.467" style="fill:#ACABB1;" width="34.133" height="34.133"/>
	<rect x="307.2" y="307.2" style="fill:#ACABB1;" width="34.133" height="34.133"/>
	<rect x="375.467" y="307.2" style="fill:#ACABB1;" width="34.133" height="34.133"/>
	<rect x="375.467" y="375.467" style="fill:#ACABB1;" width="34.133" height="34.133"/>
	<rect x="443.733" y="307.2" style="fill:#ACABB1;" width="34.133" height="34.133"/>
	<rect x="443.733" y="375.467" style="fill:#ACABB1;" width="34.133" height="34.133"/>
	<rect x="34.133" y="443.733" style="fill:#ACABB1;" width="34.133" height="34.133"/>
	<rect x="102.4" y="443.733" style="fill:#ACABB1;" width="34.133" height="34.133"/>
	<rect x="170.667" y="443.733" style="fill:#ACABB1;" width="34.133" height="34.133"/>
	<rect x="238.933" y="443.733" style="fill:#ACABB1;" width="34.133" height="34.133"/>
	<rect x="307.2" y="443.733" style="fill:#ACABB1;" width="34.133" height="34.133"/>
	<rect x="375.467" y="443.733" style="fill:#ACABB1;" width="34.133" height="34.133"/>
	<rect x="443.733" y="443.733" style="fill:#ACABB1;" width="34.133" height="34.133"/>
</g>
<g>
	<path style="fill:#231F20;" d="M68.267,349.867H34.133c-4.71,0-8.533-3.823-8.533-8.533V307.2c0-4.71,3.823-8.533,8.533-8.533
		h34.133c4.71,0,8.533,3.823,8.533,8.533v34.133C76.8,346.044,72.977,349.867,68.267,349.867z M42.667,332.8h17.067v-17.067H42.667
		V332.8z"/>
	<path style="fill:#231F20;" d="M68.267,418.133H34.133c-4.71,0-8.533-3.823-8.533-8.533v-34.133c0-4.71,3.823-8.533,8.533-8.533
		h34.133c4.71,0,8.533,3.823,8.533,8.533V409.6C76.8,414.31,72.977,418.133,68.267,418.133z M42.667,401.067h17.067V384H42.667
		V401.067z"/>
	<path style="fill:#231F20;" d="M136.533,418.133H102.4c-4.71,0-8.533-3.823-8.533-8.533v-34.133c0-4.71,3.823-8.533,8.533-8.533
		h34.133c4.71,0,8.533,3.823,8.533,8.533V409.6C145.067,414.31,141.244,418.133,136.533,418.133z M110.933,401.067H128V384h-17.067
		V401.067z"/>
	<path style="fill:#231F20;" d="M136.533,349.867H102.4c-4.71,0-8.533-3.823-8.533-8.533V307.2c0-4.71,3.823-8.533,8.533-8.533
		h34.133c4.71,0,8.533,3.823,8.533,8.533v34.133C145.067,346.044,141.244,349.867,136.533,349.867z M110.933,332.8H128v-17.067
		h-17.067V332.8z"/>
</g>
<path id="SVGCleanerId_0" style="fill:#231F20;" d="M204.8,349.867h-34.133c-4.71,0-8.533-3.823-8.533-8.533V307.2
	c0-4.71,3.823-8.533,8.533-8.533H204.8c4.71,0,8.533,3.823,8.533,8.533v34.133C213.333,346.044,209.51,349.867,204.8,349.867z
	 M179.2,332.8h17.067v-17.067H179.2V332.8z"/>
<g>
	<path id="SVGCleanerId_0_1_" style="fill:#231F20;" d="M204.8,349.867h-34.133c-4.71,0-8.533-3.823-8.533-8.533V307.2
		c0-4.71,3.823-8.533,8.533-8.533H204.8c4.71,0,8.533,3.823,8.533,8.533v34.133C213.333,346.044,209.51,349.867,204.8,349.867z
		 M179.2,332.8h17.067v-17.067H179.2V332.8z"/>
</g>
<path id="SVGCleanerId_1" style="fill:#231F20;" d="M204.8,418.133h-34.133c-4.71,0-8.533-3.823-8.533-8.533v-34.133
	c0-4.71,3.823-8.533,8.533-8.533H204.8c4.71,0,8.533,3.823,8.533,8.533V409.6C213.333,414.31,209.51,418.133,204.8,418.133z
	 M179.2,401.067h17.067V384H179.2V401.067z"/>
<g>
	<path id="SVGCleanerId_1_1_" style="fill:#231F20;" d="M204.8,418.133h-34.133c-4.71,0-8.533-3.823-8.533-8.533v-34.133
		c0-4.71,3.823-8.533,8.533-8.533H204.8c4.71,0,8.533,3.823,8.533,8.533V409.6C213.333,414.31,209.51,418.133,204.8,418.133z
		 M179.2,401.067h17.067V384H179.2V401.067z"/>
</g>
<g>
	<path style="fill:#231F20;" d="M273.067,349.867h-34.133c-4.71,0-8.533-3.823-8.533-8.533V307.2c0-4.71,3.823-8.533,8.533-8.533
		h34.133c4.71,0,8.533,3.823,8.533,8.533v34.133C281.6,346.044,277.777,349.867,273.067,349.867z M247.467,332.8h17.067v-17.067
		h-17.067V332.8z"/>
	<path style="fill:#231F20;" d="M273.067,418.133h-34.133c-4.71,0-8.533-3.823-8.533-8.533v-34.133c0-4.71,3.823-8.533,8.533-8.533
		h34.133c4.71,0,8.533,3.823,8.533,8.533V409.6C281.6,414.31,277.777,418.133,273.067,418.133z M247.467,401.067h17.067V384h-17.067
		V401.067z"/>
	<path style="fill:#231F20;" d="M341.333,418.133H307.2c-4.71,0-8.533-3.823-8.533-8.533v-34.133c0-4.71,3.823-8.533,8.533-8.533
		h34.133c4.71,0,8.533,3.823,8.533,8.533V409.6C349.867,414.31,346.044,418.133,341.333,418.133z M315.733,401.067H332.8V384
		h-17.067V401.067z"/>
	<path style="fill:#231F20;" d="M341.333,349.867H307.2c-4.71,0-8.533-3.823-8.533-8.533V307.2c0-4.71,3.823-8.533,8.533-8.533
		h34.133c4.71,0,8.533,3.823,8.533,8.533v34.133C349.867,346.044,346.044,349.867,341.333,349.867z M315.733,332.8H332.8v-17.067
		h-17.067V332.8z"/>
</g>
<path id="SVGCleanerId_2" style="fill:#231F20;" d="M409.6,349.867h-34.133c-4.71,0-8.533-3.823-8.533-8.533V307.2
	c0-4.71,3.823-8.533,8.533-8.533H409.6c4.71,0,8.533,3.823,8.533,8.533v34.133C418.133,346.044,414.31,349.867,409.6,349.867z
	 M384,332.8h17.067v-17.067H384V332.8z"/>
<g>
	<path id="SVGCleanerId_2_1_" style="fill:#231F20;" d="M409.6,349.867h-34.133c-4.71,0-8.533-3.823-8.533-8.533V307.2
		c0-4.71,3.823-8.533,8.533-8.533H409.6c4.71,0,8.533,3.823,8.533,8.533v34.133C418.133,346.044,414.31,349.867,409.6,349.867z
		 M384,332.8h17.067v-17.067H384V332.8z"/>
</g>
<path id="SVGCleanerId_3" style="fill:#231F20;" d="M409.6,418.133h-34.133c-4.71,0-8.533-3.823-8.533-8.533v-34.133
	c0-4.71,3.823-8.533,8.533-8.533H409.6c4.71,0,8.533,3.823,8.533,8.533V409.6C418.133,414.31,414.31,418.133,409.6,418.133z
	 M384,401.067h17.067V384H384V401.067z"/>
<g>
	<path id="SVGCleanerId_3_1_" style="fill:#231F20;" d="M409.6,418.133h-34.133c-4.71,0-8.533-3.823-8.533-8.533v-34.133
		c0-4.71,3.823-8.533,8.533-8.533H409.6c4.71,0,8.533,3.823,8.533,8.533V409.6C418.133,414.31,414.31,418.133,409.6,418.133z
		 M384,401.067h17.067V384H384V401.067z"/>
</g>
<path id="SVGCleanerId_4" style="fill:#231F20;" d="M477.867,349.867h-34.133c-4.71,0-8.533-3.823-8.533-8.533V307.2
	c0-4.71,3.823-8.533,8.533-8.533h34.133c4.71,0,8.533,3.823,8.533,8.533v34.133C486.4,346.044,482.577,349.867,477.867,349.867z
	 M452.267,332.8h17.067v-17.067h-17.067V332.8z"/>
<g>
	<path id="SVGCleanerId_4_1_" style="fill:#231F20;" d="M477.867,349.867h-34.133c-4.71,0-8.533-3.823-8.533-8.533V307.2
		c0-4.71,3.823-8.533,8.533-8.533h34.133c4.71,0,8.533,3.823,8.533,8.533v34.133C486.4,346.044,482.577,349.867,477.867,349.867z
		 M452.267,332.8h17.067v-17.067h-17.067V332.8z"/>
</g>
<path id="SVGCleanerId_5" style="fill:#231F20;" d="M477.867,418.133h-34.133c-4.71,0-8.533-3.823-8.533-8.533v-34.133
	c0-4.71,3.823-8.533,8.533-8.533h34.133c4.71,0,8.533,3.823,8.533,8.533V409.6C486.4,414.31,482.577,418.133,477.867,418.133z
	 M452.267,401.067h17.067V384h-17.067V401.067z"/>
<g>
	<path id="SVGCleanerId_5_1_" style="fill:#231F20;" d="M477.867,418.133h-34.133c-4.71,0-8.533-3.823-8.533-8.533v-34.133
		c0-4.71,3.823-8.533,8.533-8.533h34.133c4.71,0,8.533,3.823,8.533,8.533V409.6C486.4,414.31,482.577,418.133,477.867,418.133z
		 M452.267,401.067h17.067V384h-17.067V401.067z"/>
</g>
<g>
	<path style="fill:#231F20;" d="M68.267,486.4H34.133c-4.71,0-8.533-3.823-8.533-8.533v-34.133c0-4.71,3.823-8.533,8.533-8.533
		h34.133c4.71,0,8.533,3.823,8.533,8.533v34.133C76.8,482.577,72.977,486.4,68.267,486.4z M42.667,469.333h17.067v-17.067H42.667
		V469.333z"/>
	<path style="fill:#231F20;" d="M136.533,486.4H102.4c-4.71,0-8.533-3.823-8.533-8.533v-34.133c0-4.71,3.823-8.533,8.533-8.533
		h34.133c4.71,0,8.533,3.823,8.533,8.533v34.133C145.067,482.577,141.244,486.4,136.533,486.4z M110.933,469.333H128v-17.067
		h-17.067V469.333z"/>
</g>
<path id="SVGCleanerId_6" style="fill:#231F20;" d="M204.8,486.4h-34.133c-4.71,0-8.533-3.823-8.533-8.533v-34.133
	c0-4.71,3.823-8.533,8.533-8.533H204.8c4.71,0,8.533,3.823,8.533,8.533v34.133C213.333,482.577,209.51,486.4,204.8,486.4z
	 M179.2,469.333h17.067v-17.067H179.2V469.333z"/>
<g>
	<path id="SVGCleanerId_6_1_" style="fill:#231F20;" d="M204.8,486.4h-34.133c-4.71,0-8.533-3.823-8.533-8.533v-34.133
		c0-4.71,3.823-8.533,8.533-8.533H204.8c4.71,0,8.533,3.823,8.533,8.533v34.133C213.333,482.577,209.51,486.4,204.8,486.4z
		 M179.2,469.333h17.067v-17.067H179.2V469.333z"/>
</g>
<g>
	<path style="fill:#231F20;" d="M273.067,486.4h-34.133c-4.71,0-8.533-3.823-8.533-8.533v-34.133c0-4.71,3.823-8.533,8.533-8.533
		h34.133c4.71,0,8.533,3.823,8.533,8.533v34.133C281.6,482.577,277.777,486.4,273.067,486.4z M247.467,469.333h17.067v-17.067
		h-17.067V469.333z"/>
	<path style="fill:#231F20;" d="M341.333,486.4H307.2c-4.71,0-8.533-3.823-8.533-8.533v-34.133c0-4.71,3.823-8.533,8.533-8.533
		h34.133c4.71,0,8.533,3.823,8.533,8.533v34.133C349.867,482.577,346.044,486.4,341.333,486.4z M315.733,469.333H332.8v-17.067
		h-17.067V469.333z"/>
</g>
<path id="SVGCleanerId_7" style="fill:#231F20;" d="M409.6,486.4h-34.133c-4.71,0-8.533-3.823-8.533-8.533v-34.133
	c0-4.71,3.823-8.533,8.533-8.533H409.6c4.71,0,8.533,3.823,8.533,8.533v34.133C418.133,482.577,414.31,486.4,409.6,486.4z
	 M384,469.333h17.067v-17.067H384V469.333z"/>
<g>
	<path id="SVGCleanerId_7_1_" style="fill:#231F20;" d="M409.6,486.4h-34.133c-4.71,0-8.533-3.823-8.533-8.533v-34.133
		c0-4.71,3.823-8.533,8.533-8.533H409.6c4.71,0,8.533,3.823,8.533,8.533v34.133C418.133,482.577,414.31,486.4,409.6,486.4z
		 M384,469.333h17.067v-17.067H384V469.333z"/>
</g>
<path id="SVGCleanerId_8" style="fill:#231F20;" d="M477.867,486.4h-34.133c-4.71,0-8.533-3.823-8.533-8.533v-34.133
	c0-4.71,3.823-8.533,8.533-8.533h34.133c4.71,0,8.533,3.823,8.533,8.533v34.133C486.4,482.577,482.577,486.4,477.867,486.4z
	 M452.267,469.333h17.067v-17.067h-17.067V469.333z"/>
<g>
	<path id="SVGCleanerId_8_1_" style="fill:#231F20;" d="M477.867,486.4h-34.133c-4.71,0-8.533-3.823-8.533-8.533v-34.133
		c0-4.71,3.823-8.533,8.533-8.533h34.133c4.71,0,8.533,3.823,8.533,8.533v34.133C486.4,482.577,482.577,486.4,477.867,486.4z
		 M452.267,469.333h17.067v-17.067h-17.067V469.333z"/>
</g>
<path style="fill:#231F20;" d="M503.467,273.067H264.533v-8.533c0-4.71,3.823-8.533,8.533-8.533h179.2
	c32.99,0,59.733-26.743,59.733-59.733s-26.743-59.733-59.733-59.733H59.733c-23.561,0-42.667-19.106-42.667-42.667
	S36.173,51.2,59.733,51.2h179.2c14.14,0,25.6-11.46,25.6-25.6V0h-17.067v25.6c0,4.71-3.823,8.533-8.533,8.533h-179.2
	C26.743,34.133,0,60.877,0,93.867S26.743,153.6,59.733,153.6h392.533c23.561,0,42.667,19.106,42.667,42.667
	s-19.106,42.667-42.667,42.667h-179.2c-14.14,0-25.6,11.46-25.6,25.6v8.533H8.533C3.823,273.067,0,276.89,0,281.6v221.867
	C0,508.177,3.823,512,8.533,512h494.933c4.71,0,8.533-3.823,8.533-8.533V281.6C512,276.89,508.177,273.067,503.467,273.067z
	 M494.933,494.933H17.067v-204.8h477.867V494.933z"/>
<g>
</g>
<g>
</g>
<g>
</g>
<g>
</g>
<g>
</g>
<g>
</g>
<g>
</g>
<g>
</g>
<g>
</g>
<g>
</g>
<g>
</g>
<g>
</g>
<g>
</g>
<g>
</g>
<g>
</g>
</svg>
