<?xml version="1.0" encoding="iso-8859-1"?>
<!-- Generator: Adobe Illustrator 19.0.0, SVG Export Plug-In . SVG Version: 6.00 Build 0)  -->
<svg version="1.1" id="Capa_1" xmlns="http://www.w3.org/2000/svg" xmlns:xlink="http://www.w3.org/1999/xlink" x="0px" y="0px"
	 viewBox="0 0 512 512" style="enable-background:new 0 0 512 512;" xml:space="preserve">
<path style="fill:#ACABB1;" d="M426.667,486.4V25.6c0-9.429-7.637-17.067-17.067-17.067H102.4c-9.429,0-17.067,7.637-17.067,17.067
	v460.8c0,9.429,7.637,17.067,17.067,17.067h307.2C419.029,503.467,426.667,495.829,426.667,486.4z M128,42.667
	c4.71,0,8.533,3.823,8.533,8.533s-3.823,8.533-8.533,8.533c-4.71,0-8.533-3.823-8.533-8.533S123.29,42.667,128,42.667z M128,469.333
	c-4.71,0-8.533-3.823-8.533-8.533s3.823-8.533,8.533-8.533c4.71,0,8.533,3.823,8.533,8.533S132.71,469.333,128,469.333z
	 M384,469.333c-4.71,0-8.533-3.823-8.533-8.533s3.823-8.533,8.533-8.533s8.533,3.823,8.533,8.533S388.71,469.333,384,469.333z
	 M375.467,245.333V384c0,28.279-22.921,51.2-51.2,51.2H187.733c-28.279,0-51.2-22.921-51.2-51.2V245.333
	c-36.506-65.98-12.612-149.06,53.367-185.566s149.06-12.612,185.566,53.367C398.225,154.266,398.225,204.203,375.467,245.333z
	 M384,59.733c-4.71,0-8.533-3.823-8.533-8.533s3.823-8.533,8.533-8.533s8.533,3.823,8.533,8.533S388.71,59.733,384,59.733z"/>
<g>
	<path style="fill:#E6E7E8;" d="M256,42.667c-75.409,0.094-136.457,61.303-136.363,136.704s61.303,136.457,136.713,136.363
		c15.317-0.017,30.515-2.62,44.971-7.68c-9.216-28.373-23.987-88.388-23.987-88.388s45.15,43.349,64.853,65.357
		c13.517-10.999,24.806-24.465,33.28-39.689c36.523-65.971,12.655-149.06-53.316-185.583C301.909,48.546,279.142,42.667,256,42.667z
		 M153.6,179.2c0.06-56.525,45.875-102.34,102.4-102.4C199.475,76.86,153.66,122.675,153.6,179.2z M256,196.267
		c-9.429,0-17.067-7.637-17.067-17.067c0-9.429,7.637-17.067,17.067-17.067c9.429,0,17.067,7.637,17.067,17.067
		C273.067,188.629,265.429,196.267,256,196.267z"/>
	<circle style="fill:#E6E7E8;" cx="256" cy="179.2" r="17.067"/>
</g>
<path style="fill:#ACABB1;" d="M277.333,219.665c0,0,14.771,60.015,23.987,88.354c14.848-5.248,28.681-13.03,40.866-23.006
	C322.483,263.014,277.333,219.665,277.333,219.665z"/>
<path style="fill:#E6E7E8;" d="M342.187,285.013c3.115,3.268,5.956,6.784,8.491,10.522c7.066,12.254,2.867,27.921-9.387,34.987
	c-12.254,7.066-27.921,2.867-34.987-9.387l0,0c-2.039-4.224-3.729-8.619-5.043-13.124c-62.848,22.033-132.429-4.437-164.727-62.677
	V384c0,28.279,22.921,51.2,51.2,51.2h136.533c28.279,0,51.2-22.921,51.2-51.2V245.333
	C366.993,260.557,355.695,274.022,342.187,285.013z"/>
<path style="fill:#ACABB1;" d="M341.333,330.513c12.254-7.057,16.461-22.716,9.404-34.961c-0.009-0.009-0.009-0.017-0.017-0.026
	c-2.551-3.729-5.402-7.245-8.533-10.513c-12.186,9.993-26.01,17.783-40.866,23.04c1.314,4.506,3.004,8.9,5.043,13.124
	C313.446,333.406,329.097,337.587,341.333,330.513z"/>
<g>
	<circle style="fill:#E6E7E8;" cx="128" cy="51.2" r="8.533"/>
	<circle style="fill:#E6E7E8;" cx="384" cy="51.2" r="8.533"/>
	<circle style="fill:#E6E7E8;" cx="128" cy="460.8" r="8.533"/>
	<circle style="fill:#E6E7E8;" cx="384" cy="460.8" r="8.533"/>
</g>
<g>
	<path style="fill:#231F20;" d="M409.6,0H102.4C88.26,0,76.8,11.46,76.8,25.6v460.8c0,14.14,11.46,25.6,25.6,25.6h307.2
		c14.14,0,25.6-11.46,25.6-25.6V25.6C435.2,11.46,423.74,0,409.6,0z M418.133,486.4c0,4.71-3.823,8.533-8.533,8.533H102.4
		c-4.71,0-8.533-3.823-8.533-8.533V25.6c0-4.71,3.823-8.533,8.533-8.533h307.2c4.71,0,8.533,3.823,8.533,8.533V486.4z"/>
	<path style="fill:#231F20;" d="M256,34.133c-80.094-0.026-145.041,64.879-145.067,144.964
		c-0.009,23.825,5.854,47.283,17.067,68.301V384c0.034,32.973,26.761,59.699,59.733,59.733h136.533
		C357.239,443.699,383.966,416.973,384,384V247.39c37.692-70.656,10.965-158.498-59.691-196.19
		C303.283,39.987,279.825,34.125,256,34.133z M256,51.2c70.622-0.128,127.974,57.02,128.102,127.642
		c0.068,35.814-14.899,70.016-41.242,94.285c-19.678-21.129-51.482-51.814-59.622-59.622c-3.405-3.26-8.806-3.14-12.066,0.265
		c-2.014,2.108-2.816,5.094-2.125,7.927c2.671,10.854,13.175,53.069,21.598,80.7c-42.044,11.844-87.228,1.408-119.817-27.674
		c-1.553-1.391-3.046-2.85-4.531-4.309c-0.597-0.589-1.229-1.135-1.809-1.707c-8.03-8.201-14.916-17.451-20.48-27.486l0,0
		c-34.253-61.841-11.887-139.742,49.954-173.995C212.949,56.713,234.291,51.2,256,51.2z M293.009,246.81
		c13.099,12.902,26.726,26.607,36.565,37.043c-7.159,5.043-14.822,9.327-22.869,12.8
		C302.609,282.974,297.591,264.465,293.009,246.81z M315.998,311.177c0.853-0.401,1.707-0.794,2.62-1.212
		c4.105-1.971,8.124-4.096,12.023-6.434c0.606-0.367,1.186-0.768,1.792-1.143c2.927-1.818,5.786-3.738,8.585-5.76
		c0.836,1.007,1.604,2.065,2.295,3.183c4.659,8.192,1.792,18.611-6.4,23.27c-8.115,4.617-18.441,1.852-23.159-6.204
		c-0.657-1.263-1.229-2.56-1.707-3.9C313.37,312.414,314.675,311.782,315.998,311.177z M366.933,384
		c-0.026,23.552-19.115,42.641-42.667,42.667H187.733c-23.552-0.026-42.641-19.115-42.667-42.667V272.674
		c0.085,0.102,0.188,0.196,0.282,0.299c3.004,3.541,6.204,6.886,9.506,10.103c0.708,0.683,1.408,1.357,2.125,2.031
		c3.354,3.123,6.827,6.118,10.419,8.9c0.521,0.393,1.05,0.759,1.57,1.143c3.413,2.569,6.946,4.983,10.59,7.236
		c0.606,0.375,1.195,0.777,1.809,1.143c3.891,2.338,7.91,4.463,12.006,6.426c0.853,0.418,1.758,0.853,2.637,1.22
		c4.198,1.911,8.457,3.678,12.8,5.18c0.384,0.137,0.777,0.23,1.161,0.358c4.164,1.399,8.414,2.56,12.706,3.593
		c0.853,0.196,1.707,0.418,2.5,0.597c4.471,0.973,9.003,1.732,13.585,2.278c0.939,0.111,1.877,0.188,2.816,0.282
		c9.566,1.067,19.226,1.067,28.791,0c0.939-0.094,1.877-0.171,2.816-0.282c4.582-0.572,9.114-1.331,13.585-2.278
		c0.853-0.179,1.655-0.401,2.492-0.597c2.253-0.529,4.497-1.084,6.707-1.707c0.828,2.347,1.826,4.625,2.978,6.827
		c9.318,16.384,30.157,22.118,46.541,12.8c16.384-9.318,22.118-30.157,12.8-46.541c-0.077-0.128-0.154-0.265-0.222-0.393l0,0
		c-1.186-1.877-2.492-3.669-3.925-5.359c0.29-0.265,0.563-0.546,0.853-0.811c0.717-0.674,1.417-1.348,2.125-2.031
		c3.302-3.217,6.502-6.562,9.506-10.095c0.085-0.111,0.188-0.196,0.282-0.307L366.933,384z"/>
	<path style="fill:#231F20;" d="M153.6,187.733c4.71,0,8.533-3.823,8.533-8.533c0.06-51.814,42.052-93.807,93.867-93.867
		c4.71,0,8.533-3.823,8.533-8.533s-3.823-8.533-8.533-8.533c-61.235,0.068-110.865,49.698-110.933,110.933
		C145.067,183.91,148.89,187.733,153.6,187.733z"/>
	<path style="fill:#231F20;" d="M230.4,179.2c0,14.14,11.46,25.6,25.6,25.6c14.14,0,25.6-11.46,25.6-25.6
		c0-14.14-11.46-25.6-25.6-25.6C241.86,153.6,230.4,165.06,230.4,179.2z M264.533,179.2c0,4.71-3.823,8.533-8.533,8.533
		c-4.71,0-8.533-3.823-8.533-8.533s3.823-8.533,8.533-8.533C260.71,170.667,264.533,174.49,264.533,179.2z"/>
	<path style="fill:#231F20;" d="M128,68.267c-9.429,0-17.067-7.637-17.067-17.067S118.571,34.133,128,34.133
		c9.429,0,17.067,7.637,17.067,17.067S137.429,68.267,128,68.267z"/>
	<path style="fill:#231F20;" d="M384,68.267c-9.429,0-17.067-7.637-17.067-17.067S374.571,34.133,384,34.133
		c9.429,0,17.067,7.637,17.067,17.067S393.429,68.267,384,68.267z"/>
	<path style="fill:#231F20;" d="M128,477.867c-9.429,0-17.067-7.637-17.067-17.067s7.637-17.067,17.067-17.067
		c9.429,0,17.067,7.637,17.067,17.067S137.429,477.867,128,477.867z"/>
	<path style="fill:#231F20;" d="M384,477.867c-9.429,0-17.067-7.637-17.067-17.067s7.637-17.067,17.067-17.067
		c9.429,0,17.067,7.637,17.067,17.067S393.429,477.867,384,477.867z"/>
</g>
<g>
</g>
<g>
</g>
<g>
</g>
<g>
</g>
<g>
</g>
<g>
</g>
<g>
</g>
<g>
</g>
<g>
</g>
<g>
</g>
<g>
</g>
<g>
</g>
<g>
</g>
<g>
</g>
<g>
</g>
</svg>
