<?xml version="1.0" encoding="iso-8859-1"?>
<!-- Generator: Adobe Illustrator 19.0.0, SVG Export Plug-In . SVG Version: 6.00 Build 0)  -->
<svg version="1.1" id="Capa_1" xmlns="http://www.w3.org/2000/svg" xmlns:xlink="http://www.w3.org/1999/xlink" x="0px" y="0px"
	 viewBox="0 0 512 512" style="enable-background:new 0 0 512 512;" xml:space="preserve">
<path style="fill:#E6E7E8;" d="M93.86,401.067h324.267c23.731,0.017,44.339,16.341,49.792,39.441l-46.157-384.7
	c-2.048-26.675-24.294-47.275-51.046-47.275H141.271c-26.752,0-48.998,20.599-51.046,47.275l-46.157,384.7
	C49.521,417.408,70.129,401.084,93.86,401.067z M255.993,102.4c70.69,0,128,38.204,128,85.333s-57.31,85.333-128,85.333
	s-128-38.204-128-85.333S185.303,102.4,255.993,102.4z"/>
<path style="fill:#ACABB1;" d="M418.127,401.067H93.86c-23.731,0.017-44.339,16.341-49.792,39.441l-1.408,11.759
	c0,28.279,22.921,51.2,51.2,51.2l0,0h221.867l0,0h34.133l0,0h34.133l0,0h34.133l0,0c28.279,0,51.2-22.921,51.2-51.2l0,0
	l-1.408-11.759C462.466,417.408,441.858,401.084,418.127,401.067z M110.927,469.333c-9.429,0-17.067-7.637-17.067-17.067
	s7.637-17.067,17.067-17.067s17.067,7.637,17.067,17.067S120.356,469.333,110.927,469.333z"/>
<g>
	<path style="fill:#E6E7E8;" d="M469.327,452.267c-0.017-3.959-0.486-7.91-1.408-11.759L469.327,452.267z"/>
	<path style="fill:#E6E7E8;" d="M42.66,452.267l1.408-11.759C43.147,444.356,42.677,448.307,42.66,452.267z"/>
</g>
<ellipse style="fill:#78B9EB;" cx="255.993" cy="187.733" rx="128" ry="85.333"/>
<circle style="fill:#ACABB1;" cx="110.927" cy="452.267" r="17.067"/>
<g>
	<path style="fill:#231F20;" d="M255.993,281.6c-75.281,0-136.533-42.112-136.533-93.867s61.252-93.867,136.533-93.867
		s136.533,42.112,136.533,93.867S331.275,281.6,255.993,281.6z M255.993,110.933c-65.877,0-119.467,34.449-119.467,76.8
		s53.589,76.8,119.467,76.8s119.467-34.449,119.467-76.8S321.871,110.933,255.993,110.933z"/>
	<path style="fill:#231F20;" d="M476.341,439.057l-46.08-383.898C427.744,24.098,401.871,0.137,370.707,0H141.28
		c-31.036,0.085-56.875,23.868-59.529,54.793l-46.08,384.273c-7.381,32.06,12.629,64.034,44.689,71.415
		c4.429,1.015,8.96,1.527,13.5,1.519h324.267c32.896,0.094,59.648-26.505,59.733-59.409
		C477.877,448.034,477.365,443.494,476.341,439.057z M98.733,56.457c1.809-22.187,20.292-39.296,42.547-39.39h229.427
		c22.383,0.137,40.909,17.434,42.581,39.757l41.813,348.629c-10.505-8.363-23.543-12.919-36.975-12.919H93.86
		c-13.44,0-26.479,4.557-36.992,12.919L98.733,56.457z M426.66,494.08V460.8c0-4.71-3.823-8.533-8.533-8.533
		s-8.533,3.823-8.533,8.533v34.133h-17.067V460.8c0-4.71-3.823-8.533-8.533-8.533s-8.533,3.823-8.533,8.533v34.133h-17.067V460.8
		c0-4.71-3.823-8.533-8.533-8.533s-8.533,3.823-8.533,8.533v34.133H324.26V460.8c0-4.71-3.823-8.533-8.533-8.533
		s-8.533,3.823-8.533,8.533v34.133H93.86c-23.45,0-42.505-18.927-42.667-42.377l1.212-10.061
		c4.531-19.243,21.683-32.862,41.455-32.896h324.267c19.763,0.051,36.907,13.662,41.429,32.896l1.237,10.061
		C460.64,472.713,446.406,490.027,426.66,494.08z"/>
	<path style="fill:#231F20;" d="M110.927,426.667c-14.14,0-25.6,11.46-25.6,25.6s11.46,25.6,25.6,25.6s25.6-11.46,25.6-25.6l0,0
		C136.527,438.127,125.067,426.667,110.927,426.667z M110.927,460.8c-4.71,0-8.533-3.823-8.533-8.533s3.823-8.533,8.533-8.533
		c4.71,0,8.533,3.823,8.533,8.533S115.637,460.8,110.927,460.8z"/>
</g>
<g>
</g>
<g>
</g>
<g>
</g>
<g>
</g>
<g>
</g>
<g>
</g>
<g>
</g>
<g>
</g>
<g>
</g>
<g>
</g>
<g>
</g>
<g>
</g>
<g>
</g>
<g>
</g>
<g>
</g>
</svg>
