<?xml version="1.0" encoding="iso-8859-1"?>
<!-- Generator: Adobe Illustrator 19.0.0, SVG Export Plug-In . SVG Version: 6.00 Build 0)  -->
<svg version="1.1" id="Capa_1" xmlns="http://www.w3.org/2000/svg" xmlns:xlink="http://www.w3.org/1999/xlink" x="0px" y="0px"
	 viewBox="0 0 512 512" style="enable-background:new 0 0 512 512;" xml:space="preserve">
<path style="fill:#E6E7E8;" d="M85.333,8.533H76.8v494.933h358.4V8.533H85.333z M119.467,42.667c4.71,0,8.533,3.823,8.533,8.533
	s-3.823,8.533-8.533,8.533c-4.71,0-8.533-3.823-8.533-8.533S114.756,42.667,119.467,42.667z M119.467,469.333
	c-4.71,0-8.533-3.823-8.533-8.533s3.823-8.533,8.533-8.533c4.71,0,8.533,3.823,8.533,8.533S124.177,469.333,119.467,469.333z
	 M383.795,331.58c-3.994,70.579-64.452,124.553-135.031,120.559c-67.806-3.84-120.806-59.964-120.764-127.872
	c-0.034-30.421,10.803-59.853,30.558-82.987c6.042-7.194,5.111-17.92-2.082-23.962c-3.081-2.586-6.972-3.994-10.991-3.985h-0.418
	c-9.429,0-17.067-7.637-17.067-17.067v-51.2c0-9.429,7.637-17.067,17.067-17.067h221.867c9.429,0,17.067,7.637,17.067,17.067v51.2
	c0,9.429-7.637,17.067-17.067,17.067h-0.401c-9.429,0.043-17.033,7.723-16.981,17.143c0.017,4.087,1.502,8.03,4.181,11.119
	C374.946,266.615,385.715,298.837,383.795,331.58z M392.533,469.333c-4.71,0-8.533-3.823-8.533-8.533s3.823-8.533,8.533-8.533
	s8.533,3.823,8.533,8.533S397.244,469.333,392.533,469.333z M392.533,59.733c-4.71,0-8.533-3.823-8.533-8.533
	s3.823-8.533,8.533-8.533s8.533,3.823,8.533,8.533S397.244,59.733,392.533,59.733z"/>
<path style="fill:#58595B;" d="M366.532,213.333h0.401c9.429,0,17.067-7.637,17.067-17.067v-51.2
	c0-9.429-7.637-17.067-17.067-17.067H145.067c-9.429,0-17.067,7.637-17.067,17.067v51.2c0,9.429,7.637,17.067,17.067,17.067h0.418
	c9.395-0.026,17.033,7.561,17.058,16.956c0.009,4.019-1.399,7.91-3.985,10.991c-45.833,53.82-39.356,134.605,14.464,180.437
	c24.721,21.052,56.516,31.923,88.951,30.413c65.297-3.482,117.649-55.296,121.822-120.55c1.911-32.751-8.866-64.973-30.089-89.984
	c-6.187-7.117-5.427-17.894,1.69-24.081C358.485,214.835,362.436,213.35,366.532,213.333z M162.133,324.267
	c0-22.298,7.945-43.861,22.4-60.834C170.078,280.405,162.133,301.969,162.133,324.267z M196.267,324.267
	c0-32.99,26.743-59.733,59.733-59.733s59.733,26.743,59.733,59.733S288.99,384,256,384S196.267,357.257,196.267,324.267z
	 M260.429,418.031c47.846-2.569,86.212-40.533,89.276-88.354C346.641,377.498,308.275,415.462,260.429,418.031z"/>
<circle style="fill:#ACABB1;" cx="256" cy="324.267" r="59.733"/>
<g>
	<circle style="fill:#E6E7E8;" cx="119.467" cy="51.2" r="8.533"/>
	<circle style="fill:#E6E7E8;" cx="392.533" cy="51.2" r="8.533"/>
	<circle style="fill:#E6E7E8;" cx="119.467" cy="460.8" r="8.533"/>
	<circle style="fill:#E6E7E8;" cx="392.533" cy="460.8" r="8.533"/>
</g>
<g>
	<path style="fill:#231F20;" d="M435.2,0H76.8c-4.71,0-8.533,3.823-8.533,8.533v494.933c0,4.71,3.823,8.533,8.533,8.533h358.4
		c4.71,0,8.533-3.823,8.533-8.533V8.533C443.733,3.823,439.91,0,435.2,0z M426.667,494.933H85.333V17.067h341.333V494.933z"/>
	<path style="fill:#231F20;" d="M255.923,460.8c-75.409-0.051-136.491-61.218-136.439-136.627
		c0.026-32.41,11.571-63.753,32.58-88.422c2.125-2.466,2.594-5.948,1.203-8.892c-1.365-3.063-4.42-5.026-7.774-4.992
		c-14.208,0.162-25.856-11.221-26.027-25.429c0-0.06,0-0.111,0-0.171v-51.2c0-14.14,11.46-25.6,25.6-25.6h221.867
		c14.14,0,25.6,11.46,25.6,25.6v51.2c0,14.14-11.46,25.6-25.6,25.6h-0.41c-3.285-0.077-6.298,1.826-7.637,4.83
		c-1.476,3.115-0.956,6.801,1.323,9.387c22.639,26.675,34.133,61.047,32.102,95.974c-4.48,69.598-60.305,124.843-129.946,128.597
		C260.215,460.8,258.057,460.8,255.923,460.8z M145.067,136.533c-4.71,0-8.533,3.823-8.533,8.533v51.2
		c0,4.71,3.823,8.533,8.533,8.533c10.163-0.188,19.465,5.666,23.697,14.908c4.224,8.977,2.773,19.61-3.712,27.119
		c-42.778,50.236-36.736,125.636,13.491,168.414s125.636,36.736,168.414-13.491c37.931-44.535,38.033-109.986,0.239-154.641
		c-6.588-7.637-8.081-18.441-3.797-27.58c4.13-9.037,13.184-14.805,23.125-14.729h0.41c4.71,0,8.533-3.823,8.533-8.533v-51.2
		c0-4.71-3.823-8.533-8.533-8.533L145.067,136.533L145.067,136.533z"/>
	<path style="fill:#231F20;" d="M162.133,332.8c-4.71,0-8.533-3.823-8.533-8.533c0.009-24.329,8.67-47.855,24.439-66.372
		c3.063-3.584,8.457-4.011,12.041-0.947c3.584,3.063,4.011,8.457,0.947,12.041c-13.141,15.42-20.361,35.021-20.361,55.279
		C170.667,328.977,166.844,332.8,162.133,332.8z"/>
	<path style="fill:#231F20;" d="M260.42,426.564c-4.71,0.102-8.619-3.627-8.721-8.346c-0.102-4.719,3.627-8.619,8.346-8.721
		c43.494-2.338,78.362-36.838,81.152-80.307c0.051-4.514,3.746-8.124,8.252-8.081c0.247,0,0.495,0.017,0.742,0.043
		c4.702,0.265,8.294,4.284,8.038,8.986c-3.328,52.19-45.193,93.628-97.408,96.427L260.42,426.564L260.42,426.564z"/>
	<path style="fill:#231F20;" d="M256,392.533c-37.7,0-68.267-30.566-68.267-68.267S218.3,256,256,256s68.267,30.566,68.267,68.267
		C324.224,361.95,293.683,392.491,256,392.533z M256,273.067c-28.279,0-51.2,22.921-51.2,51.2c0,28.279,22.921,51.2,51.2,51.2
		c28.279,0,51.2-22.921,51.2-51.2C307.174,296.004,284.262,273.092,256,273.067z"/>
	<path style="fill:#231F20;" d="M332.8,102.4H179.2c-4.71,0-8.533-3.823-8.533-8.533c0-4.71,3.823-8.533,8.533-8.533h153.6
		c4.71,0,8.533,3.823,8.533,8.533C341.333,98.577,337.51,102.4,332.8,102.4z"/>
	<path style="fill:#231F20;" d="M119.467,68.267c-9.429,0-17.067-7.637-17.067-17.067s7.637-17.067,17.067-17.067
		s17.067,7.637,17.067,17.067S128.896,68.267,119.467,68.267z"/>
	<path style="fill:#231F20;" d="M392.533,68.267c-9.429,0-17.067-7.637-17.067-17.067s7.637-17.067,17.067-17.067
		S409.6,41.771,409.6,51.2S401.963,68.267,392.533,68.267z"/>
	<path style="fill:#231F20;" d="M119.467,477.867c-9.429,0-17.067-7.637-17.067-17.067s7.637-17.067,17.067-17.067
		s17.067,7.637,17.067,17.067S128.896,477.867,119.467,477.867z"/>
	<path style="fill:#231F20;" d="M392.533,477.867c-9.429,0-17.067-7.637-17.067-17.067s7.637-17.067,17.067-17.067
		S409.6,451.371,409.6,460.8S401.963,477.867,392.533,477.867z"/>
	<path style="fill:#231F20;" d="M366.933,102.4H358.4c-4.71,0-8.533-3.823-8.533-8.533c0-4.71,3.823-8.533,8.533-8.533h8.533
		c4.71,0,8.533,3.823,8.533,8.533C375.467,98.577,371.644,102.4,366.933,102.4z"/>
	<path style="fill:#231F20;" d="M153.6,102.4h-8.533c-4.71,0-8.533-3.823-8.533-8.533c0-4.71,3.823-8.533,8.533-8.533h8.533
		c4.71,0,8.533,3.823,8.533,8.533C162.133,98.577,158.31,102.4,153.6,102.4z"/>
</g>
<g>
</g>
<g>
</g>
<g>
</g>
<g>
</g>
<g>
</g>
<g>
</g>
<g>
</g>
<g>
</g>
<g>
</g>
<g>
</g>
<g>
</g>
<g>
</g>
<g>
</g>
<g>
</g>
<g>
</g>
</svg>
