<?xml version="1.0" encoding="iso-8859-1"?>
<!-- Generator: Adobe Illustrator 19.0.0, SVG Export Plug-In . SVG Version: 6.00 Build 0)  -->
<svg version="1.1" id="Capa_1" xmlns="http://www.w3.org/2000/svg" xmlns:xlink="http://www.w3.org/1999/xlink" x="0px" y="0px"
	 viewBox="0 0 512 512" style="enable-background:new 0 0 512 512;" xml:space="preserve">
<path style="fill:#ACABB1;" d="M8.533,401.067c0,56.55,45.85,102.4,102.4,102.4h290.133c56.55,0,102.4-45.85,102.4-102.4
	s-45.85-102.4-102.4-102.4H110.933C54.383,298.667,8.533,344.516,8.533,401.067z M68.267,409.6c-4.71,0-8.533-3.823-8.533-8.533
	s3.823-8.533,8.533-8.533s8.533,3.823,8.533,8.533S72.977,409.6,68.267,409.6z M102.4,443.733c-4.71,0-8.533-3.823-8.533-8.533
	s3.823-8.533,8.533-8.533c4.71,0,8.533,3.823,8.533,8.533S107.11,443.733,102.4,443.733z M102.4,375.467
	c-4.71,0-8.533-3.823-8.533-8.533s3.823-8.533,8.533-8.533c4.71,0,8.533,3.823,8.533,8.533S107.11,375.467,102.4,375.467z
	 M401.067,349.867c28.279,0,51.2,22.921,51.2,51.2c0,28.279-22.921,51.2-51.2,51.2c-28.279,0-51.2-22.921-51.2-51.2
	C349.867,372.787,372.787,349.867,401.067,349.867z M136.533,392.533c4.71,0,8.533,3.823,8.533,8.533s-3.823,8.533-8.533,8.533
	S128,405.777,128,401.067S131.823,392.533,136.533,392.533z"/>
<path style="fill:#FFDA44;" d="M401.067,452.267c28.279,0,51.2-22.921,51.2-51.2h-51.2V452.267z"/>
<path style="fill:#006DF0;" d="M401.067,452.267v-51.2h-51.2C349.867,429.346,372.787,452.267,401.067,452.267z"/>
<path style="fill:#ED1C24;" d="M452.267,401.067c0-28.279-22.921-51.2-51.2-51.2v51.2H452.267z"/>
<path style="fill:#64C37D;" d="M401.067,349.867c-28.279,0-51.2,22.921-51.2,51.2h51.2V349.867z"/>
<g>
	<circle style="fill:#ACABB1;" cx="136.533" cy="401.067" r="8.533"/>
	<circle style="fill:#ACABB1;" cx="102.4" cy="366.933" r="8.533"/>
	<circle style="fill:#ACABB1;" cx="102.4" cy="435.2" r="8.533"/>
	<circle style="fill:#ACABB1;" cx="68.267" cy="401.067" r="8.533"/>
</g>
<g>
	<path style="fill:#231F20;" d="M401.067,290.133H264.533v-25.6c0-4.71,3.823-8.533,8.533-8.533h179.2
		c32.99,0,59.733-26.743,59.733-59.733s-26.743-59.733-59.733-59.733H59.733c-23.561,0-42.667-19.106-42.667-42.667
		S36.173,51.2,59.733,51.2h179.2c14.14,0,25.6-11.46,25.6-25.6V0h-17.067v25.6c0,4.71-3.823,8.533-8.533,8.533h-179.2
		C26.743,34.133,0,60.877,0,93.867S26.743,153.6,59.733,153.6h392.533c23.561,0,42.667,19.106,42.667,42.667
		s-19.106,42.667-42.667,42.667h-179.2c-14.14,0-25.6,11.46-25.6,25.6v25.6H110.933C49.664,290.133,0,339.797,0,401.067
		S49.664,512,110.933,512h290.133C462.336,512,512,462.336,512,401.067S462.336,290.133,401.067,290.133z M401.067,494.933H110.933
		c-51.84,0-93.867-42.027-93.867-93.867S59.093,307.2,110.933,307.2h290.133c51.84,0,93.867,42.027,93.867,93.867
		S452.907,494.933,401.067,494.933z"/>
	<path style="fill:#231F20;" d="M401.067,341.333c-32.99,0-59.733,26.743-59.733,59.733s26.743,59.733,59.733,59.733
		s59.733-26.743,59.733-59.733C460.757,368.094,434.039,341.376,401.067,341.333z M442.88,392.533H409.6v-33.28
		C426.342,362.701,439.433,375.791,442.88,392.533z M392.533,359.253v33.28h-33.28C362.701,375.791,375.791,362.701,392.533,359.253
		z M359.253,409.6h33.28v33.28C375.791,439.433,362.701,426.342,359.253,409.6z M409.6,442.88V409.6h33.28
		C439.433,426.342,426.342,439.433,409.6,442.88z"/>
	<path style="fill:#231F20;" d="M298.667,392.533h-34.133c-4.71,0-8.533,3.823-8.533,8.533s3.823,8.533,8.533,8.533h34.133
		c4.71,0,8.533-3.823,8.533-8.533S303.377,392.533,298.667,392.533z"/>
	<path style="fill:#231F20;" d="M230.4,392.533h-34.133c-4.71,0-8.533,3.823-8.533,8.533s3.823,8.533,8.533,8.533H230.4
		c4.71,0,8.533-3.823,8.533-8.533S235.11,392.533,230.4,392.533z"/>
	<circle style="fill:#231F20;" cx="136.533" cy="401.067" r="17.067"/>
	<circle style="fill:#231F20;" cx="102.4" cy="366.933" r="17.067"/>
	<circle style="fill:#231F20;" cx="102.4" cy="435.2" r="17.067"/>
	<path style="fill:#231F20;" d="M68.267,418.133c-9.429,0-17.067-7.637-17.067-17.067c0-9.429,7.637-17.067,17.067-17.067
		s17.067,7.637,17.067,17.067C85.333,410.496,77.696,418.133,68.267,418.133z"/>
</g>
<g>
</g>
<g>
</g>
<g>
</g>
<g>
</g>
<g>
</g>
<g>
</g>
<g>
</g>
<g>
</g>
<g>
</g>
<g>
</g>
<g>
</g>
<g>
</g>
<g>
</g>
<g>
</g>
<g>
</g>
</svg>
