<?xml version="1.0" encoding="iso-8859-1"?>
<!-- Generator: Adobe Illustrator 19.0.0, SVG Export Plug-In . SVG Version: 6.00 Build 0)  -->
<svg version="1.1" id="Capa_1" xmlns="http://www.w3.org/2000/svg" xmlns:xlink="http://www.w3.org/1999/xlink" x="0px" y="0px"
	 viewBox="0 0 512 512" style="enable-background:new 0 0 512 512;" xml:space="preserve">
<rect x="162.133" y="375.467" style="fill:#006DF0;" width="34.133" height="34.133"/>
<path style="fill:#398DF3;" d="M409.6,8.533H102.4c-9.429,0-17.067,7.637-17.067,17.067v460.8c0,9.429,7.637,17.067,17.067,17.067
	h221.867c56.55,0,102.4-45.85,102.4-102.4V25.6C426.667,16.171,419.029,8.533,409.6,8.533z M136.533,59.733h238.933V281.6H136.533
	V59.733z M230.4,409.6h-34.133v34.133h-34.133V409.6H128v-34.133h34.133v-34.133h34.133v34.133H230.4V409.6z M307.2,452.267
	c-9.429,0-17.067-7.637-17.067-17.067c0-9.429,7.637-17.067,17.067-17.067s17.067,7.637,17.067,17.067
	C324.267,444.629,316.629,452.267,307.2,452.267z M307.2,392.533c-9.429,0-17.067-7.637-17.067-17.067
	c0-9.429,7.637-17.067,17.067-17.067s17.067,7.637,17.067,17.067C324.267,384.896,316.629,392.533,307.2,392.533z M366.933,435.2
	c-9.429,0-17.067-7.637-17.067-17.067c0-9.429,7.637-17.067,17.067-17.067S384,408.704,384,418.133
	C384,427.563,376.363,435.2,366.933,435.2z M366.933,375.467c-9.429,0-17.067-7.637-17.067-17.067s7.637-17.067,17.067-17.067
	S384,348.971,384,358.4S376.363,375.467,366.933,375.467z"/>
<rect x="136.533" y="59.733" style="fill:#E6E7E8;" width="238.933" height="221.867"/>
<g>
	<rect x="162.133" y="341.333" style="fill:#414042;" width="34.133" height="34.133"/>
	<rect x="128" y="375.467" style="fill:#414042;" width="34.133" height="34.133"/>
	<rect x="196.267" y="375.467" style="fill:#414042;" width="34.133" height="34.133"/>
	<rect x="162.133" y="409.6" style="fill:#414042;" width="34.133" height="34.133"/>
</g>
<circle style="fill:#64C37D;" cx="307.2" cy="375.467" r="17.067"/>
<circle style="fill:#ED1C24;" cx="366.933" cy="358.4" r="17.067"/>
<circle style="fill:#FFAF46;" cx="307.2" cy="435.2" r="17.067"/>
<circle style="fill:#006DF0;" cx="366.933" cy="418.133" r="17.067"/>
<g>
	<path style="fill:#231F20;" d="M409.6,0H102.4C88.26,0,76.8,11.46,76.8,25.6v460.8c0,14.14,11.46,25.6,25.6,25.6h221.867
		c61.235-0.068,110.865-49.698,110.933-110.933V25.6C435.2,11.46,423.74,0,409.6,0z M418.133,401.067
		c-0.06,51.814-42.052,93.807-93.867,93.867H102.4c-4.71,0-8.533-3.823-8.533-8.533V25.6c0-4.71,3.823-8.533,8.533-8.533h307.2
		c4.71,0,8.533,3.823,8.533,8.533V401.067z"/>
	<path style="fill:#231F20;" d="M136.533,290.133h238.933c4.71,0,8.533-3.823,8.533-8.533V59.733c0-4.71-3.823-8.533-8.533-8.533
		H136.533c-4.71,0-8.533,3.823-8.533,8.533V281.6C128,286.31,131.823,290.133,136.533,290.133z M145.067,68.267h221.867v204.8
		H145.067V68.267z"/>
	<path style="fill:#231F20;" d="M204.8,332.8h-51.2v34.133h-34.133v51.2H153.6v34.133h51.2v-34.133h34.133v-51.2H204.8V332.8z
		 M170.667,349.867h17.067v17.067h-17.067V349.867z M187.733,384v17.067h-17.067V384H187.733z M136.533,401.067V384H153.6v17.067
		H136.533z M187.733,435.2h-17.067v-17.067h17.067V435.2z M221.867,384v17.067H204.8V384H221.867z"/>
	<path style="fill:#231F20;" d="M307.2,349.867c-14.14,0-25.6,11.46-25.6,25.6c0,14.14,11.46,25.6,25.6,25.6s25.6-11.46,25.6-25.6
		C332.8,361.327,321.34,349.867,307.2,349.867z M307.2,384c-4.71,0-8.533-3.823-8.533-8.533c0-4.71,3.823-8.533,8.533-8.533
		s8.533,3.823,8.533,8.533C315.733,380.177,311.91,384,307.2,384z"/>
	<path style="fill:#231F20;" d="M366.933,332.8c-14.14,0-25.6,11.46-25.6,25.6s11.46,25.6,25.6,25.6s25.6-11.46,25.6-25.6
		S381.073,332.8,366.933,332.8z M366.933,366.933c-4.71,0-8.533-3.823-8.533-8.533s3.823-8.533,8.533-8.533s8.533,3.823,8.533,8.533
		S371.644,366.933,366.933,366.933z"/>
	<path style="fill:#231F20;" d="M307.2,409.6c-14.14,0-25.6,11.46-25.6,25.6c0,14.14,11.46,25.6,25.6,25.6s25.6-11.46,25.6-25.6
		C332.8,421.06,321.34,409.6,307.2,409.6z M307.2,443.733c-4.71,0-8.533-3.823-8.533-8.533s3.823-8.533,8.533-8.533
		s8.533,3.823,8.533,8.533S311.91,443.733,307.2,443.733z"/>
	<path style="fill:#231F20;" d="M366.933,392.533c-14.14,0-25.6,11.46-25.6,25.6s11.46,25.6,25.6,25.6s25.6-11.46,25.6-25.6
		S381.073,392.533,366.933,392.533z M366.933,426.667c-4.71,0-8.533-3.823-8.533-8.533s3.823-8.533,8.533-8.533
		s8.533,3.823,8.533,8.533S371.644,426.667,366.933,426.667z"/>
</g>
<g>
</g>
<g>
</g>
<g>
</g>
<g>
</g>
<g>
</g>
<g>
</g>
<g>
</g>
<g>
</g>
<g>
</g>
<g>
</g>
<g>
</g>
<g>
</g>
<g>
</g>
<g>
</g>
<g>
</g>
</svg>
