<?xml version="1.0" encoding="iso-8859-1"?>
<!-- Generator: Adobe Illustrator 19.0.0, SVG Export Plug-In . SVG Version: 6.00 Build 0)  -->
<svg version="1.1" id="Capa_1" xmlns="http://www.w3.org/2000/svg" xmlns:xlink="http://www.w3.org/1999/xlink" x="0px" y="0px"
	 viewBox="0 0 512.001 512.001" style="enable-background:new 0 0 512.001 512.001;" xml:space="preserve">
<path style="fill:#D1D3D4;" d="M8.534,392.533C8.491,453.76,58.096,503.433,119.322,503.475
	c30.242,0.017,59.17-12.314,80.102-34.142h113.152c42.419,44.211,112.64,45.662,156.851,3.251s45.662-112.64,3.251-156.851
	c-20.941-21.828-49.894-34.159-80.145-34.133H119.467C58.198,281.6,8.534,331.264,8.534,392.533z M435.201,375.467
	c9.429,0,17.067,7.637,17.067,17.067S444.63,409.6,435.201,409.6s-17.067-7.637-17.067-17.067S425.78,375.467,435.201,375.467z
	 M379.188,339.234c5.871-7.373,16.606-8.593,23.979-2.722c7.373,5.871,8.593,16.606,2.722,23.979
	c-5.871,7.373-16.606,8.593-23.979,2.722c0,0,0,0-0.009,0C374.529,357.342,373.317,346.607,379.188,339.234z M392.534,418.133
	c9.429,0,17.067,7.637,17.067,17.067c0,9.429-7.637,17.067-17.067,17.067c-9.429,0-17.067-7.637-17.067-17.067
	C375.467,425.771,383.113,418.133,392.534,418.133z M349.867,375.467c9.429,0,17.067,7.637,17.067,17.067
	s-7.637,17.067-17.067,17.067s-17.067-7.637-17.067-17.067S340.446,375.467,349.867,375.467z M93.867,409.6H59.734v-34.133h34.133
	V409.6z M136.534,452.267h-34.133v-34.133h34.133V452.267z M145.067,375.467h34.133V409.6h-34.133V375.467z M136.534,366.933
	h-34.133V332.8h34.133V366.933z"/>
<g>
	<rect x="102.401" y="332.8" style="fill:#414042;" width="34.133" height="34.133"/>
	<rect x="102.401" y="418.133" style="fill:#414042;" width="34.133" height="34.133"/>
	<rect x="145.067" y="375.467" style="fill:#414042;" width="34.133" height="34.133"/>
	<rect x="59.734" y="375.467" style="fill:#414042;" width="34.133" height="34.133"/>
</g>
<path style="fill:#ED1C24;" d="M381.901,363.213c7.373,5.871,18.108,4.659,23.987-2.714c5.879-7.373,4.659-18.108-2.714-23.987
	c-7.373-5.879-18.108-4.659-23.987,2.714c0,0,0,0,0,0.009C373.317,346.607,374.529,357.342,381.901,363.213z"/>
<circle style="fill:#006DF0;" cx="435.201" cy="392.533" r="17.067"/>
<circle style="fill:#64C37D;" cx="349.867" cy="392.533" r="17.067"/>
<circle style="fill:#006DF0;" cx="392.534" cy="435.2" r="17.067"/>
<g>
	<path style="fill:#231F20;" d="M392.534,273.067h-128V230.4c0-14.14-11.46-25.6-25.6-25.6h-179.2
		c-23.561,0-42.667-19.106-42.667-42.667s19.106-42.667,42.667-42.667h409.6c23.561,0,42.667-19.106,42.667-42.667
		s-19.106-42.667-42.667-42.667H273.067c-4.71,0-8.533-3.823-8.533-8.533V0h-17.067v25.6c0,14.14,11.46,25.6,25.6,25.6h196.267
		c14.14,0,25.6,11.46,25.6,25.6s-11.46,25.6-25.6,25.6h-409.6c-32.99,0-59.733,26.743-59.733,59.733s26.743,59.733,59.733,59.733
		h179.2c4.71,0,8.533,3.823,8.533,8.533v42.667h-128c-65.98,0-119.467,53.487-119.467,119.467S53.487,512,119.467,512
		c31.266,0.137,61.312-12.134,83.533-34.133h106.001c22.221,21.999,52.267,34.27,83.533,34.133
		c65.98,0,119.467-53.487,119.467-119.467S458.514,273.067,392.534,273.067z M392.534,494.933
		c-27.887,0.119-54.588-11.273-73.788-31.497c-1.613-1.681-3.84-2.637-6.17-2.637H199.425c-2.33,0-4.557,0.956-6.17,2.637
		c-19.2,20.224-45.901,31.616-73.788,31.497c-56.55,0-102.4-45.85-102.4-102.4s45.85-102.4,102.4-102.4h273.067
		c56.55,0,102.4,45.85,102.4,102.4S449.084,494.933,392.534,494.933z"/>
	<path style="fill:#231F20;" d="M179.201,366.933h-34.133V332.8c0-4.71-3.823-8.533-8.533-8.533h-34.133
		c-4.71,0-8.533,3.823-8.533,8.533v34.133H59.734c-4.71,0-8.533,3.823-8.533,8.533V409.6c0,4.71,3.823,8.533,8.533,8.533h34.133
		v34.133c0,4.71,3.823,8.533,8.533,8.533h34.133c4.71,0,8.533-3.823,8.533-8.533v-34.133h34.133c4.71,0,8.533-3.823,8.533-8.533
		v-34.133C187.734,370.756,183.911,366.933,179.201,366.933z M85.334,401.067H68.267V384h17.067V401.067z M110.934,341.333h17.067
		V358.4h-17.067V341.333z M128.001,443.733h-17.067v-17.067h17.067V443.733z M102.401,409.6v-34.133h34.133V409.6H102.401z
		 M170.667,401.067h-17.067V384h17.067V401.067z"/>
	<path style="fill:#231F20;" d="M376.585,369.894c4.514,3.61,10.121,5.572,15.898,5.572c0.981,0,1.963-0.06,2.935-0.171
		c14.046-1.587,24.149-14.259,22.562-28.314c-0.759-6.75-4.181-12.919-9.489-17.152l0,0c-11.059-8.806-27.17-6.98-35.977,4.079
		c-8.806,11.059-6.98,27.17,4.079,35.977L376.585,369.894z M385.861,344.55c1.399-1.775,3.456-2.918,5.709-3.166
		c0.324-0.034,0.64-0.051,0.964-0.051c1.929,0,3.797,0.657,5.299,1.86c3.695,2.918,4.326,8.286,1.408,11.989
		c-2.918,3.703-8.286,4.326-11.989,1.408c-3.703-2.918-4.326-8.286-1.408-11.989c0.017-0.017,0.026-0.034,0.043-0.051H385.861z"/>
	<path style="fill:#231F20;" d="M435.201,366.933c-14.14,0-25.6,11.46-25.6,25.6s11.46,25.6,25.6,25.6s25.6-11.46,25.6-25.6
		S449.34,366.933,435.201,366.933z M435.201,401.067c-4.71,0-8.533-3.823-8.533-8.533S430.49,384,435.201,384
		s8.533,3.823,8.533,8.533S439.911,401.067,435.201,401.067z"/>
	<path style="fill:#231F20;" d="M375.467,392.533c0-14.14-11.46-25.6-25.6-25.6s-25.6,11.46-25.6,25.6s11.46,25.6,25.6,25.6
		S375.467,406.673,375.467,392.533z M349.867,401.067c-4.71,0-8.533-3.823-8.533-8.533s3.823-8.533,8.533-8.533
		s8.533,3.823,8.533,8.533S354.578,401.067,349.867,401.067z"/>
	<path style="fill:#231F20;" d="M392.534,409.6c-14.14,0-25.6,11.46-25.6,25.6c0,14.14,11.46,25.6,25.6,25.6
		c14.14,0,25.6-11.46,25.6-25.6C418.134,421.06,406.674,409.6,392.534,409.6z M392.534,443.733c-4.71,0-8.533-3.823-8.533-8.533
		s3.823-8.533,8.533-8.533c4.71,0,8.533,3.823,8.533,8.533S397.244,443.733,392.534,443.733z"/>
	<path style="fill:#231F20;" d="M238.934,384h-17.067c-4.71,0-8.533,3.823-8.533,8.533s3.823,8.533,8.533,8.533h17.067
		c4.71,0,8.533-3.823,8.533-8.533S243.644,384,238.934,384z"/>
	<path style="fill:#231F20;" d="M290.134,384h-17.067c-4.71,0-8.533,3.823-8.533,8.533s3.823,8.533,8.533,8.533h17.067
		c4.71,0,8.533-3.823,8.533-8.533S294.844,384,290.134,384z"/>
</g>
<g>
</g>
<g>
</g>
<g>
</g>
<g>
</g>
<g>
</g>
<g>
</g>
<g>
</g>
<g>
</g>
<g>
</g>
<g>
</g>
<g>
</g>
<g>
</g>
<g>
</g>
<g>
</g>
<g>
</g>
</svg>
