<?xml version="1.0" encoding="iso-8859-1"?>
<!-- Generator: Adobe Illustrator 19.0.0, SVG Export Plug-In . SVG Version: 6.00 Build 0)  -->
<svg version="1.1" id="Capa_1" xmlns="http://www.w3.org/2000/svg" xmlns:xlink="http://www.w3.org/1999/xlink" x="0px" y="0px"
	 viewBox="0 0 512 512" style="enable-background:new 0 0 512 512;" xml:space="preserve">
<polygon style="fill:#58595B;" points="51.2,503.467 110.933,503.467 110.933,298.667 401.067,298.667 401.067,503.467 
	460.8,503.467 460.8,93.867 371.755,8.533 349.867,8.533 349.867,162.133 145.067,162.133 145.067,8.533 51.2,8.533 "/>
<path style="fill:#ACABB1;" d="M110.933,298.667v204.8h290.133v-204.8H110.933z"/>
<g>
	<path style="fill:#E6E7E8;" d="M349.867,162.133V8.533h-204.8v153.6H349.867z M281.6,42.667h34.133V128H281.6V42.667z"/>
	<rect x="281.6" y="42.667" style="fill:#E6E7E8;" width="34.133" height="85.333"/>
</g>
<g>
	<path style="fill:#231F20;" d="M375.185,0H42.667v512h426.667V90.223L375.185,0z M341.333,17.067V153.6H153.6V17.067H341.333z
		 M119.467,494.933V307.2h273.067v187.733H119.467z M452.267,494.933H409.6v-204.8H102.4v204.8H59.733V17.067h76.8v153.6H358.4
		v-153.6h9.933l83.934,80.444V494.933z"/>
	<path style="fill:#231F20;" d="M324.267,34.133h-51.2v102.4h51.2V34.133z M307.2,119.467h-17.067V51.2H307.2V119.467z"/>
	<rect x="153.6" y="341.333" style="fill:#231F20;" width="204.8" height="17.067"/>
	<rect x="153.6" y="375.467" style="fill:#231F20;" width="204.8" height="17.067"/>
</g>
<g>
</g>
<g>
</g>
<g>
</g>
<g>
</g>
<g>
</g>
<g>
</g>
<g>
</g>
<g>
</g>
<g>
</g>
<g>
</g>
<g>
</g>
<g>
</g>
<g>
</g>
<g>
</g>
<g>
</g>
</svg>
