<?xml version="1.0" encoding="iso-8859-1"?>
<!-- Generator: Adobe Illustrator 19.0.0, SVG Export Plug-In . SVG Version: 6.00 Build 0)  -->
<svg version="1.1" id="Capa_1" xmlns="http://www.w3.org/2000/svg" xmlns:xlink="http://www.w3.org/1999/xlink" x="0px" y="0px"
	 viewBox="0 0 512 512" style="enable-background:new 0 0 512 512;" xml:space="preserve">
<g>
	<path style="fill:#78B9EB;" d="M213.333,469.333v-68.267H128c-47.13,0-85.333-38.204-85.333-85.333v153.6H213.333z"/>
	<path style="fill:#78B9EB;" d="M128,230.4h85.333V110.933H42.667v204.8C42.667,268.604,80.87,230.4,128,230.4z"/>
</g>
<path style="fill:#E6E7E8;" d="M187.733,8.533H68.267v102.4h119.467V8.533z"/>
<path style="fill:#006DF0;" d="M85.333,503.467h85.333c9.429,0,17.067-7.637,17.067-17.067v-17.067H68.267V486.4
	C68.267,495.829,75.904,503.467,85.333,503.467z"/>
<path style="fill:#96C9EF;" d="M128,401.067h341.333V230.4H128c-47.13,0-85.333,38.204-85.333,85.333S80.87,401.067,128,401.067z
	 M128,281.6c18.85,0,34.133,15.283,34.133,34.133c0,18.85-15.283,34.133-34.133,34.133s-34.133-15.283-34.133-34.133
	C93.867,296.883,109.15,281.6,128,281.6z"/>
<circle style="fill:#006DF0;" cx="128" cy="315.733" r="34.133"/>
<g>
	<path style="fill:#231F20;" d="M162.133,25.6c-4.71,0-8.533,3.823-8.533,8.533v34.133c0,4.71,3.823,8.533,8.533,8.533
		s8.533-3.823,8.533-8.533V34.133C170.667,29.423,166.844,25.6,162.133,25.6z"/>
	<path style="fill:#231F20;" d="M93.867,25.6c-4.71,0-8.533,3.823-8.533,8.533v34.133c0,4.71,3.823,8.533,8.533,8.533
		c4.71,0,8.533-3.823,8.533-8.533V34.133C102.4,29.423,98.577,25.6,93.867,25.6z"/>
	<path style="fill:#231F20;" d="M469.333,221.867H221.867V110.933c0-4.71-3.823-8.533-8.533-8.533h-17.067V8.533
		c0-4.71-3.823-8.533-8.533-8.533H68.267c-4.71,0-8.533,3.823-8.533,8.533V102.4H42.667c-4.71,0-8.533,3.823-8.533,8.533v358.4
		c0,4.71,3.823,8.533,8.533,8.533h17.067v8.533c0,14.14,11.46,25.6,25.6,25.6h85.333c14.14,0,25.6-11.46,25.6-25.6v-8.533h17.067
		c4.71,0,8.533-3.823,8.533-8.533V409.6h247.467c4.71,0,8.533-3.823,8.533-8.533V230.4
		C477.867,225.69,474.044,221.867,469.333,221.867z M76.8,17.067h102.4V102.4H76.8V17.067z M51.2,119.467h153.6v102.4H128
		c-30.609,0.034-59.281,15.002-76.8,40.107V119.467z M179.2,486.4c0,4.71-3.823,8.533-8.533,8.533H85.333
		c-4.71,0-8.533-3.823-8.533-8.533v-8.533h102.4V486.4z M204.8,460.8H51.2v-91.264c17.527,25.088,46.199,40.038,76.8,40.064h76.8
		V460.8z M460.8,392.533H128c-42.419,0-76.8-34.381-76.8-76.8s34.381-76.8,76.8-76.8h332.8V392.533z"/>
	<path style="fill:#231F20;" d="M128,273.067c-23.561,0-42.667,19.106-42.667,42.667S104.439,358.4,128,358.4
		s42.667-19.106,42.667-42.667C170.641,292.181,151.552,273.092,128,273.067z M128,341.333c-14.14,0-25.6-11.46-25.6-25.6
		c0-14.14,11.46-25.6,25.6-25.6c14.14,0,25.6,11.46,25.6,25.6C153.6,329.873,142.14,341.333,128,341.333z"/>
	<path style="fill:#231F20;" d="M281.6,290.133H384c4.71,0,8.533-3.823,8.533-8.533s-3.823-8.533-8.533-8.533H281.6
		c-4.71,0-8.533,3.823-8.533,8.533S276.89,290.133,281.6,290.133z"/>
	<path style="fill:#231F20;" d="M281.6,358.4H384c4.71,0,8.533-3.823,8.533-8.533c0-4.71-3.823-8.533-8.533-8.533H281.6
		c-4.71,0-8.533,3.823-8.533,8.533C273.067,354.577,276.89,358.4,281.6,358.4z"/>
</g>
<g>
</g>
<g>
</g>
<g>
</g>
<g>
</g>
<g>
</g>
<g>
</g>
<g>
</g>
<g>
</g>
<g>
</g>
<g>
</g>
<g>
</g>
<g>
</g>
<g>
</g>
<g>
</g>
<g>
</g>
</svg>
