<?xml version="1.0" encoding="iso-8859-1"?>
<!-- Generator: Adobe Illustrator 19.0.0, SVG Export Plug-In . SVG Version: 6.00 Build 0)  -->
<svg version="1.1" id="Capa_1" xmlns="http://www.w3.org/2000/svg" xmlns:xlink="http://www.w3.org/1999/xlink" x="0px" y="0px"
	 viewBox="0 0 512 512" style="enable-background:new 0 0 512 512;" xml:space="preserve">
<path style="fill:#F1F2F2;" d="M409.498,8.533H256v136.533h187.733V42.854L409.498,8.533z"/>
<g>
	<circle style="fill:#006DF0;" cx="281.6" cy="281.6" r="17.067"/>
	<circle style="fill:#006DF0;" cx="349.867" cy="281.6" r="17.067"/>
	<circle style="fill:#006DF0;" cx="418.133" cy="281.6" r="17.067"/>
	<circle style="fill:#006DF0;" cx="281.6" cy="349.867" r="17.067"/>
	<circle style="fill:#006DF0;" cx="349.867" cy="349.867" r="17.067"/>
	<circle style="fill:#006DF0;" cx="418.133" cy="349.867" r="17.067"/>
	<circle style="fill:#006DF0;" cx="281.6" cy="418.133" r="17.067"/>
	<circle style="fill:#006DF0;" cx="349.867" cy="418.133" r="17.067"/>
	<circle style="fill:#006DF0;" cx="418.133" cy="418.133" r="17.067"/>
	<path style="fill:#006DF0;" d="M110.933,102.4H128c28.279,0,51.2,22.921,51.2,51.2v298.667c0,28.279-22.921,51.2-51.2,51.2h-17.067
		c-28.279,0-51.2-22.921-51.2-51.2V153.6C59.733,125.321,82.654,102.4,110.933,102.4z"/>
</g>
<rect x="256" y="179.2" style="fill:#F1F2F2;" width="187.733" height="51.2"/>
<g>
	<rect x="281.6" y="34.133" style="fill:#231F20;" width="119.467" height="17.067"/>
	<path style="fill:#231F20;" d="M281.6,256c-14.14,0-25.6,11.46-25.6,25.6s11.46,25.6,25.6,25.6s25.6-11.46,25.6-25.6
		C307.2,267.46,295.74,256,281.6,256z M281.6,290.133c-4.71,0-8.533-3.823-8.533-8.533s3.823-8.533,8.533-8.533
		s8.533,3.823,8.533,8.533S286.31,290.133,281.6,290.133z"/>
	<path style="fill:#231F20;" d="M349.867,256c-14.14,0-25.6,11.46-25.6,25.6s11.46,25.6,25.6,25.6c14.14,0,25.6-11.46,25.6-25.6
		C375.467,267.46,364.006,256,349.867,256z M349.867,290.133c-4.71,0-8.533-3.823-8.533-8.533s3.823-8.533,8.533-8.533
		c4.71,0,8.533,3.823,8.533,8.533S354.577,290.133,349.867,290.133z"/>
	<path style="fill:#231F20;" d="M418.133,256c-14.14,0-25.6,11.46-25.6,25.6s11.46,25.6,25.6,25.6s25.6-11.46,25.6-25.6
		C443.733,267.46,432.273,256,418.133,256z M418.133,290.133c-4.71,0-8.533-3.823-8.533-8.533s3.823-8.533,8.533-8.533
		s8.533,3.823,8.533,8.533S422.844,290.133,418.133,290.133z"/>
	<path style="fill:#231F20;" d="M281.6,324.267c-14.14,0-25.6,11.46-25.6,25.6c0,14.14,11.46,25.6,25.6,25.6s25.6-11.46,25.6-25.6
		C307.2,335.727,295.74,324.267,281.6,324.267z M281.6,358.4c-4.71,0-8.533-3.823-8.533-8.533c0-4.71,3.823-8.533,8.533-8.533
		s8.533,3.823,8.533,8.533C290.133,354.577,286.31,358.4,281.6,358.4z"/>
	<path style="fill:#231F20;" d="M349.867,324.267c-14.14,0-25.6,11.46-25.6,25.6c0,14.14,11.46,25.6,25.6,25.6
		c14.14,0,25.6-11.46,25.6-25.6C375.467,335.727,364.006,324.267,349.867,324.267z M349.867,358.4c-4.71,0-8.533-3.823-8.533-8.533
		c0-4.71,3.823-8.533,8.533-8.533c4.71,0,8.533,3.823,8.533,8.533C358.4,354.577,354.577,358.4,349.867,358.4z"/>
	<path style="fill:#231F20;" d="M418.133,324.267c-14.14,0-25.6,11.46-25.6,25.6c0,14.14,11.46,25.6,25.6,25.6s25.6-11.46,25.6-25.6
		C443.733,335.727,432.273,324.267,418.133,324.267z M418.133,358.4c-4.71,0-8.533-3.823-8.533-8.533
		c0-4.71,3.823-8.533,8.533-8.533s8.533,3.823,8.533,8.533C426.667,354.577,422.844,358.4,418.133,358.4z"/>
	<path style="fill:#231F20;" d="M281.6,392.533c-14.14,0-25.6,11.46-25.6,25.6s11.46,25.6,25.6,25.6s25.6-11.46,25.6-25.6
		S295.74,392.533,281.6,392.533z M281.6,426.667c-4.71,0-8.533-3.823-8.533-8.533s3.823-8.533,8.533-8.533s8.533,3.823,8.533,8.533
		S286.31,426.667,281.6,426.667z"/>
	<path style="fill:#231F20;" d="M349.867,392.533c-14.14,0-25.6,11.46-25.6,25.6s11.46,25.6,25.6,25.6c14.14,0,25.6-11.46,25.6-25.6
		S364.006,392.533,349.867,392.533z M349.867,426.667c-4.71,0-8.533-3.823-8.533-8.533s3.823-8.533,8.533-8.533
		c4.71,0,8.533,3.823,8.533,8.533S354.577,426.667,349.867,426.667z"/>
	<path style="fill:#231F20;" d="M418.133,392.533c-14.14,0-25.6,11.46-25.6,25.6s11.46,25.6,25.6,25.6s25.6-11.46,25.6-25.6
		S432.273,392.533,418.133,392.533z M418.133,426.667c-4.71,0-8.533-3.823-8.533-8.533s3.823-8.533,8.533-8.533
		s8.533,3.823,8.533,8.533S422.844,426.667,418.133,426.667z"/>
	<path style="fill:#231F20;" d="M486.4,136.533h-34.133V39.33L413.013,0H247.467v136.533h-62.293
		c-7.561-25.276-30.788-42.607-57.173-42.667h-17.067c-26.385,0.06-49.613,17.391-57.173,42.667H25.6c-14.14,0-25.6,11.46-25.6,25.6
		v290.133c0,14.14,11.46,25.6,25.6,25.6l0,0h31.445c9.873,20.821,30.848,34.099,53.888,34.133H128
		c23.04-0.034,44.015-13.312,53.888-34.133H486.4c14.14,0,25.6-11.46,25.6-25.6l0,0V162.133
		C512,147.994,500.54,136.533,486.4,136.533z M264.533,17.067h141.423L435.2,46.387v90.146H264.533V17.067z M25.6,460.8
		c-4.71,0-8.533-3.823-8.533-8.533V162.133c0-4.71,3.823-8.533,8.533-8.533h25.6v298.667c0.026,2.859,0.256,5.709,0.683,8.533H25.6z
		 M170.667,452.267c-0.026,23.552-19.115,42.641-42.667,42.667h-17.067c-23.552-0.026-42.641-19.115-42.667-42.667V153.6
		c0.026-23.552,19.115-42.641,42.667-42.667H128c23.552,0.026,42.641,19.115,42.667,42.667V452.267z M494.933,452.267
		c0,4.71-3.823,8.533-8.533,8.533H187.051c0.427-2.825,0.657-5.675,0.683-8.533V153.6H486.4c4.71,0,8.533,3.823,8.533,8.533V452.267
		z"/>
	<path style="fill:#231F20;" d="M247.467,238.933h204.8v-68.267h-204.8V238.933z M264.533,187.733H435.2v34.133H264.533V187.733z"/>
	<rect x="281.6" y="68.267" style="fill:#231F20;" width="119.467" height="17.067"/>
	<rect x="281.6" y="102.4" style="fill:#231F20;" width="119.467" height="17.067"/>
</g>
<g>
</g>
<g>
</g>
<g>
</g>
<g>
</g>
<g>
</g>
<g>
</g>
<g>
</g>
<g>
</g>
<g>
</g>
<g>
</g>
<g>
</g>
<g>
</g>
<g>
</g>
<g>
</g>
<g>
</g>
</svg>
