<?xml version="1.0" encoding="iso-8859-1"?>
<!-- Generator: Adobe Illustrator 19.0.0, SVG Export Plug-In . SVG Version: 6.00 Build 0)  -->
<svg version="1.1" id="Capa_1" xmlns="http://www.w3.org/2000/svg" xmlns:xlink="http://www.w3.org/1999/xlink" x="0px" y="0px"
	 viewBox="0 0 512 512" style="enable-background:new 0 0 512 512;" xml:space="preserve">
<path style="fill:#64C37D;" d="M443.733,68.267H68.267v375.467h375.467V68.267z M384,384H128V128h256V384z"/>
<path style="fill:#FF7754;" d="M128,384h256V128H128V384z M153.6,153.6h204.8v204.8H153.6V153.6z"/>
<path style="fill:#FF9811;" d="M358.4,153.6H153.6v204.8h204.8V153.6z"/>
<g>
	<path style="fill:#231F20;" d="M366.933,145.067H145.067v221.867h221.867V145.067z M349.867,349.867H162.133V162.133h187.733
		V349.867z"/>
	<path style="fill:#231F20;" d="M512,110.933V93.867h-59.733V59.733h-34.133V0h-17.067v59.733h-34.133V0h-17.067v59.733h-34.133V0
		h-17.067v59.733h-34.133V0h-17.067v59.733h-34.133V0h-17.067v59.733h-34.133V0h-17.067v59.733h-34.133V0H93.867v59.733H59.733
		v34.133H0v17.067h59.733v34.133H0v17.067h59.733v34.133H0v17.067h59.733v34.133H0v17.067h59.733v34.133H0v17.067h59.733v34.133H0
		v17.067h59.733v34.133H0v17.067h59.733v34.133h34.133V512h17.067v-59.733h34.133V512h17.067v-59.733h34.133V512h17.067v-59.733
		h34.133V512h17.067v-59.733h34.133V512h17.067v-59.733h34.133V512h17.067v-59.733h34.133V512h17.067v-59.733h34.133v-34.133H512
		v-17.067h-59.733v-34.133H512v-17.067h-59.733v-34.133H512v-17.067h-59.733v-34.133H512v-17.067h-59.733v-34.133H512v-17.067
		h-59.733v-34.133H512v-17.067h-59.733v-34.133H512z M435.2,435.2H76.8V76.8h358.4V435.2z"/>
	<path style="fill:#231F20;" d="M392.533,119.467H119.467v273.067h273.067V119.467z M375.467,375.467H136.533V136.533h238.933
		V375.467z"/>
	<rect x="204.8" y="273.067" style="fill:#231F20;" width="102.4" height="17.067"/>
	<rect x="204.8" y="221.867" style="fill:#231F20;" width="102.4" height="17.067"/>
</g>
<g>
</g>
<g>
</g>
<g>
</g>
<g>
</g>
<g>
</g>
<g>
</g>
<g>
</g>
<g>
</g>
<g>
</g>
<g>
</g>
<g>
</g>
<g>
</g>
<g>
</g>
<g>
</g>
<g>
</g>
</svg>
