<?xml version="1.0" encoding="UTF-8" standalone="no"?>
<svg
   xmlns:dc="http://purl.org/dc/elements/1.1/"
   xmlns:cc="http://creativecommons.org/ns#"
   xmlns:rdf="http://www.w3.org/1999/02/22-rdf-syntax-ns#"
   xmlns:svg="http://www.w3.org/2000/svg"
   xmlns="http://www.w3.org/2000/svg"
   xmlns:sodipodi="http://sodipodi.sourceforge.net/DTD/sodipodi-0.dtd"
   xmlns:inkscape="http://www.inkscape.org/namespaces/inkscape"
   height="528.58807pt"
   viewBox="-73 0 365.23279 528.58877"
   width="365.23279pt"
   version="1.1"
   id="svg32"
   sodipodi:docname="evil.svg"
   inkscape:version="0.92.4 5da689c313, 2019-01-14">
  <metadata
     id="metadata38">
    <rdf:RDF>
      <cc:Work
         rdf:about="">
        <dc:format>image/svg+xml</dc:format>
        <dc:type
           rdf:resource="http://purl.org/dc/dcmitype/StillImage" />
        <dc:title></dc:title>
      </cc:Work>
    </rdf:RDF>
  </metadata>
  <defs
     id="defs36" />
  <sodipodi:namedview
     pagecolor="#ffffff"
     bordercolor="#666666"
     borderopacity="1"
     objecttolerance="10"
     gridtolerance="10"
     guidetolerance="10"
     inkscape:pageopacity="0"
     inkscape:pageshadow="2"
     inkscape:window-width="1920"
     inkscape:window-height="999"
     id="namedview34"
     showgrid="false"
     inkscape:zoom="0.48889805"
     inkscape:cx="211.25018"
     inkscape:cy="490.45939"
     inkscape:window-x="0"
     inkscape:window-y="0"
     inkscape:window-maximized="1"
     inkscape:current-layer="svg32"
     fit-margin-top="0"
     fit-margin-left="0"
     fit-margin-right="0"
     fit-margin-bottom="0" />
  <path
     d="m 108.16731,360.11998 c -2.65235,0 -4.94922,-2.66797 -6.41016,-4.90625 -4.972655,-7.62891 -9.105475,-15.95703 -12.753905,-23.30469 l -1.10547,-2.23828 1.51953,-1.97656 c 5.39453,-7.02735 10.621095,-14.25391 15.531255,-21.48047 l 3.25,-4.78125 22.20703,31.49219 -2.27344,2.3789 c -4.35547,7.8086 -9.54687,15.22266 -15.41015,21.9961 -1.25,1.42968 -2.15625,2.26953 -3.37891,2.64453 l -0.57422,0.17578 z m 0,0"
     id="path2"
     inkscape:connector-curvature="0"
     style="fill:#935252" />
  <path
     d="M 104.18684,460.02232 C 98.768865,441.30357 93.718085,422.10826 89.175115,402.96373 l -0.30469,-1.28906 0.52344,-1.21485 c 5.30078,-12.32031 10.375,-24.88672 15.082035,-37.35156 l 3.80078,-10.06641 15.96875,43.63282 2.14063,1.5664 -0.56641,2.61719 -17.39453,73.80859 z m 0,0"
     id="path4"
     inkscape:connector-curvature="0"
     style="fill:#935252" />
  <path
     d="m 106.24153,298.54576 6.17578,-1.11328 c 4.17578,-0.75391 8.05859,-3.25391 11.67969,-5.75391 8.16796,-5.63281 16.37109,-11.68359 24.3789,-17.99218 l 8.99219,-7.08203 -18.47656,78.38671 z m 0,0"
     id="path6"
     inkscape:connector-curvature="0"
     style="fill:#ffffff" />
  <path
     d="m 75.089175,334.99889 c -3.22656,-18.19532 -6.05468,-36.51563 -8.39453,-54.44922 l -1.17187,-8.95703 7.41797,5.15234 c 7.98437,5.54297 16.05468,10.89453 23.99218,15.90234 2.55469,1.60157 5.289075,3.25 8.125005,4.19922 l 4.96094,1.65625 -2.90234,4.35547 c -7.777355,11.67969 -16.183605,23.10547 -24.980475,33.96094 l -5.51563,6.80469 z m 0,0"
     id="path8"
     inkscape:connector-curvature="0"
     style="fill:#ffffff" />
  <path
     d="m 86.077455,389.53014 c -3.27734,-14.53125 -6.33593,-29.36719 -9.08984,-44.09766 l -0.39453,-2.10156 1.42969,-1.39453 c 2.0039,-2.40625 3.99609,-4.85157 5.92968,-7.26954 l 3.89844,-4.89062 2.80078,5.58984 c 3.81641,7.60157 7.15235,13.89063 11.050785,19.88282 0.69532,1.07031 1.41797,1.98828 2.14844,2.72656 l 1.80078,1.82422 -0.89843,2.39844 c -3.41797,9.08203 -7.144545,18.5 -11.078135,27.98437 l -4.82812,11.63281 z m 0,0"
     id="path10"
     inkscape:connector-curvature="0"
     style="fill:#d8deec" />
  <path
     d="m 110.77278,359.68639 1.49609,-1.77344 c 0.14453,-0.16797 0.50781,-0.58594 0.50781,-0.58594 5.25391,-6.0625 9.98828,-12.67578 14.0586,-19.64453 l 3.13281,-5.36328 7.26953,10.28515 1.90234,1.5625 -0.52734,2.46094 -12.78516,54.1875 z m 0,0"
     id="path12"
     inkscape:connector-curvature="0"
     style="fill:#d8deec" />
  <path
     style="fill:#b80404;fill-opacity:1;stroke:#000000;stroke-width:7.65000963;stroke-linecap:butt;stroke-linejoin:round;stroke-miterlimit:4;stroke-dasharray:none;stroke-opacity:1"
     d="M 27.654815,70.441639 C -6.3664109,58.321221 1.6961701,23.720775 11.930646,4.093364 c 2.536984,23.868916 2.830621,44.290474 31.831859,40.6527"
     id="path1407"
     inkscape:connector-curvature="0"
     sodipodi:nodetypes="ccc" />
  <path
     style="fill:#b80404;fill-opacity:1;stroke:#000000;stroke-width:7.65000963;stroke-linecap:butt;stroke-linejoin:round;stroke-miterlimit:4;stroke-dasharray:none;stroke-opacity:1"
     d="M 203.14489,70.172361 C 237.16612,58.051944 229.10354,23.451498 218.86906,3.824088 216.33208,27.693003 216.03844,48.114561 187.0372,44.476787"
     id="path1407-9"
     inkscape:connector-curvature="0"
     sodipodi:nodetypes="ccc" />
  <path
     d="m 183.55012,156.36607 c -0.0352,-0.10547 -0.0664,-0.20312 -0.0937,-0.29687 -0.14844,-0.46485 -0.28125,-0.85938 -0.39453,-1.13672 -1.0625,-2.625 -2.17969,-5.28906 -3.30078,-7.96484 -3.48438,-8.32813 -7.07813,-16.92969 -9.53906,-25.60547 -4.33985,-15.3125 -6.76954,-36.546881 -0.79297,-50.804693 v -0.03125 l 0.10937,-0.25 -0.12109,0.125 c -8.38281,18.382812 -19.11328,33.261723 -31.0625,43.062503 -9.64453,7.92188 -20.35938,14.41406 -31.84375,19.28906 -9.867195,4.1875 -20.093755,7.08594 -30.398445,8.61328 l -9.67578,1.4375 5.89844,-7.80468 c 7.49218,-9.91407 12.44531,-21.58594 14.3164,-33.75782 -6.07422,5.46875 -12.86718,9.50781 -20.0625,13.78906 l -1.46484,0.875 c -0.82813,0.5 -1.65625,0.9961 -2.48438,1.4961 -8.13671,4.91406 -16.46093,10.52734 -22.27343,18.26953 -2.83985,3.77344 -4.85938,7.82422 -6.01172,12.04297 l -3.02734,11.10937 -4.511724,-10.59765 C 18.460273,128.59264 16.42121,106.65904 21.069647,86.463727 25.221991,68.416852 31.343085,55.764508 39.780585,47.791852 c 10.97656,-10.382813 24.9375,-18.210937 40.37109,-22.644531 10.37891,-2.984375 21.593755,-4.496094 33.332035,-4.496094 9.10938,0 18.46875,0.917969 27.82422,2.734375 21.10938,4.085937 37.51563,11.984375 48.75782,23.464844 17.8789,18.265625 22.94921,43.8125 15.48828,78.109374 -1.96094,9.05469 -4.4961,18.5 -9.71094,26.21875 -2.43359,3.61328 -4.36328,5.81641 -5.55469,7.02735 l -4.72656,4.80468 z m 0,0"
     id="path14"
     inkscape:connector-curvature="0"
     style="fill:#644c4c" />
  <g
     id="g24"
     style="fill:#5b5d6d"
     transform="translate(-73.000665,16.588727)">
    <path
       d="m 289.38281,507.91797 -0.14844,-3.83985 c -0.9414,-24.10156 0.67969,-48.35937 4.82422,-72.09375 -4.1914,23.64454 -5.82031,47.80469 -4.90234,71.78516 l 0.16016,4.15235 -106.39063,-0.0195 -0.76953,-45.64062 2.99609,-0.81641 77.36719,-88.25 c 1.75391,-2 4.68359,-5.34765 4.24609,-8.99609 -0.32031,-2.6875 -2.33984,-4.81641 -4.3789,-6.76172 -8.125,-7.76172 -16.84375,-15.09766 -25.90625,-21.80078 l -6.02734,-4.45313 7.05859,-2.52734 c 11.87891,-4.25 24.28515,-7.07812 36.8789,-8.41016 l -19.85156,-36.00781 5.9375,-5.10547 c 3.66797,2.82032 7.59766,5.60547 12.01563,8.51953 2.83203,1.88282 5.76953,3.76954 8.60937,5.59375 l 0.90235,0.58204 c 17.78125,11.42578 36.17578,23.23828 47.25,41.22656 9.99218,16.25 12.95703,36.11719 15.57031,53.64844 l 15.96094,106.84765 c 0.50781,3.45313 0.85156,7.33985 -1.45703,9.86328 -2.13672,2.33203 -5.69922,2.52735 -8.8711,2.52735 z m 0,0"
       id="path16"
       inkscape:connector-curvature="0" />
    <path
       d="m 182.76562,452.66406 48.58204,-206.0664 5.10546,7.76562 c 1.71875,2.61719 3.71485,5.26953 5.9375,7.89063 l 0.60157,0.71093 0.23047,0.90625 31.05078,56.20703 -5.73438,0.82032 c -13.0664,1.87109 -25.89062,5.375 -38.11328,10.41015 11.23438,7.89453 21.97656,16.6875 31.92578,26.17969 2.03125,1.94531 4.03906,4.0625 4.35156,6.73438 0.41016,3.3125 -1.96484,6.33984 -4.22265,8.92187 l -72.8125,83.07031 z m 0,0"
       id="path18"
       inkscape:connector-curvature="0" />
    <path
       d="m 63.984375,507.87109 0.800781,-4.67578 c 4.578125,-26.64453 5.128906,-53.72656 1.648438,-80.48828 3.480468,27.24219 2.847656,54.78125 -1.945313,81.86328 l -0.585937,3.30078 -47.214844,-0.008 c -3.914062,0 -8.296875,-0.25 -10.769531,-3.21875 -2.3125,-2.78515 -2,-6.72265 -1.480469,-10.52344 5.726562,-42.24609 12.972656,-85.00781 21.53125,-127.08593 2.234375,-10.95313 5,-24.51953 11.933594,-35.58594 9.140625,-14.60938 24.542968,-23.89844 39.828125,-31.76172 2.378906,-1.23047 4.855469,-2.45703 7.269531,-3.65234 l 0.535156,-0.26563 c 7.3125,-3.61719 15.601564,-7.71094 22.917974,-12.71875 l 5.63671,5.44141 c -2.38671,3.77344 -4.78125,7.51953 -7.15234,11.22265 l -2.67578,4.19141 c -6.375001,9.94922 -13.597658,21.22266 -20.460939,32.51172 0.292969,0.004 0.585938,0.008 0.875,0.008 0.757813,0 1.503907,-0.008 2.246094,-0.008 12.183594,0 24.152345,2.15234 35.582035,6.40625 l 6.48437,2.41016 -5.32422,4.41796 c -1.97265,1.63672 -4.17187,3.05469 -6.29687,4.42188 L 116.71484,354.5 c -0.86328,0.5625 -1.72656,1.12109 -2.5664,1.70313 -4.44922,3.07031 -9.72656,8.03125 -9.6875,14.3164 0.0391,4.27735 2.49609,8.03906 5.23437,11.83203 20.48047,28.32422 44.00391,54.58985 69.92188,78.06641 l 2.48047,0.98047 0.0312,2.65625 0.73828,43.84765 z m 0,0"
       id="path20"
       inkscape:connector-curvature="0" />
    <path
       d="m 172.33594,453.58203 c -23.05469,-21.73047 -44.10938,-45.71094 -62.58985,-71.27734 -2.73046,-3.77344 -5.1875,-7.51563 -5.21875,-11.79688 -0.043,-4.9375 3.29297,-9.86719 9.64454,-14.24219 0.8789,-0.60937 1.80468,-1.21484 2.73437,-1.8164 l 0.48828,-0.32031 c 3.94531,-2.54297 8.00781,-5.16016 10.62109,-9.10547 -11.59765,-5.14844 -24.4414,-8.10547 -37.160151,-8.59375 l -6.863281,-0.26563 3.613281,-5.83984 c 5.632812,-9.09375 11.515625,-18.27735 16.703121,-26.37891 l 0.27735,-0.4375 c 6.65625,-10.40625 13.53906,-21.16797 20.19531,-32.10547 l 0.22656,-1.38281 1.02735,-0.92578 c 2.625,-2.36719 4.77343,-4.59375 6.57031,-6.80469 l 5.85937,-7.21094 1.20703,9.21485 c 5.28907,40.28125 12.70704,80.80859 22.0586,120.45312 l 0.0469,0.19922 c 0,0 0.0273,0.21875 0.0273,0.21875 -0.004,0 -0.0117,-0.0195 -0.0234,-0.043 l 0.0937,0.23828 0.0625,0.26954 c 5.07031,21.41406 10.78125,42.91796 16.97656,63.91015 l 4.1875,14.19531 z m 0,0"
       id="path22"
       inkscape:connector-curvature="0" />
  </g>
  <path
     d="m 114.19465,257.28795 c -12.62109,0 -25.164065,-3 -36.265625,-8.67578 -21.24219,-10.8711 -37.78516,-31.71485 -44.25391,-55.76563 -1.17187,0.21094 -2.33984,0.33203 -3.51953,0.33203 -3.976562,0 -8.082031,-1.37109 -11.554688,-3.85547 -4.5625,-3.24609 -7.550781,-8.01171 -8.191406,-13.07031 -0.6406249,-5.0625 1.066406,-10.42578 4.683594,-14.71094 3.058594,-3.65234 7.148438,-6.09765 11.511719,-6.8789 l 2.855471,-0.51563 1.375,2.5625 c 1.21875,2.26953 2.40625,4.3086 3.6289,6.23047 -2.66406,-8.34765 -0.40625,-18.77343 5.94532,-27.23437 5.80859,-7.72266 14.1289,-13.33594 22.26171,-18.25 0.90235,-0.54688 3.95313,-2.3711 3.95313,-2.3711 l 0.29297,-0.17187 c 3.62109,-2.16016 7.36719,-4.39453 10.91406,-6.80469 l 9.61328,-6.52734 -3.55859,11.0625 c -3.60938,11.21875 -9.86328,21.52734 -18.08985,29.80469 13.84766,-0.77735 27.54688,-4.03907 40.738295,-9.64454 11.48046,-4.87109 22.19921,-11.35937 31.86718,-19.28906 7.30469,-6.00391 14.0625,-13.722658 20.08985,-22.937502 l 7.26953,-11.121093 0.0781,13.289062 c 0.0508,9.074223 1.50391,18.707033 4.31641,28.628913 2.48047,8.74218 6.07422,17.3164 9.55078,25.60546 l 0.36719,0.87891 c 0.99609,2.38281 1.98437,4.75781 2.93359,7.11328 0.11719,0.28906 0.26172,0.71485 0.41406,1.21094 0.51563,1.58594 1.40235,4.32812 2.65235,4.56641 0.14453,0.0273 0.27734,0.0391 0.39453,0.0391 0.57422,0 2.81641,-0.4961 7.53906,-6.89844 l 1.6211,-2.19141 2.63672,0.70704 c 10.83203,2.91015 16.36328,11.92578 13.76562,22.43359 -2.28125,9.20312 -11.375,16.13672 -21.15234,16.13672 -1.48047,0 -2.94532,-0.16406 -4.35547,-0.49219 -0.85547,23.85547 -16.1211,47.43359 -38.02344,58.71094 -10.28516,5.29687 -22.14844,8.09375 -34.30469,8.09375 z m 0,0"
     id="path26"
     inkscape:connector-curvature="0"
     style="fill:#efb17c" />
  <path
     d="m 109.42903,297.60826 c -4.39063,-0.14453 -8.23828,-2.35547 -12.453135,-5.01562 -9.88281,-6.23047 -19.88672,-12.9375 -29.73437,-19.9336 l -2.45313,-1.74219 0.9961,-2.83984 c 2.12109,-6.05469 2.52343,-12.46094 2.63671,-17.92969 l 0.14063,-6.75 5.85156,3.36328 c 1.19922,0.69141 2.37891,1.33594 3.5,1.91407 11.07422,5.66797 23.621105,8.66406 36.277355,8.66406 12.1914,0 24.0625,-2.79688 34.33984,-8.08594 0.21875,-0.10937 0.38672,-0.20703 0.55859,-0.30469 l 4.67578,-2.64453 1.19532,5.23438 c 0.79297,3.48047 1.95703,6.94531 3.46093,10.29297 l 1.38672,3.08984 -2.82031,1.87891 c -0.0781,0.0508 -0.16016,0.10156 -0.23828,0.14843 -10.51953,8.67188 -21.49609,16.95704 -32.68359,24.6836 -4.57813,3.15234 -9.10547,5.98047 -14.20704,5.98047 -0.14453,0.004 -0.28906,0 -0.42968,-0.004 z m 0,0"
     id="path28"
     inkscape:connector-curvature="0"
     style="fill:#efb17c" />
  <path
     d="M 291.80012,511.54185 275.84309,404.69029 c -2.67969,-17.92578 -5.71484,-38.24609 -16.12891,-55.17578 -11.55078,-18.76953 -30.34375,-30.83984 -48.51562,-42.51562 -3.125,-2.00782 -6.35547,-4.08203 -9.46485,-6.13672 -26.39062,-17.46875 -40.1875,-34.29297 -43.34375,-52.86328 17.79688,-12.25391 29.75391,-31.97266 31.86329,-52.96485 0.20312,0.008 0.40625,0.008 0.60547,0.008 11.32812,0 22.33984,-8.02735 25.11328,-19.22266 2.92968,-11.83203 -2.87891,-22.41797 -14.23829,-26.57813 3.91797,-7.3164 6.07422,-15.51953 7.79297,-23.41796 7.76953,-35.738289 2.35547,-62.496102 -16.55468,-81.812508 -11.83985,-12.090024 -28.96485,-20.37518 -50.89844,-24.621274 -22.13281,-4.28125 -43.933595,-3.644531 -63.050785,1.847657 -16.0586,4.617187 -30.59766,12.777343 -42.03906,23.601562 -9.04297,8.546875 -15.542974,21.863281 -19.882818,40.710938 -5,21.726565 -2.578124,44.933595 6.566407,65.632815 -4.40625,1.27734 -8.507813,3.96094 -11.691407,7.74219 -4.3398429,5.16015 -6.3828119,11.66015 -5.6015619,17.83203 0.78125,6.17578 4.3749999,11.96094 9.8671879,15.87891 4.375,3.125 9.511718,4.72265 14.468752,4.59765 5.9375,19.17969 18.03125,36.17578 33.67578,47.73047 0.004,7.85938 -0.0664,16.67969 -3.30469,23.97266 -3.80859,8.57812 -11.85547,14.91406 -19.64062,21.03906 -1.21094,0.95312 -2.40625,1.89844 -3.57813,2.83984 -8.0039,6.44141 -17.726561,11.25 -27.132811,15.89844 -2.5898439,1.28125 -5.2695309,2.60547 -7.8632809,3.94141 -15.7968761,8.1289 -31.7500001,17.78125 -41.4218761,33.22265 -7.332031,11.70703 -10.179687,25.69532 -12.464843,36.9375 -8.546875,42.01172 -15.808594,84.85938 -21.578125,127.34766 -0.441406,3.24219 -1.261719,9.27734 2.382812,13.66016 3.890625,4.67968 10.398438,4.68359 13.894532,4.68359 l 333.667977,0.082 h 0.13672 c 2.98828,0 8.375,-0.0586 11.84765,-3.84766 3.81641,-4.16796 2.9375,-10.04296 2.46875,-13.19922 z M 155.12825,351.22935 c 11.08984,7.73829 21.67578,16.39454 31.45312,25.73438 1.44141,1.375 2.98828,2.95312 3.15234,4.3125 0.19532,1.62109 -1.45312,3.75781 -3.26562,5.82422 l -72.8125,83.07031 46.44922,-197.01953 c 1.90625,2.89453 4,5.65234 6.23047,8.27344 0.082,0.32812 0.19531,0.64843 0.36328,0.95312 l 28.27344,51.15625 c -13.41016,1.92188 -26.52735,5.5 -39.07032,10.66406 -1.36328,0.5586 -2.3125,1.82032 -2.47265,3.28516 -0.16016,1.46484 0.49219,2.90234 1.69922,3.74609 z m -30.12891,35.6836 -9.67578,-26.42578 c 0.16797,-0.1875 0.32422,-0.36719 0.46484,-0.52735 5.44141,-6.28125 10.3086,-13.08593 14.5,-20.26562 l 3.69141,5.23047 c 0.21094,0.30078 0.46094,0.55468 0.73437,0.78125 z m 0.24219,-54.375 c -0.22266,0.23437 -0.42578,0.49219 -0.58985,0.78515 -4.23047,7.59766 -9.26172,14.78516 -14.95312,21.35547 -0.76563,0.87891 -1.27344,1.36328 -1.53125,1.44141 -0.21094,-0.004 -1.41406,-0.55859 -3.0586,-3.08594 -4.71875,-7.24609 -8.691405,-15.1875 -12.523435,-22.90234 5.43359,-7.07813 10.675785,-14.31641 15.671875,-21.67578 z m 11.89843,2.8789 -24.01562,-34.04687 c 4.89062,-0.88281 9.20312,-3.60938 13.24609,-6.39844 8.33985,-5.75781 16.57422,-11.83984 24.58203,-18.14062 z m -58.109375,-1.11328 c -3.20703,-18.04297 -6,-36.14843 -8.375,-54.27343 7.92578,5.5039 16.01562,10.87109 24.14453,16 2.92578,1.84375 5.843755,3.5625 8.988285,4.60937 -7.703125,11.55859 -16.003905,22.85547 -24.757815,33.66406 z m 1.9375,10.34766 c 2.0625,-2.47266 4.09766,-4.97266 6.10937,-7.49219 3.41797,6.82422 7.01954,13.74219 11.27344,20.27344 0.88672,1.36328 1.781255,2.46875 2.664065,3.35547 -3.503905,9.30859 -7.203125,18.63281 -11.039065,27.86328 -3.28906,-14.59375 -6.30859,-29.25391 -9.05469,-43.95703 0.0156,-0.0156 0.0312,-0.0274 0.0469,-0.043 z m 27.250005,19.87109 12.27344,33.53125 c 0.28906,0.78907 0.80078,1.42969 1.4375,1.88282 l -13.90625,58.97656 c -5.4375,-18.80469 -10.425785,-37.78125 -14.953135,-56.8711 5.3086,-12.33984 10.398445,-24.94531 15.148445,-37.51953 z M 24.964179,87.358258 c 3.968746,-17.246093 9.714846,-29.238281 17.562496,-36.660156 10.50782,-9.941406 23.90235,-17.449219 38.72657,-21.710937 17.89843,-5.140626 38.398435,-5.722657 59.292965,-1.679688 20.29297,3.929688 35.9961,11.445312 46.66407,22.347656 16.86718,17.222656 21.58984,41.578125 14.4414,74.453127 -1.88672,8.67188 -4.29687,17.67969 -9.12109,24.83203 -2.08594,3.08985 -3.84766,5.20313 -5.08594,6.46485 -0.0664,-0.20313 -0.125,-0.37891 -0.17187,-0.51954 -0.1875,-0.58593 -0.35547,-1.08593 -0.4961,-1.43359 -1.07812,-2.66406 -2.19922,-5.34375 -3.32422,-8.03516 -3.4375,-8.22265 -6.99609,-16.72656 -9.38281,-25.14453 -4.22656,-14.92969 -6.61328,-35.601562 -0.64844,-48.863281 0.004,-0.0078 0.008,-0.01172 0.0117,-0.02344 0.91407,-2.027344 0.0117,-4.417969 -2.01953,-5.332031 -2.03125,-0.914063 -4.41797,-0.01172 -5.33203,2.019531 -0.004,0.0078 -0.008,0.01172 -0.0117,0.01953 -8.17578,18.125 -18.63281,32.746091 -30.25,42.281251 -9.36328,7.68359 -19.75,13.97656 -30.86719,18.69531 -9.589845,4.07031 -19.449215,6.86328 -29.425785,8.34375 7.84375,-10.37891 13.10157,-22.69922 15.08203,-35.5664 0.25782,-1.6875 -0.57812,-3.359379 -2.08203,-4.167973 -1.51172,-0.804688 -3.36328,-0.570313 -4.625,0.582031 -5.6914,5.203122 -12.32422,9.152342 -19.34765,13.332032 -1.33203,0.79297 -2.66407,1.58594 -3.98828,2.38672 -8.48438,5.13281 -17.1875,11.02343 -23.39844,19.28906 -3.16016,4.20312 -5.40625,8.76953 -6.66797,13.38672 -8,-18.79297 -10.046875,-39.70313 -5.535156,-59.296876 z M 37.534495,191.81139 c -0.55079,-2.0625 -2.60938,-3.33594 -4.71485,-2.90235 -3.89453,0.8125 -8.230466,-0.21875 -11.894529,-2.83594 -3.660156,-2.61328 -6.050781,-6.3789 -6.546875,-10.32421 -0.5,-3.94922 0.875,-8.19141 3.773438,-11.63282 2.492187,-2.96484 5.757812,-4.90625 9.152346,-5.51562 1.18359,2.19922 2.4375,4.36328 3.78125,6.48437 0.75781,1.20313 2.0625,1.87891 3.41015,1.87891 0.57813,0 1.16016,-0.125 1.71485,-0.38672 1.83984,-0.86328 2.74609,-2.96484 2.11328,-4.89844 -2.32422,-7.10547 -0.29688,-16.13672 5.28906,-23.5664 5.38672,-7.17188 13.33984,-12.51953 21.12891,-17.23438 1.30859,-0.78906 2.62109,-1.57422 3.9375,-2.35547 3.79687,-2.25781 7.66015,-4.55859 11.40234,-7.09765 -3.40625,10.5625 -9.29297,20.32422 -17.125,28.20703 -1.17578,1.1875 -1.5,2.98047 -0.8125,4.5039 0.6875,1.52344 2.24219,2.46485 3.91797,2.36329 14.27734,-0.85938 28.42187,-4.22657 42.039065,-10.00782 11.83203,-5.01953 22.875,-11.71093 32.83594,-19.88281 7.64062,-6.27734 14.62891,-14.25 20.89844,-23.839845 0.0586,8.589845 1.33984,18.617185 4.47656,29.699225 2.51562,8.88671 6.17187,17.61718 9.70312,26.0625 1.11329,2.66015 2.21875,5.30859 3.28907,7.94531 0.0859,0.21484 0.17968,0.52734 0.29687,0.88672 0.85156,2.64453 2.14453,6.63672 5.73047,7.3125 2.50391,0.47265 5.86328,-0.23828 11.89844,-8.41016 8.70703,2.33984 12.99219,9.24219 10.91797,17.61719 -2.14453,8.66406 -12.02735,14.72265 -20.71485,12.71094 -1.17968,-0.27344 -2.41015,-0.004 -3.36328,0.73046 -0.95703,0.73047 -1.53515,1.85547 -1.57812,3.0586 -0.76953,22.42187 -15.16797,44.6289 -35.82032,55.25781 -20.21875,10.40625 -45.86328,10.17969 -66.921875,-0.59375 -20.25391,-10.35937 -36.03125,-30.25781 -42.21484,-53.23437 z m 38.53906,60.41406 c 11.86719,6.07031 25.058595,9.10937 38.121095,9.10937 12.61719,0 25.11328,-2.83984 36.16406,-8.52734 0.23829,-0.12109 0.46875,-0.25 0.70313,-0.375 0.87891,3.85156 2.13672,7.53125 3.70312,11.03906 -0.15234,0.0937 -0.30468,0.1836 -0.44921,0.30078 -10.44532,8.61328 -21.39063,16.87891 -32.52735,24.5625 -4.125,2.84766 -8.1875,5.40235 -12.23437,5.26953 -3.38282,-0.10156 -6.73438,-2.05078 -10.449225,-4.39843 -9.98828,-6.30078 -19.91797,-12.96485 -29.55078,-19.8086 2.20312,-6.27734 2.73437,-12.89062 2.85937,-19.17578 1.20703,0.69922 2.42578,1.3711 3.66016,2.00391 z m -13.36719,29.17578 c 5.32422,40.53516 12.72266,80.95312 22.12891,120.85156 0.0391,0.30469 0.10547,0.60156 0.21484,0.88672 5.09766,21.55078 10.78125,42.94141 17.027345,64.125 -22.843755,-21.53906 -43.707035,-45.28125 -62.093755,-70.71094 -2.33593,-3.23437 -4.43359,-6.39062 -4.45703,-9.48828 -0.0352,-4.49219 4.28125,-8.41797 7.91016,-10.92187 1.02344,-0.70703 2.08203,-1.39063 3.14062,-2.07032 4.28125,-2.76953 8.71094,-5.63281 11.76954,-10.25781 0.65234,-0.99219 0.83984,-2.21875 0.5039,-3.35937 -0.33594,-1.13672 -1.15625,-2.07422 -2.24219,-2.55078 -12.125,-5.34375 -25.33593,-8.375 -38.601558,-8.88672 5.539063,-8.94532 11.179688,-17.75782 16.667968,-26.33203 6.76172,-10.5625 13.75391,-21.48438 20.52344,-32.61329 0.27344,-0.44921 0.4414,-0.93359 0.52344,-1.42578 2.47656,-2.23437 4.85546,-4.63281 6.98437,-7.24609 z M -64.008477,518.67076 c -1.273438,-1.53125 -0.976563,-4.63281 -0.597657,-7.42187 5.75,-42.31641 12.980469,-84.98829 21.492188,-126.82422 2.15625,-10.60547 4.84375,-23.80078 11.398437,-34.26953 8.640625,-13.78907 23.5000001,-22.72657 38.2773441,-30.32813 2.535156,-1.30859 5.1835939,-2.61719 7.7460939,-3.88281 7.894531,-3.90235 15.992186,-7.9336 23.394526,-13.00781 -3.28906,5.20312 -6.57812,10.34375 -9.8164,15.40234 -6.757814,10.55469 -13.746095,21.46875 -20.5078139,32.58984 -0.769531,1.26563 -0.785156,2.84766 -0.03906,4.125 0.746094,1.28125 2.132812,2.0586 3.6093749,2 12.597656,-0.39453 25.335941,1.70313 37.164061,6.10157 -1.76172,1.46484 -3.80469,2.78515 -5.91406,4.14453 -1.125,0.72656 -2.2461,1.45312 -3.33985,2.20703 -7.5039,5.17578 -11.44531,11.26953 -11.39843,17.62109 0.043,5.47266 2.98437,9.99219 5.99218,14.15235 20.64454,28.55468 44.35938,55.03125 70.476573,78.6875 0.35937,0.32812 0.76953,0.57031 1.19531,0.74218 l 0.66797,39.77735 -110.0625039,-0.0274 c 4.63671896,-27.01562 5.20312496,-54.48047 1.664062,-81.67968 -0.289062,-2.20704 -2.300781,-3.76563 -4.519531,-3.48047 -2.207031,0.28906 -3.7656251,2.3125 -3.4765621,4.51953 3.4960931,26.85547 2.8671871,53.97656 -1.851563,80.63672 l -43.863281,-0.0117 c -3.230469,0 -6.398438,-0.21485 -7.691406,-1.77344 z m 347.390627,0.625 c -1.10156,1.20703 -4.18359,1.23047 -5.92187,1.23047 -0.0391,0 -0.0742,0 -0.11328,0 l -57.11719,-0.0156 c -0.92969,-23.82032 0.67187,-47.77344 4.77344,-71.25 0.38281,-2.19532 -1.08594,-4.28516 -3.27735,-4.66797 -2.19922,-0.38282 -4.28515,1.08593 -4.66797,3.27734 -4.17968,23.9375 -5.82422,48.35156 -4.90234,72.64063 l -98.29688,-0.0234 -0.65234,-38.59375 c 0.73438,-0.20313 1.41797,-0.59766 1.95703,-1.21094 l 77.36719,-88.26953 c 2.04687,-2.33594 5.85937,-6.68359 5.20703,-12.10156 -0.48437,-4.00782 -3.13672,-6.83985 -5.58594,-9.17969 -8.26562,-7.89063 -17.08984,-15.3125 -26.29687,-22.125 11.60547,-4.14844 23.66797,-6.90234 35.94922,-8.20313 1.34375,-0.14062 2.52734,-0.94531 3.15234,-2.14453 0.625,-1.19922 0.60547,-2.63281 -0.0469,-3.8164 l -19.875,-35.96094 c 4.20312,3.23828 8.375,6.13672 12.25,8.69922 3.15625,2.08984 6.41015,4.17969 9.55468,6.20312 17.41407,11.1836 35.42188,22.75 46.00782,39.95313 9.55468,15.52734 12.45703,34.98047 15.01953,52.14062 l 15.95703,106.85547 c 0.38672,2.58594 0.63672,5.38672 -0.44141,6.5625 z m 0,0"
     id="path30"
     inkscape:connector-curvature="0" />
  <g
     id="g864"
     transform="translate(-71.373544,21.885344)">
    <path
       style="fill:#373737;fill-opacity:1;stroke-width:0.75000095"
       d="m 108.15216,126.37297 h 58.57657 v 0 19.52552 c 0,10.78427 -8.74126,19.52553 -19.52552,19.52553 h -19.52553 c -10.78426,0 -19.52552,-8.74126 -19.52552,-19.52553 z"
       id="path22-3"
       inkscape:connector-curvature="0" />
    <path
       style="fill:#373737;fill-opacity:1;stroke-width:0.75000095"
       d="m 192.76276,126.37297 h 58.57658 v 0 19.52552 c 0,10.78427 -8.74126,19.52553 -19.52553,19.52553 h -19.52552 c -10.78426,0 -19.52553,-8.74126 -19.52553,-19.52553 z"
       id="path24"
       inkscape:connector-curvature="0" />
    <path
       style="stroke-width:0.75000095"
       sodipodi:nodetypes="ssssssssscsssscc"
       inkscape:connector-curvature="0"
       id="path46"
       d="m 147.20321,171.93253 h -19.52553 c -14.35802,0 -26.03403,-11.67602 -26.03403,-26.03404 v -19.52552 c 0,-3.59251 2.916,-6.50851 6.50851,-6.50851 h 58.57657 c 3.59251,0 6.50851,2.916 6.50851,6.50851 v 19.52552 c 0,14.35802 -11.67602,26.03404 -26.03403,26.03404 z m -37.4239,-43.52563 v 17.49159 c 0,7.17901 10.71936,18.30516 17.89837,18.30516 h 19.52553 c 7.179,0 17.89837,-11.12615 17.89837,-18.30516 V 128.4069 Z" />
    <path
       style="stroke-width:0.75000095"
       sodipodi:nodetypes="ssssssssscsssscc"
       inkscape:connector-curvature="0"
       id="path48"
       d="m 231.81381,171.93253 h -19.52552 c -14.35802,0 -26.03403,-11.67602 -26.03403,-26.03404 v -19.52552 c 0,-3.59251 2.916,-6.50851 6.5085,-6.50851 h 58.57658 c 3.59925,0 6.50851,2.916 6.50851,6.50851 v 19.52552 c 0,14.35802 -11.67677,26.03404 -26.03404,26.03404 z m -37.4239,-43.52563 v 17.49159 c 0,7.17901 10.71937,18.30516 17.89838,18.30516 h 19.52552 c 7.17901,0 17.89838,-11.12615 17.89838,-18.30516 V 128.4069 Z" />
    <rect
       style="stroke-width:0.75000095"
       id="rect50"
       height="13.017017"
       width="26.034035"
       y="119.86446"
       x="166.72873" />
  </g>
</svg>
