<?xml version="1.0" encoding="iso-8859-1"?>
<!-- Generator: Adobe Illustrator 19.0.0, SVG Export Plug-In . SVG Version: 6.00 Build 0)  -->
<svg version="1.1" id="Capa_1" xmlns="http://www.w3.org/2000/svg" xmlns:xlink="http://www.w3.org/1999/xlink" x="0px" y="0px"
	 viewBox="0 0 511.997 511.997" style="enable-background:new 0 0 511.997 511.997;" xml:space="preserve">
<path style="fill:#FFDFB8;" d="M327.043,326.105l-13.156-2.644c-9.335-1.876-16.052-10.077-16.052-19.599V259.28h-86.056v45.061
	c0,9.522-6.716,17.722-16.052,19.599l-10.774,2.166v72.363h142.089v-72.364H327.043z"/>
<g>
	<path style="fill:#F4C892;" d="M374.214,210.233h-18.878v-54.748h18.878c9.728,0,17.614,7.886,17.614,17.614v19.52
		C391.828,202.347,383.942,210.233,374.214,210.233z"/>
	<path style="fill:#F4C892;" d="M137.783,210.233h18.878v-54.748h-18.878c-9.728,0-17.614,7.886-17.614,17.614v19.52
		C120.168,202.347,128.054,210.233,137.783,210.233z"/>
</g>
<path style="fill:#FFDFB8;" d="M255.998,296.747L255.998,296.747c-60.874,0-110.222-49.348-110.222-110.222v-30.976
	c0-60.874,49.348-110.222,110.222-110.222l0,0c60.874,0,110.222,49.348,110.222,110.222v30.976
	C366.22,247.399,316.872,296.747,255.998,296.747z"/>
<path style="fill:#F4CFA6;" d="M255.998,45.328L255.998,45.328c-9.232,0-18.196,1.142-26.765,3.279
	c47.939,11.96,83.457,55.3,83.457,106.942v30.976c0,51.642-35.518,94.983-83.457,106.942c8.57,2.138,17.533,3.279,26.765,3.279l0,0
	c60.874,0,110.222-49.348,110.222-110.222v-30.976C366.22,94.675,316.872,45.328,255.998,45.328z"/>
<path style="fill:#4D4D4D;" d="M408.335,348.236l-93.151-29.044l0,0c-32.427,33.31-85.944,33.31-118.371,0l0,0l-93.151,29.044
	C64.34,359.814,37.341,395.908,37.341,436.9v59.086c0,4.704,3.813,8.517,8.517,8.517h420.281c4.704,0,8.517-3.813,8.517-8.517V436.9
	C474.656,395.908,447.657,359.814,408.335,348.236z"/>
<path style="fill:#353535;" d="M408.335,348.236l-93.151-29.044l0,0c-4.541,4.665-9.508,8.653-14.761,12.011l54.628,17.033
	c39.322,11.578,66.321,47.672,66.321,88.664v67.603h44.767c4.704,0,8.517-3.813,8.517-8.517V436.9
	C474.656,395.908,447.657,359.814,408.335,348.236z"/>
<path style="fill:#4D4D4D;" d="M255.998,7.497L255.998,7.497c-69.789,0-126.363,56.575-126.363,126.363v6.663h252.727v-6.663
	C382.361,64.072,325.787,7.497,255.998,7.497z"/>
<path style="fill:#353535;" d="M255.998,7.497L255.998,7.497c-9.053,0-17.881,0.96-26.395,2.769
	c57.117,12.139,99.968,62.859,99.968,123.594v6.663h52.79v-6.663C382.361,64.072,325.787,7.497,255.998,7.497z"/>
<g>
	<path style="fill:#434443;" d="M384,155.425c-85.32-7.667-170.684-7.667-256.004,0c-7.921,0.712-14.945-5.066-15.774-12.976
		c-0.01-0.098-0.02-0.195-0.031-0.293c-0.848-8.085,5.089-15.302,13.185-16.03c87.058-7.829,174.186-7.83,261.244,0
		c8.096,0.728,14.033,7.945,13.185,16.03c-0.01,0.098-0.02,0.195-0.031,0.293C398.945,150.36,391.921,156.137,384,155.425z"/>
	<path style="fill:#434443;" d="M385.013,291.222c-11.629-15.21-26.465-28.011-41.632-37.522
		c-11.765,15.282-27.448,27.389-45.547,34.821v15.341c0,9.522,6.716,17.722,16.051,19.599l2.353,0.473l-0.186,0.045
		c0.074-0.007,0.125-0.013,0.125-0.013c-6.103,1.253-33.636,16.079-60.18,16.099c-26.544-0.02-54.078-14.846-60.18-16.099
		c0,0,15.119-2.402,15.936-19.053c0.005-0.191,0.025-0.379,0.025-0.572V287.51c-13.885-6.089-26.272-14.955-36.462-25.899
		c-0.005-0.006-0.011-0.012-0.016-0.017c-2.349-2.524-4.58-5.157-6.687-7.893c-15.166,9.511-30.003,22.312-41.632,37.522
		c-7.58,9.914-7.993,24.288-2.429,34.793c15.027,28.366,130.844,54.096,131.446,54.094c0.602,0.003,116.419-25.728,131.444-54.095
		C393.006,315.51,392.593,301.136,385.013,291.222z"/>
</g>
<path style="fill:#353535;" d="M385.013,291.222c-11.629-15.21-26.465-28.011-41.632-37.522
	c-7.196,9.346-15.862,17.497-25.645,24.125c4.126,4.218,8.032,8.692,11.63,13.397c7.58,9.914,7.993,24.288,2.429,34.793
	c-15.025,28.367-75.034,53.797-75.603,53.995c-0.088,0.031-0.183,0.057-0.272,0.087c0.033,0.006,0.071,0.013,0.077,0.013
	c0.602,0.003,116.419-25.728,131.444-54.095C393.006,315.51,392.593,301.136,385.013,291.222z"/>
<path style="fill:#434443;" d="M226.947,203.156h-34.65c-9.323,0-16.882-7.558-16.882-16.882v-14.126
	c0-1.522,1.234-2.756,2.756-2.756h48.776c9.323,0,16.882,7.558,16.882,16.882l0,0C243.828,195.598,236.27,203.156,226.947,203.156z"
	/>
<path style="fill:#353535;" d="M226.947,169.393h-36.062v33.692c0.467,0.039,0.935,0.071,1.412,0.071h34.65
	c9.323,0,16.882-7.558,16.882-16.882l0,0C243.828,176.951,236.27,169.393,226.947,169.393z"/>
<path style="fill:#434443;" d="M318.713,203.156h-34.65c-9.323,0-16.882-7.558-16.882-16.882l0,0
	c0-9.323,7.558-16.882,16.882-16.882h48.776c1.522,0,2.755,1.234,2.755,2.756v14.126
	C335.594,195.598,328.036,203.156,318.713,203.156z"/>
<path style="fill:#353535;" d="M332.839,169.393h-48.776c-0.566,0-1.126,0.03-1.678,0.085v33.594
	c0.552,0.055,1.111,0.085,1.678,0.085h34.65c9.323,0,16.882-7.558,16.882-16.882v-14.126
	C335.594,170.626,334.361,169.393,332.839,169.393z"/>
<path d="M462.245,377.047c-13.011-17.395-30.9-29.837-51.733-35.985l-20.102-6.268c1.504-1.754,2.725-3.509,3.658-5.269
	c7.149-13.497,5.875-31.12-3.098-42.856c-9.993-13.071-22.683-25.043-36.997-34.958c6.877-10.303,12.172-21.745,15.539-33.98h4.703
	c13.847,0,25.112-11.265,25.112-25.112V173.1c0-4.686-1.293-9.073-3.537-12.831c6.166-3.368,10.661-9.588,11.442-17.035l0.031-0.294
	c0.621-5.922-1.121-11.717-4.904-16.318c-3.413-4.149-8.105-6.838-13.344-7.721c-1.949-17.638-7.3-34.435-15.963-50.013
	c-2.012-3.619-6.577-4.922-10.196-2.909c-3.619,2.012-4.921,6.577-2.909,10.196c7.188,12.926,11.814,26.798,13.8,41.344
	c-4.709-0.379-9.421-0.729-14.136-1.062c-0.238-0.017-0.475-0.035-0.713-0.052c-4.386-0.308-8.774-0.591-13.164-0.86
	c-0.709-0.043-1.417-0.089-2.126-0.131c-4.196-0.25-8.393-0.481-12.592-0.695c-0.857-0.044-1.714-0.087-2.571-0.129
	c-4.166-0.205-8.332-0.394-12.501-0.564c-0.811-0.033-1.622-0.063-2.432-0.095c-4.272-0.167-8.545-0.32-12.819-0.45
	c-0.532-0.016-1.065-0.029-1.597-0.045c-28.717-0.841-57.475-0.841-86.193,0c-0.53,0.015-1.06,0.028-1.59,0.044
	c-4.278,0.13-8.555,0.283-12.831,0.45c-0.805,0.031-1.609,0.062-2.414,0.094c-4.177,0.17-8.352,0.359-12.526,0.565
	c-0.844,0.042-1.688,0.084-2.532,0.127c-4.215,0.215-8.429,0.446-12.641,0.698c-0.683,0.041-1.366,0.085-2.049,0.126
	c-4.419,0.27-8.837,0.555-13.252,0.866c-0.187,0.013-0.373,0.028-0.559,0.041c-4.753,0.336-9.504,0.688-14.251,1.071
	c8.002-58.151,58.123-102.523,117.74-102.523c31.837,0,61.743,12.423,84.21,34.982c2.922,2.934,7.669,2.942,10.603,0.021
	c2.934-2.922,2.943-7.669,0.021-10.603C325.531,13.991,291.852,0,255.998,0c-68.306,0-125.541,51.728-133.02,118.901
	c-5.237,0.883-9.927,3.572-13.339,7.72c-3.783,4.6-5.525,10.396-4.904,16.319l0.031,0.292c0.781,7.448,5.264,13.687,11.431,17.056
	c-2.236,3.754-3.525,8.134-3.525,12.811v19.519c0,13.847,11.265,25.112,25.112,25.112h4.703c3.367,12.234,8.662,23.677,15.539,33.98
	c-14.313,9.915-27.004,21.887-36.997,34.958c-8.973,11.736-10.247,29.36-3.098,42.856c0.932,1.76,2.153,3.516,3.658,5.269
	l-20.1,6.267c-33.176,9.789-59.327,36.615-68.259,70.024c-1.069,4,1.306,8.11,5.307,9.179c4,1.069,8.11-1.306,9.179-5.307
	c7.595-28.41,29.845-51.22,58.065-59.529c0.038-0.011,0.076-0.023,0.114-0.035l29.539-9.21c0.696,0.437,1.413,0.873,2.14,1.307
	c0.085,0.051,0.175,0.103,0.261,0.154c0.44,0.261,0.882,0.522,1.333,0.782c12.738,7.398,30.728,14.827,54.215,22.409
	c1.892,0.611,3.792,1.212,5.691,1.804c13.84,4.331,27.012,7.913,37.196,10.486c10.974,2.796,18.682,4.482,19.689,4.481
	c0.002,0,0.002,0,0.003,0s0.003,0,0.004,0h0.001c1.104,0,9.68-1.885,21.684-4.976c9.599-2.453,21.547-5.729,34.097-9.628
	c2.291-0.708,4.585-1.431,6.868-2.168c23.476-7.579,41.461-15.005,54.198-22.4c0.499-0.287,0.988-0.576,1.473-0.864
	c0.04-0.024,0.082-0.048,0.122-0.072c0.733-0.437,1.455-0.875,2.155-1.316l29.538,9.21c0.038,0.012,0.076,0.023,0.114,0.035
	c17.728,5.22,32.951,15.801,44.02,30.6c11.07,14.799,16.921,32.39,16.921,50.871v59.086c0,0.562-0.457,1.02-1.02,1.02h-59.169
	v-73.151c0-4.087-3.313-7.4-7.4-7.4s-7.4,3.313-7.4,7.4v73.151H119.829v-73.151c0-4.087-3.313-7.4-7.401-7.4
	c-4.087,0-7.4,3.313-7.4,7.4v73.151H45.857c-0.562,0-1.02-0.457-1.02-1.02v-48.285c0-4.141-3.357-7.497-7.497-7.497
	s-7.497,3.357-7.497,7.497v48.285c0,8.83,7.184,16.014,16.014,16.014h420.282c8.83,0,16.014-7.184,16.014-16.014V436.9
	C482.153,415.156,475.269,394.459,462.245,377.047z M332.839,161.895h-48.776c-10.863,0-20.086,7.144-23.227,16.979h-10.662
	c-3.141-9.835-12.364-16.979-23.227-16.979h-48.776c-5.653,0-10.253,4.599-10.253,10.253v3.311h-14.644v-14.538
	c1.078-0.078,2.156-0.16,3.234-0.236c2.329-0.163,4.658-0.322,6.989-0.474c2.762-0.179,5.525-0.347,8.288-0.51
	c2.013-0.119,4.025-0.244,6.039-0.355c4.634-0.254,9.27-0.491,13.909-0.7c1.24-0.056,2.482-0.098,3.723-0.151
	c3.623-0.154,7.246-0.299,10.871-0.425c1.881-0.065,3.763-0.12,5.644-0.178c3.027-0.093,6.055-0.179,9.083-0.253
	c1.963-0.048,3.926-0.093,5.89-0.133c3.078-0.063,6.157-0.112,9.236-0.155c1.817-0.025,3.633-0.055,5.45-0.074
	c4.185-0.042,8.371-0.065,12.557-0.07c1.21-0.002,2.419-0.002,3.629,0c4.184,0.005,8.368,0.028,12.552,0.07
	c1.818,0.018,3.636,0.048,5.454,0.074c3.077,0.043,6.154,0.092,9.23,0.154c1.965,0.04,3.93,0.085,5.895,0.133
	c3.025,0.074,6.05,0.16,9.075,0.253c1.884,0.058,3.768,0.113,5.652,0.178c3.619,0.126,7.236,0.271,10.853,0.424
	c1.247,0.053,2.494,0.096,3.741,0.152c4.637,0.209,9.271,0.445,13.903,0.699c2.018,0.111,4.034,0.236,6.05,0.355
	c2.759,0.163,5.518,0.33,8.275,0.509c2.334,0.152,4.666,0.311,6.998,0.475c1.077,0.075,2.153,0.157,3.23,0.235v17.953h-15.631
	v-6.726C343.092,166.495,338.492,161.895,332.839,161.895z M328.097,176.89v9.384c0,5.174-4.21,9.384-9.384,9.384h-34.65
	c-5.174,0-9.384-4.21-9.384-9.384s4.21-9.384,9.384-9.384H328.097z M236.331,186.274c0,5.174-4.21,9.384-9.384,9.384h-34.65
	c-5.174,0-9.384-4.21-9.384-9.384v-9.384h44.034C232.121,176.89,236.331,181.1,236.331,186.274z M384.331,192.619
	c0,5.579-4.539,10.117-10.117,10.117h-1.612c0.014-0.101,0.023-0.203,0.037-0.305c0.337-2.483,0.597-4.989,0.776-7.518
	c0.018-0.252,0.032-0.504,0.048-0.755c0.064-0.992,0.115-1.988,0.154-2.987c0.012-0.319,0.026-0.637,0.036-0.955
	c0.038-1.226,0.064-2.455,0.064-3.69v-23.543h0.496c5.579,0,10.117,4.538,10.117,10.117v19.519H384.331z M137.783,202.736
	c-5.579,0-10.117-4.538-10.117-10.117V173.1c0-5.579,4.538-10.117,10.117-10.117h0.496v23.543c0,1.235,0.026,2.464,0.064,3.69
	c0.01,0.319,0.024,0.637,0.036,0.956c0.039,0.998,0.09,1.994,0.154,2.986c0.016,0.252,0.03,0.505,0.048,0.757
	c0.179,2.529,0.439,5.035,0.776,7.517c0.014,0.101,0.023,0.203,0.037,0.305L137.783,202.736L137.783,202.736z M145.176,146.476
	c-5.955,0.46-11.906,0.948-17.85,1.482c-3.822,0.336-7.247-2.479-7.647-6.291l-0.031-0.292c-0.199-1.897,0.359-3.755,1.572-5.229
	c1.213-1.475,2.928-2.381,4.828-2.552c1.499-0.135,3.002-0.249,4.502-0.379h0.001c83.188-7.223,167.549-7.226,250.741-0.013
	c1.552,0.134,3.106,0.253,4.657,0.392c1.9,0.171,3.615,1.077,4.828,2.552s1.771,3.332,1.572,5.228l-0.031,0.294
	c-0.4,3.811-3.827,6.634-7.647,6.29c-5.944-0.534-11.895-1.022-17.85-1.482c-0.014-0.001-0.028-0.004-0.043-0.005
	c-2.025-0.157-4.053-0.293-6.079-0.441c-4.629-0.337-9.26-0.654-13.894-0.947c-2.89-0.183-5.779-0.369-8.672-0.534
	c-2.233-0.127-4.467-0.238-6.701-0.355c-2.812-0.147-5.625-0.294-8.439-0.425c-2.257-0.105-4.514-0.199-6.772-0.293
	c-2.804-0.117-5.608-0.228-8.413-0.329c-2.243-0.081-4.487-0.157-6.731-0.227c-2.857-0.089-5.715-0.167-8.573-0.239
	c-2.18-0.055-4.359-0.112-6.539-0.157c-3.047-0.063-6.094-0.109-9.141-0.153c-1.982-0.029-3.963-0.065-5.945-0.086
	c-4.124-0.042-8.248-0.062-12.372-0.069c-0.836-0.001-1.673-0.014-2.509-0.014c-0.836,0-1.672,0.013-2.509,0.014
	c-4.124,0.007-8.249,0.027-12.373,0.069c-1.981,0.02-3.962,0.057-5.944,0.086c-3.048,0.044-6.096,0.09-9.143,0.153
	c-2.179,0.045-4.358,0.102-6.537,0.157c-2.859,0.072-5.718,0.15-8.576,0.239c-2.243,0.07-4.486,0.146-6.729,0.226
	c-2.806,0.101-5.611,0.212-8.416,0.329c-2.257,0.094-4.513,0.188-6.769,0.293c-2.816,0.131-5.629,0.277-8.443,0.425
	c-2.233,0.117-4.466,0.228-6.697,0.355c-2.894,0.165-5.785,0.351-8.677,0.534c-4.631,0.292-9.258,0.609-13.884,0.946
	c-2.028,0.148-4.058,0.284-6.085,0.441C145.204,146.472,145.19,146.475,145.176,146.476z M155.492,207.785
	c-0.083-0.393-0.164-0.786-0.242-1.179c-0.086-0.432-0.169-0.865-0.25-1.299c-0.092-0.498-0.18-0.996-0.264-1.495
	c-0.06-0.353-0.12-0.705-0.176-1.059c-0.093-0.583-0.179-1.168-0.262-1.753c-0.041-0.289-0.083-0.578-0.122-0.868
	c-0.086-0.648-0.163-1.297-0.237-1.946c-0.028-0.242-0.058-0.484-0.083-0.727c-0.073-0.69-0.136-1.38-0.196-2.072
	c-0.018-0.214-0.04-0.427-0.057-0.641c-0.056-0.707-0.102-1.415-0.143-2.124c-0.012-0.206-0.028-0.41-0.039-0.616
	c-0.031-0.582-0.051-1.164-0.071-1.747h14.899c1.908,11.553,11.963,20.394,24.048,20.394h34.65c10.863,0,20.086-7.143,23.227-16.978
	h10.662c3.141,9.835,12.364,16.978,23.227,16.978h34.65c10.863,0,20.086-7.143,23.227-16.978h16.525
	c-0.024,0.358-0.044,0.715-0.072,1.072c-0.017,0.211-0.038,0.42-0.056,0.63c-0.06,0.695-0.123,1.39-0.197,2.083
	c-0.025,0.24-0.055,0.478-0.082,0.717c-0.074,0.653-0.152,1.305-0.238,1.956c-0.038,0.288-0.08,0.574-0.121,0.862
	c-0.083,0.587-0.169,1.173-0.262,1.758c-0.056,0.353-0.116,0.705-0.176,1.057c-0.085,0.499-0.172,0.997-0.264,1.494
	c-0.081,0.436-0.164,0.871-0.251,1.305c-0.077,0.39-0.158,0.78-0.24,1.169c-9.279,43.927-46.709,77.593-92.459,81.156
	c-0.064,0.005-0.127,0.011-0.191,0.016c-0.742,0.056-1.486,0.101-2.232,0.142c-0.134,0.007-0.267,0.017-0.401,0.024
	c-0.699,0.035-1.401,0.059-2.104,0.08c-0.172,0.005-0.344,0.014-0.517,0.019c-0.865,0.022-1.733,0.033-2.604,0.033
	C206.643,289.249,165.312,254.26,155.492,207.785z M298.025,322.896c-11.436,4.446-26.996,9.66-42.021,9.671
	c-1.949-0.002-3.907-0.09-5.864-0.254c-0.287-0.024-0.574-0.061-0.862-0.088c-1.669-0.158-3.337-0.357-4.996-0.613
	c-0.175-0.027-0.349-0.061-0.524-0.089c-1.767-0.282-3.525-0.608-5.264-0.98c-0.3-0.064-0.596-0.137-0.895-0.203
	c-0.654-0.146-1.308-0.289-1.956-0.445c-0.176-0.042-0.348-0.089-0.523-0.132c-0.766-0.188-1.531-0.378-2.287-0.579
	c-0.04-0.011-0.079-0.022-0.119-0.033c-2.745-0.731-5.422-1.538-7.995-2.381c-0.017-0.006-0.034-0.011-0.051-0.017
	c-4.327-1.419-8.363-2.934-11.951-4.347c0.422-0.489,0.827-1.009,1.222-1.544c0.029-0.039,0.057-0.079,0.086-0.118
	c0.364-0.499,0.717-1.016,1.054-1.556c0.033-0.053,0.068-0.103,0.101-0.157c0.329-0.537,0.642-1.094,0.94-1.672
	c0.095-0.183,0.183-0.374,0.274-0.561c0.189-0.388,0.37-0.785,0.543-1.192c0.109-0.254,0.218-0.508,0.32-0.769
	c0.186-0.478,0.36-0.97,0.524-1.473c0.123-0.378,0.235-0.768,0.344-1.16c0.071-0.254,0.149-0.5,0.214-0.759l0.028-0.107
	c0.014-0.052,0.027-0.104,0.04-0.157c0.03-0.124,0.057-0.253,0.085-0.381c0.04-0.175,0.077-0.352,0.114-0.53
	c0.359-1.624,0.571-3.286,0.631-4.951c0.001-0.014,0.003-0.027,0.004-0.041c0.002-0.052,0.005-0.101,0.007-0.154
	c0.016-0.261,0.027-0.521,0.027-0.785V298.4c0.504,0.166,1.013,0.308,1.519,0.466c0.241,0.076,0.483,0.148,0.725,0.222
	c1.496,0.459,2.999,0.887,4.511,1.285c0.27,0.071,0.54,0.145,0.811,0.214c0.834,0.213,1.67,0.419,2.508,0.614
	c0.268,0.062,0.539,0.118,0.808,0.179c1.397,0.313,2.799,0.603,4.208,0.864c0.521,0.097,1.042,0.191,1.565,0.281
	c0.699,0.12,1.398,0.242,2.1,0.349c1.077,0.166,2.16,0.315,3.247,0.451c0.557,0.069,1.116,0.131,1.675,0.192
	c0.919,0.102,1.842,0.192,2.767,0.273c0.384,0.033,0.767,0.073,1.152,0.103c1.291,0.099,2.589,0.171,3.891,0.229
	c0.364,0.016,0.729,0.029,1.094,0.042c1.375,0.048,2.754,0.081,4.14,0.081c1.298,0,2.588-0.029,3.876-0.071
	c0.378-0.012,0.754-0.027,1.131-0.043c1.023-0.043,2.043-0.099,3.059-0.168c0.303-0.02,0.607-0.035,0.91-0.058
	c1.175-0.089,2.344-0.199,3.509-0.323c0.525-0.055,1.048-0.118,1.572-0.18c0.721-0.086,1.44-0.18,2.158-0.279
	c0.567-0.078,1.135-0.153,1.701-0.239c1.019-0.156,2.034-0.327,3.045-0.51c0.689-0.124,1.376-0.26,2.063-0.396
	c0.477-0.095,0.953-0.193,1.428-0.294c2.437-0.516,4.857-1.11,7.258-1.782c0.329-0.092,0.658-0.186,0.986-0.281
	c0.548-0.158,1.099-0.302,1.645-0.469v4.71C290.337,311.151,293.236,317.906,298.025,322.896z M380.817,322.506
	c-1.432,2.705-6.075,8.253-21.043,15.966c-0.349,0.179-0.698,0.358-1.052,0.537c-0.09,0.045-0.177,0.09-0.268,0.136
	c-15.056,7.554-34.884,14.545-53.239,20.182c-22.849,6.981-43.547,11.88-49.216,13.126c-5.676-1.247-26.419-6.158-49.303-13.153
	c-18.338-5.634-38.134-12.618-53.168-20.164c-0.057-0.029-0.112-0.057-0.169-0.086c-0.392-0.197-0.778-0.395-1.163-0.593
	c-14.946-7.705-19.584-13.248-21.016-15.952c-4.429-8.362-3.689-19.603,1.76-26.73c9.177-12.002,20.896-23.007,34.149-32.106
	c0.884,1.019,1.782,2.017,2.687,2.99c0.023,0.025,0.048,0.052,0.074,0.08c9.914,10.644,21.479,19.225,34.433,25.558v11.927
	c-0.007,0.123-0.014,0.246-0.019,0.37c-0.094,1.829-0.44,3.382-0.95,4.702c-0.004,0.009-0.008,0.018-0.012,0.027
	c-0.156,0.402-0.33,0.778-0.514,1.138c-0.055,0.107-0.114,0.207-0.172,0.31c-0.127,0.231-0.259,0.454-0.396,0.668
	c-0.133,0.203-0.27,0.4-0.411,0.588c-0.056,0.076-0.113,0.152-0.17,0.226c-2.445,3.092-5.867,4.056-6.808,4.269
	c-0.022,0.005-0.045,0.01-0.066,0.014c-0.048,0.01-0.101,0.022-0.128,0.027c-0.227,0.03-0.45,0.07-0.669,0.119
	c-0.005,0.001-0.009,0.003-0.013,0.004c-0.214,0.049-0.424,0.106-0.63,0.172c-0.019,0.006-0.036,0.014-0.055,0.02
	c-0.191,0.063-0.379,0.132-0.562,0.209c-0.01,0.004-0.019,0.01-0.029,0.014c-0.19,0.082-0.376,0.17-0.557,0.266
	c-0.052,0.028-0.101,0.061-0.152,0.09c-0.136,0.077-0.272,0.154-0.403,0.239c-0.075,0.049-0.144,0.104-0.216,0.156
	c-0.102,0.072-0.206,0.141-0.303,0.218c-0.096,0.076-0.186,0.159-0.279,0.24c-0.068,0.06-0.14,0.115-0.206,0.177
	c-0.103,0.097-0.199,0.201-0.297,0.304c-0.049,0.052-0.101,0.1-0.149,0.153c-0.114,0.127-0.22,0.262-0.325,0.397
	c-0.026,0.033-0.054,0.064-0.079,0.097c-0.111,0.149-0.215,0.304-0.315,0.461c-0.015,0.023-0.032,0.044-0.046,0.068
	c-0.678,1.091-1.083,2.373-1.132,3.746c-0.122,3.425,2.172,6.449,5.408,7.425c0.004,0.001,0.008,0.003,0.012,0.004
	c0.216,0.065,0.437,0.121,0.661,0.167c0.238,0.053,0.619,0.175,1.101,0.346c1.447,0.514,3.805,1.472,5.948,2.343
	c7.281,2.959,18.482,7.511,31.064,10.514c7.549,1.801,15.595,3.045,23.589,3.051c21.307-0.017,42.992-8.83,54.641-13.565
	c0.357-0.145,0.72-0.293,1.084-0.44c2.547-1.033,5.131-2.064,5.956-2.247c0.357-0.073,0.703-0.171,1.037-0.291
	c0.333-0.12,0.654-0.262,0.96-0.425c0.244-0.126,0.472-0.275,0.698-0.425c2.086-1.386,3.404-3.76,3.353-6.379
	c-0.068-3.516-2.57-6.513-6.018-7.206l-2.353-0.473c-5.813-1.168-10.032-6.319-10.032-12.249v-10.434
	c15.119-6.99,28.628-17.151,39.577-29.759c13.253,9.099,24.972,20.105,34.148,32.106
	C384.506,302.902,385.246,314.144,380.817,322.506z"/>
<g>
</g>
<g>
</g>
<g>
</g>
<g>
</g>
<g>
</g>
<g>
</g>
<g>
</g>
<g>
</g>
<g>
</g>
<g>
</g>
<g>
</g>
<g>
</g>
<g>
</g>
<g>
</g>
<g>
</g>
</svg>
