<?xml version="1.0" encoding="UTF-8" standalone="no"?>
<!-- Created with Inkscape (http://www.inkscape.org/) -->

<svg
   xmlns:dc="http://purl.org/dc/elements/1.1/"
   xmlns:cc="http://creativecommons.org/ns#"
   xmlns:rdf="http://www.w3.org/1999/02/22-rdf-syntax-ns#"
   xmlns:svg="http://www.w3.org/2000/svg"
   xmlns="http://www.w3.org/2000/svg"
   xmlns:sodipodi="http://sodipodi.sourceforge.net/DTD/sodipodi-0.dtd"
   xmlns:inkscape="http://www.inkscape.org/namespaces/inkscape"
   width="159.44086mm"
   height="236.54474mm"
   viewBox="0 0 159.44086 236.54474"
   version="1.1"
   id="svg2736"
   inkscape:version="0.92.4 5da689c313, 2019-01-14"
   sodipodi:docname="businessman.svg">
  <defs
     id="defs2730" />
  <sodipodi:namedview
     id="base"
     pagecolor="#ffffff"
     bordercolor="#666666"
     borderopacity="1.0"
     inkscape:pageopacity="0.0"
     inkscape:pageshadow="2"
     inkscape:zoom="0.35"
     inkscape:cx="-223.87986"
     inkscape:cy="465.58511"
     inkscape:document-units="mm"
     inkscape:current-layer="layer1"
     showgrid="false"
     fit-margin-top="0"
     fit-margin-left="0"
     fit-margin-right="0"
     fit-margin-bottom="0"
     inkscape:window-width="2560"
     inkscape:window-height="1381"
     inkscape:window-x="0"
     inkscape:window-y="0"
     inkscape:window-maximized="1" />
  <metadata
     id="metadata2733">
    <rdf:RDF>
      <cc:Work
         rdf:about="">
        <dc:format>image/svg+xml</dc:format>
        <dc:type
           rdf:resource="http://purl.org/dc/dcmitype/StillImage" />
        <dc:title></dc:title>
      </cc:Work>
    </rdf:RDF>
  </metadata>
  <g
     inkscape:label="Layer 1"
     inkscape:groupmode="layer"
     id="layer1"
     transform="translate(-27.862855,-35.474651)">
    <g
       id="g1804"
       transform="matrix(0.46200145,0,0,0.46200145,-10.68978,35.474651)">
      <path
         id="path1689"
         d="M 254.945,8 C 207.75,8 169.494,46.257 169.494,93.452 v 34.551 c 5.711,-5.294 13.836,-8.17 21.767,-7.111 v -4.258 c 0,-3.385 2.89,-6.058 6.241,-5.805 33.038,2.373 66.661,-8.125 92.084,-24.733 2.373,-1.551 5.516,-1.165 7.444,0.908 21.734,23.362 21.603,22.458 21.603,25.509 v 8.362 c 8.694,-1.303 16.405,1.383 21.763,6.364 V 93.453 C 340.397,46.258 302.141,8 254.945,8 Z"
         style="fill:#707487"
         inkscape:connector-curvature="0" />
      <path
         id="path1691"
         d="m 189.495,93.453 c 0,-43.81 32.972,-79.896 75.451,-84.85 C 261.663,8.219 258.33,8 254.945,8 207.75,8 169.494,46.257 169.494,93.452 v 34.552 c 5.287,-4.901 12.645,-7.724 20.001,-7.276 z"
         style="fill:#5b5d6e"
         inkscape:connector-curvature="0" />
      <path
         id="path1693"
         d="m 318.519,117.78 v 46.993 c 0,0.509 -0.027,1.012 -0.039,1.52 16.629,2.518 29.654,-9.498 29.654,-24.254 10e-4,-14.787 -13.035,-26.744 -29.615,-24.259 z"
         style="fill:#f0a479"
         inkscape:connector-curvature="0" />
      <path
         id="path1695"
         d="m 338.674,122.732 c -5.253,-4.065 -12.306,-6.129 -20.155,-4.952 v 46.993 c 0,0.509 -0.027,1.012 -0.039,1.52 7.873,1.192 14.936,-0.877 20.193,-4.949 v -38.611 h 10e-4 z"
         style="fill:#e59770"
         inkscape:connector-curvature="0" />
      <path
         id="path1697"
         d="m 191.451,164.83 v -47.094 c -14.515,-1.938 -29.691,9.201 -29.691,24.301 0,14.775 13.029,26.843 29.728,24.315 -0.012,-0.507 -0.037,-1.013 -0.037,-1.522 z"
         style="fill:#f0a479"
         inkscape:connector-curvature="0" />
      <path
         id="path1699"
         d="m 191.451,161.556 c -5.986,-4.537 -9.69,-11.642 -9.69,-19.518 0,-7.676 3.926,-14.324 9.69,-18.756 v -5.545 c -14.515,-1.938 -29.691,9.202 -29.691,24.301 0,14.775 13.029,26.843 29.728,24.315 -0.012,-0.508 -0.037,-1.015 -0.037,-1.523 z"
         style="fill:#e59770"
         inkscape:connector-curvature="0" />
      <path
         id="path1701"
         d="m 255.856,224.461 c -13.805,0 -25.938,-3.79 -35.86,-10.131 v 35.008 l 35.706,44.074 35.706,-44.074 v -35.954 c -10.114,6.978 -22.361,11.077 -35.552,11.077 z"
         style="fill:#f0a479"
         inkscape:connector-curvature="0" />
      <path
         id="path1703"
         d="m 240.386,222.77 c -7.528,-1.692 -14.369,-4.592 -20.39,-8.439 v 35.008 l 20.39,25.169 z"
         style="fill:#e59770"
         inkscape:connector-curvature="0" />
      <path
         id="path1705"
         d="m 385.868,282.921 -94.46,-36.582 -35.706,44.074 -35.706,-44.074 -94.361,36.582 c 0,0 -34.937,14.363 -34.937,54.19 0,36.038 0,127.133 0,156.245 0,6.429 5.212,11.642 11.642,11.642 4.899,0 301.849,0 306.824,0 6.429,0 11.642,-5.212 11.642,-11.642 0,-29.114 0,-120.208 0,-156.245 -10e-4,-39.827 -34.938,-54.19 -34.938,-54.19 z"
         style="fill:#e4eaf8"
         inkscape:connector-curvature="0" />
      <path
         id="path1707"
         d="m 110.629,493.358 c 0,-29.114 0,-131.209 0,-167.246 0,-23.102 11.751,-37.623 21.624,-45.756 l -6.618,2.566 c 0,0 -34.937,14.363 -34.937,54.19 0,36.038 0,127.133 0,156.245 0,6.429 5.213,11.642 11.642,11.642 0.734,0 8.037,0 19.931,0 -6.428,10e-4 -11.642,-5.213 -11.642,-11.641 z"
         style="fill:#d8dce5"
         inkscape:connector-curvature="0" />
      <path
         id="path1709"
         d="m 297.03,84.005 c -1.929,-2.073 -5.071,-2.458 -7.444,-0.908 -25.423,16.607 -59.045,27.106 -92.084,24.732 -3.351,-0.254 -6.241,2.42 -6.241,5.804 v 51.05 c 0,32.81 25.709,62.777 64.595,62.777 34.616,0 62.778,-28.162 62.778,-62.777 v -55.171 c 0,-3.05 0.131,-2.145 -21.604,-25.507 z"
         style="fill:#f0a479"
         inkscape:connector-curvature="0" />
      <path
         id="path1711"
         d="m 211.262,164.684 v -56.6 c -4.582,0.148 -9.177,0.075 -13.76,-0.254 -3.351,-0.254 -6.241,2.42 -6.241,5.805 v 51.05 c 0,32.81 25.709,62.777 64.595,62.777 3.088,0 6.122,-0.234 9.092,-0.667 -30.321,-4.42 -53.686,-30.584 -53.686,-62.111 z"
         style="fill:#e59770"
         inkscape:connector-curvature="0" />
      <g
         id="g1717">
        <path
           id="path1713"
           d="m 298.816,313.06 26.701,-53.512 -34.107,-13.209 -35.706,44.074 34.812,24.723 c 2.816,2.003 6.756,1.017 8.3,-2.076 z"
           style="fill:#d8dce5"
           inkscape:connector-curvature="0" />
        <path
           id="path1715"
           d="m 212.639,313.06 -26.701,-53.512 34.107,-13.209 35.706,44.074 -34.812,24.723 c -2.817,2.003 -6.757,1.017 -8.3,-2.076 z"
           style="fill:#d8dce5"
           inkscape:connector-curvature="0" />
      </g>
      <path
         id="path1719"
         d="M 292.017,461.76 269.101,326.111 h -13.352 -0.043 -13.352 L 219.438,461.76 c -0.241,1.748 0.272,3.522 1.364,4.726 v 0 0 l 31.639,34.87 c 1.762,1.942 4.811,1.942 6.574,0 l 31.639,-34.87 v 0 0 c 1.091,-1.204 1.603,-2.978 1.363,-4.726 z"
         style="fill:#ff5050"
         inkscape:connector-curvature="0" />
      <g
         id="g1725">
        <polygon
           id="polygon1721"
           points="255.748,326.44 269.1,326.44 281.069,308.427 255.748,290.444 255.748,290.414 255.727,290.429 255.705,290.414 255.705,290.444 230.385,308.427 242.354,326.44 255.705,326.44 "
           style="fill:#ed3a3a" />
        <path
           id="path1723"
           d="m 240.802,466.486 c -1.093,-1.205 -1.605,-2.979 -1.364,-4.726 l 22.916,-135.649 h -6.606 -0.043 -13.352 L 219.437,461.76 c -0.241,1.748 0.271,3.522 1.364,4.726 l 31.638,34.87 c 1.762,1.942 4.812,1.942 6.574,0 l 6.713,-7.399 z"
           style="fill:#ed3a3a"
           inkscape:connector-curvature="0" />
      </g>
      <path
         id="path1727"
         d="m 265.728,297.531 -9.98,-7.087 v -0.031 l -0.022,0.015 -0.021,-0.015 v 0.031 l -25.321,17.982 11.969,18.013 h 13.352 0.043 6.606 l -10.368,-15.604 c -0.892,-1.342 -0.557,-3.15 0.757,-4.084 z"
         style="fill:#db2a2a"
         inkscape:connector-curvature="0" />
      <path
         id="path1729"
         d="m 421.052,394.842 c 4.142,0 7.5,-3.358 7.5,-7.5 v -50.73 c 0,-44.344 -37.969,-60.463 -39.585,-61.128 -0.047,-0.02 -0.095,-0.039 -0.143,-0.057 l -89.668,-34.726 v -21.03 c 14.242,-11.076 24.117,-27.495 26.596,-46.227 7.101,-0.5 13.69,-3.152 19.071,-7.779 7.027,-6.043 11.059,-14.838 11.059,-24.126 0,-7.708 -2.781,-15.068 -7.737,-20.803 V 92.953 C 348.144,41.699 306.446,0 255.192,0 203.938,0 162.24,41.699 162.24,92.953 v 28.511 c -5.009,5.677 -7.733,12.665 -7.733,20.074 0,9.291 4.03,18.085 11.059,24.129 5.377,4.625 11.962,7.274 19.061,7.775 2.499,19.083 12.662,36.114 28.117,47.339 v 19.92 l -89.571,34.725 c -0.047,0.018 -0.094,0.037 -0.141,0.056 -1.617,0.665 -39.585,16.784 -39.585,61.128 v 156.245 c 0,10.555 8.587,19.142 19.142,19.142 h 71.457 c 4.142,0 7.5,-3.358 7.5,-7.5 0,-4.142 -3.358,-7.5 -7.5,-7.5 H 157.909 V 349.301 c 0,-4.142 -3.358,-7.5 -7.5,-7.5 -4.142,0 -7.5,3.358 -7.5,7.5 V 496.999 H 102.59 c -2.283,0 -4.141,-1.858 -4.141,-4.141 V 336.611 c 0,-33.769 28.493,-46.486 30.243,-47.234 l 53.834,-20.87 23.652,47.402 v 0 c 2.263,4.533 6.858,7.27 11.756,7.27 4.801,0 7.349,-2.249 10.738,-4.656 l 6.041,9.094 -22.421,132.468 c -0.013,0.075 -0.024,0.15 -0.035,0.226 -0.542,3.924 0.671,7.957 3.244,10.789 l 23.543,25.9 h -29.995 c -4.142,0 -7.5,3.358 -7.5,7.5 0,4.142 3.358,7.5 7.5,7.5 h 200.365 c 10.555,0 19.142,-8.587 19.142,-19.142 v -70.514 c 0,-4.142 -3.358,-7.5 -7.5,-7.5 -4.142,0 -7.5,3.358 -7.5,7.5 v 70.514 c 0,2.283 -1.858,4.141 -4.141,4.141 H 369.098 V 349.301 c 0,-4.142 -3.358,-7.5 -7.5,-7.5 -4.142,0 -7.5,3.358 -7.5,7.5 v 147.698 h -81.185 l 23.543,-25.9 c 2.572,-2.83 3.785,-6.861 3.244,-10.787 -0.01,-0.076 -0.022,-0.152 -0.035,-0.228 l -22.425,-132.467 6.041,-9.094 c 3.34,2.372 5.913,4.656 10.738,4.656 4.908,0 9.497,-2.747 11.755,-7.269 v -0.001 l 23.65,-47.4 53.876,20.865 c 1.949,0.836 30.252,13.582 30.252,47.238 v 50.73 c 0,4.142 3.358,7.5 7.5,7.5 z m -86.01,-240.551 c -2.453,2.11 -5.416,3.459 -8.661,3.987 v -33.477 c 8.62,1.4 14.5,8.551 14.5,16.737 -10e-4,4.914 -2.129,9.562 -5.839,12.753 z M 177.241,92.953 c 0,-42.983 34.968,-77.952 77.951,-77.952 42.983,0 77.951,34.969 77.951,77.952 v 18.043 c -2.18,-0.663 -4.441,-1.101 -6.762,-1.307 0,-7.237 0.063,-5.841 -23.612,-31.294 -4.354,-4.678 -11.556,-5.658 -17.037,-2.077 -26.13,17.069 -58.005,25.644 -87.415,23.532 -6.448,-0.483 -12.325,3.766 -13.906,10.046 -2.389,0.274 -5.127,0.921 -7.168,1.615 V 92.953 Z m -7.734,48.585 c 0,-8.017 6.647,-14.544 14.5,-16.359 v 33.1 c -8.718,-1.415 -14.5,-8.623 -14.5,-16.741 z m 29.501,22.646 v -46.792 -2.465 c 32.375,1.896 66.318,-7.722 93.739,-25.283 10.858,11.658 16.738,17.773 18.634,20.099 0,5.884 0,47.705 0,54.44 0,30.447 -24.826,55.276 -55.277,55.276 -34.194,0.001 -57.096,-26.525 -57.096,-55.275 z m 57.095,70.277 c 9.833,0 19.476,-2.096 28.052,-5.846 v 14.567 l -28.181,34.785 -28.231,-34.846 v -14.036 c 9.112,3.673 18.85,5.376 28.36,5.376 z m -59.53,28.608 21.293,-8.247 27.241,33.625 c -13.852,9.838 -25.228,17.919 -26.485,18.812 z m 59.401,230.256 -28.746,-31.623 21.709,-128.263 h 14.071 l 21.709,128.263 z m 9.351,-174.886 h -18.703 l -5.718,-8.607 15.07,-10.703 15.07,10.703 z m 28,-11.18 c -0.548,-0.389 -12.233,-8.691 -26.517,-18.834 6.198,-7.651 -1.053,1.299 27.235,-33.617 l 21.331,8.262 z"
         inkscape:connector-curvature="0" />
      <g
         id="g1731" />
      <g
         id="g1733" />
      <g
         id="g1735" />
      <g
         id="g1737" />
      <g
         id="g1739" />
      <g
         id="g1741" />
      <g
         id="g1743" />
      <g
         id="g1745" />
      <g
         id="g1747" />
      <g
         id="g1749" />
      <g
         id="g1751" />
      <g
         id="g1753" />
      <g
         id="g1755" />
      <g
         id="g1757" />
      <g
         id="g1759" />
    </g>
  </g>
</svg>
