<?xml version="1.0" encoding="UTF-8" standalone="no"?>
<svg
   xmlns:dc="http://purl.org/dc/elements/1.1/"
   xmlns:cc="http://creativecommons.org/ns#"
   xmlns:rdf="http://www.w3.org/1999/02/22-rdf-syntax-ns#"
   xmlns:svg="http://www.w3.org/2000/svg"
   xmlns="http://www.w3.org/2000/svg"
   xmlns:sodipodi="http://sodipodi.sourceforge.net/DTD/sodipodi-0.dtd"
   xmlns:inkscape="http://www.inkscape.org/namespaces/inkscape"
   height="397.69333pt"
   viewBox="-73 0 286.37253 397.69385"
   width="286.37253pt"
   version="1.1"
   id="svg32"
   sodipodi:docname="impersonator.svg"
   inkscape:version="0.92.4 5da689c313, 2019-01-14">
  <metadata
     id="metadata38">
    <rdf:RDF>
      <cc:Work
         rdf:about="">
        <dc:format>image/svg+xml</dc:format>
        <dc:type
           rdf:resource="http://purl.org/dc/dcmitype/StillImage" />
        <dc:title></dc:title>
      </cc:Work>
    </rdf:RDF>
  </metadata>
  <defs
     id="defs36" />
  <sodipodi:namedview
     pagecolor="#ffffff"
     bordercolor="#666666"
     borderopacity="1"
     objecttolerance="10"
     gridtolerance="10"
     guidetolerance="10"
     inkscape:pageopacity="0"
     inkscape:pageshadow="2"
     inkscape:window-width="1920"
     inkscape:window-height="999"
     id="namedview34"
     showgrid="false"
     inkscape:zoom="0.69140625"
     inkscape:cx="-40.489014"
     inkscape:cy="212.13695"
     inkscape:window-x="0"
     inkscape:window-y="0"
     inkscape:window-maximized="1"
     inkscape:current-layer="svg32"
     fit-margin-top="0"
     fit-margin-left="0"
     fit-margin-right="0"
     fit-margin-bottom="0" />
  <path
     d="m 63.596602,298.54576 6.17578,-1.11328 c 4.17578,-0.75391 8.05859,-3.25391 11.67969,-5.75391 8.16796,-5.63281 16.37109,-11.68359 24.378898,-17.99218 l 8.99219,-7.08203 -18.476558,78.38671 z m 0,0"
     id="path6"
     inkscape:connector-curvature="0"
     style="fill:#ffffff" />
  <path
     d="m 32.444247,334.99889 c -3.22656,-18.19532 -6.05468,-36.51563 -8.39453,-54.44922 l -1.17187,-8.95703 7.41797,5.15234 c 7.98437,5.54297 16.05468,10.89453 23.99218,15.90234 2.55469,1.60157 5.289075,3.25 8.125005,4.19922 l 4.96094,1.65625 -2.90234,4.35547 c -7.777355,11.67969 -16.183605,23.10547 -24.980475,33.96094 l -5.51563,6.80469 z m 0,0"
     id="path8"
     inkscape:connector-curvature="0"
     style="fill:#ffffff" />
  <path
     style="fill:#b80404;fill-opacity:1;stroke:#000000;stroke-width:7.65000963;stroke-linecap:butt;stroke-linejoin:round;stroke-miterlimit:4;stroke-dasharray:none;stroke-opacity:1"
     d="M -14.990113,70.441639 C -49.011339,58.321221 -40.948758,23.720775 -30.714282,4.093364 c 2.536984,23.868916 2.830621,44.290474 31.8318593,40.6527"
     id="path1407"
     inkscape:connector-curvature="0"
     sodipodi:nodetypes="ccc" />
  <path
     style="fill:#b80404;fill-opacity:1;stroke:#000000;stroke-width:7.65000963;stroke-linecap:butt;stroke-linejoin:round;stroke-miterlimit:4;stroke-dasharray:none;stroke-opacity:1"
     d="m 160.49996,70.172361 c 34.02123,-12.120417 25.95865,-46.720863 15.72417,-66.348273 -2.53698,23.868915 -2.83062,44.290473 -31.83186,40.652699"
     id="path1407-9"
     inkscape:connector-curvature="0"
     sodipodi:nodetypes="ccc" />
  <path
     d="m 140.90519,156.36607 c -0.0352,-0.10547 -0.0664,-0.20312 -0.0937,-0.29687 -0.14844,-0.46485 -0.28125,-0.85938 -0.39453,-1.13672 -1.0625,-2.625 -2.17969,-5.28906 -3.30078,-7.96484 -3.48438,-8.32813 -7.07813,-16.92969 -9.53906,-25.60547 -4.33985,-15.3125 -6.76954,-36.546881 -0.79297,-50.804693 v -0.03125 l 0.10937,-0.25 -0.12109,0.125 c -8.38281,18.382812 -19.11328,33.261723 -31.062498,43.062503 -9.64453,7.92188 -20.35938,14.41406 -31.84375,19.28906 -9.867195,4.1875 -20.093755,7.08594 -30.398445,8.61328 l -9.67578,1.4375 5.89844,-7.80468 c 7.49218,-9.91407 12.44531,-21.58594 14.3164,-33.75782 -6.07422,5.46875 -12.86718,9.50781 -20.0625,13.78906 l -1.46484,0.875 c -0.82813,0.5 -1.65625,0.9961 -2.48438,1.4961 -8.13671,4.91406 -16.4609297,10.52734 -22.2734297,18.26953 -2.83985,3.77344 -4.85938,7.82422 -6.01172,12.04297 l -3.0273403,11.10937 -4.511724,-10.59765 C -24.184655,128.59264 -26.223718,106.65904 -21.575281,86.463727 -17.422937,68.416852 -11.301843,55.764508 -2.8643427,47.791852 8.1122173,37.409039 22.073157,29.580915 37.506747,25.147321 c 10.37891,-2.984375 21.593755,-4.496094 33.332035,-4.496094 9.10938,0 18.46875,0.917969 27.82422,2.734375 21.109378,4.085937 37.515628,11.984375 48.757818,23.464844 17.8789,18.265625 22.94921,43.8125 15.48828,78.109374 -1.96094,9.05469 -4.4961,18.5 -9.71094,26.21875 -2.43359,3.61328 -4.36328,5.81641 -5.55469,7.02735 l -4.72656,4.80468 z m 0,0"
     id="path14"
     inkscape:connector-curvature="0"
     style="fill:#a15d30;fill-opacity:1" />
  <path
     d="m 71.549722,257.28795 c -12.62109,0 -25.164065,-3 -36.265625,-8.67578 -21.24219,-10.8711 -37.7851597,-31.71485 -44.2539097,-55.76563 -1.1718703,0.21094 -2.3398403,0.33203 -3.5195303,0.33203 -3.976562,0 -8.082031,-1.37109 -11.554688,-3.85547 -4.5625,-3.24609 -7.550781,-8.01171 -8.191406,-13.07031 -0.640625,-5.0625 1.066406,-10.42578 4.683594,-14.71094 3.058594,-3.65234 7.148438,-6.09765 11.511719,-6.8789 l 2.855471,-0.51563 1.375,2.5625 c 1.21875,2.26953 2.4062503,4.3086 3.6289003,6.23047 -2.6640603,-8.34765 -0.40625,-18.77343 5.94532,-27.23437 5.80859,-7.72266 14.1288997,-13.33594 22.2617097,-18.25 0.90235,-0.54688 3.95313,-2.3711 3.95313,-2.3711 l 0.29297,-0.17187 c 3.62109,-2.16016 7.36719,-4.39453 10.91406,-6.80469 l 9.61328,-6.52734 -3.55859,11.0625 c -3.60938,11.21875 -9.86328,21.52734 -18.08985,29.80469 13.84766,-0.77735 27.54688,-4.03907 40.738295,-9.64454 11.48046,-4.87109 22.19921,-11.35937 31.86718,-19.28906 7.304688,-6.00391 14.062498,-13.722658 20.089848,-22.937502 l 7.26953,-11.121093 0.0781,13.289062 c 0.0508,9.074223 1.50391,18.707033 4.31641,28.628913 2.48047,8.74218 6.07422,17.3164 9.55078,25.60546 l 0.36719,0.87891 c 0.99609,2.38281 1.98437,4.75781 2.93359,7.11328 0.11719,0.28906 0.26172,0.71485 0.41406,1.21094 0.51563,1.58594 1.40235,4.32812 2.65235,4.56641 0.14453,0.0273 0.27734,0.0391 0.39453,0.0391 0.57422,0 2.81641,-0.4961 7.53906,-6.89844 l 1.6211,-2.19141 2.63672,0.70704 c 10.83203,2.91015 16.36328,11.92578 13.76562,22.43359 -2.28125,9.20312 -11.375,16.13672 -21.15234,16.13672 -1.48047,0 -2.94532,-0.16406 -4.35547,-0.49219 -0.85547,23.85547 -16.1211,47.43359 -38.02344,58.71094 -10.285158,5.29687 -22.148438,8.09375 -34.304688,8.09375 z m 0,0"
     id="path26"
     inkscape:connector-curvature="0"
     style="fill:#efb17c" />
  <path
     d="m 61.414882,327.52046 c -4.390634,-0.19769 -22.811894,1.76381 -27.026749,-1.87484 -9.88281,-8.52227 -5.31311,-19.23046 -15.16076,-28.79998 l 2.149062,-4.68412 7.132356,-16.58018 c 2.12109,-8.28182 -2.845794,-15.47076 -2.732514,-22.95112 l 0.14063,-9.2329 5.85156,4.60042 c 1.19922,0.94573 2.37891,1.82735 3.5,2.61813 11.07422,7.75286 23.621105,11.85102 36.277355,11.85102 12.1914,0 24.0625,-3.82567 34.339838,-11.06024 0.21875,-0.1496 0.38672,-0.28319 0.55859,-0.41677 l 4.67578,-3.61728 1.19532,7.15977 c 0.79297,4.76072 1.95703,9.50005 3.46093,14.07911 l 1.38672,4.22639 -2.82031,2.57005 c -0.0781,0.0695 9.81126,26.98503 9.73314,27.04914 -10.51953,11.86172 -4.62139,18.9758 -15.80889,29.54447 -4.57813,4.31189 -37.148298,-3.71369 -42.249868,-3.71369 -1.19671,10.73345 0.14062,0.005 0,0 z"
     id="path28"
     inkscape:connector-curvature="0"
     style="fill:#efb17c;stroke-width:1.16954553"
     sodipodi:nodetypes="cccccccccscccccccccccc" />
  <path
     d="m 115.74503,247.99889 c 17.79688,-12.25391 29.75391,-31.97266 31.86329,-52.96485 0.20312,0.008 0.40625,0.008 0.60547,0.008 11.32812,0 22.33984,-8.02735 25.11328,-19.22266 2.92968,-11.83203 -2.87891,-22.41797 -14.23829,-26.57813 3.91797,-7.3164 6.07422,-15.51953 7.79297,-23.41796 7.76953,-35.738289 2.35547,-62.496102 -16.55468,-81.812508 C 138.48722,31.920758 121.36222,23.635602 99.428632,19.389508 77.295822,15.108258 55.495037,15.744977 36.377847,21.237165 20.319247,25.854352 5.7801873,34.014508 -5.6612127,44.838727 -14.704183,53.385602 -21.204187,66.702008 -25.544031,85.549665 c -5,21.726565 -2.578124,44.933595 6.566407,65.632815 -4.40625,1.27734 -8.507813,3.96094 -11.691407,7.74219 -4.339843,5.16015 -6.382812,11.66015 -5.601562,17.83203 0.78125,6.17578 4.375,11.96094 9.867188,15.87891 4.375,3.125 9.511718,4.72265 14.468752,4.59765 5.9375003,19.17969 18.0312503,36.17578 33.67578,47.73047 45.605805,40.61143 94.003903,3.03516 94.003903,3.03516 z M -17.680749,87.358258 C -13.712003,70.112165 -7.9659027,58.119977 -0.11825272,50.698102 10.389567,40.756696 23.784097,33.248883 38.608317,28.987165 c 17.89843,-5.140626 38.398435,-5.722657 59.292965,-1.679688 20.292968,3.929688 35.996098,11.445312 46.664068,22.347656 16.86718,17.222656 21.58984,41.578125 14.4414,74.453127 -1.88672,8.67188 -4.29687,17.67969 -9.12109,24.83203 -2.08594,3.08985 -3.84766,5.20313 -5.08594,6.46485 -0.0664,-0.20313 -0.125,-0.37891 -0.17187,-0.51954 -0.1875,-0.58593 -0.35547,-1.08593 -0.4961,-1.43359 -1.07812,-2.66406 -2.19922,-5.34375 -3.32422,-8.03516 -3.4375,-8.22265 -6.99609,-16.72656 -9.38281,-25.14453 -4.22656,-14.92969 -6.61328,-35.601562 -0.64844,-48.863281 0.004,-0.0078 0.008,-0.01172 0.0117,-0.02344 0.91407,-2.027344 0.0117,-4.417969 -2.01953,-5.332031 -2.03125,-0.914063 -4.41797,-0.01172 -5.33203,2.019531 -0.004,0.0078 -0.008,0.01172 -0.0117,0.01953 -8.17578,18.125 -18.63281,32.746091 -30.249998,42.281251 -9.36328,7.68359 -19.75,13.97656 -30.86719,18.69531 -9.589845,4.07031 -19.449215,6.86328 -29.425785,8.34375 7.84375,-10.37891 13.10157,-22.69922 15.08203,-35.5664 0.25782,-1.6875 -0.57812,-3.359379 -2.08203,-4.167973 -1.51172,-0.804688 -3.36328,-0.570313 -4.625,0.582031 -5.6914,5.203122 -12.32422,9.152342 -19.34765,13.332032 -1.33203,0.79297 -2.66407,1.58594 -3.98828,2.38672 -8.4843797,5.13281 -17.18749972,11.02343 -23.3984397,19.28906 -3.16016,4.20312 -5.4062503,8.76953 -6.6679703,13.38672 -8,-18.79297 -10.046875,-39.70313 -5.535156,-59.296876 z M -5.1104327,191.81139 c -0.55079,-2.0625 -2.60938,-3.33594 -4.71485,-2.90235 -3.8945303,0.8125 -8.2304663,-0.21875 -11.8945293,-2.83594 -3.660156,-2.61328 -6.050781,-6.3789 -6.546875,-10.32421 -0.5,-3.94922 0.875,-8.19141 3.773438,-11.63282 2.492187,-2.96484 5.757812,-4.90625 9.152346,-5.51562 1.18359,2.19922 2.4375,4.36328 3.78125,6.48437 0.75781,1.20313 2.0625003,1.87891 3.4101503,1.87891 0.57813,0 1.16016,-0.125 1.71485,-0.38672 1.83984,-0.86328 2.74609,-2.96484 2.11328,-4.89844 -2.32422,-7.10547 -0.29688,-16.13672 5.28905998,-23.5664 5.38672002,-7.17188 13.33983972,-12.51953 21.12890972,-17.23438 1.30859,-0.78906 2.62109,-1.57422 3.9375,-2.35547 3.79687,-2.25781 7.66015,-4.55859 11.40234,-7.09765 -3.40625,10.5625 -9.29297,20.32422 -17.125,28.20703 -1.17578,1.1875 -1.5,2.98047 -0.8125,4.5039 0.6875,1.52344 2.24219,2.46485 3.91797,2.36329 14.27734,-0.85938 28.42187,-4.22657 42.039065,-10.00782 11.83203,-5.01953 22.875,-11.71093 32.83594,-19.88281 7.640618,-6.27734 14.628908,-14.25 20.898438,-23.839845 0.0586,8.589845 1.33984,18.617185 4.47656,29.699225 2.51562,8.88671 6.17187,17.61718 9.70312,26.0625 1.11329,2.66015 2.21875,5.30859 3.28907,7.94531 0.0859,0.21484 0.17968,0.52734 0.29687,0.88672 0.85156,2.64453 2.14453,6.63672 5.73047,7.3125 2.50391,0.47265 5.86328,-0.23828 11.89844,-8.41016 8.70703,2.33984 12.99219,9.24219 10.91797,17.61719 -2.14453,8.66406 -12.02735,14.72265 -20.71485,12.71094 -1.17968,-0.27344 -2.41015,-0.004 -3.36328,0.73046 -0.95703,0.73047 -1.53515,1.85547 -1.57812,3.0586 -0.76953,22.42187 -15.16797,44.6289 -35.82032,55.25781 C 83.807532,256.04576 58.163002,255.8192 37.104407,245.04576 16.850497,234.68639 1.0731573,214.78795 -5.1104327,191.81139 Z m 76.6601547,69.52343 c 12.61719,0 25.11328,-2.83984 36.164058,-8.52734 0.23829,-0.12109 0.46875,-0.25 0.70313,-0.375 -36.659018,10.24736 -42.012628,-0.74204 -78.648443,-2.21094 12.609685,6.84653 29.376735,11.00316 41.781255,11.11328 z"
     id="path30"
     inkscape:connector-curvature="0"
     sodipodi:nodetypes="ccscccccccccccccccccccccccccccccccccccccccccccccccccccccscccccccccccccccccccccccccccc" />
  <g
     id="g864"
     transform="translate(-114.01847,21.885344)">
    <path
       style="fill:#373737;fill-opacity:1;stroke-width:0.75000095"
       d="m 108.15216,126.37297 h 58.57657 v 0 19.52552 c 0,10.78427 -8.74126,19.52553 -19.52552,19.52553 h -19.52553 c -10.78426,0 -19.52552,-8.74126 -19.52552,-19.52553 z"
       id="path22-3"
       inkscape:connector-curvature="0" />
    <path
       style="fill:#373737;fill-opacity:1;stroke-width:0.75000095"
       d="m 192.76276,126.37297 h 58.57658 v 0 19.52552 c 0,10.78427 -8.74126,19.52553 -19.52553,19.52553 h -19.52552 c -10.78426,0 -19.52553,-8.74126 -19.52553,-19.52553 z"
       id="path24"
       inkscape:connector-curvature="0" />
    <path
       style="stroke-width:0.75000095"
       sodipodi:nodetypes="ssssssssscsssscc"
       inkscape:connector-curvature="0"
       id="path46"
       d="m 147.20321,171.93253 h -19.52553 c -14.35802,0 -26.03403,-11.67602 -26.03403,-26.03404 v -19.52552 c 0,-3.59251 2.916,-6.50851 6.50851,-6.50851 h 58.57657 c 3.59251,0 6.50851,2.916 6.50851,6.50851 v 19.52552 c 0,14.35802 -11.67602,26.03404 -26.03403,26.03404 z m -37.4239,-43.52563 v 17.49159 c 0,7.17901 10.71936,18.30516 17.89837,18.30516 h 19.52553 c 7.179,0 17.89837,-11.12615 17.89837,-18.30516 V 128.4069 Z" />
    <path
       style="stroke-width:0.75000095"
       sodipodi:nodetypes="ssssssssscsssscc"
       inkscape:connector-curvature="0"
       id="path48"
       d="m 231.81381,171.93253 h -19.52552 c -14.35802,0 -26.03403,-11.67602 -26.03403,-26.03404 v -19.52552 c 0,-3.59251 2.916,-6.50851 6.5085,-6.50851 h 58.57658 c 3.59925,0 6.50851,2.916 6.50851,6.50851 v 19.52552 c 0,14.35802 -11.67677,26.03404 -26.03404,26.03404 z m -37.4239,-43.52563 v 17.49159 c 0,7.17901 10.71937,18.30516 17.89838,18.30516 h 19.52552 c 7.17901,0 17.89838,-11.12615 17.89838,-18.30516 V 128.4069 Z" />
    <rect
       style="stroke-width:0.75000095"
       id="rect50"
       height="13.017017"
       width="26.034035"
       y="119.86446"
       x="166.72873" />
  </g>
  <path
     inkscape:connector-curvature="0"
     style="fill:#fecb66;stroke-width:0.75000095"
     d="m 172.95511,289.06744 -45.23406,-6.05325 -3.12375,7.22475 c -12.91952,30.04954 -47.752568,43.93881 -77.802118,31.01929 -13.92826,-5.988 -25.02528,-17.09102 -31.01929,-31.01929 l -3.12375,-7.22475 -45.23406,6.05325 c -19.38902,2.57701 -33.88279,19.10253 -33.90904,38.6603 v 69.96609 H 206.86565 v -69.96609 c -0.027,-19.55777 -14.52152,-36.08329 -33.91054,-38.6603 z"
     id="path6-6" />
  <path
     inkscape:connector-curvature="0"
     d="m -59.983198,397.69383 h -13.01702 v -69.70584 c -0.0195,-22.95528 17.14952,-42.41555 39.93605,-45.2468 l 52.00282,-7.02226 c 3.2805,-0.423 5.71426,-3.22201 5.68876,-6.50851 v -21.21153 h 13.01701 v 21.15228 c 0.0847,9.80176 -7.21801,18.19802 -16.99352,19.46702 l -52.04181,7.02901 c -16.34928,2.037 -28.61104,15.92627 -28.59829,32.33404 v 69.71259 z"
     id="path28-2"
     style="stroke-width:0.75000095" />
  <path
     inkscape:connector-curvature="0"
     d="m 213.37265,397.69383 h -13.01702 v -69.70584 c 0.0127,-16.40777 -12.24901,-30.30379 -28.52702,-32.33404 l -52.13932,-7.03576 c -9.74327,-1.269 -17.04602,-9.66526 -16.96127,-19.52552 v -21.09378 h 13.01701 v 21.15228 c -0.0322,3.345 2.40151,6.13726 5.66251,6.56701 l 52.09357,7.02901 c 22.72128,2.83125 39.8903,22.28477 39.8708,45.2468 v 69.69984 z"
     id="path30-1"
     style="stroke-width:0.75000095" />
  <path
     inkscape:connector-curvature="0"
     d="m 70.218472,332.60875 c -0.0262,0 -0.0517,0 -0.0712,0 -26.30704,0 -49.99132,-15.62027 -60.3533297,-39.80555 l -4.16551,-9.69076 11.9625197,-5.13526 4.1655,9.69751 c 8.31151,19.38903 27.30304,31.91779 48.39682,31.91779 0.0195,0 0.039,0 0.0585,0 21.09378,0 40.092058,-12.52876 48.410318,-31.91779 l 4.1655,-9.69751 11.96252,5.13526 -4.16551,9.69751 c -10.36726,24.17853 -34.065038,39.7988 -60.366078,39.7988 z"
     id="path36"
     style="stroke-width:0.75000095" />
</svg>
